
        <svg
        xmlns="http://www.w3.org/2000/svg" 
        viewBox="0 0 1000 1000"
        width="800" stroke="black" stroke-width="4">
        <filter id='shadow' color-interpolation-filters="sRGB">
            <feDropShadow dx="2" dy="2" stdDeviation="2" flood-opacity="0.4"/>
        </filter>
        <filter id='shadow2' color-interpolation-filters="sRGB">
            <feDropShadow dx="0" dy="0" stdDeviation="5.5" flood-opacity="0.8"/>
        </filter>
        <g fill="none" stroke="black" stroke-width="4">
    <circle cx="907" cy="871" r="56" fill="#a55194" stroke="none" fill-opacity="0.8" filter="url(#shadow)" /><circle cx="779" cy="289" r="74" fill="" stroke="none" fill-opacity="0.8" filter="url(#shadow)" /><circle cx="252" cy="202" r="70" fill="" stroke="none" fill-opacity="0.8" filter="url(#shadow)" /><circle cx="71" cy="633" r="84" fill="#8c6d31" stroke="none" fill-opacity="0.8" filter="url(#shadow)" /><circle cx="244" cy="515" r="22" fill="#ce6dbd" stroke="none" fill-opacity="0.8" filter="url(#shadow)" /><circle cx="989" cy="182" r="42" fill="#de9ed6" stroke="none" fill-opacity="0.8" filter="url(#shadow)" /><circle cx="408" cy="864" r="75" fill="#393b79" stroke="none" fill-opacity="0.8" filter="url(#shadow)" /><circle cx="743" cy="643" r="61" fill="#5254a3" stroke="none" fill-opacity="0.8" filter="url(#shadow)" /><circle cx="432" cy="624" r="35" fill="#e7ba52" stroke="none" fill-opacity="0.8" filter="url(#shadow)" /><circle cx="233" cy="663" r="17" fill="#393b79" stroke="none" fill-opacity="0.8" filter="url(#shadow)" /><circle cx="617" cy="893" r="85" fill="#ad494a" stroke="none" fill-opacity="0.8" filter="url(#shadow)" /><circle cx="885" cy="654" r="21" fill="#a55194" stroke="none" fill-opacity="0.8" filter="url(#shadow)" /><circle cx="438" cy="326" r="21" fill="#e7ba52" stroke="none" fill-opacity="0.8" filter="url(#shadow)" /><circle cx="3" cy="210" r="76" fill="" stroke="none" fill-opacity="0.8" filter="url(#shadow)" /><circle cx="361" cy="739" r="15" fill="#8ca252" stroke="none" fill-opacity="0.8" filter="url(#shadow)" /><circle cx="778" cy="943" r="38" fill="#393b79" stroke="none" fill-opacity="0.8" filter="url(#shadow)" /><circle cx="856" cy="948" r="24" fill="#ce6dbd" stroke="none" fill-opacity="0.8" filter="url(#shadow)" /><circle cx="248" cy="951" r="37" fill="#6b6ecf" stroke="none" fill-opacity="0.8" filter="url(#shadow)" /><circle cx="308" cy="995" r="29" fill="#ce6dbd" stroke="none" fill-opacity="0.8" filter="url(#shadow)" /><circle cx="98" cy="51" r="93" fill="#b5cf6b" stroke="none" fill-opacity="0.8" filter="url(#shadow)" /><circle cx="443" cy="249" r="43" fill="#ad494a" stroke="none" fill-opacity="0.8" filter="url(#shadow)" /><circle cx="887" cy="168" r="48" fill="#bd9e39" stroke="none" fill-opacity="0.8" filter="url(#shadow)" /><circle cx="354" cy="390" r="79" fill="#cedb9c" stroke="none" fill-opacity="0.8" filter="url(#shadow)" /><circle cx="545" cy="261" r="40" fill="#7b4173" stroke="none" fill-opacity="0.8" filter="url(#shadow)" /><circle cx="27" cy="923" r="59" fill="#bd9e39" stroke="none" fill-opacity="0.8" filter="url(#shadow)" /><circle cx="790" cy="58" r="51" fill="#9c9ede" stroke="none" fill-opacity="0.8" filter="url(#shadow)" /><circle cx="198" cy="843" r="28" fill="#8ca252" stroke="none" fill-opacity="0.8" filter="url(#shadow)" /><circle cx="71" cy="789" r="59" fill="#de9ed6" stroke="none" fill-opacity="0.8" filter="url(#shadow)" /><circle cx="847" cy="397" r="25" fill="#b5cf6b" stroke="none" fill-opacity="0.8" filter="url(#shadow)" /><circle cx="533" cy="112" r="93" fill="" stroke="none" fill-opacity="0.8" filter="url(#shadow)" /><circle cx="373" cy="522" r="12" fill="#e7ba52" stroke="none" fill-opacity="0.8" filter="url(#shadow)" /><circle cx="538" cy="582" r="76" fill="" stroke="none" fill-opacity="0.8" filter="url(#shadow)" /><circle cx="77" cy="442" r="55" fill="#5254a3" stroke="none" fill-opacity="0.8" filter="url(#shadow)" /><circle cx="136" cy="384" r="15" fill="" stroke="none" fill-opacity="0.8" filter="url(#shadow)" /><circle cx="503" cy="347" r="14" fill="#6b6ecf" stroke="none" fill-opacity="0.8" filter="url(#shadow)" /><circle cx="667" cy="122" r="22" fill="#7b4173" stroke="none" fill-opacity="0.8" filter="url(#shadow)" /><circle cx="248" cy="62" r="8" fill="#ce6dbd" stroke="none" fill-opacity="0.8" filter="url(#shadow)" /><circle cx="187" cy="561" r="38" fill="#ad494a" stroke="none" fill-opacity="0.8" filter="url(#shadow)" /><circle cx="125" cy="323" r="13" fill="#de9ed6" stroke="none" fill-opacity="0.8" filter="url(#shadow)" /><circle cx="296" cy="719" r="41" fill="#843c39" stroke="none" fill-opacity="0.8" filter="url(#shadow)" /><circle cx="87" cy="346" r="11" fill="#e7969c" stroke="none" fill-opacity="0.8" filter="url(#shadow)" /><circle cx="508" cy="912" r="8" fill="#ad494a" stroke="none" fill-opacity="0.8" filter="url(#shadow)" /><circle cx="302" cy="504" r="25" fill="" stroke="none" fill-opacity="0.8" filter="url(#shadow)" /><circle cx="810" cy="429" r="16" fill="" stroke="none" fill-opacity="0.8" filter="url(#shadow)" /><circle cx="930" cy="468" r="24" fill="#e7ba52" stroke="none" fill-opacity="0.8" filter="url(#shadow)" /><circle cx="672" cy="473" r="69" fill="#5254a3" stroke="none" fill-opacity="0.8" filter="url(#shadow)" /><circle cx="349" cy="633" r="21" fill="#393b79" stroke="none" fill-opacity="0.8" filter="url(#shadow)" /><circle cx="705" cy="939" r="12" fill="#843c39" stroke="none" fill-opacity="0.8" filter="url(#shadow)" /><circle cx="959" cy="657" r="18" fill="#9c9ede" stroke="none" fill-opacity="0.8" filter="url(#shadow)" /><circle cx="947" cy="59" r="8" fill="#e7969c" stroke="none" fill-opacity="0.8" filter="url(#shadow)" /><circle cx="179" cy="906" r="35" fill="#8c6d31" stroke="none" fill-opacity="0.8" filter="url(#shadow)" /><circle cx="205" cy="294" r="32" fill="#ad494a" stroke="none" fill-opacity="0.8" filter="url(#shadow)" /><circle cx="96" cy="163" r="19" fill="#6b6ecf" stroke="none" fill-opacity="0.8" filter="url(#shadow)" /><circle cx="953" cy="121" r="10" fill="" stroke="none" fill-opacity="0.8" filter="url(#shadow)" /><circle cx="666" cy="198" r="29" fill="#bd9e39" stroke="none" fill-opacity="0.8" filter="url(#shadow)" /><circle cx="441" cy="690" r="11" fill="#ce6dbd" stroke="none" fill-opacity="0.8" filter="url(#shadow)" /><circle cx="264" cy="39" r="14" fill="#cedb9c" stroke="none" fill-opacity="0.8" filter="url(#shadow)" /><circle cx="105" cy="304" r="14" fill="#ad494a" stroke="none" fill-opacity="0.8" filter="url(#shadow)" /><circle cx="939" cy="561" r="8" fill="#bd9e39" stroke="none" fill-opacity="0.8" filter="url(#shadow)" /><circle cx="140" cy="244" r="21" fill="#bd9e39" stroke="none" fill-opacity="0.8" filter="url(#shadow)" /><circle cx="752" cy="425" r="11" fill="#843c39" stroke="none" fill-opacity="0.8" filter="url(#shadow)" /><circle cx="892" cy="409" r="18" fill="#637939" stroke="none" fill-opacity="0.8" filter="url(#shadow)" /><circle cx="60" cy="352" r="13" fill="#bd9e39" stroke="none" fill-opacity="0.8" filter="url(#shadow)" /><circle cx="563" cy="385" r="52" fill="#8ca252" stroke="none" fill-opacity="0.8" filter="url(#shadow)" /><circle cx="374" cy="30" r="76" fill="#843c39" stroke="none" fill-opacity="0.8" filter="url(#shadow)" /><circle cx="44" cy="514" r="16" fill="#393b79" stroke="none" fill-opacity="0.8" filter="url(#shadow)" /><circle cx="901" cy="997" r="11" fill="#5254a3" stroke="none" fill-opacity="0.8" filter="url(#shadow)" /><circle cx="101" cy="512" r="13" fill="#7b4173" stroke="none" fill-opacity="0.8" filter="url(#shadow)" /><circle cx="374" cy="970" r="30" fill="#5254a3" stroke="none" fill-opacity="0.8" filter="url(#shadow)" /><circle cx="807" cy="672" r="9" fill="#9c9ede" stroke="none" fill-opacity="0.8" filter="url(#shadow)" /><circle cx="191" cy="424" r="38" fill="#cedb9c" stroke="none" fill-opacity="0.8" filter="url(#shadow)" /><circle cx="839" cy="461" r="21" fill="#ce6dbd" stroke="none" fill-opacity="0.8" filter="url(#shadow)" /><circle cx="419" cy="770" r="9" fill="#e7ba52" stroke="none" fill-opacity="0.8" filter="url(#shadow)" /><circle cx="749" cy="771" r="25" fill="#e7ba52" stroke="none" fill-opacity="0.8" filter="url(#shadow)" /><circle cx="267" cy="777" r="13" fill="#ad494a" stroke="none" fill-opacity="0.8" filter="url(#shadow)" /><circle cx="888" cy="13" r="15" fill="#bd9e39" stroke="none" fill-opacity="0.8" filter="url(#shadow)" /><circle cx="945" cy="395" r="32" fill="#e7cb94" stroke="none" fill-opacity="0.8" filter="url(#shadow)" /><circle cx="840" cy="710" r="31" fill="#e7cb94" stroke="none" fill-opacity="0.8" filter="url(#shadow)" /><circle cx="220" cy="94" r="23" fill="#843c39" stroke="none" fill-opacity="0.8" filter="url(#shadow)" /><circle cx="852" cy="609" r="27" fill="#e7ba52" stroke="none" fill-opacity="0.8" filter="url(#shadow)" /><circle cx="660" cy="44" r="36" fill="#843c39" stroke="none" fill-opacity="0.8" filter="url(#shadow)" /><circle cx="273" cy="852" r="9" fill="#d6616b" stroke="none" fill-opacity="0.8" filter="url(#shadow)" /><circle cx="209" cy="783" r="16" fill="#cedb9c" stroke="none" fill-opacity="0.8" filter="url(#shadow)" /><circle cx="621" cy="736" r="57" fill="#ad494a" stroke="none" fill-opacity="0.8" filter="url(#shadow)" /><circle cx="979" cy="740" r="23" fill="#b5cf6b" stroke="none" fill-opacity="0.8" filter="url(#shadow)" /><circle cx="179" cy="739" r="9" fill="#9c9ede" stroke="none" fill-opacity="0.8" filter="url(#shadow)" /><circle cx="98" cy="872" r="15" fill="#8c6d31" stroke="none" fill-opacity="0.8" filter="url(#shadow)" /><circle cx="389" cy="150" r="37" fill="#a55194" stroke="none" fill-opacity="0.8" filter="url(#shadow)" /><circle cx="777" cy="522" r="9" fill="" stroke="none" fill-opacity="0.8" filter="url(#shadow)" /><circle cx="968" cy="611" r="9" fill="" stroke="none" fill-opacity="0.8" filter="url(#shadow)" /><circle cx="291" cy="882" r="24" fill="" stroke="none" fill-opacity="0.8" filter="url(#shadow)" /><circle cx="437" cy="741" r="22" fill="#ce6dbd" stroke="none" fill-opacity="0.8" filter="url(#shadow)" /><circle cx="342" cy="933" r="11" fill="#393b79" stroke="none" fill-opacity="0.8" filter="url(#shadow)" /><circle cx="339" cy="542" r="18" fill="#ce6dbd" stroke="none" fill-opacity="0.8" filter="url(#shadow)" /><circle cx="295" cy="67" r="9" fill="#637939" stroke="none" fill-opacity="0.8" filter="url(#shadow)" /><circle cx="937" cy="2" r="35" fill="#a55194" stroke="none" fill-opacity="0.8" filter="url(#shadow)" /><circle cx="86" cy="997" r="22" fill="#9c9ede" stroke="none" fill-opacity="0.8" filter="url(#shadow)" /><circle cx="448" cy="963" r="31" fill="#6b6ecf" stroke="none" fill-opacity="0.8" filter="url(#shadow)" /><circle cx="924" cy="768" r="33" fill="#bd9e39" stroke="none" fill-opacity="0.8" filter="url(#shadow)" /><circle cx="941" cy="249" r="34" fill="#6b6ecf" stroke="none" fill-opacity="0.8" filter="url(#shadow)" /><circle cx="598" cy="200" r="15" fill="#7b4173" stroke="none" fill-opacity="0.8" filter="url(#shadow)" /><circle cx="293" cy="829" r="10" fill="#a55194" stroke="none" fill-opacity="0.8" filter="url(#shadow)" /><circle cx="986" cy="837" r="13" fill="#7b4173" stroke="none" fill-opacity="0.8" filter="url(#shadow)" /><circle cx="499" cy="815" r="19" fill="#d6616b" stroke="none" fill-opacity="0.8" filter="url(#shadow)" /><circle cx="632" cy="246" r="26" fill="#a55194" stroke="none" fill-opacity="0.8" filter="url(#shadow)" /><circle cx="659" cy="350" r="40" fill="#b5cf6b" stroke="none" fill-opacity="0.8" filter="url(#shadow)" /><circle cx="978" cy="332" r="36" fill="#de9ed6" stroke="none" fill-opacity="0.8" filter="url(#shadow)" /><circle cx="333" cy="258" r="11" fill="#637939" stroke="none" fill-opacity="0.8" filter="url(#shadow)" /><circle cx="965" cy="993" r="46" fill="#6b6ecf" stroke="none" fill-opacity="0.8" filter="url(#shadow)" /><circle cx="224" cy="480" r="14" fill="" stroke="none" fill-opacity="0.8" filter="url(#shadow)" /><circle cx="454" cy="448" r="18" fill="#8c6d31" stroke="none" fill-opacity="0.8" filter="url(#shadow)" /><circle cx="847" cy="539" r="29" fill="#7b4173" stroke="none" fill-opacity="0.8" filter="url(#shadow)" /><circle cx="171" cy="999" r="46" fill="#637939" stroke="none" fill-opacity="0.8" filter="url(#shadow)" /><circle cx="896" cy="320" r="33" fill="#8c6d31" stroke="none" fill-opacity="0.8" filter="url(#shadow)" /><circle cx="258" cy="89" r="8" fill="#ad494a" stroke="none" fill-opacity="0.8" filter="url(#shadow)" /><circle cx="651" cy="999" r="22" fill="#6b6ecf" stroke="none" fill-opacity="0.8" filter="url(#shadow)" /><circle cx="998" cy="648" r="10" fill="" stroke="none" fill-opacity="0.8" filter="url(#shadow)" /><circle cx="988" cy="44" r="13" fill="#b5cf6b" stroke="none" fill-opacity="0.8" filter="url(#shadow)" /><circle cx="770" cy="835" r="39" fill="#bd9e39" stroke="none" fill-opacity="0.8" filter="url(#shadow)" /><circle cx="681" cy="799" r="21" fill="#8ca252" stroke="none" fill-opacity="0.8" filter="url(#shadow)" /><circle cx="794" cy="411" r="8" fill="#e7cb94" stroke="none" fill-opacity="0.8" filter="url(#shadow)" /><circle cx="289" cy="568" r="12" fill="#8c6d31" stroke="none" fill-opacity="0.8" filter="url(#shadow)" /><circle cx="2" cy="847" r="9" fill="#5254a3" stroke="none" fill-opacity="0.8" filter="url(#shadow)" /><circle cx="929" cy="703" r="18" fill="#ce6dbd" stroke="none" fill-opacity="0.8" filter="url(#shadow)" /><circle cx="4" cy="477" r="18" fill="#637939" stroke="none" fill-opacity="0.8" filter="url(#shadow)" /><circle cx="855" cy="11" r="8" fill="#ce6dbd" stroke="none" fill-opacity="0.8" filter="url(#shadow)" /></g></svg>