
        <svg
        xmlns="http://www.w3.org/2000/svg"
        viewBox="0 0 1000 1000"
        width="800" stroke="black" stroke-width="4">
        <filter id='shadow' color-interpolation-filters="sRGB">
            <feDropShadow dx="2" dy="2" stdDeviation="2" flood-opacity="0.4"/>
        </filter>
        <filter id='shadow2' color-interpolation-filters="sRGB">
            <feDropShadow dx="0" dy="0" stdDeviation="5.5" flood-opacity=".8"/>
        </filter>
        <g >
        <rect x="0" y="0" width="100%" height="100%" fill="#ccc"
                stroke-width="8" stroke="none" />
    <circle cx="769" cy="279" r="9" fill="#b5cf6b" stroke="none" fill-opacity="0.8" filter="url(#shadow)" /><circle cx="732" cy="470" r="36" fill="#e7cb94" stroke="none" fill-opacity="0.8" filter="url(#shadow)" /><circle cx="226" cy="44" r="60" fill="#cedb9c" stroke="none" fill-opacity="0.8" filter="url(#shadow)" /><circle cx="416" cy="561" r="54" fill="#ad494a" stroke="none" fill-opacity="0.8" filter="url(#shadow)" /><circle cx="425" cy="654" r="18" fill="#bd9e39" stroke="none" fill-opacity="0.8" filter="url(#shadow)" /><circle cx="185" cy="238" r="9" fill="#de9ed6" stroke="none" fill-opacity="0.8" filter="url(#shadow)" /><circle cx="115" cy="9" r="47" fill="#b5cf6b" stroke="none" fill-opacity="0.8" filter="url(#shadow)" /><circle cx="404" cy="154" r="41" fill="#d6616b" stroke="none" fill-opacity="0.8" filter="url(#shadow)" /><circle cx="659" cy="264" r="64" fill="#bd9e39" stroke="none" fill-opacity="0.8" filter="url(#shadow)" /><circle cx="778" cy="584" r="57" fill="#bd9e39" stroke="none" fill-opacity="0.8" filter="url(#shadow)" /><circle cx="78" cy="277" r="79" fill="#e7cb94" stroke="none" fill-opacity="0.8" filter="url(#shadow)" /><circle cx="920" cy="352" r="66" fill="#9c9ede" stroke="none" fill-opacity="0.8" filter="url(#shadow)" /><circle cx="204" cy="375" r="43" fill="#de9ed6" stroke="none" fill-opacity="0.8" filter="url(#shadow)" /><circle cx="259" cy="883" r="14" fill="#6b6ecf" stroke="none" fill-opacity="0.8" filter="url(#shadow)" /><circle cx="956" cy="643" r="21" fill="" stroke="none" fill-opacity="0.8" filter="url(#shadow)" /><circle cx="818" cy="677" r="12" fill="" stroke="none" fill-opacity="0.8" filter="url(#shadow)" /><circle cx="467" cy="286" r="21" fill="#637939" stroke="none" fill-opacity="0.8" filter="url(#shadow)" /><circle cx="932" cy="549" r="22" fill="#5254a3" stroke="none" fill-opacity="0.8" filter="url(#shadow)" /><circle cx="568" cy="468" r="33" fill="#637939" stroke="none" fill-opacity="0.8" filter="url(#shadow)" /><circle cx="484" cy="829" r="50" fill="#cedb9c" stroke="none" fill-opacity="0.8" filter="url(#shadow)" /><circle cx="174" cy="974" r="68" fill="#8c6d31" stroke="none" fill-opacity="0.8" filter="url(#shadow)" /><circle cx="293" cy="575" r="31" fill="#b5cf6b" stroke="none" fill-opacity="0.8" filter="url(#shadow)" /><circle cx="523" cy="649" r="73" fill="#6b6ecf" stroke="none" fill-opacity="0.8" filter="url(#shadow)" /><circle cx="776" cy="816" r="74" fill="#cedb9c" stroke="none" fill-opacity="0.8" filter="url(#shadow)" /><circle cx="947" cy="872" r="20" fill="#637939" stroke="none" fill-opacity="0.8" filter="url(#shadow)" /><circle cx="139" cy="698" r="43" fill="#bd9e39" stroke="none" fill-opacity="0.8" filter="url(#shadow)" /><circle cx="717" cy="997" r="24" fill="#637939" stroke="none" fill-opacity="0.8" filter="url(#shadow)" /><circle cx="636" cy="435" r="10" fill="#b5cf6b" stroke="none" fill-opacity="0.8" filter="url(#shadow)" /><circle cx="906" cy="40" r="50" fill="#b5cf6b" stroke="none" fill-opacity="0.8" filter="url(#shadow)" /><circle cx="475" cy="964" r="11" fill="#8c6d31" stroke="none" fill-opacity="0.8" filter="url(#shadow)" /><circle cx="739" cy="931" r="30" fill="#7b4173" stroke="none" fill-opacity="0.8" filter="url(#shadow)" /><circle cx="446" cy="45" r="38" fill="#7b4173" stroke="none" fill-opacity="0.8" filter="url(#shadow)" /><circle cx="45" cy="811" r="15" fill="" stroke="none" fill-opacity="0.8" filter="url(#shadow)" /><circle cx="141" cy="521" r="47" fill="" stroke="none" fill-opacity="0.8" filter="url(#shadow)" /><circle cx="153" cy="642" r="11" fill="#393b79" stroke="none" fill-opacity="0.8" filter="url(#shadow)" /><circle cx="691" cy="834" r="10" fill="#ce6dbd" stroke="none" fill-opacity="0.8" filter="url(#shadow)" /><circle cx="358" cy="893" r="10" fill="#d6616b" stroke="none" fill-opacity="0.8" filter="url(#shadow)" /><circle cx="318" cy="207" r="43" fill="#cedb9c" stroke="none" fill-opacity="0.8" filter="url(#shadow)" /><circle cx="843" cy="401" r="12" fill="#e7969c" stroke="none" fill-opacity="0.8" filter="url(#shadow)" /><circle cx="520" cy="354" r="25" fill="#5254a3" stroke="none" fill-opacity="0.8" filter="url(#shadow)" /><circle cx="665" cy="583" r="43" fill="#bd9e39" stroke="none" fill-opacity="0.8" filter="url(#shadow)" /><circle cx="618" cy="122" r="74" fill="#b5cf6b" stroke="none" fill-opacity="0.8" filter="url(#shadow)" /><circle cx="406" cy="867" r="11" fill="#8ca252" stroke="none" fill-opacity="0.8" filter="url(#shadow)" /><circle cx="211" cy="616" r="30" fill="#8ca252" stroke="none" fill-opacity="0.8" filter="url(#shadow)" /><circle cx="27" cy="988" r="20" fill="#8c6d31" stroke="none" fill-opacity="0.8" filter="url(#shadow)" /><circle cx="30" cy="114" r="18" fill="#cedb9c" stroke="none" fill-opacity="0.8" filter="url(#shadow)" /><circle cx="971" cy="487" r="8" fill="#cedb9c" stroke="none" fill-opacity="0.8" filter="url(#shadow)" /><circle cx="38" cy="573" r="58" fill="#b5cf6b" stroke="none" fill-opacity="0.8" filter="url(#shadow)" /><circle cx="979" cy="770" r="71" fill="" stroke="none" fill-opacity="0.8" filter="url(#shadow)" /><circle cx="352" cy="722" r="64" fill="#5254a3" stroke="none" fill-opacity="0.8" filter="url(#shadow)" /><circle cx="44" cy="156" r="16" fill="#ce6dbd" stroke="none" fill-opacity="0.8" filter="url(#shadow)" /><circle cx="314" cy="415" r="63" fill="#8c6d31" stroke="none" fill-opacity="0.8" filter="url(#shadow)" /><circle cx="821" cy="392" r="9" fill="#cedb9c" stroke="none" fill-opacity="0.8" filter="url(#shadow)" /><circle cx="405" cy="298" r="10" fill="#843c39" stroke="none" fill-opacity="0.8" filter="url(#shadow)" /><circle cx="26" cy="425" r="67" fill="#8ca252" stroke="none" fill-opacity="0.8" filter="url(#shadow)" /><circle cx="662" cy="696" r="59" fill="#8c6d31" stroke="none" fill-opacity="0.8" filter="url(#shadow)" /><circle cx="243" cy="188" r="27" fill="#e7ba52" stroke="none" fill-opacity="0.8" filter="url(#shadow)" /><circle cx="760" cy="137" r="65" fill="#637939" stroke="none" fill-opacity="0.8" filter="url(#shadow)" /><circle cx="523" cy="272" r="12" fill="#ad494a" stroke="none" fill-opacity="0.8" filter="url(#shadow)" /><circle cx="318" cy="524" r="23" fill="#e7ba52" stroke="none" fill-opacity="0.8" filter="url(#shadow)" /><circle cx="741" cy="352" r="19" fill="#de9ed6" stroke="none" fill-opacity="0.8" filter="url(#shadow)" /><circle cx="340" cy="992" r="59" fill="#843c39" stroke="none" fill-opacity="0.8" filter="url(#shadow)" /><circle cx="762" cy="677" r="25" fill="#e7cb94" stroke="none" fill-opacity="0.8" filter="url(#shadow)" /><circle cx="872" cy="969" r="8" fill="#e7ba52" stroke="none" fill-opacity="0.8" filter="url(#shadow)" /><circle cx="98" cy="926" r="8" fill="#de9ed6" stroke="none" fill-opacity="0.8" filter="url(#shadow)" /><circle cx="998" cy="419" r="14" fill="" stroke="none" fill-opacity="0.8" filter="url(#shadow)" /><circle cx="580" cy="725" r="21" fill="#e7cb94" stroke="none" fill-opacity="0.8" filter="url(#shadow)" /><circle cx="998" cy="185" r="18" fill="#843c39" stroke="none" fill-opacity="0.8" filter="url(#shadow)" /><circle cx="414" cy="418" r="12" fill="#5254a3" stroke="none" fill-opacity="0.8" filter="url(#shadow)" /><circle cx="298" cy="807" r="25" fill="#ad494a" stroke="none" fill-opacity="0.8" filter="url(#shadow)" /><circle cx="334" cy="86" r="13" fill="#e7cb94" stroke="none" fill-opacity="0.8" filter="url(#shadow)" /><circle cx="806" cy="43" r="21" fill="#ad494a" stroke="none" fill-opacity="0.8" filter="url(#shadow)" /><circle cx="923" cy="487" r="14" fill="#843c39" stroke="none" fill-opacity="0.8" filter="url(#shadow)" /><circle cx="793" cy="403" r="20" fill="#5254a3" stroke="none" fill-opacity="0.8" filter="url(#shadow)" /><circle cx="868" cy="173" r="25" fill="#637939" stroke="none" fill-opacity="0.8" filter="url(#shadow)" /><circle cx="916" cy="600" r="29" fill="#e7cb94" stroke="none" fill-opacity="0.8" filter="url(#shadow)" /><circle cx="231" cy="228" r="10" fill="#e7cb94" stroke="none" fill-opacity="0.8" filter="url(#shadow)" /><circle cx="830" cy="633" r="12" fill="#7b4173" stroke="none" fill-opacity="0.8" filter="url(#shadow)" /><circle cx="130" cy="445" r="24" fill="" stroke="none" fill-opacity="0.8" filter="url(#shadow)" /><circle cx="99" cy="640" r="25" fill="#e7cb94" stroke="none" fill-opacity="0.8" filter="url(#shadow)" /><circle cx="232" cy="500" r="22" fill="#e7cb94" stroke="none" fill-opacity="0.8" filter="url(#shadow)" /><circle cx="981" cy="943" r="25" fill="#cedb9c" stroke="none" fill-opacity="0.8" filter="url(#shadow)" /><circle cx="64" cy="179" r="14" fill="#e7969c" stroke="none" fill-opacity="0.8" filter="url(#shadow)" /><circle cx="902" cy="132" r="27" fill="#b5cf6b" stroke="none" fill-opacity="0.8" filter="url(#shadow)" /><circle cx="291" cy="291" r="16" fill="#de9ed6" stroke="none" fill-opacity="0.8" filter="url(#shadow)" /><circle cx="616" cy="887" r="50" fill="#d6616b" stroke="none" fill-opacity="0.8" filter="url(#shadow)" /><circle cx="893" cy="649" r="9" fill="#e7ba52" stroke="none" fill-opacity="0.8" filter="url(#shadow)" /><circle cx="867" cy="642" r="8" fill="#637939" stroke="none" fill-opacity="0.8" filter="url(#shadow)" /><circle cx="108" cy="117" r="47" fill="#bd9e39" stroke="none" fill-opacity="0.8" filter="url(#shadow)" /><circle cx="534" cy="188" r="29" fill="#8ca252" stroke="none" fill-opacity="0.8" filter="url(#shadow)" /><circle cx="316" cy="907" r="23" fill="#de9ed6" stroke="none" fill-opacity="0.8" filter="url(#shadow)" /><circle cx="705" cy="42" r="8" fill="#e7cb94" stroke="none" fill-opacity="0.8" filter="url(#shadow)" /><circle cx="939" cy="179" r="29" fill="#e7969c" stroke="none" fill-opacity="0.8" filter="url(#shadow)" /><circle cx="184" cy="819" r="37" fill="#5254a3" stroke="none" fill-opacity="0.8" filter="url(#shadow)" /><circle cx="620" cy="624" r="11" fill="#6b6ecf" stroke="none" fill-opacity="0.8" filter="url(#shadow)" /><circle cx="19" cy="694" r="41" fill="#d6616b" stroke="none" fill-opacity="0.8" filter="url(#shadow)" /><circle cx="386" cy="653" r="9" fill="" stroke="none" fill-opacity="0.8" filter="url(#shadow)" /><circle cx="875" cy="926" r="9" fill="#bd9e39" stroke="none" fill-opacity="0.8" filter="url(#shadow)" /><circle cx="842" cy="745" r="11" fill="#ce6dbd" stroke="none" fill-opacity="0.8" filter="url(#shadow)" /><circle cx="833" cy="225" r="12" fill="#7b4173" stroke="none" fill-opacity="0.8" filter="url(#shadow)" /><circle cx="993" cy="562" r="24" fill="#393b79" stroke="none" fill-opacity="0.8" filter="url(#shadow)" /><circle cx="481" cy="480" r="18" fill="#e7969c" stroke="none" fill-opacity="0.8" filter="url(#shadow)" /><circle cx="707" cy="75" r="8" fill="#e7969c" stroke="none" fill-opacity="0.8" filter="url(#shadow)" /><circle cx="914" cy="987" r="22" fill="#cedb9c" stroke="none" fill-opacity="0.8" filter="url(#shadow)" /><circle cx="457" cy="331" r="19" fill="#ad494a" stroke="none" fill-opacity="0.8" filter="url(#shadow)" /><circle cx="625" cy="336" r="11" fill="#7b4173" stroke="none" fill-opacity="0.8" filter="url(#shadow)" /><circle cx="514" cy="97" r="14" fill="#393b79" stroke="none" fill-opacity="0.8" filter="url(#shadow)" /><circle cx="875" cy="700" r="36" fill="#637939" stroke="none" fill-opacity="0.8" filter="url(#shadow)" /><circle cx="580" cy="274" r="12" fill="#e7ba52" stroke="none" fill-opacity="0.8" filter="url(#shadow)" /><circle cx="884" cy="771" r="8" fill="#ad494a" stroke="none" fill-opacity="0.8" filter="url(#shadow)" /><circle cx="303" cy="125" r="34" fill="" stroke="none" fill-opacity="0.8" filter="url(#shadow)" /><circle cx="533" cy="900" r="19" fill="#6b6ecf" stroke="none" fill-opacity="0.8" filter="url(#shadow)" /><circle cx="418" cy="925" r="16" fill="#bd9e39" stroke="none" fill-opacity="0.8" filter="url(#shadow)" /><circle cx="254" cy="341" r="13" fill="#843c39" stroke="none" fill-opacity="0.8" filter="url(#shadow)" /><circle cx="204" cy="297" r="23" fill="#e7cb94" stroke="none" fill-opacity="0.8" filter="url(#shadow)" /><circle cx="904" cy="933" r="13" fill="#cedb9c" stroke="none" fill-opacity="0.8" filter="url(#shadow)" /><circle cx="238" cy="736" r="17" fill="" stroke="none" fill-opacity="0.8" filter="url(#shadow)" /><circle cx="467" cy="221" r="11" fill="#ce6dbd" stroke="none" fill-opacity="0.8" filter="url(#shadow)" /><circle cx="500" cy="400" r="11" fill="#de9ed6" stroke="none" fill-opacity="0.8" filter="url(#shadow)" /><circle cx="141" cy="194" r="18" fill="#d6616b" stroke="none" fill-opacity="0.8" filter="url(#shadow)" /><circle cx="522" cy="14" r="32" fill="#de9ed6" stroke="none" fill-opacity="0.8" filter="url(#shadow)" /><circle cx="569" cy="990" r="24" fill="#a55194" stroke="none" fill-opacity="0.8" filter="url(#shadow)" /><circle cx="625" cy="789" r="40" fill="#9c9ede" stroke="none" fill-opacity="0.8" filter="url(#shadow)" /><circle cx="868" cy="882" r="21" fill="#5254a3" stroke="none" fill-opacity="0.8" filter="url(#shadow)" /><circle cx="192" cy="127" r="8" fill="#e7cb94" stroke="none" fill-opacity="0.8" filter="url(#shadow)" /><circle cx="383" cy="257" r="11" fill="#5254a3" stroke="none" fill-opacity="0.8" filter="url(#shadow)" /><circle cx="665" cy="833" r="14" fill="#8c6d31" stroke="none" fill-opacity="0.8" filter="url(#shadow)" /><circle cx="969" cy="251" r="31" fill="" stroke="none" fill-opacity="0.8" filter="url(#shadow)" /><circle cx="944" cy="683" r="13" fill="#6b6ecf" stroke="none" fill-opacity="0.8" filter="url(#shadow)" /><circle cx="322" cy="847" r="15" fill="" stroke="none" fill-opacity="0.8" filter="url(#shadow)" /><circle cx="654" cy="979" r="20" fill="#b5cf6b" stroke="none" fill-opacity="0.8" filter="url(#shadow)" /><circle cx="361" cy="55" r="22" fill="#de9ed6" stroke="none" fill-opacity="0.8" filter="url(#shadow)" /><circle cx="396" cy="80" r="21" fill="#bd9e39" stroke="none" fill-opacity="0.8" filter="url(#shadow)" /><circle cx="44" cy="767" r="23" fill="#6b6ecf" stroke="none" fill-opacity="0.8" filter="url(#shadow)" /><circle cx="901" cy="461" r="12" fill="" stroke="none" fill-opacity="0.8" filter="url(#shadow)" /><circle cx="497" cy="121" r="9" fill="#e7969c" stroke="none" fill-opacity="0.8" filter="url(#shadow)" /><circle cx="612" cy="545" r="19" fill="#e7ba52" stroke="none" fill-opacity="0.8" filter="url(#shadow)" /><circle cx="15" cy="35" r="19" fill="#a55194" stroke="none" fill-opacity="0.8" filter="url(#shadow)" /><circle cx="784" cy="3" r="24" fill="#9c9ede" stroke="none" fill-opacity="0.8" filter="url(#shadow)" /></g></svg>