
        <svg
        xmlns="http://www.w3.org/2000/svg"
        viewBox="0 0 1000 1000"
        width="800" stroke="black" stroke-width="4">
        <filter id='shadow' color-interpolation-filters="sRGB">
            <feDropShadow dx="2" dy="2" stdDeviation="2" flood-opacity="0.4"/>
        </filter>
        <filter id='shadow2' color-interpolation-filters="sRGB">
            <feDropShadow dx="0" dy="0" stdDeviation="5.5" flood-opacity=".8"/>
        </filter>
        <g >
        <rect x="0" y="0" width="100%" height="100%" fill="#ccc"
                stroke-width="8" stroke="none" />
    <circle cx="22" cy="561" r="77" fill="#5254a3" stroke="none" fill-opacity="0.8" filter="url(#shadow)" /><circle cx="129" cy="780" r="27" fill="#b5cf6b" stroke="none" fill-opacity="0.8" filter="url(#shadow)" /><circle cx="285" cy="341" r="25" fill="#6b6ecf" stroke="none" fill-opacity="0.8" filter="url(#shadow)" /><circle cx="149" cy="31" r="20" fill="#a55194" stroke="none" fill-opacity="0.8" filter="url(#shadow)" /><circle cx="875" cy="473" r="74" fill="" stroke="none" fill-opacity="0.8" filter="url(#shadow)" /><circle cx="361" cy="766" r="75" fill="#ad494a" stroke="none" fill-opacity="0.8" filter="url(#shadow)" /><circle cx="21" cy="803" r="54" fill="#a55194" stroke="none" fill-opacity="0.8" filter="url(#shadow)" /><circle cx="222" cy="994" r="16" fill="#ce6dbd" stroke="none" fill-opacity="0.8" filter="url(#shadow)" /><circle cx="541" cy="895" r="38" fill="#cedb9c" stroke="none" fill-opacity="0.8" filter="url(#shadow)" /><circle cx="395" cy="595" r="76" fill="#6b6ecf" stroke="none" fill-opacity="0.8" filter="url(#shadow)" /><circle cx="695" cy="844" r="84" fill="#843c39" stroke="none" fill-opacity="0.8" filter="url(#shadow)" /><circle cx="795" cy="915" r="28" fill="#e7ba52" stroke="none" fill-opacity="0.8" filter="url(#shadow)" /><circle cx="753" cy="688" r="8" fill="" stroke="none" fill-opacity="0.8" filter="url(#shadow)" /><circle cx="570" cy="57" r="71" fill="#d6616b" stroke="none" fill-opacity="0.8" filter="url(#shadow)" /><circle cx="860" cy="105" r="12" fill="#e7cb94" stroke="none" fill-opacity="0.8" filter="url(#shadow)" /><circle cx="270" cy="491" r="63" fill="#e7ba52" stroke="none" fill-opacity="0.8" filter="url(#shadow)" /><circle cx="6" cy="33" r="88" fill="#5254a3" stroke="none" fill-opacity="0.8" filter="url(#shadow)" /><circle cx="887" cy="973" r="17" fill="#e7cb94" stroke="none" fill-opacity="0.8" filter="url(#shadow)" /><circle cx="330" cy="126" r="23" fill="#9c9ede" stroke="none" fill-opacity="0.8" filter="url(#shadow)" /><circle cx="406" cy="30" r="84" fill="#cedb9c" stroke="none" fill-opacity="0.8" filter="url(#shadow)" /><circle cx="149" cy="415" r="12" fill="#bd9e39" stroke="none" fill-opacity="0.8" filter="url(#shadow)" /><circle cx="94" cy="342" r="31" fill="#a55194" stroke="none" fill-opacity="0.8" filter="url(#shadow)" /><circle cx="239" cy="690" r="26" fill="#a55194" stroke="none" fill-opacity="0.8" filter="url(#shadow)" /><circle cx="435" cy="999" r="89" fill="#8ca252" stroke="none" fill-opacity="0.8" filter="url(#shadow)" /><circle cx="960" cy="825" r="69" fill="#8c6d31" stroke="none" fill-opacity="0.8" filter="url(#shadow)" /><circle cx="565" cy="475" r="27" fill="#e7cb94" stroke="none" fill-opacity="0.8" filter="url(#shadow)" /><circle cx="885" cy="919" r="21" fill="#e7ba52" stroke="none" fill-opacity="0.8" filter="url(#shadow)" /><circle cx="98" cy="173" r="53" fill="#a55194" stroke="none" fill-opacity="0.8" filter="url(#shadow)" /><circle cx="514" cy="277" r="74" fill="#5254a3" stroke="none" fill-opacity="0.8" filter="url(#shadow)" /><circle cx="190" cy="449" r="18" fill="#843c39" stroke="none" fill-opacity="0.8" filter="url(#shadow)" /><circle cx="149" cy="391" r="10" fill="#393b79" stroke="none" fill-opacity="0.8" filter="url(#shadow)" /><circle cx="184" cy="949" r="36" fill="#6b6ecf" stroke="none" fill-opacity="0.8" filter="url(#shadow)" /><circle cx="103" cy="463" r="38" fill="#8c6d31" stroke="none" fill-opacity="0.8" filter="url(#shadow)" /><circle cx="670" cy="588" r="8" fill="#637939" stroke="none" fill-opacity="0.8" filter="url(#shadow)" /><circle cx="980" cy="491" r="24" fill="#e7ba52" stroke="none" fill-opacity="0.8" filter="url(#shadow)" /><circle cx="225" cy="209" r="22" fill="#de9ed6" stroke="none" fill-opacity="0.8" filter="url(#shadow)" /><circle cx="541" cy="407" r="34" fill="#5254a3" stroke="none" fill-opacity="0.8" filter="url(#shadow)" /><circle cx="831" cy="568" r="8" fill="#393b79" stroke="none" fill-opacity="0.8" filter="url(#shadow)" /><circle cx="518" cy="616" r="16" fill="#de9ed6" stroke="none" fill-opacity="0.8" filter="url(#shadow)" /><circle cx="627" cy="513" r="41" fill="#7b4173" stroke="none" fill-opacity="0.8" filter="url(#shadow)" /><circle cx="119" cy="690" r="27" fill="#6b6ecf" stroke="none" fill-opacity="0.8" filter="url(#shadow)" /><circle cx="566" cy="715" r="29" fill="#8ca252" stroke="none" fill-opacity="0.8" filter="url(#shadow)" /><circle cx="602" cy="988" r="66" fill="#e7969c" stroke="none" fill-opacity="0.8" filter="url(#shadow)" /><circle cx="704" cy="297" r="20" fill="" stroke="none" fill-opacity="0.8" filter="url(#shadow)" /><circle cx="975" cy="688" r="48" fill="" stroke="none" fill-opacity="0.8" filter="url(#shadow)" /><circle cx="40" cy="713" r="10" fill="" stroke="none" fill-opacity="0.8" filter="url(#shadow)" /><circle cx="866" cy="712" r="54" fill="#de9ed6" stroke="none" fill-opacity="0.8" filter="url(#shadow)" /><circle cx="621" cy="299" r="35" fill="#de9ed6" stroke="none" fill-opacity="0.8" filter="url(#shadow)" /><circle cx="457" cy="703" r="15" fill="#ce6dbd" stroke="none" fill-opacity="0.8" filter="url(#shadow)" /><circle cx="458" cy="399" r="34" fill="#5254a3" stroke="none" fill-opacity="0.8" filter="url(#shadow)" /><circle cx="775" cy="624" r="56" fill="#6b6ecf" stroke="none" fill-opacity="0.8" filter="url(#shadow)" /><circle cx="376" cy="894" r="26" fill="#393b79" stroke="none" fill-opacity="0.8" filter="url(#shadow)" /><circle cx="55" cy="973" r="15" fill="#d6616b" stroke="none" fill-opacity="0.8" filter="url(#shadow)" /><circle cx="705" cy="182" r="41" fill="" stroke="none" fill-opacity="0.8" filter="url(#shadow)" /><circle cx="809" cy="24" r="22" fill="#637939" stroke="none" fill-opacity="0.8" filter="url(#shadow)" /><circle cx="948" cy="210" r="84" fill="#393b79" stroke="none" fill-opacity="0.8" filter="url(#shadow)" /><circle cx="782" cy="190" r="32" fill="#bd9e39" stroke="none" fill-opacity="0.8" filter="url(#shadow)" /><circle cx="965" cy="12" r="49" fill="#5254a3" stroke="none" fill-opacity="0.8" filter="url(#shadow)" /><circle cx="306" cy="251" r="21" fill="#cedb9c" stroke="none" fill-opacity="0.8" filter="url(#shadow)" /><circle cx="744" cy="50" r="23" fill="#e7cb94" stroke="none" fill-opacity="0.8" filter="url(#shadow)" /><circle cx="368" cy="498" r="19" fill="#8ca252" stroke="none" fill-opacity="0.8" filter="url(#shadow)" /><circle cx="874" cy="336" r="56" fill="" stroke="none" fill-opacity="0.8" filter="url(#shadow)" /><circle cx="339" cy="407" r="28" fill="#de9ed6" stroke="none" fill-opacity="0.8" filter="url(#shadow)" /><circle cx="438" cy="161" r="28" fill="#bd9e39" stroke="none" fill-opacity="0.8" filter="url(#shadow)" /><circle cx="54" cy="912" r="21" fill="#6b6ecf" stroke="none" fill-opacity="0.8" filter="url(#shadow)" /><circle cx="726" cy="441" r="43" fill="#e7cb94" stroke="none" fill-opacity="0.8" filter="url(#shadow)" /><circle cx="285" cy="67" r="19" fill="#843c39" stroke="none" fill-opacity="0.8" filter="url(#shadow)" /><circle cx="167" cy="273" r="17" fill="#ce6dbd" stroke="none" fill-opacity="0.8" filter="url(#shadow)" /><circle cx="16" cy="290" r="43" fill="#843c39" stroke="none" fill-opacity="0.8" filter="url(#shadow)" /><circle cx="244" cy="760" r="38" fill="#ad494a" stroke="none" fill-opacity="0.8" filter="url(#shadow)" /><circle cx="121" cy="918" r="23" fill="#8c6d31" stroke="none" fill-opacity="0.8" filter="url(#shadow)" /><circle cx="13" cy="410" r="23" fill="#e7ba52" stroke="none" fill-opacity="0.8" filter="url(#shadow)" /><circle cx="185" cy="508" r="22" fill="#b5cf6b" stroke="none" fill-opacity="0.8" filter="url(#shadow)" /><circle cx="831" cy="844" r="16" fill="#b5cf6b" stroke="none" fill-opacity="0.8" filter="url(#shadow)" /><circle cx="648" cy="388" r="40" fill="#6b6ecf" stroke="none" fill-opacity="0.8" filter="url(#shadow)" /><circle cx="658" cy="671" r="68" fill="#637939" stroke="none" fill-opacity="0.8" filter="url(#shadow)" /><circle cx="1" cy="970" r="13" fill="#bd9e39" stroke="none" fill-opacity="0.8" filter="url(#shadow)" /><circle cx="615" cy="193" r="25" fill="#e7ba52" stroke="none" fill-opacity="0.8" filter="url(#shadow)" /><circle cx="343" cy="230" r="20" fill="#d6616b" stroke="none" fill-opacity="0.8" filter="url(#shadow)" /><circle cx="487" cy="677" r="21" fill="#6b6ecf" stroke="none" fill-opacity="0.8" filter="url(#shadow)" /><circle cx="940" cy="581" r="23" fill="" stroke="none" fill-opacity="0.8" filter="url(#shadow)" /><circle cx="479" cy="851" r="28" fill="#5254a3" stroke="none" fill-opacity="0.8" filter="url(#shadow)" /><circle cx="247" cy="651" r="10" fill="#cedb9c" stroke="none" fill-opacity="0.8" filter="url(#shadow)" /><circle cx="764" cy="336" r="48" fill="#ce6dbd" stroke="none" fill-opacity="0.8" filter="url(#shadow)" /><circle cx="951" cy="398" r="18" fill="#b5cf6b" stroke="none" fill-opacity="0.8" filter="url(#shadow)" /><circle cx="284" cy="894" r="39" fill="#9c9ede" stroke="none" fill-opacity="0.8" filter="url(#shadow)" /><circle cx="159" cy="844" r="38" fill="#637939" stroke="none" fill-opacity="0.8" filter="url(#shadow)" /><circle cx="670" cy="329" r="9" fill="#393b79" stroke="none" fill-opacity="0.8" filter="url(#shadow)" /><circle cx="126" cy="626" r="17" fill="#b5cf6b" stroke="none" fill-opacity="0.8" filter="url(#shadow)" /><circle cx="402" cy="325" r="20" fill="#843c39" stroke="none" fill-opacity="0.8" filter="url(#shadow)" /><circle cx="234" cy="31" r="37" fill="#ad494a" stroke="none" fill-opacity="0.8" filter="url(#shadow)" /><circle cx="230" cy="113" r="11" fill="#7b4173" stroke="none" fill-opacity="0.8" filter="url(#shadow)" /><circle cx="947" cy="995" r="12" fill="#b5cf6b" stroke="none" fill-opacity="0.8" filter="url(#shadow)" /><circle cx="54" cy="415" r="16" fill="#cedb9c" stroke="none" fill-opacity="0.8" filter="url(#shadow)" /><circle cx="140" cy="87" r="27" fill="#bd9e39" stroke="none" fill-opacity="0.8" filter="url(#shadow)" /><circle cx="685" cy="230" r="8" fill="#9c9ede" stroke="none" fill-opacity="0.8" filter="url(#shadow)" /><circle cx="518" cy="518" r="20" fill="#e7ba52" stroke="none" fill-opacity="0.8" filter="url(#shadow)" /><circle cx="14" cy="668" r="26" fill="" stroke="none" fill-opacity="0.8" filter="url(#shadow)" /><circle cx="973" cy="329" r="25" fill="" stroke="none" fill-opacity="0.8" filter="url(#shadow)" /><circle cx="186" cy="218" r="10" fill="#cedb9c" stroke="none" fill-opacity="0.8" filter="url(#shadow)" /><circle cx="302" cy="953" r="17" fill="#e7ba52" stroke="none" fill-opacity="0.8" filter="url(#shadow)" /><circle cx="567" cy="578" r="34" fill="#637939" stroke="none" fill-opacity="0.8" filter="url(#shadow)" /><circle cx="443" cy="487" r="41" fill="#ad494a" stroke="none" fill-opacity="0.8" filter="url(#shadow)" /><circle cx="196" cy="689" r="16" fill="#8c6d31" stroke="none" fill-opacity="0.8" filter="url(#shadow)" /><circle cx="574" cy="649" r="10" fill="" stroke="none" fill-opacity="0.8" filter="url(#shadow)" /><circle cx="959" cy="935" r="18" fill="#637939" stroke="none" fill-opacity="0.8" filter="url(#shadow)" /><circle cx="869" cy="594" r="29" fill="#843c39" stroke="none" fill-opacity="0.8" filter="url(#shadow)" /><circle cx="177" cy="586" r="9" fill="#637939" stroke="none" fill-opacity="0.8" filter="url(#shadow)" /><circle cx="92" cy="891" r="10" fill="#de9ed6" stroke="none" fill-opacity="0.8" filter="url(#shadow)" /><circle cx="650" cy="252" r="12" fill="#6b6ecf" stroke="none" fill-opacity="0.8" filter="url(#shadow)" /><circle cx="781" cy="761" r="20" fill="#9c9ede" stroke="none" fill-opacity="0.8" filter="url(#shadow)" /><circle cx="709" cy="558" r="24" fill="#e7969c" stroke="none" fill-opacity="0.8" filter="url(#shadow)" /><circle cx="783" cy="968" r="16" fill="#a55194" stroke="none" fill-opacity="0.8" filter="url(#shadow)" /><circle cx="557" cy="185" r="8" fill="#de9ed6" stroke="none" fill-opacity="0.8" filter="url(#shadow)" /><circle cx="283" cy="634" r="26" fill="#a55194" stroke="none" fill-opacity="0.8" filter="url(#shadow)" /><circle cx="833" cy="140" r="12" fill="#7b4173" stroke="none" fill-opacity="0.8" filter="url(#shadow)" /><circle cx="5" cy="934" r="12" fill="#393b79" stroke="none" fill-opacity="0.8" filter="url(#shadow)" /><circle cx="374" cy="184" r="15" fill="#de9ed6" stroke="none" fill-opacity="0.8" filter="url(#shadow)" /><circle cx="555" cy="808" r="37" fill="#e7ba52" stroke="none" fill-opacity="0.8" filter="url(#shadow)" /><circle cx="797" cy="538" r="17" fill="#de9ed6" stroke="none" fill-opacity="0.8" filter="url(#shadow)" /><circle cx="691" cy="66" r="15" fill="#e7969c" stroke="none" fill-opacity="0.8" filter="url(#shadow)" /><circle cx="938" cy="80" r="17" fill="#8c6d31" stroke="none" fill-opacity="0.8" filter="url(#shadow)" /><circle cx="242" cy="948" r="12" fill="" stroke="none" fill-opacity="0.8" filter="url(#shadow)" /><circle cx="218" cy="590" r="11" fill="#ad494a" stroke="none" fill-opacity="0.8" filter="url(#shadow)" /><circle cx="569" cy="162" r="12" fill="#b5cf6b" stroke="none" fill-opacity="0.8" filter="url(#shadow)" /><circle cx="278" cy="588" r="13" fill="#8c6d31" stroke="none" fill-opacity="0.8" filter="url(#shadow)" /><circle cx="887" cy="113" r="11" fill="#d6616b" stroke="none" fill-opacity="0.8" filter="url(#shadow)" /><circle cx="910" cy="666" r="8" fill="#843c39" stroke="none" fill-opacity="0.8" filter="url(#shadow)" /><circle cx="774" cy="111" r="31" fill="#843c39" stroke="none" fill-opacity="0.8" filter="url(#shadow)" /></g></svg>