
        <svg
        xmlns="http://www.w3.org/2000/svg"
        viewBox="0 0 1000 1000"
        width="800" stroke="black" stroke-width="4">
        <filter id='shadow' color-interpolation-filters="sRGB">
            <feDropShadow dx="2" dy="2" stdDeviation="2" flood-opacity="0.4"/>
        </filter>
        <filter id='shadow2' color-interpolation-filters="sRGB">
            <feDropShadow dx="0" dy="0" stdDeviation="5.5" flood-opacity=".8"/>
        </filter>
        <g >
        <rect x="0" y="0" width="100%" height="100%" fill="#ccc"
                stroke-width="8" stroke="none" />
    <circle cx="259" cy="52" r="41" fill="#8ca252" stroke="none" fill-opacity="0.8" filter="url(#shadow)" /><circle cx="545" cy="573" r="56" fill="#e7969c" stroke="none" fill-opacity="0.8" filter="url(#shadow)" /><circle cx="425" cy="742" r="71" fill="#6b6ecf" stroke="none" fill-opacity="0.8" filter="url(#shadow)" /><circle cx="319" cy="471" r="84" fill="#a55194" stroke="none" fill-opacity="0.8" filter="url(#shadow)" /><circle cx="295" cy="165" r="40" fill="#393b79" stroke="none" fill-opacity="0.8" filter="url(#shadow)" /><circle cx="743" cy="346" r="86" fill="#e7ba52" stroke="none" fill-opacity="0.8" filter="url(#shadow)" /><circle cx="59" cy="96" r="77" fill="#7b4173" stroke="none" fill-opacity="0.8" filter="url(#shadow)" /><circle cx="732" cy="552" r="41" fill="#a55194" stroke="none" fill-opacity="0.8" filter="url(#shadow)" /><circle cx="603" cy="505" r="10" fill="#8ca252" stroke="none" fill-opacity="0.8" filter="url(#shadow)" /><circle cx="128" cy="872" r="33" fill="#5254a3" stroke="none" fill-opacity="0.8" filter="url(#shadow)" /><circle cx="683" cy="842" r="48" fill="#b5cf6b" stroke="none" fill-opacity="0.8" filter="url(#shadow)" /><circle cx="399" cy="329" r="49" fill="#637939" stroke="none" fill-opacity="0.8" filter="url(#shadow)" /><circle cx="225" cy="368" r="52" fill="#ce6dbd" stroke="none" fill-opacity="0.8" filter="url(#shadow)" /><circle cx="58" cy="597" r="16" fill="" stroke="none" fill-opacity="0.8" filter="url(#shadow)" /><circle cx="838" cy="820" r="21" fill="#5254a3" stroke="none" fill-opacity="0.8" filter="url(#shadow)" /><circle cx="508" cy="963" r="73" fill="#bd9e39" stroke="none" fill-opacity="0.8" filter="url(#shadow)" /><circle cx="755" cy="137" r="74" fill="#b5cf6b" stroke="none" fill-opacity="0.8" filter="url(#shadow)" /><circle cx="766" cy="733" r="39" fill="#cedb9c" stroke="none" fill-opacity="0.8" filter="url(#shadow)" /><circle cx="584" cy="419" r="15" fill="#5254a3" stroke="none" fill-opacity="0.8" filter="url(#shadow)" /><circle cx="545" cy="47" r="69" fill="#843c39" stroke="none" fill-opacity="0.8" filter="url(#shadow)" /><circle cx="955" cy="200" r="74" fill="#ce6dbd" stroke="none" fill-opacity="0.8" filter="url(#shadow)" /><circle cx="643" cy="996" r="26" fill="#393b79" stroke="none" fill-opacity="0.8" filter="url(#shadow)" /><circle cx="857" cy="219" r="9" fill="" stroke="none" fill-opacity="0.8" filter="url(#shadow)" /><circle cx="63" cy="475" r="54" fill="#e7ba52" stroke="none" fill-opacity="0.8" filter="url(#shadow)" /><circle cx="500" cy="118" r="12" fill="#6b6ecf" stroke="none" fill-opacity="0.8" filter="url(#shadow)" /><circle cx="100" cy="663" r="30" fill="#637939" stroke="none" fill-opacity="0.8" filter="url(#shadow)" /><circle cx="51" cy="740" r="39" fill="#bd9e39" stroke="none" fill-opacity="0.8" filter="url(#shadow)" /><circle cx="164" cy="135" r="33" fill="#d6616b" stroke="none" fill-opacity="0.8" filter="url(#shadow)" /><circle cx="408" cy="79" r="52" fill="#cedb9c" stroke="none" fill-opacity="0.8" filter="url(#shadow)" /><circle cx="355" cy="173" r="19" fill="#bd9e39" stroke="none" fill-opacity="0.8" filter="url(#shadow)" /><circle cx="254" cy="828" r="11" fill="#7b4173" stroke="none" fill-opacity="0.8" filter="url(#shadow)" /><circle cx="603" cy="179" r="33" fill="#843c39" stroke="none" fill-opacity="0.8" filter="url(#shadow)" /><circle cx="123" cy="584" r="43" fill="#393b79" stroke="none" fill-opacity="0.8" filter="url(#shadow)" /><circle cx="979" cy="503" r="50" fill="#ce6dbd" stroke="none" fill-opacity="0.8" filter="url(#shadow)" /><circle cx="356" cy="841" r="43" fill="#9c9ede" stroke="none" fill-opacity="0.8" filter="url(#shadow)" /><circle cx="313" cy="270" r="37" fill="#b5cf6b" stroke="none" fill-opacity="0.8" filter="url(#shadow)" /><circle cx="378" cy="390" r="12" fill="#5254a3" stroke="none" fill-opacity="0.8" filter="url(#shadow)" /><circle cx="790" cy="502" r="30" fill="#bd9e39" stroke="none" fill-opacity="0.8" filter="url(#shadow)" /><circle cx="904" cy="944" r="56" fill="" stroke="none" fill-opacity="0.8" filter="url(#shadow)" /><circle cx="460" cy="196" r="40" fill="#d6616b" stroke="none" fill-opacity="0.8" filter="url(#shadow)" /><circle cx="363" cy="569" r="21" fill="#8c6d31" stroke="none" fill-opacity="0.8" filter="url(#shadow)" /><circle cx="974" cy="731" r="92" fill="#5254a3" stroke="none" fill-opacity="0.8" filter="url(#shadow)" /><circle cx="998" cy="11" r="13" fill="#ad494a" stroke="none" fill-opacity="0.8" filter="url(#shadow)" /><circle cx="384" cy="658" r="20" fill="" stroke="none" fill-opacity="0.8" filter="url(#shadow)" /><circle cx="100" cy="8" r="9" fill="#637939" stroke="none" fill-opacity="0.8" filter="url(#shadow)" /><circle cx="62" cy="980" r="56" fill="#e7969c" stroke="none" fill-opacity="0.8" filter="url(#shadow)" /><circle cx="774" cy="646" r="28" fill="#6b6ecf" stroke="none" fill-opacity="0.8" filter="url(#shadow)" /><circle cx="988" cy="406" r="12" fill="#393b79" stroke="none" fill-opacity="0.8" filter="url(#shadow)" /><circle cx="937" cy="93" r="30" fill="" stroke="none" fill-opacity="0.8" filter="url(#shadow)" /><circle cx="293" cy="656" r="11" fill="#cedb9c" stroke="none" fill-opacity="0.8" filter="url(#shadow)" /><circle cx="147" cy="470" r="22" fill="#843c39" stroke="none" fill-opacity="0.8" filter="url(#shadow)" /><circle cx="548" cy="810" r="54" fill="#ad494a" stroke="none" fill-opacity="0.8" filter="url(#shadow)" /><circle cx="428" cy="623" r="22" fill="#ad494a" stroke="none" fill-opacity="0.8" filter="url(#shadow)" /><circle cx="953" cy="345" r="15" fill="#8c6d31" stroke="none" fill-opacity="0.8" filter="url(#shadow)" /><circle cx="4" cy="399" r="10" fill="" stroke="none" fill-opacity="0.8" filter="url(#shadow)" /><circle cx="584" cy="684" r="39" fill="" stroke="none" fill-opacity="0.8" filter="url(#shadow)" /><circle cx="476" cy="431" r="22" fill="#637939" stroke="none" fill-opacity="0.8" filter="url(#shadow)" /><circle cx="294" cy="988" r="63" fill="#5254a3" stroke="none" fill-opacity="0.8" filter="url(#shadow)" /><circle cx="634" cy="447" r="29" fill="#ad494a" stroke="none" fill-opacity="0.8" filter="url(#shadow)" /><circle cx="195" cy="722" r="45" fill="#637939" stroke="none" fill-opacity="0.8" filter="url(#shadow)" /><circle cx="810" cy="967" r="29" fill="#393b79" stroke="none" fill-opacity="0.8" filter="url(#shadow)" /><circle cx="874" cy="402" r="33" fill="#5254a3" stroke="none" fill-opacity="0.8" filter="url(#shadow)" /><circle cx="881" cy="575" r="16" fill="#ad494a" stroke="none" fill-opacity="0.8" filter="url(#shadow)" /><circle cx="144" cy="796" r="22" fill="#6b6ecf" stroke="none" fill-opacity="0.8" filter="url(#shadow)" /><circle cx="655" cy="161" r="20" fill="#8ca252" stroke="none" fill-opacity="0.8" filter="url(#shadow)" /><circle cx="149" cy="946" r="32" fill="#e7cb94" stroke="none" fill-opacity="0.8" filter="url(#shadow)" /><circle cx="477" cy="291" r="8" fill="#e7ba52" stroke="none" fill-opacity="0.8" filter="url(#shadow)" /><circle cx="103" cy="314" r="50" fill="#e7ba52" stroke="none" fill-opacity="0.8" filter="url(#shadow)" /><circle cx="887" cy="111" r="8" fill="#7b4173" stroke="none" fill-opacity="0.8" filter="url(#shadow)" /><circle cx="926" cy="305" r="27" fill="#e7ba52" stroke="none" fill-opacity="0.8" filter="url(#shadow)" /><circle cx="415" cy="587" r="15" fill="#5254a3" stroke="none" fill-opacity="0.8" filter="url(#shadow)" /><circle cx="469" cy="368" r="15" fill="#cedb9c" stroke="none" fill-opacity="0.8" filter="url(#shadow)" /><circle cx="892" cy="835" r="24" fill="" stroke="none" fill-opacity="0.8" filter="url(#shadow)" /><circle cx="292" cy="759" r="15" fill="#d6616b" stroke="none" fill-opacity="0.8" filter="url(#shadow)" /><circle cx="58" cy="633" r="9" fill="#843c39" stroke="none" fill-opacity="0.8" filter="url(#shadow)" /><circle cx="882" cy="488" r="28" fill="#9c9ede" stroke="none" fill-opacity="0.8" filter="url(#shadow)" /><circle cx="796" cy="40" r="10" fill="#de9ed6" stroke="none" fill-opacity="0.8" filter="url(#shadow)" /><circle cx="655" cy="496" r="17" fill="#5254a3" stroke="none" fill-opacity="0.8" filter="url(#shadow)" /><circle cx="624" cy="613" r="16" fill="#637939" stroke="none" fill-opacity="0.8" filter="url(#shadow)" /><circle cx="855" cy="757" r="23" fill="#393b79" stroke="none" fill-opacity="0.8" filter="url(#shadow)" /><circle cx="222" cy="854" r="30" fill="#e7cb94" stroke="none" fill-opacity="0.8" filter="url(#shadow)" /><circle cx="165" cy="59" r="19" fill="#e7cb94" stroke="none" fill-opacity="0.8" filter="url(#shadow)" /><circle cx="575" cy="259" r="27" fill="#843c39" stroke="none" fill-opacity="0.8" filter="url(#shadow)" /><circle cx="851" cy="139" r="13" fill="#843c39" stroke="none" fill-opacity="0.8" filter="url(#shadow)" /><circle cx="698" cy="704" r="11" fill="#cedb9c" stroke="none" fill-opacity="0.8" filter="url(#shadow)" /><circle cx="396" cy="981" r="27" fill="#d6616b" stroke="none" fill-opacity="0.8" filter="url(#shadow)" /><circle cx="412" cy="417" r="16" fill="#6b6ecf" stroke="none" fill-opacity="0.8" filter="url(#shadow)" /><circle cx="215" cy="457" r="9" fill="#ce6dbd" stroke="none" fill-opacity="0.8" filter="url(#shadow)" /><circle cx="786" cy="903" r="26" fill="" stroke="none" fill-opacity="0.8" filter="url(#shadow)" /><circle cx="404" cy="186" r="8" fill="#a55194" stroke="none" fill-opacity="0.8" filter="url(#shadow)" /><circle cx="984" cy="50" r="11" fill="#6b6ecf" stroke="none" fill-opacity="0.8" filter="url(#shadow)" /><circle cx="444" cy="855" r="14" fill="#6b6ecf" stroke="none" fill-opacity="0.8" filter="url(#shadow)" /><circle cx="539" cy="367" r="39" fill="#9c9ede" stroke="none" fill-opacity="0.8" filter="url(#shadow)" /><circle cx="7" cy="272" r="20" fill="#ad494a" stroke="none" fill-opacity="0.8" filter="url(#shadow)" /><circle cx="26" cy="843" r="28" fill="" stroke="none" fill-opacity="0.8" filter="url(#shadow)" /><circle cx="201" cy="489" r="20" fill="#cedb9c" stroke="none" fill-opacity="0.8" filter="url(#shadow)" /><circle cx="538" cy="303" r="9" fill="#8c6d31" stroke="none" fill-opacity="0.8" filter="url(#shadow)" /><circle cx="10" cy="563" r="11" fill="#e7ba52" stroke="none" fill-opacity="0.8" filter="url(#shadow)" /><circle cx="988" cy="839" r="16" fill="#b5cf6b" stroke="none" fill-opacity="0.8" filter="url(#shadow)" /><circle cx="696" cy="974" r="13" fill="#b5cf6b" stroke="none" fill-opacity="0.8" filter="url(#shadow)" /><circle cx="625" cy="94" r="23" fill="#ad494a" stroke="none" fill-opacity="0.8" filter="url(#shadow)" /><circle cx="531" cy="443" r="30" fill="#cedb9c" stroke="none" fill-opacity="0.8" filter="url(#shadow)" /><circle cx="941" cy="440" r="10" fill="" stroke="none" fill-opacity="0.8" filter="url(#shadow)" /><circle cx="381" cy="260" r="20" fill="#843c39" stroke="none" fill-opacity="0.8" filter="url(#shadow)" /><circle cx="661" cy="18" r="20" fill="" stroke="none" fill-opacity="0.8" filter="url(#shadow)" /><circle cx="723" cy="21" r="12" fill="#ce6dbd" stroke="none" fill-opacity="0.8" filter="url(#shadow)" /><circle cx="622" cy="9" r="10" fill="#ce6dbd" stroke="none" fill-opacity="0.8" filter="url(#shadow)" /><circle cx="590" cy="325" r="24" fill="#8ca252" stroke="none" fill-opacity="0.8" filter="url(#shadow)" /><circle cx="862" cy="280" r="14" fill="#a55194" stroke="none" fill-opacity="0.8" filter="url(#shadow)" /><circle cx="228" cy="648" r="12" fill="#e7cb94" stroke="none" fill-opacity="0.8" filter="url(#shadow)" /><circle cx="705" cy="610" r="12" fill="#843c39" stroke="none" fill-opacity="0.8" filter="url(#shadow)" /><circle cx="305" cy="878" r="20" fill="#637939" stroke="none" fill-opacity="0.8" filter="url(#shadow)" /><circle cx="322" cy="600" r="13" fill="#cedb9c" stroke="none" fill-opacity="0.8" filter="url(#shadow)" /><circle cx="815" cy="549" r="23" fill="#b5cf6b" stroke="none" fill-opacity="0.8" filter="url(#shadow)" /><circle cx="285" cy="585" r="22" fill="#6b6ecf" stroke="none" fill-opacity="0.8" filter="url(#shadow)" /><circle cx="201" cy="197" r="25" fill="#8ca252" stroke="none" fill-opacity="0.8" filter="url(#shadow)" /><circle cx="886" cy="3" r="14" fill="#637939" stroke="none" fill-opacity="0.8" filter="url(#shadow)" /><circle cx="14" cy="220" r="19" fill="#e7ba52" stroke="none" fill-opacity="0.8" filter="url(#shadow)" /><circle cx="172" cy="601" r="8" fill="#ad494a" stroke="none" fill-opacity="0.8" filter="url(#shadow)" /><circle cx="471" cy="665" r="11" fill="#d6616b" stroke="none" fill-opacity="0.8" filter="url(#shadow)" /><circle cx="216" cy="773" r="8" fill="#843c39" stroke="none" fill-opacity="0.8" filter="url(#shadow)" /><circle cx="485" cy="262" r="22" fill="#843c39" stroke="none" fill-opacity="0.8" filter="url(#shadow)" /><circle cx="701" cy="765" r="24" fill="#393b79" stroke="none" fill-opacity="0.8" filter="url(#shadow)" /></g></svg>