
        <svg
        xmlns="http://www.w3.org/2000/svg" 
        viewBox="0 0 1000 1000"
        width="800">
        <filter id='shadow' color-interpolation-filters="sRGB">
            <feDropShadow dx="2" dy="2" stdDeviation="2" flood-opacity="0.4"/>
        </filter>
    <circle cx="214" cy="721" r="82"fill="#8ca252" stroke="none"fill-opacity="0.8"filter="url(#shadow)"/><circle cx="796" cy="990" r="37"fill="#e7ba52" stroke="none"fill-opacity="0.8"filter="url(#shadow)"/><circle cx="695" cy="707" r="22"fill="#9c9ede" stroke="none"fill-opacity="0.8"filter="url(#shadow)"/><circle cx="133" cy="316" r="32"fill="#b5cf6b" stroke="none"fill-opacity="0.8"filter="url(#shadow)"/><circle cx="812" cy="602" r="52"fill="#5254a3" stroke="none"fill-opacity="0.8"filter="url(#shadow)"/><circle cx="940" cy="326" r="52"fill="#393b79" stroke="none"fill-opacity="0.8"filter="url(#shadow)"/><circle cx="473" cy="391" r="20"fill="#d6616b" stroke="none"fill-opacity="0.8"filter="url(#shadow)"/><circle cx="432" cy="628" r="14"fill="#a55194" stroke="none"fill-opacity="0.8"filter="url(#shadow)"/><circle cx="437" cy="799" r="79"fill="" stroke="none"fill-opacity="0.8"filter="url(#shadow)"/><circle cx="161" cy="70" r="71"fill="#de9ed6" stroke="none"fill-opacity="0.8"filter="url(#shadow)"/><circle cx="364" cy="37" r="19"fill="#9c9ede" stroke="none"fill-opacity="0.8"filter="url(#shadow)"/><circle cx="707" cy="177" r="39"fill="" stroke="none"fill-opacity="0.8"filter="url(#shadow)"/><circle cx="353" cy="533" r="65"fill="#9c9ede" stroke="none"fill-opacity="0.8"filter="url(#shadow)"/><circle cx="9" cy="878" r="55"fill="#7b4173" stroke="none"fill-opacity="0.8"filter="url(#shadow)"/><circle cx="574" cy="84" r="92"fill="#e7ba52" stroke="none"fill-opacity="0.8"filter="url(#shadow)"/><circle cx="812" cy="219" r="10"fill="" stroke="none"fill-opacity="0.8"filter="url(#shadow)"/><circle cx="919" cy="146" r="69"fill="#637939" stroke="none"fill-opacity="0.8"filter="url(#shadow)"/><circle cx="73" cy="558" r="23"fill="#8c6d31" stroke="none"fill-opacity="0.8"filter="url(#shadow)"/><circle cx="337" cy="637" r="39"fill="#843c39" stroke="none"fill-opacity="0.8"filter="url(#shadow)"/><circle cx="452" cy="16" r="45"fill="#ad494a" stroke="none"fill-opacity="0.8"filter="url(#shadow)"/><circle cx="297" cy="149" r="77"fill="#d6616b" stroke="none"fill-opacity="0.8"filter="url(#shadow)"/><circle cx="44" cy="584" r="10"fill="#ad494a" stroke="none"fill-opacity="0.8"filter="url(#shadow)"/><circle cx="933" cy="895" r="61"fill="#8ca252" stroke="none"fill-opacity="0.8"filter="url(#shadow)"/><circle cx="872" cy="253" r="39"fill="#e7969c" stroke="none"fill-opacity="0.8"filter="url(#shadow)"/><circle cx="954" cy="504" r="58"fill="#5254a3" stroke="none"fill-opacity="0.8"filter="url(#shadow)"/><circle cx="720" cy="876" r="68"fill="#e7ba52" stroke="none"fill-opacity="0.8"filter="url(#shadow)"/><circle cx="658" cy="254" r="41"fill="#e7969c" stroke="none"fill-opacity="0.8"filter="url(#shadow)"/><circle cx="635" cy="859" r="10"fill="#5254a3" stroke="none"fill-opacity="0.8"filter="url(#shadow)"/><circle cx="474" cy="318" r="45"fill="#843c39" stroke="none"fill-opacity="0.8"filter="url(#shadow)"/><circle cx="31" cy="69" r="54"fill="#5254a3" stroke="none"fill-opacity="0.8"filter="url(#shadow)"/><circle cx="149" cy="243" r="19"fill="#e7cb94" stroke="none"fill-opacity="0.8"filter="url(#shadow)"/><circle cx="528" cy="842" r="20"fill="#6b6ecf" stroke="none"fill-opacity="0.8"filter="url(#shadow)"/><circle cx="671" cy="343" r="33"fill="#cedb9c" stroke="none"fill-opacity="0.8"filter="url(#shadow)"/><circle cx="503" cy="563" r="10"fill="#9c9ede" stroke="none"fill-opacity="0.8"filter="url(#shadow)"/><circle cx="527" cy="688" r="25"fill="#6b6ecf" stroke="none"fill-opacity="0.8"filter="url(#shadow)"/><circle cx="361" cy="297" r="32"fill="#7b4173" stroke="none"fill-opacity="0.8"filter="url(#shadow)"/><circle cx="938" cy="633" r="32"fill="#8ca252" stroke="none"fill-opacity="0.8"filter="url(#shadow)"/><circle cx="355" cy="996" r="88"fill="#ce6dbd" stroke="none"fill-opacity="0.8"filter="url(#shadow)"/><circle cx="740" cy="744" r="28"fill="#7b4173" stroke="none"fill-opacity="0.8"filter="url(#shadow)"/><circle cx="593" cy="584" r="67"fill="#ad494a" stroke="none"fill-opacity="0.8"filter="url(#shadow)"/><circle cx="459" cy="469" r="52"fill="#9c9ede" stroke="none"fill-opacity="0.8"filter="url(#shadow)"/><circle cx="750" cy="561" r="12"fill="#b5cf6b" stroke="none"fill-opacity="0.8"filter="url(#shadow)"/><circle cx="384" cy="227" r="23"fill="#5254a3" stroke="none"fill-opacity="0.8"filter="url(#shadow)"/><circle cx="758" cy="245" r="34"fill="#e7cb94" stroke="none"fill-opacity="0.8"filter="url(#shadow)"/><circle cx="554" cy="387" r="45"fill="#e7969c" stroke="none"fill-opacity="0.8"filter="url(#shadow)"/><circle cx="967" cy="792" r="17"fill="#e7cb94" stroke="none"fill-opacity="0.8"filter="url(#shadow)"/><circle cx="797" cy="161" r="43"fill="#e7ba52" stroke="none"fill-opacity="0.8"filter="url(#shadow)"/><circle cx="815" cy="89" r="12"fill="#5254a3" stroke="none"fill-opacity="0.8"filter="url(#shadow)"/><circle cx="33" cy="371" r="53"fill="#a55194" stroke="none"fill-opacity="0.8"filter="url(#shadow)"/><circle cx="200" cy="548" r="30"fill="#637939" stroke="none"fill-opacity="0.8"filter="url(#shadow)"/><circle cx="312" cy="393" r="43"fill="#d6616b" stroke="none"fill-opacity="0.8"filter="url(#shadow)"/><circle cx="864" cy="810" r="17"fill="#de9ed6" stroke="none"fill-opacity="0.8"filter="url(#shadow)"/><circle cx="53" cy="726" r="45"fill="#7b4173" stroke="none"fill-opacity="0.8"filter="url(#shadow)"/><circle cx="542" cy="899" r="32"fill="#7b4173" stroke="none"fill-opacity="0.8"filter="url(#shadow)"/><circle cx="744" cy="25" r="24"fill="#6b6ecf" stroke="none"fill-opacity="0.8"filter="url(#shadow)"/><circle cx="282" cy="56" r="8"fill="#ce6dbd" stroke="none"fill-opacity="0.8"filter="url(#shadow)"/><circle cx="151" cy="915" r="44"fill="#393b79" stroke="none"fill-opacity="0.8"filter="url(#shadow)"/><circle cx="692" cy="633" r="12"fill="#b5cf6b" stroke="none"fill-opacity="0.8"filter="url(#shadow)"/><circle cx="833" cy="412" r="62"fill="#637939" stroke="none"fill-opacity="0.8"filter="url(#shadow)"/><circle cx="281" cy="24" r="24"fill="#bd9e39" stroke="none"fill-opacity="0.8"filter="url(#shadow)"/><circle cx="987" cy="739" r="35"fill="#ce6dbd" stroke="none"fill-opacity="0.8"filter="url(#shadow)"/><circle cx="701" cy="425" r="22"fill="#cedb9c" stroke="none"fill-opacity="0.8"filter="url(#shadow)"/><circle cx="208" cy="282" r="37"fill="#de9ed6" stroke="none"fill-opacity="0.8"filter="url(#shadow)"/><circle cx="57" cy="205" r="70"fill="#e7cb94" stroke="none"fill-opacity="0.8"filter="url(#shadow)"/><circle cx="734" cy="365" r="30"fill="#e7cb94" stroke="none"fill-opacity="0.8"filter="url(#shadow)"/><circle cx="514" cy="214" r="32"fill="" stroke="none"fill-opacity="0.8"filter="url(#shadow)"/><circle cx="161" cy="539" r="9"fill="#ce6dbd" stroke="none"fill-opacity="0.8"filter="url(#shadow)"/><circle cx="900" cy="58" r="19"fill="#de9ed6" stroke="none"fill-opacity="0.8"filter="url(#shadow)"/><circle cx="344" cy="240" r="18"fill="#ad494a" stroke="none"fill-opacity="0.8"filter="url(#shadow)"/><circle cx="30" cy="514" r="11"fill="#de9ed6" stroke="none"fill-opacity="0.8"filter="url(#shadow)"/><circle cx="475" cy="690" r="11"fill="#843c39" stroke="none"fill-opacity="0.8"filter="url(#shadow)"/><circle cx="555" cy="298" r="19"fill="#de9ed6" stroke="none"fill-opacity="0.8"filter="url(#shadow)"/><circle cx="607" cy="491" r="24"fill="#5254a3" stroke="none"fill-opacity="0.8"filter="url(#shadow)"/><circle cx="608" cy="831" r="21"fill="" stroke="none"fill-opacity="0.8"filter="url(#shadow)"/><circle cx="795" cy="503" r="25"fill="#e7ba52" stroke="none"fill-opacity="0.8"filter="url(#shadow)"/><circle cx="129" cy="622" r="30"fill="#843c39" stroke="none"fill-opacity="0.8"filter="url(#shadow)"/><circle cx="207" cy="404" r="46"fill="#b5cf6b" stroke="none"fill-opacity="0.8"filter="url(#shadow)"/><circle cx="821" cy="17" r="11"fill="#637939" stroke="none"fill-opacity="0.8"filter="url(#shadow)"/><circle cx="517" cy="958" r="11"fill="#ad494a" stroke="none"fill-opacity="0.8"filter="url(#shadow)"/><circle cx="307" cy="689" r="14"fill="#cedb9c" stroke="none"fill-opacity="0.8"filter="url(#shadow)"/><circle cx="683" cy="498" r="19"fill="#5254a3" stroke="none"fill-opacity="0.8"filter="url(#shadow)"/><circle cx="125" cy="815" r="35"fill="#e7ba52" stroke="none"fill-opacity="0.8"filter="url(#shadow)"/><circle cx="739" cy="499" r="21"fill="#ce6dbd" stroke="none"fill-opacity="0.8"filter="url(#shadow)"/><circle cx="432" cy="96" r="32"fill="#637939" stroke="none"fill-opacity="0.8"filter="url(#shadow)"/><circle cx="573" cy="995" r="9"fill="#ad494a" stroke="none"fill-opacity="0.8"filter="url(#shadow)"/><circle cx="112" cy="514" r="13"fill="#7b4173" stroke="none"fill-opacity="0.8"filter="url(#shadow)"/><circle cx="376" cy="4" r="10"fill="#843c39" stroke="none"fill-opacity="0.8"filter="url(#shadow)"/><circle cx="790" cy="300" r="13"fill="#637939" stroke="none"fill-opacity="0.8"filter="url(#shadow)"/><circle cx="178" cy="605" r="13"fill="#de9ed6" stroke="none"fill-opacity="0.8"filter="url(#shadow)"/><circle cx="949" cy="245" r="23"fill="#5254a3" stroke="none"fill-opacity="0.8"filter="url(#shadow)"/><circle cx="315" cy="847" r="23"fill="#b5cf6b" stroke="none"fill-opacity="0.8"filter="url(#shadow)"/><circle cx="955" cy="973" r="15"fill="#8c6d31" stroke="none"fill-opacity="0.8"filter="url(#shadow)"/><circle cx="797" cy="811" r="23"fill="#e7cb94" stroke="none"fill-opacity="0.8"filter="url(#shadow)"/><circle cx="323" cy="780" r="10"fill="#637939" stroke="none"fill-opacity="0.8"filter="url(#shadow)"/><circle cx="828" cy="742" r="46"fill="#bd9e39" stroke="none"fill-opacity="0.8"filter="url(#shadow)"/><circle cx="218" cy="906" r="14"fill="#8c6d31" stroke="none"fill-opacity="0.8"filter="url(#shadow)"/><circle cx="265" cy="490" r="23"fill="#ce6dbd" stroke="none"fill-opacity="0.8"filter="url(#shadow)"/><circle cx="125" cy="748" r="9"fill="#b5cf6b" stroke="none"fill-opacity="0.8"filter="url(#shadow)"/><circle cx="507" cy="431" r="9"fill="#7b4173" stroke="none"fill-opacity="0.8"filter="url(#shadow)"/><circle cx="282" cy="288" r="31"fill="#ad494a" stroke="none"fill-opacity="0.8"filter="url(#shadow)"/><circle cx="47" cy="973" r="27"fill="#6b6ecf" stroke="none"fill-opacity="0.8"filter="url(#shadow)"/><circle cx="662" cy="797" r="20"fill="#843c39" stroke="none"fill-opacity="0.8"filter="url(#shadow)"/><circle cx="963" cy="39" r="42"fill="#7b4173" stroke="none"fill-opacity="0.8"filter="url(#shadow)"/><circle cx="633" cy="751" r="21"fill="#637939" stroke="none"fill-opacity="0.8"filter="url(#shadow)"/><circle cx="59" cy="782" r="8"fill="#637939" stroke="none"fill-opacity="0.8"filter="url(#shadow)"/><circle cx="183" cy="190" r="38"fill="#7b4173" stroke="none"fill-opacity="0.8"filter="url(#shadow)"/><circle cx="38" cy="637" r="14"fill="#843c39" stroke="none"fill-opacity="0.8"filter="url(#shadow)"/><circle cx="245" cy="826" r="17"fill="#8ca252" stroke="none"fill-opacity="0.8"filter="url(#shadow)"/><circle cx="562" cy="244" r="17"fill="#ad494a" stroke="none"fill-opacity="0.8"filter="url(#shadow)"/><circle cx="413" cy="686" r="28"fill="#e7969c" stroke="none"fill-opacity="0.8"filter="url(#shadow)"/><circle cx="195" cy="495" r="12"fill="#e7ba52" stroke="none"fill-opacity="0.8"filter="url(#shadow)"/><circle cx="317" cy="751" r="19"fill="#6b6ecf" stroke="none"fill-opacity="0.8"filter="url(#shadow)"/><circle cx="902" cy="684" r="8"fill="#a55194" stroke="none"fill-opacity="0.8"filter="url(#shadow)"/><circle cx="874" cy="4" r="8"fill="#8ca252" stroke="none"fill-opacity="0.8"filter="url(#shadow)"/><circle cx="714" cy="566" r="20"fill="#ad494a" stroke="none"fill-opacity="0.8"filter="url(#shadow)"/><circle cx="469" cy="76" r="8"fill="#ce6dbd" stroke="none"fill-opacity="0.8"filter="url(#shadow)"/><circle cx="59" cy="824" r="15"fill="#6b6ecf" stroke="none"fill-opacity="0.8"filter="url(#shadow)"/><circle cx="838" cy="834" r="13"fill="#cedb9c" stroke="none"fill-opacity="0.8"filter="url(#shadow)"/><circle cx="840" cy="664" r="8"fill="#ad494a" stroke="none"fill-opacity="0.8"filter="url(#shadow)"/></svg>