
        <svg
        xmlns="http://www.w3.org/2000/svg" 
        viewBox="0 0 1000 1000"
        width="800">
        <filter id='shadow' color-interpolation-filters="sRGB">
            <feDropShadow dx="2" dy="2" stdDeviation="2" flood-opacity="0.4"/>
        </filter>
        <filter id='shadow2' color-interpolation-filters="sRGB">
            <feDropShadow dx="0" dy="0" stdDeviation="5.5" flood-opacity="0.8"/>
        </filter>
    <circle cx="651" cy="491" r="58"fill="" stroke="none"fill-opacity="0.8"filter="url(#shadow)"/><circle cx="885" cy="684" r="18"fill="#843c39" stroke="none"fill-opacity="0.8"filter="url(#shadow)"/><circle cx="672" cy="658" r="74"fill="#843c39" stroke="none"fill-opacity="0.8"filter="url(#shadow)"/><circle cx="465" cy="843" r="13"fill="#d6616b" stroke="none"fill-opacity="0.8"filter="url(#shadow)"/><circle cx="353" cy="484" r="80"fill="#8c6d31" stroke="none"fill-opacity="0.8"filter="url(#shadow)"/><circle cx="320" cy="845" r="43"fill="#843c39" stroke="none"fill-opacity="0.8"filter="url(#shadow)"/><circle cx="963" cy="138" r="24"fill="#ce6dbd" stroke="none"fill-opacity="0.8"filter="url(#shadow)"/><circle cx="7" cy="259" r="68"fill="#7b4173" stroke="none"fill-opacity="0.8"filter="url(#shadow)"/><circle cx="218" cy="502" r="40"fill="#393b79" stroke="none"fill-opacity="0.8"filter="url(#shadow)"/><circle cx="810" cy="391" r="14"fill="#a55194" stroke="none"fill-opacity="0.8"filter="url(#shadow)"/><circle cx="159" cy="760" r="23"fill="#e7cb94" stroke="none"fill-opacity="0.8"filter="url(#shadow)"/><circle cx="807" cy="149" r="21"fill="#8c6d31" stroke="none"fill-opacity="0.8"filter="url(#shadow)"/><circle cx="833" cy="444" r="15"fill="#393b79" stroke="none"fill-opacity="0.8"filter="url(#shadow)"/><circle cx="660" cy="80" r="65"fill="#7b4173" stroke="none"fill-opacity="0.8"filter="url(#shadow)"/><circle cx="93" cy="867" r="76"fill="#e7ba52" stroke="none"fill-opacity="0.8"filter="url(#shadow)"/><circle cx="129" cy="184" r="28"fill="#843c39" stroke="none"fill-opacity="0.8"filter="url(#shadow)"/><circle cx="493" cy="596" r="37"fill="#e7ba52" stroke="none"fill-opacity="0.8"filter="url(#shadow)"/><circle cx="121" cy="248" r="25"fill="#cedb9c" stroke="none"fill-opacity="0.8"filter="url(#shadow)"/><circle cx="436" cy="302" r="67"fill="#de9ed6" stroke="none"fill-opacity="0.8"filter="url(#shadow)"/><circle cx="851" cy="515" r="22"fill="#d6616b" stroke="none"fill-opacity="0.8"filter="url(#shadow)"/><circle cx="530" cy="764" r="58"fill="#bd9e39" stroke="none"fill-opacity="0.8"filter="url(#shadow)"/><circle cx="119" cy="496" r="52"fill="#de9ed6" stroke="none"fill-opacity="0.8"filter="url(#shadow)"/><circle cx="699" cy="880" r="55"fill="#a55194" stroke="none"fill-opacity="0.8"filter="url(#shadow)"/><circle cx="926" cy="595" r="38"fill="#d6616b" stroke="none"fill-opacity="0.8"filter="url(#shadow)"/><circle cx="929" cy="756" r="36"fill="#6b6ecf" stroke="none"fill-opacity="0.8"filter="url(#shadow)"/><circle cx="981" cy="565" r="16"fill="#843c39" stroke="none"fill-opacity="0.8"filter="url(#shadow)"/><circle cx="38" cy="619" r="16"fill="#bd9e39" stroke="none"fill-opacity="0.8"filter="url(#shadow)"/><circle cx="66" cy="410" r="42"fill="#e7cb94" stroke="none"fill-opacity="0.8"filter="url(#shadow)"/><circle cx="506" cy="129" r="74"fill="#8ca252" stroke="none"fill-opacity="0.8"filter="url(#shadow)"/><circle cx="171" cy="660" r="69"fill="#cedb9c" stroke="none"fill-opacity="0.8"filter="url(#shadow)"/><circle cx="287" cy="163" r="65"fill="" stroke="none"fill-opacity="0.8"filter="url(#shadow)"/><circle cx="556" cy="913" r="38"fill="#5254a3" stroke="none"fill-opacity="0.8"filter="url(#shadow)"/><circle cx="785" cy="876" r="11"fill="#d6616b" stroke="none"fill-opacity="0.8"filter="url(#shadow)"/><circle cx="306" cy="740" r="13"fill="" stroke="none"fill-opacity="0.8"filter="url(#shadow)"/><circle cx="921" cy="389" r="34"fill="#8ca252" stroke="none"fill-opacity="0.8"filter="url(#shadow)"/><circle cx="423" cy="968" r="70"fill="#bd9e39" stroke="none"fill-opacity="0.8"filter="url(#shadow)"/><circle cx="443" cy="25" r="40"fill="#6b6ecf" stroke="none"fill-opacity="0.8"filter="url(#shadow)"/><circle cx="977" cy="664" r="23"fill="#b5cf6b" stroke="none"fill-opacity="0.8"filter="url(#shadow)"/><circle cx="762" cy="775" r="25"fill="#9c9ede" stroke="none"fill-opacity="0.8"filter="url(#shadow)"/><circle cx="966" cy="901" r="44"fill="#b5cf6b" stroke="none"fill-opacity="0.8"filter="url(#shadow)"/><circle cx="811" cy="873" r="15"fill="#d6616b" stroke="none"fill-opacity="0.8"filter="url(#shadow)"/><circle cx="835" cy="51" r="55"fill="#6b6ecf" stroke="none"fill-opacity="0.8"filter="url(#shadow)"/><circle cx="250" cy="992" r="59"fill="#393b79" stroke="none"fill-opacity="0.8"filter="url(#shadow)"/><circle cx="782" cy="319" r="34"fill="#e7969c" stroke="none"fill-opacity="0.8"filter="url(#shadow)"/><circle cx="239" cy="296" r="52"fill="#b5cf6b" stroke="none"fill-opacity="0.8"filter="url(#shadow)"/><circle cx="985" cy="356" r="22"fill="#b5cf6b" stroke="none"fill-opacity="0.8"filter="url(#shadow)"/><circle cx="199" cy="72" r="37"fill="#ad494a" stroke="none"fill-opacity="0.8"filter="url(#shadow)"/><circle cx="678" cy="283" r="65"fill="#b5cf6b" stroke="none"fill-opacity="0.8"filter="url(#shadow)"/><circle cx="248" cy="865" r="11"fill="#9c9ede" stroke="none"fill-opacity="0.8"filter="url(#shadow)"/><circle cx="538" cy="453" r="44"fill="#6b6ecf" stroke="none"fill-opacity="0.8"filter="url(#shadow)"/><circle cx="44" cy="536" r="10"fill="#b5cf6b" stroke="none"fill-opacity="0.8"filter="url(#shadow)"/><circle cx="610" cy="383" r="18"fill="" stroke="none"fill-opacity="0.8"filter="url(#shadow)"/><circle cx="95" cy="116" r="34"fill="#d6616b" stroke="none"fill-opacity="0.8"filter="url(#shadow)"/><circle cx="321" cy="647" r="65"fill="" stroke="none"fill-opacity="0.8"filter="url(#shadow)"/><circle cx="65" cy="15" r="9"fill="#637939" stroke="none"fill-opacity="0.8"filter="url(#shadow)"/><circle cx="822" cy="661" r="44"fill="#d6616b" stroke="none"fill-opacity="0.8"filter="url(#shadow)"/><circle cx="22" cy="731" r="66"fill="#8ca252" stroke="none"fill-opacity="0.8"filter="url(#shadow)"/><circle cx="398" cy="882" r="13"fill="#5254a3" stroke="none"fill-opacity="0.8"filter="url(#shadow)"/><circle cx="875" cy="172" r="44"fill="#a55194" stroke="none"fill-opacity="0.8"filter="url(#shadow)"/><circle cx="408" cy="788" r="10"fill="#637939" stroke="none"fill-opacity="0.8"filter="url(#shadow)"/><circle cx="707" cy="203" r="18"fill="#e7ba52" stroke="none"fill-opacity="0.8"filter="url(#shadow)"/><circle cx="909" cy="821" r="17"fill="#cedb9c" stroke="none"fill-opacity="0.8"filter="url(#shadow)"/><circle cx="653" cy="816" r="15"fill="#e7ba52" stroke="none"fill-opacity="0.8"filter="url(#shadow)"/><circle cx="501" cy="398" r="12"fill="#e7cb94" stroke="none"fill-opacity="0.8"filter="url(#shadow)"/><circle cx="308" cy="329" r="15"fill="#7b4173" stroke="none"fill-opacity="0.8"filter="url(#shadow)"/><circle cx="603" cy="222" r="22"fill="#cedb9c" stroke="none"fill-opacity="0.8"filter="url(#shadow)"/><circle cx="66" cy="558" r="15"fill="#7b4173" stroke="none"fill-opacity="0.8"filter="url(#shadow)"/><circle cx="877" cy="302" r="27"fill="" stroke="none"fill-opacity="0.8"filter="url(#shadow)"/><circle cx="67" cy="182" r="17"fill="#bd9e39" stroke="none"fill-opacity="0.8"filter="url(#shadow)"/><circle cx="771" cy="441" r="46"fill="#393b79" stroke="none"fill-opacity="0.8"filter="url(#shadow)"/><circle cx="893" cy="886" r="26"fill="#e7969c" stroke="none"fill-opacity="0.8"filter="url(#shadow)"/><circle cx="934" cy="315" r="24"fill="#9c9ede" stroke="none"fill-opacity="0.8"filter="url(#shadow)"/><circle cx="969" cy="817" r="20"fill="#e7969c" stroke="none"fill-opacity="0.8"filter="url(#shadow)"/><circle cx="455" cy="422" r="18"fill="#a55194" stroke="none"fill-opacity="0.8"filter="url(#shadow)"/><circle cx="45" cy="464" r="12"fill="#d6616b" stroke="none"fill-opacity="0.8"filter="url(#shadow)"/><circle cx="836" cy="830" r="17"fill="#d6616b" stroke="none"fill-opacity="0.8"filter="url(#shadow)"/><circle cx="334" cy="750" r="12"fill="#a55194" stroke="none"fill-opacity="0.8"filter="url(#shadow)"/><circle cx="860" cy="406" r="20"fill="" stroke="none"fill-opacity="0.8"filter="url(#shadow)"/><circle cx="898" cy="999" r="33"fill="#e7cb94" stroke="none"fill-opacity="0.8"filter="url(#shadow)"/><circle cx="595" cy="173" r="18"fill="#de9ed6" stroke="none"fill-opacity="0.8"filter="url(#shadow)"/><circle cx="167" cy="133" r="31"fill="#8ca252" stroke="none"fill-opacity="0.8"filter="url(#shadow)"/><circle cx="795" cy="761" r="9"fill="#393b79" stroke="none"fill-opacity="0.8"filter="url(#shadow)"/><circle cx="363" cy="84" r="34"fill="#9c9ede" stroke="none"fill-opacity="0.8"filter="url(#shadow)"/><circle cx="722" cy="510" r="12"fill="#de9ed6" stroke="none"fill-opacity="0.8"filter="url(#shadow)"/><circle cx="994" cy="743" r="25"fill="#de9ed6" stroke="none"fill-opacity="0.8"filter="url(#shadow)"/><circle cx="114" cy="23" r="35"fill="#a55194" stroke="none"fill-opacity="0.8"filter="url(#shadow)"/><circle cx="789" cy="581" r="15"fill="#e7969c" stroke="none"fill-opacity="0.8"filter="url(#shadow)"/><circle cx="713" cy="386" r="9"fill="#843c39" stroke="none"fill-opacity="0.8"filter="url(#shadow)"/><circle cx="606" cy="981" r="10"fill="" stroke="none"fill-opacity="0.8"filter="url(#shadow)"/><circle cx="253" cy="379" r="30"fill="#8ca252" stroke="none"fill-opacity="0.8"filter="url(#shadow)"/><circle cx="500" cy="836" r="16"fill="#9c9ede" stroke="none"fill-opacity="0.8"filter="url(#shadow)"/><circle cx="556" cy="853" r="14"fill="#8c6d31" stroke="none"fill-opacity="0.8"filter="url(#shadow)"/><circle cx="595" cy="26" r="15"fill="#bd9e39" stroke="none"fill-opacity="0.8"filter="url(#shadow)"/><circle cx="122" cy="308" r="30"fill="#cedb9c" stroke="none"fill-opacity="0.8"filter="url(#shadow)"/><circle cx="991" cy="296" r="20"fill="" stroke="none"fill-opacity="0.8"filter="url(#shadow)"/><circle cx="320" cy="964" r="9"fill="#ce6dbd" stroke="none"fill-opacity="0.8"filter="url(#shadow)"/><circle cx="564" cy="548" r="25"fill="#843c39" stroke="none"fill-opacity="0.8"filter="url(#shadow)"/><circle cx="306" cy="23" r="41"fill="#8c6d31" stroke="none"fill-opacity="0.8"filter="url(#shadow)"/><circle cx="726" cy="558" r="20"fill="#5254a3" stroke="none"fill-opacity="0.8"filter="url(#shadow)"/><circle cx="79" cy="650" r="17"fill="#8ca252" stroke="none"fill-opacity="0.8"filter="url(#shadow)"/><circle cx="17" cy="83" r="50"fill="#e7ba52" stroke="none"fill-opacity="0.8"filter="url(#shadow)"/><circle cx="987" cy="446" r="24"fill="" stroke="none"fill-opacity="0.8"filter="url(#shadow)"/><circle cx="200" cy="860" r="31"fill="#b5cf6b" stroke="none"fill-opacity="0.8"filter="url(#shadow)"/><circle cx="947" cy="507" r="24"fill="" stroke="none"fill-opacity="0.8"filter="url(#shadow)"/><circle cx="217" cy="798" r="8"fill="#8ca252" stroke="none"fill-opacity="0.8"filter="url(#shadow)"/><circle cx="750" cy="964" r="21"fill="#9c9ede" stroke="none"fill-opacity="0.8"filter="url(#shadow)"/><circle cx="829" cy="991" r="10"fill="#5254a3" stroke="none"fill-opacity="0.8"filter="url(#shadow)"/><circle cx="764" cy="192" r="39"fill="#de9ed6" stroke="none"fill-opacity="0.8"filter="url(#shadow)"/><circle cx="509" cy="531" r="13"fill="#d6616b" stroke="none"fill-opacity="0.8"filter="url(#shadow)"/><circle cx="725" cy="782" r="12"fill="#5254a3" stroke="none"fill-opacity="0.8"filter="url(#shadow)"/><circle cx="670" cy="569" r="8"fill="#e7969c" stroke="none"fill-opacity="0.8"filter="url(#shadow)"/><circle cx="844" cy="268" r="14"fill="#637939" stroke="none"fill-opacity="0.8"filter="url(#shadow)"/><circle cx="973" cy="974" r="18"fill="#bd9e39" stroke="none"fill-opacity="0.8"filter="url(#shadow)"/><circle cx="569" cy="302" r="25"fill="#e7cb94" stroke="none"fill-opacity="0.8"filter="url(#shadow)"/><circle cx="843" cy="591" r="21"fill="#e7ba52" stroke="none"fill-opacity="0.8"filter="url(#shadow)"/><circle cx="349" cy="239" r="22"fill="#843c39" stroke="none"fill-opacity="0.8"filter="url(#shadow)"/><circle cx="188" cy="214" r="12"fill="#8ca252" stroke="none"fill-opacity="0.8"filter="url(#shadow)"/><circle cx="689" cy="997" r="15"fill="#393b79" stroke="none"fill-opacity="0.8"filter="url(#shadow)"/><circle cx="494" cy="674" r="16"fill="#de9ed6" stroke="none"fill-opacity="0.8"filter="url(#shadow)"/><circle cx="40" cy="502" r="21"fill="#b5cf6b" stroke="none"fill-opacity="0.8"filter="url(#shadow)"/><circle cx="790" cy="801" r="13"fill="#bd9e39" stroke="none"fill-opacity="0.8"filter="url(#shadow)"/><circle cx="90" cy="347" r="12"fill="#6b6ecf" stroke="none"fill-opacity="0.8"filter="url(#shadow)"/><circle cx="484" cy="880" r="12"fill="#637939" stroke="none"fill-opacity="0.8"filter="url(#shadow)"/><circle cx="168" cy="926" r="16"fill="#5254a3" stroke="none"fill-opacity="0.8"filter="url(#shadow)"/><circle cx="764" cy="655" r="11"fill="#e7ba52" stroke="none"fill-opacity="0.8"filter="url(#shadow)"/><circle cx="740" cy="72" r="15"fill="#843c39" stroke="none"fill-opacity="0.8"filter="url(#shadow)"/><circle cx="652" cy="959" r="29"fill="#ad494a" stroke="none"fill-opacity="0.8"filter="url(#shadow)"/><circle cx="971" cy="233" r="16"fill="#6b6ecf" stroke="none"fill-opacity="0.8"filter="url(#shadow)"/><circle cx="9" cy="991" r="51"fill="#de9ed6" stroke="none"fill-opacity="0.8"filter="url(#shadow)"/><circle cx="255" cy="568" r="35"fill="#ad494a" stroke="none"fill-opacity="0.8"filter="url(#shadow)"/><circle cx="331" cy="918" r="10"fill="#9c9ede" stroke="none"fill-opacity="0.8"filter="url(#shadow)"/><circle cx="4" cy="161" r="16"fill="#cedb9c" stroke="none"fill-opacity="0.8"filter="url(#shadow)"/><circle cx="514" cy="311" r="9"fill="" stroke="none"fill-opacity="0.8"filter="url(#shadow)"/><circle cx="651" cy="756" r="9"fill="#e7cb94" stroke="none"fill-opacity="0.8"filter="url(#shadow)"/><circle cx="751" cy="825" r="20"fill="" stroke="none"fill-opacity="0.8"filter="url(#shadow)"/><circle cx="816" cy="957" r="13"fill="#ce6dbd" stroke="none"fill-opacity="0.8"filter="url(#shadow)"/></svg>