
        <svg
        xmlns="http://www.w3.org/2000/svg"
        viewBox="0 0 1000 1000"
        width="800" stroke="black" stroke-width="4">
        <filter id='shadow' color-interpolation-filters="sRGB">
            <feDropShadow dx="2" dy="2" stdDeviation="2" flood-opacity="0.4"/>
        </filter>
        <filter id='shadow2' color-interpolation-filters="sRGB">
            <feDropShadow dx="0" dy="0" stdDeviation="5.5" flood-opacity=".8"/>
        </filter>
        <g >
        <rect x="0" y="0" width="100%" height="100%" fill="#ccc"
                stroke-width="8" stroke="none" />
    <circle cx="107" cy="333" r="91" fill="#5254a3" stroke="none" fill-opacity="0.8" filter="url(#shadow)" /><circle cx="121" cy="543" r="17" fill="#e7cb94" stroke="none" fill-opacity="0.8" filter="url(#shadow)" /><circle cx="774" cy="709" r="24" fill="#843c39" stroke="none" fill-opacity="0.8" filter="url(#shadow)" /><circle cx="657" cy="467" r="41" fill="#7b4173" stroke="none" fill-opacity="0.8" filter="url(#shadow)" /><circle cx="131" cy="601" r="22" fill="#bd9e39" stroke="none" fill-opacity="0.8" filter="url(#shadow)" /><circle cx="254" cy="738" r="78" fill="#e7ba52" stroke="none" fill-opacity="0.8" filter="url(#shadow)" /><circle cx="364" cy="390" r="16" fill="#6b6ecf" stroke="none" fill-opacity="0.8" filter="url(#shadow)" /><circle cx="37" cy="872" r="37" fill="#d6616b" stroke="none" fill-opacity="0.8" filter="url(#shadow)" /><circle cx="522" cy="411" r="72" fill="#393b79" stroke="none" fill-opacity="0.8" filter="url(#shadow)" /><circle cx="924" cy="90" r="58" fill="#bd9e39" stroke="none" fill-opacity="0.8" filter="url(#shadow)" /><circle cx="307" cy="387" r="25" fill="#8c6d31" stroke="none" fill-opacity="0.8" filter="url(#shadow)" /><circle cx="265" cy="82" r="8" fill="#5254a3" stroke="none" fill-opacity="0.8" filter="url(#shadow)" /><circle cx="879" cy="998" r="63" fill="#de9ed6" stroke="none" fill-opacity="0.8" filter="url(#shadow)" /><circle cx="855" cy="525" r="86" fill="#8c6d31" stroke="none" fill-opacity="0.8" filter="url(#shadow)" /><circle cx="357" cy="71" r="71" fill="#ad494a" stroke="none" fill-opacity="0.8" filter="url(#shadow)" /><circle cx="372" cy="966" r="40" fill="#843c39" stroke="none" fill-opacity="0.8" filter="url(#shadow)" /><circle cx="965" cy="218" r="71" fill="#ad494a" stroke="none" fill-opacity="0.8" filter="url(#shadow)" /><circle cx="261" cy="574" r="38" fill="#8c6d31" stroke="none" fill-opacity="0.8" filter="url(#shadow)" /><circle cx="647" cy="684" r="48" fill="#cedb9c" stroke="none" fill-opacity="0.8" filter="url(#shadow)" /><circle cx="17" cy="91" r="57" fill="#8ca252" stroke="none" fill-opacity="0.8" filter="url(#shadow)" /><circle cx="16" cy="488" r="21" fill="#d6616b" stroke="none" fill-opacity="0.8" filter="url(#shadow)" /><circle cx="144" cy="993" r="74" fill="#637939" stroke="none" fill-opacity="0.8" filter="url(#shadow)" /><circle cx="777" cy="386" r="57" fill="#e7969c" stroke="none" fill-opacity="0.8" filter="url(#shadow)" /><circle cx="45" cy="711" r="38" fill="#de9ed6" stroke="none" fill-opacity="0.8" filter="url(#shadow)" /><circle cx="765" cy="953" r="15" fill="#393b79" stroke="none" fill-opacity="0.8" filter="url(#shadow)" /><circle cx="548" cy="744" r="18" fill="" stroke="none" fill-opacity="0.8" filter="url(#shadow)" /><circle cx="748" cy="65" r="24" fill="#8ca252" stroke="none" fill-opacity="0.8" filter="url(#shadow)" /><circle cx="306" cy="452" r="32" fill="#d6616b" stroke="none" fill-opacity="0.8" filter="url(#shadow)" /><circle cx="814" cy="771" r="34" fill="#8ca252" stroke="none" fill-opacity="0.8" filter="url(#shadow)" /><circle cx="610" cy="409" r="13" fill="#6b6ecf" stroke="none" fill-opacity="0.8" filter="url(#shadow)" /><circle cx="729" cy="611" r="17" fill="#a55194" stroke="none" fill-opacity="0.8" filter="url(#shadow)" /><circle cx="666" cy="259" r="74" fill="#637939" stroke="none" fill-opacity="0.8" filter="url(#shadow)" /><circle cx="414" cy="872" r="21" fill="#d6616b" stroke="none" fill-opacity="0.8" filter="url(#shadow)" /><circle cx="879" cy="893" r="19" fill="#393b79" stroke="none" fill-opacity="0.8" filter="url(#shadow)" /><circle cx="42" cy="788" r="25" fill="#8ca252" stroke="none" fill-opacity="0.8" filter="url(#shadow)" /><circle cx="188" cy="165" r="76" fill="#393b79" stroke="none" fill-opacity="0.8" filter="url(#shadow)" /><circle cx="434" cy="524" r="63" fill="#de9ed6" stroke="none" fill-opacity="0.8" filter="url(#shadow)" /><circle cx="513" cy="141" r="56" fill="#de9ed6" stroke="none" fill-opacity="0.8" filter="url(#shadow)" /><circle cx="447" cy="661" r="49" fill="" stroke="none" fill-opacity="0.8" filter="url(#shadow)" /><circle cx="565" cy="599" r="53" fill="#5254a3" stroke="none" fill-opacity="0.8" filter="url(#shadow)" /><circle cx="359" cy="314" r="33" fill="#8c6d31" stroke="none" fill-opacity="0.8" filter="url(#shadow)" /><circle cx="686" cy="867" r="90" fill="#de9ed6" stroke="none" fill-opacity="0.8" filter="url(#shadow)" /><circle cx="421" cy="155" r="22" fill="#6b6ecf" stroke="none" fill-opacity="0.8" filter="url(#shadow)" /><circle cx="63" cy="157" r="10" fill="#7b4173" stroke="none" fill-opacity="0.8" filter="url(#shadow)" /><circle cx="960" cy="680" r="56" fill="" stroke="none" fill-opacity="0.8" filter="url(#shadow)" /><circle cx="29" cy="643" r="26" fill="#bd9e39" stroke="none" fill-opacity="0.8" filter="url(#shadow)" /><circle cx="853" cy="685" r="50" fill="" stroke="none" fill-opacity="0.8" filter="url(#shadow)" /><circle cx="349" cy="856" r="25" fill="#a55194" stroke="none" fill-opacity="0.8" filter="url(#shadow)" /><circle cx="884" cy="348" r="49" fill="#bd9e39" stroke="none" fill-opacity="0.8" filter="url(#shadow)" /><circle cx="729" cy="542" r="32" fill="#b5cf6b" stroke="none" fill-opacity="0.8" filter="url(#shadow)" /><circle cx="127" cy="670" r="8" fill="#bd9e39" stroke="none" fill-opacity="0.8" filter="url(#shadow)" /><circle cx="121" cy="829" r="38" fill="#843c39" stroke="none" fill-opacity="0.8" filter="url(#shadow)" /><circle cx="168" cy="451" r="31" fill="#d6616b" stroke="none" fill-opacity="0.8" filter="url(#shadow)" /><circle cx="325" cy="626" r="8" fill="#7b4173" stroke="none" fill-opacity="0.8" filter="url(#shadow)" /><circle cx="997" cy="453" r="42" fill="#7b4173" stroke="none" fill-opacity="0.8" filter="url(#shadow)" /><circle cx="628" cy="62" r="46" fill="#de9ed6" stroke="none" fill-opacity="0.8" filter="url(#shadow)" /><circle cx="350" cy="680" r="33" fill="#843c39" stroke="none" fill-opacity="0.8" filter="url(#shadow)" /><circle cx="192" cy="579" r="16" fill="#a55194" stroke="none" fill-opacity="0.8" filter="url(#shadow)" /><circle cx="505" cy="996" r="40" fill="#ce6dbd" stroke="none" fill-opacity="0.8" filter="url(#shadow)" /><circle cx="839" cy="12" r="38" fill="#b5cf6b" stroke="none" fill-opacity="0.8" filter="url(#shadow)" /><circle cx="244" cy="477" r="24" fill="#de9ed6" stroke="none" fill-opacity="0.8" filter="url(#shadow)" /><circle cx="650" cy="364" r="26" fill="#e7cb94" stroke="none" fill-opacity="0.8" filter="url(#shadow)" /><circle cx="508" cy="744" r="21" fill="#b5cf6b" stroke="none" fill-opacity="0.8" filter="url(#shadow)" /><circle cx="286" cy="216" r="24" fill="#cedb9c" stroke="none" fill-opacity="0.8" filter="url(#shadow)" /><circle cx="470" cy="333" r="14" fill="#6b6ecf" stroke="none" fill-opacity="0.8" filter="url(#shadow)" /><circle cx="432" cy="298" r="22" fill="#9c9ede" stroke="none" fill-opacity="0.8" filter="url(#shadow)" /><circle cx="6" cy="978" r="49" fill="#bd9e39" stroke="none" fill-opacity="0.8" filter="url(#shadow)" /><circle cx="703" cy="412" r="21" fill="#b5cf6b" stroke="none" fill-opacity="0.8" filter="url(#shadow)" /><circle cx="794" cy="194" r="36" fill="#8c6d31" stroke="none" fill-opacity="0.8" filter="url(#shadow)" /><circle cx="818" cy="264" r="35" fill="#d6616b" stroke="none" fill-opacity="0.8" filter="url(#shadow)" /><circle cx="862" cy="213" r="16" fill="#de9ed6" stroke="none" fill-opacity="0.8" filter="url(#shadow)" /><circle cx="385" cy="862" r="8" fill="" stroke="none" fill-opacity="0.8" filter="url(#shadow)" /><circle cx="432" cy="752" r="20" fill="#ad494a" stroke="none" fill-opacity="0.8" filter="url(#shadow)" /><circle cx="45" cy="600" r="17" fill="#a55194" stroke="none" fill-opacity="0.8" filter="url(#shadow)" /><circle cx="186" cy="815" r="22" fill="#b5cf6b" stroke="none" fill-opacity="0.8" filter="url(#shadow)" /><circle cx="967" cy="391" r="23" fill="#e7ba52" stroke="none" fill-opacity="0.8" filter="url(#shadow)" /><circle cx="255" cy="885" r="36" fill="" stroke="none" fill-opacity="0.8" filter="url(#shadow)" /><circle cx="974" cy="928" r="44" fill="#a55194" stroke="none" fill-opacity="0.8" filter="url(#shadow)" /><circle cx="155" cy="71" r="10" fill="#ad494a" stroke="none" fill-opacity="0.8" filter="url(#shadow)" /><circle cx="716" cy="137" r="20" fill="#ad494a" stroke="none" fill-opacity="0.8" filter="url(#shadow)" /><circle cx="429" cy="824" r="15" fill="#843c39" stroke="none" fill-opacity="0.8" filter="url(#shadow)" /><circle cx="957" cy="872" r="8" fill="#a55194" stroke="none" fill-opacity="0.8" filter="url(#shadow)" /><circle cx="494" cy="222" r="9" fill="#5254a3" stroke="none" fill-opacity="0.8" filter="url(#shadow)" /><circle cx="550" cy="236" r="23" fill="#ad494a" stroke="none" fill-opacity="0.8" filter="url(#shadow)" /><circle cx="155" cy="712" r="16" fill="#e7cb94" stroke="none" fill-opacity="0.8" filter="url(#shadow)" /><circle cx="971" cy="6" r="8" fill="#637939" stroke="none" fill-opacity="0.8" filter="url(#shadow)" /><circle cx="719" cy="461" r="19" fill="#6b6ecf" stroke="none" fill-opacity="0.8" filter="url(#shadow)" /><circle cx="244" cy="366" r="24" fill="#393b79" stroke="none" fill-opacity="0.8" filter="url(#shadow)" /><circle cx="458" cy="598" r="13" fill="" stroke="none" fill-opacity="0.8" filter="url(#shadow)" /><circle cx="105" cy="70" r="17" fill="#5254a3" stroke="none" fill-opacity="0.8" filter="url(#shadow)" /><circle cx="569" cy="485" r="13" fill="#843c39" stroke="none" fill-opacity="0.8" filter="url(#shadow)" /><circle cx="220" cy="6" r="16" fill="#d6616b" stroke="none" fill-opacity="0.8" filter="url(#shadow)" /><circle cx="62" cy="515" r="23" fill="#e7cb94" stroke="none" fill-opacity="0.8" filter="url(#shadow)" /><circle cx="986" cy="784" r="34" fill="#5254a3" stroke="none" fill-opacity="0.8" filter="url(#shadow)" /><circle cx="30" cy="429" r="20" fill="#bd9e39" stroke="none" fill-opacity="0.8" filter="url(#shadow)" /><circle cx="801" cy="114" r="40" fill="#de9ed6" stroke="none" fill-opacity="0.8" filter="url(#shadow)" /><circle cx="979" cy="570" r="31" fill="#7b4173" stroke="none" fill-opacity="0.8" filter="url(#shadow)" /><circle cx="534" cy="801" r="19" fill="#a55194" stroke="none" fill-opacity="0.8" filter="url(#shadow)" /><circle cx="314" cy="271" r="27" fill="#e7969c" stroke="none" fill-opacity="0.8" filter="url(#shadow)" /><circle cx="273" cy="345" r="8" fill="" stroke="none" fill-opacity="0.8" filter="url(#shadow)" /><circle cx="746" cy="771" r="8" fill="#b5cf6b" stroke="none" fill-opacity="0.8" filter="url(#shadow)" /><circle cx="356" cy="468" r="10" fill="#b5cf6b" stroke="none" fill-opacity="0.8" filter="url(#shadow)" /><circle cx="223" cy="64" r="28" fill="#d6616b" stroke="none" fill-opacity="0.8" filter="url(#shadow)" /><circle cx="980" cy="335" r="28" fill="#843c39" stroke="none" fill-opacity="0.8" filter="url(#shadow)" /><circle cx="424" cy="215" r="29" fill="" stroke="none" fill-opacity="0.8" filter="url(#shadow)" /><circle cx="887" cy="411" r="11" fill="#e7cb94" stroke="none" fill-opacity="0.8" filter="url(#shadow)" /><circle cx="39" cy="196" r="29" fill="#e7cb94" stroke="none" fill-opacity="0.8" filter="url(#shadow)" /><circle cx="433" cy="414" r="9" fill="#de9ed6" stroke="none" fill-opacity="0.8" filter="url(#shadow)" /><circle cx="514" cy="873" r="42" fill="#ce6dbd" stroke="none" fill-opacity="0.8" filter="url(#shadow)" /><circle cx="370" cy="775" r="19" fill="" stroke="none" fill-opacity="0.8" filter="url(#shadow)" /><circle cx="558" cy="987" r="9" fill="#de9ed6" stroke="none" fill-opacity="0.8" filter="url(#shadow)" /><circle cx="666" cy="608" r="17" fill="#d6616b" stroke="none" fill-opacity="0.8" filter="url(#shadow)" /><circle cx="315" cy="167" r="17" fill="#bd9e39" stroke="none" fill-opacity="0.8" filter="url(#shadow)" /><circle cx="229" cy="304" r="24" fill="#5254a3" stroke="none" fill-opacity="0.8" filter="url(#shadow)" /><circle cx="159" cy="636" r="20" fill="#5254a3" stroke="none" fill-opacity="0.8" filter="url(#shadow)" /><circle cx="96" cy="741" r="17" fill="#6b6ecf" stroke="none" fill-opacity="0.8" filter="url(#shadow)" /><circle cx="907" cy="761" r="36" fill="#e7969c" stroke="none" fill-opacity="0.8" filter="url(#shadow)" /><circle cx="550" cy="32" r="35" fill="#843c39" stroke="none" fill-opacity="0.8" filter="url(#shadow)" /><circle cx="849" cy="866" r="8" fill="#393b79" stroke="none" fill-opacity="0.8" filter="url(#shadow)" /></g></svg>