
        <svg
        xmlns="http://www.w3.org/2000/svg" 
        viewBox="0 0 1000 1000"
        width="800">
        <filter id='shadow' color-interpolation-filters="sRGB">
            <feDropShadow dx="2" dy="2" stdDeviation="2" flood-opacity="0.4"/>
        </filter>
        <filter id='shadow2' color-interpolation-filters="sRGB">
            <feDropShadow dx="0" dy="0" stdDeviation="5.5" flood-opacity="0.8"/>
        </filter>
    <circle cx="112" cy="424" r="92"fill="#ce6dbd" stroke="none"fill-opacity="0.8"filter="url(#shadow)"/><circle cx="372" cy="373" r="60"fill="#7b4173" stroke="none"fill-opacity="0.8"filter="url(#shadow)"/><circle cx="492" cy="15" r="41"fill="#a55194" stroke="none"fill-opacity="0.8"filter="url(#shadow)"/><circle cx="780" cy="751" r="33"fill="#b5cf6b" stroke="none"fill-opacity="0.8"filter="url(#shadow)"/><circle cx="178" cy="760" r="67"fill="#cedb9c" stroke="none"fill-opacity="0.8"filter="url(#shadow)"/><circle cx="625" cy="15" r="84"fill="#d6616b" stroke="none"fill-opacity="0.8"filter="url(#shadow)"/><circle cx="537" cy="684" r="31"fill="#8c6d31" stroke="none"fill-opacity="0.8"filter="url(#shadow)"/><circle cx="941" cy="322" r="91"fill="#d6616b" stroke="none"fill-opacity="0.8"filter="url(#shadow)"/><circle cx="400" cy="696" r="63"fill="" stroke="none"fill-opacity="0.8"filter="url(#shadow)"/><circle cx="699" cy="579" r="88"fill="#ad494a" stroke="none"fill-opacity="0.8"filter="url(#shadow)"/><circle cx="77" cy="956" r="40"fill="#ce6dbd" stroke="none"fill-opacity="0.8"filter="url(#shadow)"/><circle cx="636" cy="735" r="56"fill="#cedb9c" stroke="none"fill-opacity="0.8"filter="url(#shadow)"/><circle cx="393" cy="260" r="44"fill="#b5cf6b" stroke="none"fill-opacity="0.8"filter="url(#shadow)"/><circle cx="543" cy="195" r="33"fill="#8ca252" stroke="none"fill-opacity="0.8"filter="url(#shadow)"/><circle cx="346" cy="527" r="95"fill="#8c6d31" stroke="none"fill-opacity="0.8"filter="url(#shadow)"/><circle cx="868" cy="999" r="92"fill="#6b6ecf" stroke="none"fill-opacity="0.8"filter="url(#shadow)"/><circle cx="928" cy="876" r="14"fill="#8c6d31" stroke="none"fill-opacity="0.8"filter="url(#shadow)"/><circle cx="593" cy="385" r="19"fill="#843c39" stroke="none"fill-opacity="0.8"filter="url(#shadow)"/><circle cx="155" cy="247" r="37"fill="#d6616b" stroke="none"fill-opacity="0.8"filter="url(#shadow)"/><circle cx="977" cy="703" r="89"fill="" stroke="none"fill-opacity="0.8"filter="url(#shadow)"/><circle cx="32" cy="50" r="20"fill="#e7ba52" stroke="none"fill-opacity="0.8"filter="url(#shadow)"/><circle cx="776" cy="458" r="26"fill="#9c9ede" stroke="none"fill-opacity="0.8"filter="url(#shadow)"/><circle cx="435" cy="821" r="41"fill="#8c6d31" stroke="none"fill-opacity="0.8"filter="url(#shadow)"/><circle cx="298" cy="959" r="22"fill="#5254a3" stroke="none"fill-opacity="0.8"filter="url(#shadow)"/><circle cx="934" cy="30" r="29"fill="#de9ed6" stroke="none"fill-opacity="0.8"filter="url(#shadow)"/><circle cx="10" cy="811" r="21"fill="#393b79" stroke="none"fill-opacity="0.8"filter="url(#shadow)"/><circle cx="394" cy="29" r="24"fill="#bd9e39" stroke="none"fill-opacity="0.8"filter="url(#shadow)"/><circle cx="1" cy="692" r="20"fill="#8ca252" stroke="none"fill-opacity="0.8"filter="url(#shadow)"/><circle cx="429" cy="891" r="14"fill="#de9ed6" stroke="none"fill-opacity="0.8"filter="url(#shadow)"/><circle cx="318" cy="926" r="14"fill="#9c9ede" stroke="none"fill-opacity="0.8"filter="url(#shadow)"/><circle cx="6" cy="516" r="37"fill="#e7ba52" stroke="none"fill-opacity="0.8"filter="url(#shadow)"/><circle cx="531" cy="493" r="87"fill="#393b79" stroke="none"fill-opacity="0.8"filter="url(#shadow)"/><circle cx="197" cy="26" r="17"fill="#bd9e39" stroke="none"fill-opacity="0.8"filter="url(#shadow)"/><circle cx="662" cy="870" r="22"fill="#ad494a" stroke="none"fill-opacity="0.8"filter="url(#shadow)"/><circle cx="277" cy="120" r="19"fill="#637939" stroke="none"fill-opacity="0.8"filter="url(#shadow)"/><circle cx="233" cy="867" r="42"fill="#de9ed6" stroke="none"fill-opacity="0.8"filter="url(#shadow)"/><circle cx="870" cy="540" r="77"fill="#de9ed6" stroke="none"fill-opacity="0.8"filter="url(#shadow)"/><circle cx="688" cy="963" r="10"fill="#ce6dbd" stroke="none"fill-opacity="0.8"filter="url(#shadow)"/><circle cx="764" cy="332" r="72"fill="#a55194" stroke="none"fill-opacity="0.8"filter="url(#shadow)"/><circle cx="24" cy="572" r="17"fill="#637939" stroke="none"fill-opacity="0.8"filter="url(#shadow)"/><circle cx="687" cy="920" r="14"fill="#6b6ecf" stroke="none"fill-opacity="0.8"filter="url(#shadow)"/><circle cx="794" cy="861" r="14"fill="#5254a3" stroke="none"fill-opacity="0.8"filter="url(#shadow)"/><circle cx="762" cy="168" r="30"fill="#393b79" stroke="none"fill-opacity="0.8"filter="url(#shadow)"/><circle cx="260" cy="80" r="11"fill="#9c9ede" stroke="none"fill-opacity="0.8"filter="url(#shadow)"/><circle cx="556" cy="900" r="22"fill="#e7cb94" stroke="none"fill-opacity="0.8"filter="url(#shadow)"/><circle cx="345" cy="965" r="24"fill="#ce6dbd" stroke="none"fill-opacity="0.8"filter="url(#shadow)"/><circle cx="224" cy="141" r="8"fill="#ad494a" stroke="none"fill-opacity="0.8"filter="url(#shadow)"/><circle cx="561" cy="605" r="16"fill="#de9ed6" stroke="none"fill-opacity="0.8"filter="url(#shadow)"/><circle cx="328" cy="155" r="8"fill="#e7969c" stroke="none"fill-opacity="0.8"filter="url(#shadow)"/><circle cx="46" cy="282" r="59"fill="#a55194" stroke="none"fill-opacity="0.8"filter="url(#shadow)"/><circle cx="798" cy="68" r="16"fill="#637939" stroke="none"fill-opacity="0.8"filter="url(#shadow)"/><circle cx="809" cy="261" r="10"fill="#e7ba52" stroke="none"fill-opacity="0.8"filter="url(#shadow)"/><circle cx="804" cy="238" r="12"fill="#b5cf6b" stroke="none"fill-opacity="0.8"filter="url(#shadow)"/><circle cx="445" cy="151" r="35"fill="#5254a3" stroke="none"fill-opacity="0.8"filter="url(#shadow)"/><circle cx="56" cy="187" r="33"fill="#de9ed6" stroke="none"fill-opacity="0.8"filter="url(#shadow)"/><circle cx="822" cy="805" r="32"fill="#bd9e39" stroke="none"fill-opacity="0.8"filter="url(#shadow)"/><circle cx="13" cy="645" r="23"fill="" stroke="none"fill-opacity="0.8"filter="url(#shadow)"/><circle cx="508" cy="806" r="20"fill="#6b6ecf" stroke="none"fill-opacity="0.8"filter="url(#shadow)"/><circle cx="126" cy="46" r="12"fill="" stroke="none"fill-opacity="0.8"filter="url(#shadow)"/><circle cx="315" cy="636" r="14"fill="#de9ed6" stroke="none"fill-opacity="0.8"filter="url(#shadow)"/><circle cx="337" cy="2" r="18"fill="#ce6dbd" stroke="none"fill-opacity="0.8"filter="url(#shadow)"/><circle cx="959" cy="75" r="21"fill="#cedb9c" stroke="none"fill-opacity="0.8"filter="url(#shadow)"/><circle cx="167" cy="578" r="54"fill="" stroke="none"fill-opacity="0.8"filter="url(#shadow)"/><circle cx="767" cy="5" r="54"fill="#cedb9c" stroke="none"fill-opacity="0.8"filter="url(#shadow)"/><circle cx="506" cy="341" r="53"fill="#8c6d31" stroke="none"fill-opacity="0.8"filter="url(#shadow)"/><circle cx="694" cy="236" r="14"fill="#e7ba52" stroke="none"fill-opacity="0.8"filter="url(#shadow)"/><circle cx="597" cy="871" r="24"fill="#e7cb94" stroke="none"fill-opacity="0.8"filter="url(#shadow)"/><circle cx="80" cy="114" r="20"fill="#5254a3" stroke="none"fill-opacity="0.8"filter="url(#shadow)"/><circle cx="251" cy="35" r="23"fill="#8ca252" stroke="none"fill-opacity="0.8"filter="url(#shadow)"/><circle cx="912" cy="839" r="20"fill="#bd9e39" stroke="none"fill-opacity="0.8"filter="url(#shadow)"/><circle cx="200" cy="964" r="57"fill="#e7969c" stroke="none"fill-opacity="0.8"filter="url(#shadow)"/><circle cx="242" cy="564" r="14"fill="#843c39" stroke="none"fill-opacity="0.8"filter="url(#shadow)"/><circle cx="233" cy="279" r="31"fill="#637939" stroke="none"fill-opacity="0.8"filter="url(#shadow)"/><circle cx="32" cy="731" r="22"fill="#637939" stroke="none"fill-opacity="0.8"filter="url(#shadow)"/><circle cx="306" cy="283" r="16"fill="#e7cb94" stroke="none"fill-opacity="0.8"filter="url(#shadow)"/><circle cx="848" cy="841" r="8"fill="#a55194" stroke="none"fill-opacity="0.8"filter="url(#shadow)"/><circle cx="671" cy="279" r="15"fill="#843c39" stroke="none"fill-opacity="0.8"filter="url(#shadow)"/><circle cx="357" cy="903" r="24"fill="#e7969c" stroke="none"fill-opacity="0.8"filter="url(#shadow)"/><circle cx="354" cy="117" r="18"fill="#ce6dbd" stroke="none"fill-opacity="0.8"filter="url(#shadow)"/><circle cx="933" cy="153" r="33"fill="#de9ed6" stroke="none"fill-opacity="0.8"filter="url(#shadow)"/><circle cx="79" cy="784" r="14"fill="#e7ba52" stroke="none"fill-opacity="0.8"filter="url(#shadow)"/><circle cx="766" cy="935" r="9"fill="" stroke="none"fill-opacity="0.8"filter="url(#shadow)"/><circle cx="797" cy="703" r="13"fill="" stroke="none"fill-opacity="0.8"filter="url(#shadow)"/><circle cx="69" cy="728" r="8"fill="#bd9e39" stroke="none"fill-opacity="0.8"filter="url(#shadow)"/><circle cx="707" cy="787" r="22"fill="#e7cb94" stroke="none"fill-opacity="0.8"filter="url(#shadow)"/><circle cx="471" cy="617" r="40"fill="#cedb9c" stroke="none"fill-opacity="0.8"filter="url(#shadow)"/><circle cx="748" cy="849" r="30"fill="#5254a3" stroke="none"fill-opacity="0.8"filter="url(#shadow)"/><circle cx="978" cy="477" r="20"fill="#637939" stroke="none"fill-opacity="0.8"filter="url(#shadow)"/><circle cx="93" cy="701" r="21"fill="" stroke="none"fill-opacity="0.8"filter="url(#shadow)"/><circle cx="489" cy="839" r="11"fill="#e7969c" stroke="none"fill-opacity="0.8"filter="url(#shadow)"/><circle cx="930" cy="458" r="17"fill="" stroke="none"fill-opacity="0.8"filter="url(#shadow)"/><circle cx="574" cy="276" r="9"fill="" stroke="none"fill-opacity="0.8"filter="url(#shadow)"/><circle cx="795" cy="649" r="25"fill="#e7969c" stroke="none"fill-opacity="0.8"filter="url(#shadow)"/><circle cx="720" cy="100" r="31"fill="#d6616b" stroke="none"fill-opacity="0.8"filter="url(#shadow)"/><circle cx="271" cy="387" r="8"fill="#9c9ede" stroke="none"fill-opacity="0.8"filter="url(#shadow)"/><circle cx="565" cy="647" r="12"fill="#7b4173" stroke="none"fill-opacity="0.8"filter="url(#shadow)"/><circle cx="97" cy="51" r="8"fill="" stroke="none"fill-opacity="0.8"filter="url(#shadow)"/><circle cx="605" cy="979" r="57"fill="#e7ba52" stroke="none"fill-opacity="0.8"filter="url(#shadow)"/><circle cx="824" cy="719" r="12"fill="#e7969c" stroke="none"fill-opacity="0.8"filter="url(#shadow)"/><circle cx="329" cy="231" r="17"fill="" stroke="none"fill-opacity="0.8"filter="url(#shadow)"/><circle cx="496" cy="991" r="51"fill="" stroke="none"fill-opacity="0.8"filter="url(#shadow)"/><circle cx="810" cy="205" r="19"fill="" stroke="none"fill-opacity="0.8"filter="url(#shadow)"/><circle cx="999" cy="186" r="23"fill="#6b6ecf" stroke="none"fill-opacity="0.8"filter="url(#shadow)"/><circle cx="259" cy="647" r="27"fill="" stroke="none"fill-opacity="0.8"filter="url(#shadow)"/><circle cx="256" cy="179" r="39"fill="" stroke="none"fill-opacity="0.8"filter="url(#shadow)"/><circle cx="820" cy="405" r="11"fill="#6b6ecf" stroke="none"fill-opacity="0.8"filter="url(#shadow)"/><circle cx="79" cy="6" r="32"fill="#b5cf6b" stroke="none"fill-opacity="0.8"filter="url(#shadow)"/><circle cx="242" cy="341" r="29"fill="#e7969c" stroke="none"fill-opacity="0.8"filter="url(#shadow)"/><circle cx="635" cy="407" r="22"fill="#e7cb94" stroke="none"fill-opacity="0.8"filter="url(#shadow)"/><circle cx="164" cy="875" r="10"fill="#e7969c" stroke="none"fill-opacity="0.8"filter="url(#shadow)"/><circle cx="994" cy="415" r="8"fill="#e7969c" stroke="none"fill-opacity="0.8"filter="url(#shadow)"/><circle cx="320" cy="733" r="25"fill="#bd9e39" stroke="none"fill-opacity="0.8"filter="url(#shadow)"/><circle cx="710" cy="440" r="30"fill="#e7cb94" stroke="none"fill-opacity="0.8"filter="url(#shadow)"/><circle cx="611" cy="308" r="10"fill="" stroke="none"fill-opacity="0.8"filter="url(#shadow)"/><circle cx="804" cy="119" r="29"fill="" stroke="none"fill-opacity="0.8"filter="url(#shadow)"/><circle cx="993" cy="941" r="28"fill="#ce6dbd" stroke="none"fill-opacity="0.8"filter="url(#shadow)"/><circle cx="27" cy="894" r="10"fill="#e7969c" stroke="none"fill-opacity="0.8"filter="url(#shadow)"/><circle cx="449" cy="265" r="9"fill="#e7969c" stroke="none"fill-opacity="0.8"filter="url(#shadow)"/><circle cx="182" cy="186" r="22"fill="#cedb9c" stroke="none"fill-opacity="0.8"filter="url(#shadow)"/><circle cx="313" cy="51" r="19"fill="#5254a3" stroke="none"fill-opacity="0.8"filter="url(#shadow)"/><circle cx="957" cy="212" r="18"fill="#843c39" stroke="none"fill-opacity="0.8"filter="url(#shadow)"/><circle cx="772" cy="970" r="8"fill="#7b4173" stroke="none"fill-opacity="0.8"filter="url(#shadow)"/></svg>