
        <svg
        xmlns="http://www.w3.org/2000/svg"
        viewBox="0 0 1000 1000"
        width="800" stroke="black" stroke-width="4">
        <filter id='shadow' color-interpolation-filters="sRGB">
            <feDropShadow dx="2" dy="2" stdDeviation="2" flood-opacity="0.4"/>
        </filter>
        <filter id='shadow2' color-interpolation-filters="sRGB">
            <feDropShadow dx="0" dy="0" stdDeviation="5.5" flood-opacity=".8"/>
        </filter>
        <g >
        <rect x="0" y="0" width="100%" height="100%" fill="#ccc"
                stroke-width="8" stroke="none" />
    <circle cx="898" cy="962" r="10" fill="#637939" stroke="none" fill-opacity="0.8" filter="url(#shadow)" /><circle cx="320" cy="345" r="49" fill="#8ca252" stroke="none" fill-opacity="0.8" filter="url(#shadow)" /><circle cx="994" cy="393" r="13" fill="#a55194" stroke="none" fill-opacity="0.8" filter="url(#shadow)" /><circle cx="596" cy="494" r="11" fill="#637939" stroke="none" fill-opacity="0.8" filter="url(#shadow)" /><circle cx="487" cy="808" r="77" fill="#7b4173" stroke="none" fill-opacity="0.8" filter="url(#shadow)" /><circle cx="416" cy="506" r="55" fill="" stroke="none" fill-opacity="0.8" filter="url(#shadow)" /><circle cx="676" cy="128" r="62" fill="#9c9ede" stroke="none" fill-opacity="0.8" filter="url(#shadow)" /><circle cx="477" cy="3" r="33" fill="#ce6dbd" stroke="none" fill-opacity="0.8" filter="url(#shadow)" /><circle cx="948" cy="665" r="93" fill="#bd9e39" stroke="none" fill-opacity="0.8" filter="url(#shadow)" /><circle cx="985" cy="232" r="81" fill="#cedb9c" stroke="none" fill-opacity="0.8" filter="url(#shadow)" /><circle cx="743" cy="691" r="95" fill="#e7969c" stroke="none" fill-opacity="0.8" filter="url(#shadow)" /><circle cx="175" cy="966" r="95" fill="#d6616b" stroke="none" fill-opacity="0.8" filter="url(#shadow)" /><circle cx="326" cy="115" r="20" fill="#e7969c" stroke="none" fill-opacity="0.8" filter="url(#shadow)" /><circle cx="783" cy="178" r="38" fill="#637939" stroke="none" fill-opacity="0.8" filter="url(#shadow)" /><circle cx="889" cy="130" r="42" fill="#e7cb94" stroke="none" fill-opacity="0.8" filter="url(#shadow)" /><circle cx="429" cy="251" r="44" fill="#e7cb94" stroke="none" fill-opacity="0.8" filter="url(#shadow)" /><circle cx="576" cy="910" r="35" fill="#637939" stroke="none" fill-opacity="0.8" filter="url(#shadow)" /><circle cx="843" cy="276" r="9" fill="#e7cb94" stroke="none" fill-opacity="0.8" filter="url(#shadow)" /><circle cx="855" cy="502" r="58" fill="#9c9ede" stroke="none" fill-opacity="0.8" filter="url(#shadow)" /><circle cx="184" cy="666" r="14" fill="#e7cb94" stroke="none" fill-opacity="0.8" filter="url(#shadow)" /><circle cx="848" cy="5" r="34" fill="" stroke="none" fill-opacity="0.8" filter="url(#shadow)" /><circle cx="72" cy="325" r="31" fill="" stroke="none" fill-opacity="0.8" filter="url(#shadow)" /><circle cx="374" cy="718" r="8" fill="#ce6dbd" stroke="none" fill-opacity="0.8" filter="url(#shadow)" /><circle cx="7" cy="59" r="37" fill="#e7ba52" stroke="none" fill-opacity="0.8" filter="url(#shadow)" /><circle cx="296" cy="464" r="65" fill="#8c6d31" stroke="none" fill-opacity="0.8" filter="url(#shadow)" /><circle cx="655" cy="464" r="33" fill="#9c9ede" stroke="none" fill-opacity="0.8" filter="url(#shadow)" /><circle cx="116" cy="573" r="53" fill="#8ca252" stroke="none" fill-opacity="0.8" filter="url(#shadow)" /><circle cx="709" cy="544" r="47" fill="#8c6d31" stroke="none" fill-opacity="0.8" filter="url(#shadow)" /><circle cx="801" cy="871" r="55" fill="#8ca252" stroke="none" fill-opacity="0.8" filter="url(#shadow)" /><circle cx="397" cy="981" r="37" fill="#393b79" stroke="none" fill-opacity="0.8" filter="url(#shadow)" /><circle cx="114" cy="667" r="36" fill="#d6616b" stroke="none" fill-opacity="0.8" filter="url(#shadow)" /><circle cx="924" cy="26" r="19" fill="#8c6d31" stroke="none" fill-opacity="0.8" filter="url(#shadow)" /><circle cx="243" cy="137" r="60" fill="#b5cf6b" stroke="none" fill-opacity="0.8" filter="url(#shadow)" /><circle cx="526" cy="353" r="34" fill="#637939" stroke="none" fill-opacity="0.8" filter="url(#shadow)" /><circle cx="627" cy="354" r="25" fill="#a55194" stroke="none" fill-opacity="0.8" filter="url(#shadow)" /><circle cx="134" cy="455" r="14" fill="#e7ba52" stroke="none" fill-opacity="0.8" filter="url(#shadow)" /><circle cx="530" cy="679" r="39" fill="#8ca252" stroke="none" fill-opacity="0.8" filter="url(#shadow)" /><circle cx="994" cy="450" r="33" fill="#393b79" stroke="none" fill-opacity="0.8" filter="url(#shadow)" /><circle cx="72" cy="218" r="50" fill="" stroke="none" fill-opacity="0.8" filter="url(#shadow)" /><circle cx="630" cy="801" r="61" fill="#ad494a" stroke="none" fill-opacity="0.8" filter="url(#shadow)" /><circle cx="124" cy="814" r="51" fill="#e7ba52" stroke="none" fill-opacity="0.8" filter="url(#shadow)" /><circle cx="13" cy="589" r="13" fill="#bd9e39" stroke="none" fill-opacity="0.8" filter="url(#shadow)" /><circle cx="409" cy="94" r="15" fill="#393b79" stroke="none" fill-opacity="0.8" filter="url(#shadow)" /><circle cx="534" cy="76" r="43" fill="#a55194" stroke="none" fill-opacity="0.8" filter="url(#shadow)" /><circle cx="887" cy="781" r="9" fill="#637939" stroke="none" fill-opacity="0.8" filter="url(#shadow)" /><circle cx="875" cy="415" r="23" fill="" stroke="none" fill-opacity="0.8" filter="url(#shadow)" /><circle cx="916" cy="826" r="15" fill="#b5cf6b" stroke="none" fill-opacity="0.8" filter="url(#shadow)" /><circle cx="255" cy="806" r="58" fill="#8c6d31" stroke="none" fill-opacity="0.8" filter="url(#shadow)" /><circle cx="714" cy="307" r="36" fill="#de9ed6" stroke="none" fill-opacity="0.8" filter="url(#shadow)" /><circle cx="43" cy="827" r="18" fill="#7b4173" stroke="none" fill-opacity="0.8" filter="url(#shadow)" /><circle cx="579" cy="629" r="15" fill="#ce6dbd" stroke="none" fill-opacity="0.8" filter="url(#shadow)" /><circle cx="666" cy="912" r="28" fill="#7b4173" stroke="none" fill-opacity="0.8" filter="url(#shadow)" /><circle cx="194" cy="293" r="35" fill="#637939" stroke="none" fill-opacity="0.8" filter="url(#shadow)" /><circle cx="27" cy="447" r="91" fill="#5254a3" stroke="none" fill-opacity="0.8" filter="url(#shadow)" /><circle cx="588" cy="452" r="11" fill="#de9ed6" stroke="none" fill-opacity="0.8" filter="url(#shadow)" /><circle cx="33" cy="925" r="52" fill="#ce6dbd" stroke="none" fill-opacity="0.8" filter="url(#shadow)" /><circle cx="980" cy="128" r="9" fill="#e7ba52" stroke="none" fill-opacity="0.8" filter="url(#shadow)" /><circle cx="346" cy="136" r="9" fill="#843c39" stroke="none" fill-opacity="0.8" filter="url(#shadow)" /><circle cx="404" cy="158" r="23" fill="#e7cb94" stroke="none" fill-opacity="0.8" filter="url(#shadow)" /><circle cx="94" cy="734" r="12" fill="" stroke="none" fill-opacity="0.8" filter="url(#shadow)" /><circle cx="13" cy="711" r="53" fill="#ad494a" stroke="none" fill-opacity="0.8" filter="url(#shadow)" /><circle cx="175" cy="1" r="69" fill="#8ca252" stroke="none" fill-opacity="0.8" filter="url(#shadow)" /><circle cx="606" cy="673" r="31" fill="#cedb9c" stroke="none" fill-opacity="0.8" filter="url(#shadow)" /><circle cx="811" cy="312" r="23" fill="#637939" stroke="none" fill-opacity="0.8" filter="url(#shadow)" /><circle cx="501" cy="977" r="13" fill="#a55194" stroke="none" fill-opacity="0.8" filter="url(#shadow)" /><circle cx="977" cy="862" r="28" fill="#5254a3" stroke="none" fill-opacity="0.8" filter="url(#shadow)" /><circle cx="868" cy="942" r="12" fill="#8ca252" stroke="none" fill-opacity="0.8" filter="url(#shadow)" /><circle cx="150" cy="407" r="19" fill="#843c39" stroke="none" fill-opacity="0.8" filter="url(#shadow)" /><circle cx="811" cy="589" r="21" fill="#8ca252" stroke="none" fill-opacity="0.8" filter="url(#shadow)" /><circle cx="293" cy="557" r="8" fill="#a55194" stroke="none" fill-opacity="0.8" filter="url(#shadow)" /><circle cx="325" cy="251" r="8" fill="#9c9ede" stroke="none" fill-opacity="0.8" filter="url(#shadow)" /><circle cx="353" cy="7" r="34" fill="#e7cb94" stroke="none" fill-opacity="0.8" filter="url(#shadow)" /><circle cx="547" cy="190" r="13" fill="#7b4173" stroke="none" fill-opacity="0.8" filter="url(#shadow)" /><circle cx="537" cy="515" r="31" fill="#7b4173" stroke="none" fill-opacity="0.8" filter="url(#shadow)" /><circle cx="411" cy="648" r="70" fill="#b5cf6b" stroke="none" fill-opacity="0.8" filter="url(#shadow)" /><circle cx="543" cy="444" r="18" fill="#6b6ecf" stroke="none" fill-opacity="0.8" filter="url(#shadow)" /><circle cx="504" cy="196" r="27" fill="#e7ba52" stroke="none" fill-opacity="0.8" filter="url(#shadow)" /><circle cx="873" cy="256" r="22" fill="#cedb9c" stroke="none" fill-opacity="0.8" filter="url(#shadow)" /><circle cx="641" cy="8" r="46" fill="" stroke="none" fill-opacity="0.8" filter="url(#shadow)" /><circle cx="159" cy="166" r="9" fill="" stroke="none" fill-opacity="0.8" filter="url(#shadow)" /><circle cx="604" cy="401" r="17" fill="#bd9e39" stroke="none" fill-opacity="0.8" filter="url(#shadow)" /><circle cx="605" cy="980" r="11" fill="" stroke="none" fill-opacity="0.8" filter="url(#shadow)" /><circle cx="584" cy="241" r="28" fill="#ce6dbd" stroke="none" fill-opacity="0.8" filter="url(#shadow)" /><circle cx="42" cy="584" r="12" fill="#e7969c" stroke="none" fill-opacity="0.8" filter="url(#shadow)" /><circle cx="940" cy="996" r="39" fill="" stroke="none" fill-opacity="0.8" filter="url(#shadow)" /><circle cx="863" cy="746" r="13" fill="#e7ba52" stroke="none" fill-opacity="0.8" filter="url(#shadow)" /><circle cx="916" cy="414" r="13" fill="#d6616b" stroke="none" fill-opacity="0.8" filter="url(#shadow)" /><circle cx="301" cy="906" r="42" fill="#393b79" stroke="none" fill-opacity="0.8" filter="url(#shadow)" /><circle cx="92" cy="134" r="16" fill="#8ca252" stroke="none" fill-opacity="0.8" filter="url(#shadow)" /><circle cx="732" cy="420" r="27" fill="#8ca252" stroke="none" fill-opacity="0.8" filter="url(#shadow)" /><circle cx="305" cy="585" r="14" fill="#8ca252" stroke="none" fill-opacity="0.8" filter="url(#shadow)" /><circle cx="739" cy="956" r="10" fill="#ce6dbd" stroke="none" fill-opacity="0.8" filter="url(#shadow)" /><circle cx="402" cy="347" r="30" fill="#d6616b" stroke="none" fill-opacity="0.8" filter="url(#shadow)" /><circle cx="859" cy="183" r="9" fill="" stroke="none" fill-opacity="0.8" filter="url(#shadow)" /><circle cx="164" cy="230" r="26" fill="#5254a3" stroke="none" fill-opacity="0.8" filter="url(#shadow)" /><circle cx="210" cy="397" r="17" fill="#843c39" stroke="none" fill-opacity="0.8" filter="url(#shadow)" /><circle cx="391" cy="398" r="12" fill="#e7ba52" stroke="none" fill-opacity="0.8" filter="url(#shadow)" /><circle cx="839" cy="359" r="19" fill="#9c9ede" stroke="none" fill-opacity="0.8" filter="url(#shadow)" /><circle cx="614" cy="63" r="13" fill="#e7ba52" stroke="none" fill-opacity="0.8" filter="url(#shadow)" /><circle cx="36" cy="112" r="19" fill="#a55194" stroke="none" fill-opacity="0.8" filter="url(#shadow)" /><circle cx="310" cy="191" r="26" fill="#d6616b" stroke="none" fill-opacity="0.8" filter="url(#shadow)" /><circle cx="999" cy="59" r="17" fill="#e7969c" stroke="none" fill-opacity="0.8" filter="url(#shadow)" /><circle cx="691" cy="226" r="17" fill="#843c39" stroke="none" fill-opacity="0.8" filter="url(#shadow)" /><circle cx="374" cy="305" r="14" fill="#e7ba52" stroke="none" fill-opacity="0.8" filter="url(#shadow)" /><circle cx="470" cy="408" r="15" fill="#b5cf6b" stroke="none" fill-opacity="0.8" filter="url(#shadow)" /><circle cx="290" cy="696" r="51" fill="#ce6dbd" stroke="none" fill-opacity="0.8" filter="url(#shadow)" /><circle cx="622" cy="572" r="22" fill="#a55194" stroke="none" fill-opacity="0.8" filter="url(#shadow)" /><circle cx="126" cy="123" r="12" fill="#b5cf6b" stroke="none" fill-opacity="0.8" filter="url(#shadow)" /><circle cx="212" cy="536" r="27" fill="#e7cb94" stroke="none" fill-opacity="0.8" filter="url(#shadow)" /><circle cx="380" cy="903" r="34" fill="#e7ba52" stroke="none" fill-opacity="0.8" filter="url(#shadow)" /><circle cx="480" cy="440" r="10" fill="#b5cf6b" stroke="none" fill-opacity="0.8" filter="url(#shadow)" /><circle cx="11" cy="984" r="9" fill="#843c39" stroke="none" fill-opacity="0.8" filter="url(#shadow)" /><circle cx="659" cy="976" r="15" fill="#e7cb94" stroke="none" fill-opacity="0.8" filter="url(#shadow)" /><circle cx="103" cy="96" r="9" fill="#7b4173" stroke="none" fill-opacity="0.8" filter="url(#shadow)" /><circle cx="952" cy="394" r="13" fill="#5254a3" stroke="none" fill-opacity="0.8" filter="url(#shadow)" /><circle cx="229" cy="234" r="28" fill="" stroke="none" fill-opacity="0.8" filter="url(#shadow)" /><circle cx="560" cy="741" r="18" fill="#ce6dbd" stroke="none" fill-opacity="0.8" filter="url(#shadow)" /><circle cx="773" cy="582" r="10" fill="#5254a3" stroke="none" fill-opacity="0.8" filter="url(#shadow)" /><circle cx="779" cy="83" r="41" fill="#5254a3" stroke="none" fill-opacity="0.8" filter="url(#shadow)" /><circle cx="61" cy="13" r="10" fill="#8c6d31" stroke="none" fill-opacity="0.8" filter="url(#shadow)" /><circle cx="9" cy="7" r="9" fill="#d6616b" stroke="none" fill-opacity="0.8" filter="url(#shadow)" /><circle cx="327" cy="838" r="12" fill="#ce6dbd" stroke="none" fill-opacity="0.8" filter="url(#shadow)" /><circle cx="533" cy="288" r="24" fill="#637939" stroke="none" fill-opacity="0.8" filter="url(#shadow)" /><circle cx="470" cy="375" r="12" fill="#e7969c" stroke="none" fill-opacity="0.8" filter="url(#shadow)" /><circle cx="915" cy="914" r="19" fill="#8c6d31" stroke="none" fill-opacity="0.8" filter="url(#shadow)" /><circle cx="971" cy="497" r="15" fill="" stroke="none" fill-opacity="0.8" filter="url(#shadow)" /><circle cx="578" cy="585" r="19" fill="#b5cf6b" stroke="none" fill-opacity="0.8" filter="url(#shadow)" /><circle cx="930" cy="558" r="11" fill="#637939" stroke="none" fill-opacity="0.8" filter="url(#shadow)" /><circle cx="50" cy="785" r="20" fill="#a55194" stroke="none" fill-opacity="0.8" filter="url(#shadow)" /><circle cx="749" cy="250" r="13" fill="#e7ba52" stroke="none" fill-opacity="0.8" filter="url(#shadow)" /><circle cx="464" cy="88" r="28" fill="#5254a3" stroke="none" fill-opacity="0.8" filter="url(#shadow)" /><circle cx="361" cy="205" r="16" fill="#393b79" stroke="none" fill-opacity="0.8" filter="url(#shadow)" /><circle cx="790" cy="968" r="26" fill="#e7ba52" stroke="none" fill-opacity="0.8" filter="url(#shadow)" /></g></svg>