
        <svg
        xmlns="http://www.w3.org/2000/svg"
        viewBox="0 0 1000 1000"
        width="800" stroke="black" stroke-width="4">
        <filter id='shadow' color-interpolation-filters="sRGB">
            <feDropShadow dx="2" dy="2" stdDeviation="2" flood-opacity="0.4"/>
        </filter>
        <filter id='shadow2' color-interpolation-filters="sRGB">
            <feDropShadow dx="0" dy="0" stdDeviation="5.5" flood-opacity=".8"/>
        </filter>
        <g >
        <rect x="0" y="0" width="100%" height="100%" fill="#ccc"
                stroke-width="8" stroke="none" />
    <circle cx="716" cy="877" r="85" fill="#843c39" stroke="none" fill-opacity="0.8" filter="url(#shadow)" /><circle cx="974" cy="396" r="74" fill="#5254a3" stroke="none" fill-opacity="0.8" filter="url(#shadow)" /><circle cx="795" cy="385" r="23" fill="#de9ed6" stroke="none" fill-opacity="0.8" filter="url(#shadow)" /><circle cx="740" cy="44" r="64" fill="#ad494a" stroke="none" fill-opacity="0.8" filter="url(#shadow)" /><circle cx="636" cy="695" r="78" fill="#bd9e39" stroke="none" fill-opacity="0.8" filter="url(#shadow)" /><circle cx="948" cy="850" r="45" fill="" stroke="none" fill-opacity="0.8" filter="url(#shadow)" /><circle cx="110" cy="180" r="38" fill="#ce6dbd" stroke="none" fill-opacity="0.8" filter="url(#shadow)" /><circle cx="762" cy="161" r="46" fill="#8ca252" stroke="none" fill-opacity="0.8" filter="url(#shadow)" /><circle cx="666" cy="376" r="71" fill="#7b4173" stroke="none" fill-opacity="0.8" filter="url(#shadow)" /><circle cx="258" cy="447" r="19" fill="" stroke="none" fill-opacity="0.8" filter="url(#shadow)" /><circle cx="807" cy="271" r="38" fill="#8ca252" stroke="none" fill-opacity="0.8" filter="url(#shadow)" /><circle cx="104" cy="669" r="14" fill="#ad494a" stroke="none" fill-opacity="0.8" filter="url(#shadow)" /><circle cx="378" cy="945" r="39" fill="#7b4173" stroke="none" fill-opacity="0.8" filter="url(#shadow)" /><circle cx="862" cy="163" r="15" fill="#de9ed6" stroke="none" fill-opacity="0.8" filter="url(#shadow)" /><circle cx="51" cy="240" r="12" fill="#7b4173" stroke="none" fill-opacity="0.8" filter="url(#shadow)" /><circle cx="296" cy="773" r="50" fill="#bd9e39" stroke="none" fill-opacity="0.8" filter="url(#shadow)" /><circle cx="927" cy="676" r="14" fill="#7b4173" stroke="none" fill-opacity="0.8" filter="url(#shadow)" /><circle cx="817" cy="580" r="75" fill="#de9ed6" stroke="none" fill-opacity="0.8" filter="url(#shadow)" /><circle cx="198" cy="6" r="48" fill="#e7cb94" stroke="none" fill-opacity="0.8" filter="url(#shadow)" /><circle cx="549" cy="31" r="39" fill="" stroke="none" fill-opacity="0.8" filter="url(#shadow)" /><circle cx="158" cy="378" r="79" fill="#cedb9c" stroke="none" fill-opacity="0.8" filter="url(#shadow)" /><circle cx="20" cy="20" r="42" fill="#843c39" stroke="none" fill-opacity="0.8" filter="url(#shadow)" /><circle cx="281" cy="256" r="72" fill="#9c9ede" stroke="none" fill-opacity="0.8" filter="url(#shadow)" /><circle cx="291" cy="646" r="37" fill="#8ca252" stroke="none" fill-opacity="0.8" filter="url(#shadow)" /><circle cx="199" cy="527" r="8" fill="#8ca252" stroke="none" fill-opacity="0.8" filter="url(#shadow)" /><circle cx="408" cy="605" r="71" fill="#7b4173" stroke="none" fill-opacity="0.8" filter="url(#shadow)" /><circle cx="474" cy="522" r="8" fill="#b5cf6b" stroke="none" fill-opacity="0.8" filter="url(#shadow)" /><circle cx="412" cy="325" r="53" fill="#e7cb94" stroke="none" fill-opacity="0.8" filter="url(#shadow)" /><circle cx="4" cy="708" r="28" fill="#bd9e39" stroke="none" fill-opacity="0.8" filter="url(#shadow)" /><circle cx="163" cy="848" r="73" fill="" stroke="none" fill-opacity="0.8" filter="url(#shadow)" /><circle cx="370" cy="123" r="10" fill="#e7969c" stroke="none" fill-opacity="0.8" filter="url(#shadow)" /><circle cx="235" cy="685" r="19" fill="" stroke="none" fill-opacity="0.8" filter="url(#shadow)" /><circle cx="739" cy="754" r="10" fill="#cedb9c" stroke="none" fill-opacity="0.8" filter="url(#shadow)" /><circle cx="508" cy="255" r="50" fill="#9c9ede" stroke="none" fill-opacity="0.8" filter="url(#shadow)" /><circle cx="888" cy="115" r="30" fill="#d6616b" stroke="none" fill-opacity="0.8" filter="url(#shadow)" /><circle cx="555" cy="382" r="40" fill="#a55194" stroke="none" fill-opacity="0.8" filter="url(#shadow)" /><circle cx="205" cy="181" r="13" fill="#7b4173" stroke="none" fill-opacity="0.8" filter="url(#shadow)" /><circle cx="244" cy="101" r="55" fill="#393b79" stroke="none" fill-opacity="0.8" filter="url(#shadow)" /><circle cx="830" cy="869" r="28" fill="#e7ba52" stroke="none" fill-opacity="0.8" filter="url(#shadow)" /><circle cx="656" cy="180" r="38" fill="" stroke="none" fill-opacity="0.8" filter="url(#shadow)" /><circle cx="492" cy="802" r="94" fill="#bd9e39" stroke="none" fill-opacity="0.8" filter="url(#shadow)" /><circle cx="91" cy="481" r="34" fill="#7b4173" stroke="none" fill-opacity="0.8" filter="url(#shadow)" /><circle cx="196" cy="631" r="21" fill="" stroke="none" fill-opacity="0.8" filter="url(#shadow)" /><circle cx="241" cy="561" r="43" fill="#6b6ecf" stroke="none" fill-opacity="0.8" filter="url(#shadow)" /><circle cx="70" cy="311" r="23" fill="#5254a3" stroke="none" fill-opacity="0.8" filter="url(#shadow)" /><circle cx="325" cy="432" r="46" fill="#a55194" stroke="none" fill-opacity="0.8" filter="url(#shadow)" /><circle cx="615" cy="559" r="32" fill="#bd9e39" stroke="none" fill-opacity="0.8" filter="url(#shadow)" /><circle cx="9" cy="623" r="45" fill="#e7969c" stroke="none" fill-opacity="0.8" filter="url(#shadow)" /><circle cx="959" cy="17" r="44" fill="#393b79" stroke="none" fill-opacity="0.8" filter="url(#shadow)" /><circle cx="486" cy="472" r="35" fill="#bd9e39" stroke="none" fill-opacity="0.8" filter="url(#shadow)" /><circle cx="981" cy="177" r="73" fill="#e7cb94" stroke="none" fill-opacity="0.8" filter="url(#shadow)" /><circle cx="112" cy="32" r="26" fill="#b5cf6b" stroke="none" fill-opacity="0.8" filter="url(#shadow)" /><circle cx="307" cy="161" r="10" fill="" stroke="none" fill-opacity="0.8" filter="url(#shadow)" /><circle cx="79" cy="817" r="14" fill="#5254a3" stroke="none" fill-opacity="0.8" filter="url(#shadow)" /><circle cx="995" cy="780" r="21" fill="#8ca252" stroke="none" fill-opacity="0.8" filter="url(#shadow)" /><circle cx="175" cy="570" r="23" fill="#8c6d31" stroke="none" fill-opacity="0.8" filter="url(#shadow)" /><circle cx="795" cy="751" r="45" fill="#de9ed6" stroke="none" fill-opacity="0.8" filter="url(#shadow)" /><circle cx="66" cy="629" r="12" fill="" stroke="none" fill-opacity="0.8" filter="url(#shadow)" /><circle cx="501" cy="123" r="63" fill="#8c6d31" stroke="none" fill-opacity="0.8" filter="url(#shadow)" /><circle cx="981" cy="548" r="38" fill="#ad494a" stroke="none" fill-opacity="0.8" filter="url(#shadow)" /><circle cx="840" cy="75" r="26" fill="" stroke="none" fill-opacity="0.8" filter="url(#shadow)" /><circle cx="730" cy="635" r="26" fill="#393b79" stroke="none" fill-opacity="0.8" filter="url(#shadow)" /><circle cx="854" cy="411" r="35" fill="#b5cf6b" stroke="none" fill-opacity="0.8" filter="url(#shadow)" /><circle cx="81" cy="989" r="62" fill="#5254a3" stroke="none" fill-opacity="0.8" filter="url(#shadow)" /><circle cx="621" cy="448" r="10" fill="#9c9ede" stroke="none" fill-opacity="0.8" filter="url(#shadow)" /><circle cx="421" cy="467" r="21" fill="#7b4173" stroke="none" fill-opacity="0.8" filter="url(#shadow)" /><circle cx="319" cy="993" r="33" fill="#8c6d31" stroke="none" fill-opacity="0.8" filter="url(#shadow)" /><circle cx="654" cy="962" r="14" fill="#ce6dbd" stroke="none" fill-opacity="0.8" filter="url(#shadow)" /><circle cx="387" cy="200" r="42" fill="#cedb9c" stroke="none" fill-opacity="0.8" filter="url(#shadow)" /><circle cx="501" cy="636" r="22" fill="#8c6d31" stroke="none" fill-opacity="0.8" filter="url(#shadow)" /><circle cx="659" cy="231" r="9" fill="#6b6ecf" stroke="none" fill-opacity="0.8" filter="url(#shadow)" /><circle cx="598" cy="497" r="15" fill="#5254a3" stroke="none" fill-opacity="0.8" filter="url(#shadow)" /><circle cx="587" cy="969" r="40" fill="#843c39" stroke="none" fill-opacity="0.8" filter="url(#shadow)" /><circle cx="965" cy="950" r="34" fill="#b5cf6b" stroke="none" fill-opacity="0.8" filter="url(#shadow)" /><circle cx="315" cy="30" r="37" fill="" stroke="none" fill-opacity="0.8" filter="url(#shadow)" /><circle cx="337" cy="551" r="14" fill="#ce6dbd" stroke="none" fill-opacity="0.8" filter="url(#shadow)" /><circle cx="264" cy="893" r="34" fill="#d6616b" stroke="none" fill-opacity="0.8" filter="url(#shadow)" /><circle cx="995" cy="609" r="13" fill="#e7969c" stroke="none" fill-opacity="0.8" filter="url(#shadow)" /><circle cx="143" cy="252" r="15" fill="#de9ed6" stroke="none" fill-opacity="0.8" filter="url(#shadow)" /><circle cx="76" cy="128" r="10" fill="#393b79" stroke="none" fill-opacity="0.8" filter="url(#shadow)" /><circle cx="498" cy="995" r="47" fill="#de9ed6" stroke="none" fill-opacity="0.8" filter="url(#shadow)" /><circle cx="537" cy="544" r="23" fill="#bd9e39" stroke="none" fill-opacity="0.8" filter="url(#shadow)" /><circle cx="857" cy="14" r="22" fill="#ad494a" stroke="none" fill-opacity="0.8" filter="url(#shadow)" /><circle cx="536" cy="932" r="18" fill="#bd9e39" stroke="none" fill-opacity="0.8" filter="url(#shadow)" /><circle cx="581" cy="250" r="13" fill="#637939" stroke="none" fill-opacity="0.8" filter="url(#shadow)" /><circle cx="926" cy="760" r="24" fill="#5254a3" stroke="none" fill-opacity="0.8" filter="url(#shadow)" /><circle cx="124" cy="635" r="17" fill="#a55194" stroke="none" fill-opacity="0.8" filter="url(#shadow)" /><circle cx="57" cy="877" r="27" fill="#ce6dbd" stroke="none" fill-opacity="0.8" filter="url(#shadow)" /><circle cx="882" cy="332" r="33" fill="#8c6d31" stroke="none" fill-opacity="0.8" filter="url(#shadow)" /><circle cx="360" cy="834" r="36" fill="#e7969c" stroke="none" fill-opacity="0.8" filter="url(#shadow)" /><circle cx="878" cy="668" r="32" fill="#9c9ede" stroke="none" fill-opacity="0.8" filter="url(#shadow)" /><circle cx="782" cy="490" r="8" fill="#de9ed6" stroke="none" fill-opacity="0.8" filter="url(#shadow)" /><circle cx="606" cy="137" r="21" fill="#6b6ecf" stroke="none" fill-opacity="0.8" filter="url(#shadow)" /><circle cx="393" cy="24" r="21" fill="#a55194" stroke="none" fill-opacity="0.8" filter="url(#shadow)" /><circle cx="811" cy="949" r="17" fill="#8ca252" stroke="none" fill-opacity="0.8" filter="url(#shadow)" /><circle cx="176" cy="690" r="27" fill="#e7ba52" stroke="none" fill-opacity="0.8" filter="url(#shadow)" /><circle cx="620" cy="905" r="9" fill="#6b6ecf" stroke="none" fill-opacity="0.8" filter="url(#shadow)" /><circle cx="691" cy="259" r="9" fill="#9c9ede" stroke="none" fill-opacity="0.8" filter="url(#shadow)" /><circle cx="120" cy="90" r="18" fill="" stroke="none" fill-opacity="0.8" filter="url(#shadow)" /><circle cx="665" cy="527" r="20" fill="#9c9ede" stroke="none" fill-opacity="0.8" filter="url(#shadow)" /><circle cx="76" cy="760" r="38" fill="#de9ed6" stroke="none" fill-opacity="0.8" filter="url(#shadow)" /><circle cx="862" cy="508" r="8" fill="#e7969c" stroke="none" fill-opacity="0.8" filter="url(#shadow)" /><circle cx="763" cy="665" r="12" fill="#7b4173" stroke="none" fill-opacity="0.8" filter="url(#shadow)" /><circle cx="135" cy="123" r="11" fill="#d6616b" stroke="none" fill-opacity="0.8" filter="url(#shadow)" /><circle cx="26" cy="452" r="9" fill="#e7ba52" stroke="none" fill-opacity="0.8" filter="url(#shadow)" /><circle cx="585" cy="302" r="37" fill="#d6616b" stroke="none" fill-opacity="0.8" filter="url(#shadow)" /><circle cx="559" cy="183" r="14" fill="#d6616b" stroke="none" fill-opacity="0.8" filter="url(#shadow)" /><circle cx="168" cy="139" r="12" fill="#e7ba52" stroke="none" fill-opacity="0.8" filter="url(#shadow)" /><circle cx="17" cy="162" r="12" fill="#637939" stroke="none" fill-opacity="0.8" filter="url(#shadow)" /><circle cx="300" cy="538" r="12" fill="#393b79" stroke="none" fill-opacity="0.8" filter="url(#shadow)" /><circle cx="6" cy="291" r="26" fill="#8ca252" stroke="none" fill-opacity="0.8" filter="url(#shadow)" /><circle cx="29" cy="114" r="37" fill="#a55194" stroke="none" fill-opacity="0.8" filter="url(#shadow)" /><circle cx="440" cy="934" r="18" fill="#d6616b" stroke="none" fill-opacity="0.8" filter="url(#shadow)" /><circle cx="447" cy="244" r="9" fill="#ce6dbd" stroke="none" fill-opacity="0.8" filter="url(#shadow)" /><circle cx="891" cy="263" r="11" fill="#bd9e39" stroke="none" fill-opacity="0.8" filter="url(#shadow)" /><circle cx="548" cy="440" r="18" fill="#843c39" stroke="none" fill-opacity="0.8" filter="url(#shadow)" /><circle cx="864" cy="750" r="16" fill="#9c9ede" stroke="none" fill-opacity="0.8" filter="url(#shadow)" /><circle cx="163" cy="648" r="15" fill="#5254a3" stroke="none" fill-opacity="0.8" filter="url(#shadow)" /><circle cx="228" cy="964" r="10" fill="#7b4173" stroke="none" fill-opacity="0.8" filter="url(#shadow)" /><circle cx="369" cy="697" r="17" fill="#b5cf6b" stroke="none" fill-opacity="0.8" filter="url(#shadow)" /><circle cx="908" cy="481" r="11" fill="#7b4173" stroke="none" fill-opacity="0.8" filter="url(#shadow)" /><circle cx="477" cy="371" r="22" fill="#ce6dbd" stroke="none" fill-opacity="0.8" filter="url(#shadow)" /><circle cx="901" cy="227" r="18" fill="#8ca252" stroke="none" fill-opacity="0.8" filter="url(#shadow)" /><circle cx="362" cy="377" r="8" fill="#8c6d31" stroke="none" fill-opacity="0.8" filter="url(#shadow)" /><circle cx="831" cy="999" r="15" fill="#393b79" stroke="none" fill-opacity="0.8" filter="url(#shadow)" /></g></svg>