
        <svg
        xmlns="http://www.w3.org/2000/svg"
        viewBox="0 0 1000 1000"
        width="800" stroke="black" stroke-width="4">
        <filter id='shadow' color-interpolation-filters="sRGB">
            <feDropShadow dx="2" dy="2" stdDeviation="2" flood-opacity="0.4"/>
        </filter>
        <filter id='shadow2' color-interpolation-filters="sRGB">
            <feDropShadow dx="0" dy="0" stdDeviation="5.5" flood-opacity=".8"/>
        </filter>
        <g fill="none" stroke="black" stroke-width="4">
    <circle cx="866" cy="699" r="42" fill="#e7969c" stroke="none" fill-opacity="0.8" filter="url(#shadow)" /><circle cx="572" cy="195" r="74" fill="#e7cb94" stroke="none" fill-opacity="0.8" filter="url(#shadow)" /><circle cx="256" cy="299" r="64" fill="#7b4173" stroke="none" fill-opacity="0.8" filter="url(#shadow)" /><circle cx="143" cy="24" r="86" fill="#e7969c" stroke="none" fill-opacity="0.8" filter="url(#shadow)" /><circle cx="966" cy="130" r="9" fill="#e7ba52" stroke="none" fill-opacity="0.8" filter="url(#shadow)" /><circle cx="371" cy="835" r="50" fill="#bd9e39" stroke="none" fill-opacity="0.8" filter="url(#shadow)" /><circle cx="781" cy="330" r="46" fill="" stroke="none" fill-opacity="0.8" filter="url(#shadow)" /><circle cx="757" cy="605" r="13" fill="#b5cf6b" stroke="none" fill-opacity="0.8" filter="url(#shadow)" /><circle cx="105" cy="549" r="40" fill="#843c39" stroke="none" fill-opacity="0.8" filter="url(#shadow)" /><circle cx="271" cy="140" r="33" fill="#6b6ecf" stroke="none" fill-opacity="0.8" filter="url(#shadow)" /><circle cx="834" cy="435" r="39" fill="#d6616b" stroke="none" fill-opacity="0.8" filter="url(#shadow)" /><circle cx="476" cy="417" r="22" fill="#8ca252" stroke="none" fill-opacity="0.8" filter="url(#shadow)" /><circle cx="490" cy="17" r="19" fill="#9c9ede" stroke="none" fill-opacity="0.8" filter="url(#shadow)" /><circle cx="896" cy="418" r="9" fill="#8ca252" stroke="none" fill-opacity="0.8" filter="url(#shadow)" /><circle cx="294" cy="449" r="56" fill="#cedb9c" stroke="none" fill-opacity="0.8" filter="url(#shadow)" /><circle cx="134" cy="963" r="85" fill="#d6616b" stroke="none" fill-opacity="0.8" filter="url(#shadow)" /><circle cx="13" cy="302" r="69" fill="#9c9ede" stroke="none" fill-opacity="0.8" filter="url(#shadow)" /><circle cx="207" cy="654" r="14" fill="" stroke="none" fill-opacity="0.8" filter="url(#shadow)" /><circle cx="709" cy="155" r="54" fill="#393b79" stroke="none" fill-opacity="0.8" filter="url(#shadow)" /><circle cx="722" cy="885" r="90" fill="#b5cf6b" stroke="none" fill-opacity="0.8" filter="url(#shadow)" /><circle cx="595" cy="601" r="65" fill="#cedb9c" stroke="none" fill-opacity="0.8" filter="url(#shadow)" /><circle cx="394" cy="68" r="84" fill="#8ca252" stroke="none" fill-opacity="0.8" filter="url(#shadow)" /><circle cx="463" cy="599" r="63" fill="#e7969c" stroke="none" fill-opacity="0.8" filter="url(#shadow)" /><circle cx="568" cy="979" r="54" fill="#843c39" stroke="none" fill-opacity="0.8" filter="url(#shadow)" /><circle cx="735" cy="666" r="50" fill="#637939" stroke="none" fill-opacity="0.8" filter="url(#shadow)" /><circle cx="952" cy="931" r="39" fill="" stroke="none" fill-opacity="0.8" filter="url(#shadow)" /><circle cx="993" cy="358" r="14" fill="" stroke="none" fill-opacity="0.8" filter="url(#shadow)" /><circle cx="371" cy="634" r="33" fill="#ad494a" stroke="none" fill-opacity="0.8" filter="url(#shadow)" /><circle cx="629" cy="28" r="69" fill="#637939" stroke="none" fill-opacity="0.8" filter="url(#shadow)" /><circle cx="264" cy="928" r="29" fill="#b5cf6b" stroke="none" fill-opacity="0.8" filter="url(#shadow)" /><circle cx="737" cy="3" r="36" fill="#ad494a" stroke="none" fill-opacity="0.8" filter="url(#shadow)" /><circle cx="136" cy="740" r="11" fill="#5254a3" stroke="none" fill-opacity="0.8" filter="url(#shadow)" /><circle cx="979" cy="240" r="15" fill="#6b6ecf" stroke="none" fill-opacity="0.8" filter="url(#shadow)" /><circle cx="551" cy="781" r="17" fill="#e7cb94" stroke="none" fill-opacity="0.8" filter="url(#shadow)" /><circle cx="666" cy="746" r="47" fill="#8c6d31" stroke="none" fill-opacity="0.8" filter="url(#shadow)" /><circle cx="593" cy="411" r="91" fill="#8c6d31" stroke="none" fill-opacity="0.8" filter="url(#shadow)" /><circle cx="379" cy="551" r="21" fill="#a55194" stroke="none" fill-opacity="0.8" filter="url(#shadow)" /><circle cx="993" cy="553" r="51" fill="#cedb9c" stroke="none" fill-opacity="0.8" filter="url(#shadow)" /><circle cx="102" cy="200" r="9" fill="#b5cf6b" stroke="none" fill-opacity="0.8" filter="url(#shadow)" /><circle cx="139" cy="407" r="32" fill="#a55194" stroke="none" fill-opacity="0.8" filter="url(#shadow)" /><circle cx="57" cy="791" r="50" fill="" stroke="none" fill-opacity="0.8" filter="url(#shadow)" /><circle cx="245" cy="734" r="13" fill="#637939" stroke="none" fill-opacity="0.8" filter="url(#shadow)" /><circle cx="870" cy="918" r="40" fill="#843c39" stroke="none" fill-opacity="0.8" filter="url(#shadow)" /><circle cx="882" cy="792" r="38" fill="#6b6ecf" stroke="none" fill-opacity="0.8" filter="url(#shadow)" /><circle cx="19" cy="719" r="12" fill="#a55194" stroke="none" fill-opacity="0.8" filter="url(#shadow)" /><circle cx="164" cy="162" r="31" fill="#637939" stroke="none" fill-opacity="0.8" filter="url(#shadow)" /><circle cx="296" cy="794" r="26" fill="#9c9ede" stroke="none" fill-opacity="0.8" filter="url(#shadow)" /><circle cx="12" cy="20" r="19" fill="#ad494a" stroke="none" fill-opacity="0.8" filter="url(#shadow)" /><circle cx="842" cy="521" r="20" fill="#8ca252" stroke="none" fill-opacity="0.8" filter="url(#shadow)" /><circle cx="87" cy="356" r="17" fill="#d6616b" stroke="none" fill-opacity="0.8" filter="url(#shadow)" /><circle cx="858" cy="387" r="12" fill="#9c9ede" stroke="none" fill-opacity="0.8" filter="url(#shadow)" /><circle cx="19" cy="454" r="37" fill="" stroke="none" fill-opacity="0.8" filter="url(#shadow)" /><circle cx="503" cy="97" r="23" fill="#5254a3" stroke="none" fill-opacity="0.8" filter="url(#shadow)" /><circle cx="413" cy="997" r="67" fill="#843c39" stroke="none" fill-opacity="0.8" filter="url(#shadow)" /><circle cx="810" cy="758" r="20" fill="#ad494a" stroke="none" fill-opacity="0.8" filter="url(#shadow)" /><circle cx="901" cy="70" r="77" fill="#e7cb94" stroke="none" fill-opacity="0.8" filter="url(#shadow)" /><circle cx="980" cy="725" r="68" fill="#393b79" stroke="none" fill-opacity="0.8" filter="url(#shadow)" /><circle cx="527" cy="697" r="27" fill="#ce6dbd" stroke="none" fill-opacity="0.8" filter="url(#shadow)" /><circle cx="968" cy="398" r="26" fill="#5254a3" stroke="none" fill-opacity="0.8" filter="url(#shadow)" /><circle cx="955" cy="200" r="21" fill="#9c9ede" stroke="none" fill-opacity="0.8" filter="url(#shadow)" /><circle cx="332" cy="174" r="15" fill="#b5cf6b" stroke="none" fill-opacity="0.8" filter="url(#shadow)" /><circle cx="680" cy="261" r="17" fill="#393b79" stroke="none" fill-opacity="0.8" filter="url(#shadow)" /><circle cx="445" cy="856" r="8" fill="#e7969c" stroke="none" fill-opacity="0.8" filter="url(#shadow)" /><circle cx="40" cy="202" r="12" fill="#e7969c" stroke="none" fill-opacity="0.8" filter="url(#shadow)" /><circle cx="464" cy="730" r="39" fill="#8ca252" stroke="none" fill-opacity="0.8" filter="url(#shadow)" /><circle cx="24" cy="557" r="20" fill="#a55194" stroke="none" fill-opacity="0.8" filter="url(#shadow)" /><circle cx="754" cy="466" r="8" fill="#d6616b" stroke="none" fill-opacity="0.8" filter="url(#shadow)" /><circle cx="886" cy="210" r="10" fill="#d6616b" stroke="none" fill-opacity="0.8" filter="url(#shadow)" /><circle cx="179" cy="236" r="12" fill="#9c9ede" stroke="none" fill-opacity="0.8" filter="url(#shadow)" /><circle cx="166" cy="569" r="10" fill="#5254a3" stroke="none" fill-opacity="0.8" filter="url(#shadow)" /><circle cx="718" cy="276" r="11" fill="#843c39" stroke="none" fill-opacity="0.8" filter="url(#shadow)" /><circle cx="233" cy="194" r="8" fill="#e7969c" stroke="none" fill-opacity="0.8" filter="url(#shadow)" /><circle cx="457" cy="170" r="16" fill="#ad494a" stroke="none" fill-opacity="0.8" filter="url(#shadow)" /><circle cx="931" cy="285" r="9" fill="#8c6d31" stroke="none" fill-opacity="0.8" filter="url(#shadow)" /><circle cx="863" cy="585" r="46" fill="" stroke="none" fill-opacity="0.8" filter="url(#shadow)" /><circle cx="89" cy="424" r="18" fill="#e7cb94" stroke="none" fill-opacity="0.8" filter="url(#shadow)" /><circle cx="484" cy="811" r="20" fill="#ad494a" stroke="none" fill-opacity="0.8" filter="url(#shadow)" /><circle cx="525" cy="276" r="11" fill="#e7cb94" stroke="none" fill-opacity="0.8" filter="url(#shadow)" /><circle cx="222" cy="794" r="13" fill="#e7cb94" stroke="none" fill-opacity="0.8" filter="url(#shadow)" /><circle cx="374" cy="266" r="16" fill="#8ca252" stroke="none" fill-opacity="0.8" filter="url(#shadow)" /><circle cx="992" cy="309" r="27" fill="#393b79" stroke="none" fill-opacity="0.8" filter="url(#shadow)" /><circle cx="336" cy="917" r="33" fill="#e7ba52" stroke="none" fill-opacity="0.8" filter="url(#shadow)" /><circle cx="788" cy="718" r="17" fill="#7b4173" stroke="none" fill-opacity="0.8" filter="url(#shadow)" /><circle cx="933" cy="600" r="24" fill="#843c39" stroke="none" fill-opacity="0.8" filter="url(#shadow)" /><circle cx="535" cy="856" r="37" fill="#7b4173" stroke="none" fill-opacity="0.8" filter="url(#shadow)" /><circle cx="6" cy="113" r="23" fill="#9c9ede" stroke="none" fill-opacity="0.8" filter="url(#shadow)" /><circle cx="315" cy="564" r="10" fill="#8ca252" stroke="none" fill-opacity="0.8" filter="url(#shadow)" /><circle cx="835" cy="191" r="12" fill="#e7ba52" stroke="none" fill-opacity="0.8" filter="url(#shadow)" /><circle cx="261" cy="554" r="15" fill="#e7cb94" stroke="none" fill-opacity="0.8" filter="url(#shadow)" /><circle cx="236" cy="954" r="9" fill="#7b4173" stroke="none" fill-opacity="0.8" filter="url(#shadow)" /><circle cx="224" cy="894" r="13" fill="#cedb9c" stroke="none" fill-opacity="0.8" filter="url(#shadow)" /><circle cx="112" cy="697" r="8" fill="" stroke="none" fill-opacity="0.8" filter="url(#shadow)" /><circle cx="324" cy="358" r="25" fill="#ce6dbd" stroke="none" fill-opacity="0.8" filter="url(#shadow)" /><circle cx="324" cy="239" r="9" fill="#d6616b" stroke="none" fill-opacity="0.8" filter="url(#shadow)" /><circle cx="692" cy="308" r="24" fill="#de9ed6" stroke="none" fill-opacity="0.8" filter="url(#shadow)" /><circle cx="406" cy="364" r="56" fill="#9c9ede" stroke="none" fill-opacity="0.8" filter="url(#shadow)" /><circle cx="322" cy="722" r="33" fill="#637939" stroke="none" fill-opacity="0.8" filter="url(#shadow)" /><circle cx="73" cy="708" r="11" fill="#637939" stroke="none" fill-opacity="0.8" filter="url(#shadow)" /><circle cx="906" cy="290" r="11" fill="#cedb9c" stroke="none" fill-opacity="0.8" filter="url(#shadow)" /><circle cx="115" cy="762" r="14" fill="#393b79" stroke="none" fill-opacity="0.8" filter="url(#shadow)" /><circle cx="266" cy="689" r="14" fill="#6b6ecf" stroke="none" fill-opacity="0.8" filter="url(#shadow)" /><circle cx="265" cy="11" r="18" fill="#6b6ecf" stroke="none" fill-opacity="0.8" filter="url(#shadow)" /><circle cx="526" cy="8" r="15" fill="#8c6d31" stroke="none" fill-opacity="0.8" filter="url(#shadow)" /><circle cx="30" cy="44" r="9" fill="#8c6d31" stroke="none" fill-opacity="0.8" filter="url(#shadow)" /><circle cx="795" cy="581" r="19" fill="#393b79" stroke="none" fill-opacity="0.8" filter="url(#shadow)" /><circle cx="4" cy="882" r="18" fill="" stroke="none" fill-opacity="0.8" filter="url(#shadow)" /><circle cx="52" cy="148" r="28" fill="#ad494a" stroke="none" fill-opacity="0.8" filter="url(#shadow)" /><circle cx="702" cy="77" r="13" fill="#de9ed6" stroke="none" fill-opacity="0.8" filter="url(#shadow)" /><circle cx="17" cy="505" r="14" fill="#ad494a" stroke="none" fill-opacity="0.8" filter="url(#shadow)" /><circle cx="996" cy="119" r="14" fill="#e7cb94" stroke="none" fill-opacity="0.8" filter="url(#shadow)" /><circle cx="163" cy="369" r="11" fill="#8c6d31" stroke="none" fill-opacity="0.8" filter="url(#shadow)" /><circle cx="907" cy="358" r="40" fill="#7b4173" stroke="none" fill-opacity="0.8" filter="url(#shadow)" /><circle cx="465" cy="908" r="17" fill="#a55194" stroke="none" fill-opacity="0.8" filter="url(#shadow)" /><circle cx="418" cy="896" r="10" fill="#e7cb94" stroke="none" fill-opacity="0.8" filter="url(#shadow)" /><circle cx="838" cy="271" r="34" fill="#cedb9c" stroke="none" fill-opacity="0.8" filter="url(#shadow)" /><circle cx="176" cy="839" r="45" fill="#7b4173" stroke="none" fill-opacity="0.8" filter="url(#shadow)" /><circle cx="117" cy="655" r="14" fill="#7b4173" stroke="none" fill-opacity="0.8" filter="url(#shadow)" /><circle cx="101" cy="467" r="12" fill="#d6616b" stroke="none" fill-opacity="0.8" filter="url(#shadow)" /><circle cx="323" cy="265" r="10" fill="#6b6ecf" stroke="none" fill-opacity="0.8" filter="url(#shadow)" /><circle cx="220" cy="604" r="10" fill="#9c9ede" stroke="none" fill-opacity="0.8" filter="url(#shadow)" /><circle cx="48" cy="35" r="8" fill="#843c39" stroke="none" fill-opacity="0.8" filter="url(#shadow)" /><circle cx="639" cy="288" r="28" fill="#e7969c" stroke="none" fill-opacity="0.8" filter="url(#shadow)" /><circle cx="376" cy="468" r="21" fill="#5254a3" stroke="none" fill-opacity="0.8" filter="url(#shadow)" /><circle cx="43" cy="80" r="10" fill="" stroke="none" fill-opacity="0.8" filter="url(#shadow)" /><circle cx="369" cy="219" r="15" fill="#6b6ecf" stroke="none" fill-opacity="0.8" filter="url(#shadow)" /><circle cx="192" cy="755" r="30" fill="" stroke="none" fill-opacity="0.8" filter="url(#shadow)" /><circle cx="354" cy="576" r="14" fill="#cedb9c" stroke="none" fill-opacity="0.8" filter="url(#shadow)" /><circle cx="126" cy="247" r="17" fill="#6b6ecf" stroke="none" fill-opacity="0.8" filter="url(#shadow)" /><circle cx="927" cy="496" r="24" fill="" stroke="none" fill-opacity="0.8" filter="url(#shadow)" /></g></svg>