
        <svg
        xmlns="http://www.w3.org/2000/svg"
        viewBox="0 0 1000 1000"
        width="800" stroke="black" stroke-width="4">
        <filter id='shadow' color-interpolation-filters="sRGB">
            <feDropShadow dx="2" dy="2" stdDeviation="2" flood-opacity="0.4"/>
        </filter>
        <filter id='shadow2' color-interpolation-filters="sRGB">
            <feDropShadow dx="0" dy="0" stdDeviation="5.5" flood-opacity=".8"/>
        </filter>
        <g >
        <rect x="0" y="0" width="100%" height="100%" fill="#ccc"
                stroke-width="8" stroke="none" />
    <circle cx="591" cy="442" r="88" fill="#e7cb94" stroke="none" fill-opacity="0.8" filter="url(#shadow)" /><circle cx="61" cy="569" r="70" fill="#b5cf6b" stroke="none" fill-opacity="0.8" filter="url(#shadow)" /><circle cx="545" cy="568" r="15" fill="#b5cf6b" stroke="none" fill-opacity="0.8" filter="url(#shadow)" /><circle cx="305" cy="422" r="91" fill="#637939" stroke="none" fill-opacity="0.8" filter="url(#shadow)" /><circle cx="286" cy="774" r="81" fill="#637939" stroke="none" fill-opacity="0.8" filter="url(#shadow)" /><circle cx="921" cy="47" r="18" fill="#e7969c" stroke="none" fill-opacity="0.8" filter="url(#shadow)" /><circle cx="961" cy="349" r="81" fill="#d6616b" stroke="none" fill-opacity="0.8" filter="url(#shadow)" /><circle cx="458" cy="508" r="54" fill="#843c39" stroke="none" fill-opacity="0.8" filter="url(#shadow)" /><circle cx="369" cy="679" r="45" fill="#bd9e39" stroke="none" fill-opacity="0.8" filter="url(#shadow)" /><circle cx="773" cy="892" r="95" fill="#b5cf6b" stroke="none" fill-opacity="0.8" filter="url(#shadow)" /><circle cx="723" cy="147" r="58" fill="#8ca252" stroke="none" fill-opacity="0.8" filter="url(#shadow)" /><circle cx="972" cy="19" r="11" fill="#e7cb94" stroke="none" fill-opacity="0.8" filter="url(#shadow)" /><circle cx="226" cy="175" r="81" fill="#ce6dbd" stroke="none" fill-opacity="0.8" filter="url(#shadow)" /><circle cx="474" cy="34" r="95" fill="#5254a3" stroke="none" fill-opacity="0.8" filter="url(#shadow)" /><circle cx="797" cy="328" r="82" fill="#d6616b" stroke="none" fill-opacity="0.8" filter="url(#shadow)" /><circle cx="963" cy="991" r="25" fill="#843c39" stroke="none" fill-opacity="0.8" filter="url(#shadow)" /><circle cx="150" cy="989" r="62" fill="#393b79" stroke="none" fill-opacity="0.8" filter="url(#shadow)" /><circle cx="972" cy="903" r="59" fill="#9c9ede" stroke="none" fill-opacity="0.8" filter="url(#shadow)" /><circle cx="157" cy="545" r="17" fill="#5254a3" stroke="none" fill-opacity="0.8" filter="url(#shadow)" /><circle cx="951" cy="237" r="15" fill="#bd9e39" stroke="none" fill-opacity="0.8" filter="url(#shadow)" /><circle cx="314" cy="523" r="8" fill="#8c6d31" stroke="none" fill-opacity="0.8" filter="url(#shadow)" /><circle cx="979" cy="106" r="25" fill="#cedb9c" stroke="none" fill-opacity="0.8" filter="url(#shadow)" /><circle cx="971" cy="555" r="78" fill="#637939" stroke="none" fill-opacity="0.8" filter="url(#shadow)" /><circle cx="101" cy="10" r="35" fill="#cedb9c" stroke="none" fill-opacity="0.8" filter="url(#shadow)" /><circle cx="919" cy="796" r="26" fill="#b5cf6b" stroke="none" fill-opacity="0.8" filter="url(#shadow)" /><circle cx="846" cy="638" r="34" fill="#d6616b" stroke="none" fill-opacity="0.8" filter="url(#shadow)" /><circle cx="679" cy="38" r="54" fill="#ad494a" stroke="none" fill-opacity="0.8" filter="url(#shadow)" /><circle cx="479" cy="771" r="82" fill="#e7cb94" stroke="none" fill-opacity="0.8" filter="url(#shadow)" /><circle cx="202" cy="326" r="38" fill="#843c39" stroke="none" fill-opacity="0.8" filter="url(#shadow)" /><circle cx="408" cy="164" r="31" fill="#a55194" stroke="none" fill-opacity="0.8" filter="url(#shadow)" /><circle cx="311" cy="955" r="31" fill="#e7ba52" stroke="none" fill-opacity="0.8" filter="url(#shadow)" /><circle cx="105" cy="752" r="31" fill="#cedb9c" stroke="none" fill-opacity="0.8" filter="url(#shadow)" /><circle cx="427" cy="244" r="29" fill="#393b79" stroke="none" fill-opacity="0.8" filter="url(#shadow)" /><circle cx="619" cy="616" r="46" fill="#e7cb94" stroke="none" fill-opacity="0.8" filter="url(#shadow)" /><circle cx="236" cy="50" r="30" fill="#e7969c" stroke="none" fill-opacity="0.8" filter="url(#shadow)" /><circle cx="149" cy="357" r="22" fill="#637939" stroke="none" fill-opacity="0.8" filter="url(#shadow)" /><circle cx="433" cy="963" r="77" fill="#ad494a" stroke="none" fill-opacity="0.8" filter="url(#shadow)" /><circle cx="5" cy="782" r="49" fill="#ad494a" stroke="none" fill-opacity="0.8" filter="url(#shadow)" /><circle cx="499" cy="617" r="44" fill="#8ca252" stroke="none" fill-opacity="0.8" filter="url(#shadow)" /><circle cx="527" cy="253" r="41" fill="#9c9ede" stroke="none" fill-opacity="0.8" filter="url(#shadow)" /><circle cx="691" cy="375" r="18" fill="#ad494a" stroke="none" fill-opacity="0.8" filter="url(#shadow)" /><circle cx="726" cy="546" r="72" fill="#e7969c" stroke="none" fill-opacity="0.8" filter="url(#shadow)" /><circle cx="234" cy="549" r="32" fill="" stroke="none" fill-opacity="0.8" filter="url(#shadow)" /><circle cx="356" cy="578" r="27" fill="#e7ba52" stroke="none" fill-opacity="0.8" filter="url(#shadow)" /><circle cx="26" cy="309" r="51" fill="#7b4173" stroke="none" fill-opacity="0.8" filter="url(#shadow)" /><circle cx="843" cy="169" r="54" fill="#cedb9c" stroke="none" fill-opacity="0.8" filter="url(#shadow)" /><circle cx="852" cy="475" r="30" fill="#8c6d31" stroke="none" fill-opacity="0.8" filter="url(#shadow)" /><circle cx="567" cy="713" r="16" fill="" stroke="none" fill-opacity="0.8" filter="url(#shadow)" /><circle cx="130" cy="825" r="33" fill="#e7ba52" stroke="none" fill-opacity="0.8" filter="url(#shadow)" /><circle cx="612" cy="745" r="36" fill="" stroke="none" fill-opacity="0.8" filter="url(#shadow)" /><circle cx="564" cy="324" r="31" fill="#6b6ecf" stroke="none" fill-opacity="0.8" filter="url(#shadow)" /><circle cx="568" cy="948" r="41" fill="#cedb9c" stroke="none" fill-opacity="0.8" filter="url(#shadow)" /><circle cx="24" cy="466" r="20" fill="#8ca252" stroke="none" fill-opacity="0.8" filter="url(#shadow)" /><circle cx="157" cy="467" r="45" fill="#ad494a" stroke="none" fill-opacity="0.8" filter="url(#shadow)" /><circle cx="44" cy="124" r="8" fill="#ad494a" stroke="none" fill-opacity="0.8" filter="url(#shadow)" /><circle cx="937" cy="135" r="25" fill="#637939" stroke="none" fill-opacity="0.8" filter="url(#shadow)" /><circle cx="494" cy="382" r="13" fill="" stroke="none" fill-opacity="0.8" filter="url(#shadow)" /><circle cx="972" cy="711" r="32" fill="#b5cf6b" stroke="none" fill-opacity="0.8" filter="url(#shadow)" /><circle cx="769" cy="711" r="47" fill="#a55194" stroke="none" fill-opacity="0.8" filter="url(#shadow)" /><circle cx="408" cy="322" r="48" fill="#a55194" stroke="none" fill-opacity="0.8" filter="url(#shadow)" /><circle cx="94" cy="137" r="17" fill="#5254a3" stroke="none" fill-opacity="0.8" filter="url(#shadow)" /><circle cx="466" cy="421" r="16" fill="#e7ba52" stroke="none" fill-opacity="0.8" filter="url(#shadow)" /><circle cx="879" cy="549" r="9" fill="#de9ed6" stroke="none" fill-opacity="0.8" filter="url(#shadow)" /><circle cx="112" cy="209" r="26" fill="#a55194" stroke="none" fill-opacity="0.8" filter="url(#shadow)" /><circle cx="80" cy="824" r="14" fill="#8c6d31" stroke="none" fill-opacity="0.8" filter="url(#shadow)" /><circle cx="864" cy="4" r="46" fill="#7b4173" stroke="none" fill-opacity="0.8" filter="url(#shadow)" /><circle cx="21" cy="95" r="11" fill="" stroke="none" fill-opacity="0.8" filter="url(#shadow)" /><circle cx="330" cy="49" r="11" fill="#d6616b" stroke="none" fill-opacity="0.8" filter="url(#shadow)" /><circle cx="110" cy="348" r="13" fill="#8c6d31" stroke="none" fill-opacity="0.8" filter="url(#shadow)" /><circle cx="343" cy="278" r="14" fill="#8c6d31" stroke="none" fill-opacity="0.8" filter="url(#shadow)" /><circle cx="689" cy="722" r="26" fill="#e7cb94" stroke="none" fill-opacity="0.8" filter="url(#shadow)" /><circle cx="358" cy="180" r="8" fill="#bd9e39" stroke="none" fill-opacity="0.8" filter="url(#shadow)" /><circle cx="60" cy="477" r="17" fill="#d6616b" stroke="none" fill-opacity="0.8" filter="url(#shadow)" /><circle cx="404" cy="566" r="8" fill="#8ca252" stroke="none" fill-opacity="0.8" filter="url(#shadow)" /><circle cx="965" cy="182" r="11" fill="#e7969c" stroke="none" fill-opacity="0.8" filter="url(#shadow)" /><circle cx="239" cy="673" r="10" fill="#6b6ecf" stroke="none" fill-opacity="0.8" filter="url(#shadow)" /><circle cx="888" cy="903" r="8" fill="#bd9e39" stroke="none" fill-opacity="0.8" filter="url(#shadow)" /><circle cx="894" cy="997" r="22" fill="#8ca252" stroke="none" fill-opacity="0.8" filter="url(#shadow)" /><circle cx="576" cy="837" r="8" fill="#8c6d31" stroke="none" fill-opacity="0.8" filter="url(#shadow)" /><circle cx="67" cy="924" r="30" fill="#de9ed6" stroke="none" fill-opacity="0.8" filter="url(#shadow)" /><circle cx="567" cy="142" r="32" fill="#ce6dbd" stroke="none" fill-opacity="0.8" filter="url(#shadow)" /><circle cx="765" cy="440" r="33" fill="#d6616b" stroke="none" fill-opacity="0.8" filter="url(#shadow)" /><circle cx="116" cy="66" r="10" fill="#cedb9c" stroke="none" fill-opacity="0.8" filter="url(#shadow)" /><circle cx="341" cy="144" r="27" fill="" stroke="none" fill-opacity="0.8" filter="url(#shadow)" /><circle cx="138" cy="643" r="31" fill="#e7969c" stroke="none" fill-opacity="0.8" filter="url(#shadow)" /><circle cx="159" cy="255" r="14" fill="#ad494a" stroke="none" fill-opacity="0.8" filter="url(#shadow)" /><circle cx="1" cy="210" r="10" fill="#e7cb94" stroke="none" fill-opacity="0.8" filter="url(#shadow)" /><circle cx="33" cy="166" r="17" fill="#a55194" stroke="none" fill-opacity="0.8" filter="url(#shadow)" /><circle cx="803" cy="82" r="17" fill="#cedb9c" stroke="none" fill-opacity="0.8" filter="url(#shadow)" /><circle cx="703" cy="282" r="13" fill="#b5cf6b" stroke="none" fill-opacity="0.8" filter="url(#shadow)" /><circle cx="68" cy="415" r="32" fill="#5254a3" stroke="none" fill-opacity="0.8" filter="url(#shadow)" /><circle cx="4" cy="41" r="27" fill="#ce6dbd" stroke="none" fill-opacity="0.8" filter="url(#shadow)" /><circle cx="697" cy="992" r="14" fill="#d6616b" stroke="none" fill-opacity="0.8" filter="url(#shadow)" /><circle cx="856" cy="782" r="32" fill="#cedb9c" stroke="none" fill-opacity="0.8" filter="url(#shadow)" /><circle cx="242" cy="961" r="13" fill="#e7ba52" stroke="none" fill-opacity="0.8" filter="url(#shadow)" /><circle cx="322" cy="237" r="29" fill="#e7cb94" stroke="none" fill-opacity="0.8" filter="url(#shadow)" /><circle cx="74" cy="710" r="9" fill="#e7969c" stroke="none" fill-opacity="0.8" filter="url(#shadow)" /><circle cx="707" cy="428" r="10" fill="#de9ed6" stroke="none" fill-opacity="0.8" filter="url(#shadow)" /><circle cx="891" cy="435" r="25" fill="#5254a3" stroke="none" fill-opacity="0.8" filter="url(#shadow)" /><circle cx="641" cy="164" r="13" fill="" stroke="none" fill-opacity="0.8" filter="url(#shadow)" /><circle cx="336" cy="882" r="20" fill="#ce6dbd" stroke="none" fill-opacity="0.8" filter="url(#shadow)" /><circle cx="559" cy="667" r="15" fill="#637939" stroke="none" fill-opacity="0.8" filter="url(#shadow)" /><circle cx="947" cy="462" r="18" fill="#cedb9c" stroke="none" fill-opacity="0.8" filter="url(#shadow)" /><circle cx="449" cy="275" r="8" fill="#6b6ecf" stroke="none" fill-opacity="0.8" filter="url(#shadow)" /><circle cx="883" cy="748" r="10" fill="#cedb9c" stroke="none" fill-opacity="0.8" filter="url(#shadow)" /><circle cx="843" cy="977" r="15" fill="#d6616b" stroke="none" fill-opacity="0.8" filter="url(#shadow)" /><circle cx="57" cy="216" r="14" fill="#d6616b" stroke="none" fill-opacity="0.8" filter="url(#shadow)" /><circle cx="474" cy="679" r="8" fill="#ad494a" stroke="none" fill-opacity="0.8" filter="url(#shadow)" /><circle cx="262" cy="614" r="23" fill="#d6616b" stroke="none" fill-opacity="0.8" filter="url(#shadow)" /><circle cx="693" cy="332" r="11" fill="#de9ed6" stroke="none" fill-opacity="0.8" filter="url(#shadow)" /><circle cx="195" cy="686" r="29" fill="#843c39" stroke="none" fill-opacity="0.8" filter="url(#shadow)" /><circle cx="625" cy="917" r="20" fill="#bd9e39" stroke="none" fill-opacity="0.8" filter="url(#shadow)" /><circle cx="540" cy="178" r="11" fill="" stroke="none" fill-opacity="0.8" filter="url(#shadow)" /><circle cx="615" cy="994" r="13" fill="#7b4173" stroke="none" fill-opacity="0.8" filter="url(#shadow)" /><circle cx="112" cy="888" r="10" fill="#8c6d31" stroke="none" fill-opacity="0.8" filter="url(#shadow)" /><circle cx="587" cy="195" r="14" fill="#8c6d31" stroke="none" fill-opacity="0.8" filter="url(#shadow)" /><circle cx="629" cy="272" r="15" fill="" stroke="none" fill-opacity="0.8" filter="url(#shadow)" /><circle cx="62" cy="67" r="21" fill="#ce6dbd" stroke="none" fill-opacity="0.8" filter="url(#shadow)" /></g></svg>