
        <svg
        xmlns="http://www.w3.org/2000/svg"
        viewBox="0 0 1000 1000"
        width="800" stroke="black" stroke-width="4">
        <filter id='shadow' color-interpolation-filters="sRGB">
            <feDropShadow dx="2" dy="2" stdDeviation="2" flood-opacity="0.4"/>
        </filter>
        <filter id='shadow2' color-interpolation-filters="sRGB">
            <feDropShadow dx="0" dy="0" stdDeviation="5.5" flood-opacity=".8"/>
        </filter>
        <g >
        <rect x="0" y="0" width="100%" height="100%" fill="#ccc"
                stroke-width="8" stroke="none" />
    <circle cx="972" cy="237" r="88" fill="#a55194" stroke="none" fill-opacity="0.8" filter="url(#shadow)" /><circle cx="585" cy="604" r="26" fill="#de9ed6" stroke="none" fill-opacity="0.8" filter="url(#shadow)" /><circle cx="447" cy="878" r="35" fill="#b5cf6b" stroke="none" fill-opacity="0.8" filter="url(#shadow)" /><circle cx="676" cy="538" r="44" fill="#ce6dbd" stroke="none" fill-opacity="0.8" filter="url(#shadow)" /><circle cx="438" cy="593" r="33" fill="#8c6d31" stroke="none" fill-opacity="0.8" filter="url(#shadow)" /><circle cx="507" cy="142" r="84" fill="" stroke="none" fill-opacity="0.8" filter="url(#shadow)" /><circle cx="40" cy="463" r="35" fill="#e7cb94" stroke="none" fill-opacity="0.8" filter="url(#shadow)" /><circle cx="127" cy="783" r="84" fill="#6b6ecf" stroke="none" fill-opacity="0.8" filter="url(#shadow)" /><circle cx="988" cy="520" r="56" fill="" stroke="none" fill-opacity="0.8" filter="url(#shadow)" /><circle cx="877" cy="777" r="83" fill="" stroke="none" fill-opacity="0.8" filter="url(#shadow)" /><circle cx="80" cy="522" r="8" fill="#6b6ecf" stroke="none" fill-opacity="0.8" filter="url(#shadow)" /><circle cx="463" cy="446" r="20" fill="#ad494a" stroke="none" fill-opacity="0.8" filter="url(#shadow)" /><circle cx="885" cy="486" r="21" fill="#e7969c" stroke="none" fill-opacity="0.8" filter="url(#shadow)" /><circle cx="942" cy="12" r="61" fill="#843c39" stroke="none" fill-opacity="0.8" filter="url(#shadow)" /><circle cx="932" cy="590" r="24" fill="#de9ed6" stroke="none" fill-opacity="0.8" filter="url(#shadow)" /><circle cx="3" cy="671" r="28" fill="#e7ba52" stroke="none" fill-opacity="0.8" filter="url(#shadow)" /><circle cx="619" cy="120" r="16" fill="#b5cf6b" stroke="none" fill-opacity="0.8" filter="url(#shadow)" /><circle cx="725" cy="218" r="35" fill="#ad494a" stroke="none" fill-opacity="0.8" filter="url(#shadow)" /><circle cx="348" cy="480" r="51" fill="#e7cb94" stroke="none" fill-opacity="0.8" filter="url(#shadow)" /><circle cx="66" cy="245" r="61" fill="#e7ba52" stroke="none" fill-opacity="0.8" filter="url(#shadow)" /><circle cx="307" cy="710" r="69" fill="#8c6d31" stroke="none" fill-opacity="0.8" filter="url(#shadow)" /><circle cx="484" cy="632" r="19" fill="#e7ba52" stroke="none" fill-opacity="0.8" filter="url(#shadow)" /><circle cx="508" cy="399" r="26" fill="#9c9ede" stroke="none" fill-opacity="0.8" filter="url(#shadow)" /><circle cx="286" cy="326" r="67" fill="#843c39" stroke="none" fill-opacity="0.8" filter="url(#shadow)" /><circle cx="990" cy="81" r="19" fill="#5254a3" stroke="none" fill-opacity="0.8" filter="url(#shadow)" /><circle cx="180" cy="50" r="44" fill="#5254a3" stroke="none" fill-opacity="0.8" filter="url(#shadow)" /><circle cx="963" cy="668" r="29" fill="#cedb9c" stroke="none" fill-opacity="0.8" filter="url(#shadow)" /><circle cx="382" cy="87" r="16" fill="#9c9ede" stroke="none" fill-opacity="0.8" filter="url(#shadow)" /><circle cx="640" cy="886" r="35" fill="#7b4173" stroke="none" fill-opacity="0.8" filter="url(#shadow)" /><circle cx="783" cy="634" r="23" fill="#cedb9c" stroke="none" fill-opacity="0.8" filter="url(#shadow)" /><circle cx="28" cy="914" r="41" fill="#6b6ecf" stroke="none" fill-opacity="0.8" filter="url(#shadow)" /><circle cx="584" cy="853" r="15" fill="#e7969c" stroke="none" fill-opacity="0.8" filter="url(#shadow)" /><circle cx="735" cy="907" r="31" fill="#393b79" stroke="none" fill-opacity="0.8" filter="url(#shadow)" /><circle cx="332" cy="858" r="36" fill="#a55194" stroke="none" fill-opacity="0.8" filter="url(#shadow)" /><circle cx="62" cy="327" r="13" fill="#637939" stroke="none" fill-opacity="0.8" filter="url(#shadow)" /><circle cx="702" cy="24" r="81" fill="#8ca252" stroke="none" fill-opacity="0.8" filter="url(#shadow)" /><circle cx="600" cy="423" r="57" fill="#5254a3" stroke="none" fill-opacity="0.8" filter="url(#shadow)" /><circle cx="189" cy="615" r="65" fill="#8ca252" stroke="none" fill-opacity="0.8" filter="url(#shadow)" /><circle cx="14" cy="193" r="10" fill="#de9ed6" stroke="none" fill-opacity="0.8" filter="url(#shadow)" /><circle cx="443" cy="329" r="27" fill="#9c9ede" stroke="none" fill-opacity="0.8" filter="url(#shadow)" /><circle cx="758" cy="959" r="16" fill="#8c6d31" stroke="none" fill-opacity="0.8" filter="url(#shadow)" /><circle cx="283" cy="550" r="44" fill="#8c6d31" stroke="none" fill-opacity="0.8" filter="url(#shadow)" /><circle cx="660" cy="646" r="25" fill="#bd9e39" stroke="none" fill-opacity="0.8" filter="url(#shadow)" /><circle cx="183" cy="963" r="34" fill="#9c9ede" stroke="none" fill-opacity="0.8" filter="url(#shadow)" /><circle cx="750" cy="726" r="27" fill="#7b4173" stroke="none" fill-opacity="0.8" filter="url(#shadow)" /><circle cx="841" cy="52" r="33" fill="#b5cf6b" stroke="none" fill-opacity="0.8" filter="url(#shadow)" /><circle cx="818" cy="188" r="47" fill="#6b6ecf" stroke="none" fill-opacity="0.8" filter="url(#shadow)" /><circle cx="264" cy="4" r="19" fill="#bd9e39" stroke="none" fill-opacity="0.8" filter="url(#shadow)" /><circle cx="853" cy="290" r="21" fill="#a55194" stroke="none" fill-opacity="0.8" filter="url(#shadow)" /><circle cx="583" cy="717" r="48" fill="#8c6d31" stroke="none" fill-opacity="0.8" filter="url(#shadow)" /><circle cx="470" cy="970" r="41" fill="#5254a3" stroke="none" fill-opacity="0.8" filter="url(#shadow)" /><circle cx="968" cy="991" r="92" fill="#393b79" stroke="none" fill-opacity="0.8" filter="url(#shadow)" /><circle cx="450" cy="690" r="38" fill="#e7969c" stroke="none" fill-opacity="0.8" filter="url(#shadow)" /><circle cx="159" cy="159" r="49" fill="#8ca252" stroke="none" fill-opacity="0.8" filter="url(#shadow)" /><circle cx="717" cy="764" r="13" fill="#393b79" stroke="none" fill-opacity="0.8" filter="url(#shadow)" /><circle cx="725" cy="340" r="83" fill="#5254a3" stroke="none" fill-opacity="0.8" filter="url(#shadow)" /><circle cx="91" cy="963" r="13" fill="#8ca252" stroke="none" fill-opacity="0.8" filter="url(#shadow)" /><circle cx="74" cy="31" r="31" fill="#de9ed6" stroke="none" fill-opacity="0.8" filter="url(#shadow)" /><circle cx="865" cy="330" r="18" fill="#a55194" stroke="none" fill-opacity="0.8" filter="url(#shadow)" /><circle cx="623" cy="970" r="32" fill="#e7ba52" stroke="none" fill-opacity="0.8" filter="url(#shadow)" /><circle cx="118" cy="924" r="23" fill="#7b4173" stroke="none" fill-opacity="0.8" filter="url(#shadow)" /><circle cx="549" cy="7" r="39" fill="#de9ed6" stroke="none" fill-opacity="0.8" filter="url(#shadow)" /><circle cx="454" cy="827" r="12" fill="#5254a3" stroke="none" fill-opacity="0.8" filter="url(#shadow)" /><circle cx="122" cy="426" r="15" fill="#ce6dbd" stroke="none" fill-opacity="0.8" filter="url(#shadow)" /><circle cx="26" cy="4" r="9" fill="#bd9e39" stroke="none" fill-opacity="0.8" filter="url(#shadow)" /><circle cx="712" cy="979" r="18" fill="#8c6d31" stroke="none" fill-opacity="0.8" filter="url(#shadow)" /><circle cx="542" cy="656" r="13" fill="#9c9ede" stroke="none" fill-opacity="0.8" filter="url(#shadow)" /><circle cx="521" cy="294" r="27" fill="#843c39" stroke="none" fill-opacity="0.8" filter="url(#shadow)" /><circle cx="680" cy="145" r="32" fill="#8c6d31" stroke="none" fill-opacity="0.8" filter="url(#shadow)" /><circle cx="4" cy="17" r="10" fill="#843c39" stroke="none" fill-opacity="0.8" filter="url(#shadow)" /><circle cx="700" cy="681" r="28" fill="#bd9e39" stroke="none" fill-opacity="0.8" filter="url(#shadow)" /><circle cx="424" cy="481" r="23" fill="#9c9ede" stroke="none" fill-opacity="0.8" filter="url(#shadow)" /><circle cx="503" cy="460" r="20" fill="#bd9e39" stroke="none" fill-opacity="0.8" filter="url(#shadow)" /><circle cx="211" cy="235" r="24" fill="#ad494a" stroke="none" fill-opacity="0.8" filter="url(#shadow)" /><circle cx="27" cy="554" r="44" fill="#8ca252" stroke="none" fill-opacity="0.8" filter="url(#shadow)" /><circle cx="574" cy="328" r="27" fill="#ad494a" stroke="none" fill-opacity="0.8" filter="url(#shadow)" /><circle cx="378" cy="336" r="17" fill="#6b6ecf" stroke="none" fill-opacity="0.8" filter="url(#shadow)" /><circle cx="60" cy="166" r="13" fill="#5254a3" stroke="none" fill-opacity="0.8" filter="url(#shadow)" /><circle cx="418" cy="823" r="10" fill="#637939" stroke="none" fill-opacity="0.8" filter="url(#shadow)" /><circle cx="812" cy="601" r="15" fill="#b5cf6b" stroke="none" fill-opacity="0.8" filter="url(#shadow)" /><circle cx="562" cy="234" r="8" fill="#e7ba52" stroke="none" fill-opacity="0.8" filter="url(#shadow)" /><circle cx="223" cy="124" r="11" fill="#a55194" stroke="none" fill-opacity="0.8" filter="url(#shadow)" /><circle cx="525" cy="894" r="43" fill="#cedb9c" stroke="none" fill-opacity="0.8" filter="url(#shadow)" /><circle cx="677" cy="462" r="8" fill="#637939" stroke="none" fill-opacity="0.8" filter="url(#shadow)" /><circle cx="377" cy="780" r="28" fill="" stroke="none" fill-opacity="0.8" filter="url(#shadow)" /><circle cx="870" cy="403" r="47" fill="#d6616b" stroke="none" fill-opacity="0.8" filter="url(#shadow)" /><circle cx="190" cy="520" r="21" fill="#ad494a" stroke="none" fill-opacity="0.8" filter="url(#shadow)" /><circle cx="334" cy="209" r="11" fill="#8c6d31" stroke="none" fill-opacity="0.8" filter="url(#shadow)" /><circle cx="575" cy="877" r="8" fill="" stroke="none" fill-opacity="0.8" filter="url(#shadow)" /><circle cx="506" cy="695" r="16" fill="#ce6dbd" stroke="none" fill-opacity="0.8" filter="url(#shadow)" /><circle cx="796" cy="400" r="9" fill="#8c6d31" stroke="none" fill-opacity="0.8" filter="url(#shadow)" /><circle cx="945" cy="366" r="34" fill="#bd9e39" stroke="none" fill-opacity="0.8" filter="url(#shadow)" /><circle cx="816" cy="939" r="41" fill="#b5cf6b" stroke="none" fill-opacity="0.8" filter="url(#shadow)" /><circle cx="319" cy="133" r="58" fill="#393b79" stroke="none" fill-opacity="0.8" filter="url(#shadow)" /><circle cx="916" cy="528" r="8" fill="#5254a3" stroke="none" fill-opacity="0.8" filter="url(#shadow)" /><circle cx="488" cy="780" r="9" fill="#e7969c" stroke="none" fill-opacity="0.8" filter="url(#shadow)" /><circle cx="665" cy="707" r="10" fill="#e7ba52" stroke="none" fill-opacity="0.8" filter="url(#shadow)" /><circle cx="152" cy="352" r="36" fill="#e7ba52" stroke="none" fill-opacity="0.8" filter="url(#shadow)" /><circle cx="182" cy="482" r="14" fill="#e7ba52" stroke="none" fill-opacity="0.8" filter="url(#shadow)" /><circle cx="76" cy="594" r="8" fill="#e7cb94" stroke="none" fill-opacity="0.8" filter="url(#shadow)" /><circle cx="855" cy="656" r="32" fill="#9c9ede" stroke="none" fill-opacity="0.8" filter="url(#shadow)" /><circle cx="14" cy="384" r="27" fill="#e7969c" stroke="none" fill-opacity="0.8" filter="url(#shadow)" /><circle cx="324" cy="973" r="57" fill="#e7969c" stroke="none" fill-opacity="0.8" filter="url(#shadow)" /><circle cx="866" cy="606" r="10" fill="#9c9ede" stroke="none" fill-opacity="0.8" filter="url(#shadow)" /><circle cx="497" cy="825" r="30" fill="#ce6dbd" stroke="none" fill-opacity="0.8" filter="url(#shadow)" /><circle cx="263" cy="416" r="12" fill="#7b4173" stroke="none" fill-opacity="0.8" filter="url(#shadow)" /><circle cx="211" cy="373" r="10" fill="#e7ba52" stroke="none" fill-opacity="0.8" filter="url(#shadow)" /><circle cx="418" cy="19" r="24" fill="#bd9e39" stroke="none" fill-opacity="0.8" filter="url(#shadow)" /><circle cx="586" cy="807" r="12" fill="#8ca252" stroke="none" fill-opacity="0.8" filter="url(#shadow)" /><circle cx="774" cy="845" r="28" fill="#a55194" stroke="none" fill-opacity="0.8" filter="url(#shadow)" /><circle cx="385" cy="601" r="16" fill="#393b79" stroke="none" fill-opacity="0.8" filter="url(#shadow)" /><circle cx="226" cy="924" r="11" fill="#7b4173" stroke="none" fill-opacity="0.8" filter="url(#shadow)" /><circle cx="531" cy="994" r="19" fill="#cedb9c" stroke="none" fill-opacity="0.8" filter="url(#shadow)" /><circle cx="759" cy="778" r="12" fill="#ad494a" stroke="none" fill-opacity="0.8" filter="url(#shadow)" /><circle cx="286" cy="802" r="8" fill="#843c39" stroke="none" fill-opacity="0.8" filter="url(#shadow)" /><circle cx="85" cy="95" r="31" fill="#843c39" stroke="none" fill-opacity="0.8" filter="url(#shadow)" /><circle cx="730" cy="506" r="13" fill="#cedb9c" stroke="none" fill-opacity="0.8" filter="url(#shadow)" /><circle cx="632" cy="833" r="13" fill="#de9ed6" stroke="none" fill-opacity="0.8" filter="url(#shadow)" /><circle cx="23" cy="988" r="10" fill="" stroke="none" fill-opacity="0.8" filter="url(#shadow)" /><circle cx="293" cy="63" r="14" fill="#a55194" stroke="none" fill-opacity="0.8" filter="url(#shadow)" /><circle cx="562" cy="496" r="18" fill="#637939" stroke="none" fill-opacity="0.8" filter="url(#shadow)" /><circle cx="492" cy="737" r="16" fill="#637939" stroke="none" fill-opacity="0.8" filter="url(#shadow)" /><circle cx="207" cy="424" r="21" fill="#5254a3" stroke="none" fill-opacity="0.8" filter="url(#shadow)" /></g></svg>