
        <svg
        xmlns="http://www.w3.org/2000/svg"
        viewBox="0 0 1000 1000"
        width="800" stroke="black" stroke-width="4">
        <filter id='shadow' color-interpolation-filters="sRGB">
            <feDropShadow dx="2" dy="2" stdDeviation="2" flood-opacity="0.4"/>
        </filter>
        <filter id='shadow2' color-interpolation-filters="sRGB">
            <feDropShadow dx="0" dy="0" stdDeviation="5.5" flood-opacity=".8"/>
        </filter>
        <g >
        <rect x="0" y="0" width="100%" height="100%" fill="#ccc"
                stroke-width="8" stroke="none" />
    <circle cx="637" cy="120" r="76" fill="#e7969c" stroke="none" fill-opacity="0.8" filter="url(#shadow)" /><circle cx="197" cy="427" r="21" fill="#e7cb94" stroke="none" fill-opacity="0.8" filter="url(#shadow)" /><circle cx="435" cy="669" r="44" fill="#7b4173" stroke="none" fill-opacity="0.8" filter="url(#shadow)" /><circle cx="973" cy="957" r="66" fill="#cedb9c" stroke="none" fill-opacity="0.8" filter="url(#shadow)" /><circle cx="595" cy="488" r="87" fill="#d6616b" stroke="none" fill-opacity="0.8" filter="url(#shadow)" /><circle cx="186" cy="249" r="32" fill="" stroke="none" fill-opacity="0.8" filter="url(#shadow)" /><circle cx="162" cy="787" r="52" fill="#a55194" stroke="none" fill-opacity="0.8" filter="url(#shadow)" /><circle cx="587" cy="832" r="58" fill="#8c6d31" stroke="none" fill-opacity="0.8" filter="url(#shadow)" /><circle cx="168" cy="910" r="66" fill="#843c39" stroke="none" fill-opacity="0.8" filter="url(#shadow)" /><circle cx="802" cy="564" r="82" fill="#6b6ecf" stroke="none" fill-opacity="0.8" filter="url(#shadow)" /><circle cx="121" cy="319" r="54" fill="#bd9e39" stroke="none" fill-opacity="0.8" filter="url(#shadow)" /><circle cx="267" cy="831" r="22" fill="#a55194" stroke="none" fill-opacity="0.8" filter="url(#shadow)" /><circle cx="749" cy="893" r="42" fill="#e7cb94" stroke="none" fill-opacity="0.8" filter="url(#shadow)" /><circle cx="371" cy="929" r="47" fill="#b5cf6b" stroke="none" fill-opacity="0.8" filter="url(#shadow)" /><circle cx="435" cy="874" r="34" fill="#e7ba52" stroke="none" fill-opacity="0.8" filter="url(#shadow)" /><circle cx="269" cy="251" r="18" fill="#b5cf6b" stroke="none" fill-opacity="0.8" filter="url(#shadow)" /><circle cx="33" cy="816" r="38" fill="#de9ed6" stroke="none" fill-opacity="0.8" filter="url(#shadow)" /><circle cx="191" cy="670" r="64" fill="#8ca252" stroke="none" fill-opacity="0.8" filter="url(#shadow)" /><circle cx="413" cy="758" r="43" fill="#b5cf6b" stroke="none" fill-opacity="0.8" filter="url(#shadow)" /><circle cx="498" cy="264" r="60" fill="#cedb9c" stroke="none" fill-opacity="0.8" filter="url(#shadow)" /><circle cx="119" cy="24" r="22" fill="#843c39" stroke="none" fill-opacity="0.8" filter="url(#shadow)" /><circle cx="55" cy="138" r="93" fill="#de9ed6" stroke="none" fill-opacity="0.8" filter="url(#shadow)" /><circle cx="922" cy="326" r="42" fill="#7b4173" stroke="none" fill-opacity="0.8" filter="url(#shadow)" /><circle cx="452" cy="84" r="34" fill="#ce6dbd" stroke="none" fill-opacity="0.8" filter="url(#shadow)" /><circle cx="676" cy="985" r="55" fill="#b5cf6b" stroke="none" fill-opacity="0.8" filter="url(#shadow)" /><circle cx="928" cy="469" r="69" fill="" stroke="none" fill-opacity="0.8" filter="url(#shadow)" /><circle cx="328" cy="240" r="27" fill="#8ca252" stroke="none" fill-opacity="0.8" filter="url(#shadow)" /><circle cx="32" cy="609" r="15" fill="" stroke="none" fill-opacity="0.8" filter="url(#shadow)" /><circle cx="8" cy="725" r="50" fill="#ce6dbd" stroke="none" fill-opacity="0.8" filter="url(#shadow)" /><circle cx="230" cy="139" r="22" fill="#7b4173" stroke="none" fill-opacity="0.8" filter="url(#shadow)" /><circle cx="869" cy="290" r="15" fill="#843c39" stroke="none" fill-opacity="0.8" filter="url(#shadow)" /><circle cx="966" cy="140" r="41" fill="#e7ba52" stroke="none" fill-opacity="0.8" filter="url(#shadow)" /><circle cx="901" cy="874" r="9" fill="#5254a3" stroke="none" fill-opacity="0.8" filter="url(#shadow)" /><circle cx="757" cy="739" r="19" fill="#e7cb94" stroke="none" fill-opacity="0.8" filter="url(#shadow)" /><circle cx="274" cy="7" r="63" fill="#b5cf6b" stroke="none" fill-opacity="0.8" filter="url(#shadow)" /><circle cx="354" cy="543" r="28" fill="#8c6d31" stroke="none" fill-opacity="0.8" filter="url(#shadow)" /><circle cx="947" cy="754" r="57" fill="#e7cb94" stroke="none" fill-opacity="0.8" filter="url(#shadow)" /><circle cx="730" cy="402" r="55" fill="#e7cb94" stroke="none" fill-opacity="0.8" filter="url(#shadow)" /><circle cx="64" cy="473" r="29" fill="#e7969c" stroke="none" fill-opacity="0.8" filter="url(#shadow)" /><circle cx="619" cy="328" r="19" fill="#393b79" stroke="none" fill-opacity="0.8" filter="url(#shadow)" /><circle cx="48" cy="381" r="20" fill="#a55194" stroke="none" fill-opacity="0.8" filter="url(#shadow)" /><circle cx="813" cy="731" r="32" fill="#e7cb94" stroke="none" fill-opacity="0.8" filter="url(#shadow)" /><circle cx="516" cy="733" r="28" fill="#de9ed6" stroke="none" fill-opacity="0.8" filter="url(#shadow)" /><circle cx="771" cy="186" r="51" fill="#ce6dbd" stroke="none" fill-opacity="0.8" filter="url(#shadow)" /><circle cx="901" cy="29" r="24" fill="#bd9e39" stroke="none" fill-opacity="0.8" filter="url(#shadow)" /><circle cx="259" cy="321" r="37" fill="#bd9e39" stroke="none" fill-opacity="0.8" filter="url(#shadow)" /><circle cx="538" cy="580" r="18" fill="#ad494a" stroke="none" fill-opacity="0.8" filter="url(#shadow)" /><circle cx="186" cy="376" r="25" fill="#843c39" stroke="none" fill-opacity="0.8" filter="url(#shadow)" /><circle cx="963" cy="44" r="29" fill="#5254a3" stroke="none" fill-opacity="0.8" filter="url(#shadow)" /><circle cx="838" cy="927" r="48" fill="#7b4173" stroke="none" fill-opacity="0.8" filter="url(#shadow)" /><circle cx="210" cy="72" r="16" fill="" stroke="none" fill-opacity="0.8" filter="url(#shadow)" /><circle cx="669" cy="621" r="20" fill="#bd9e39" stroke="none" fill-opacity="0.8" filter="url(#shadow)" /><circle cx="610" cy="685" r="34" fill="#cedb9c" stroke="none" fill-opacity="0.8" filter="url(#shadow)" /><circle cx="869" cy="672" r="16" fill="#6b6ecf" stroke="none" fill-opacity="0.8" filter="url(#shadow)" /><circle cx="748" cy="276" r="15" fill="#5254a3" stroke="none" fill-opacity="0.8" filter="url(#shadow)" /><circle cx="408" cy="369" r="34" fill="#ce6dbd" stroke="none" fill-opacity="0.8" filter="url(#shadow)" /><circle cx="232" cy="403" r="10" fill="#637939" stroke="none" fill-opacity="0.8" filter="url(#shadow)" /><circle cx="373" cy="140" r="31" fill="#843c39" stroke="none" fill-opacity="0.8" filter="url(#shadow)" /><circle cx="729" cy="686" r="35" fill="#cedb9c" stroke="none" fill-opacity="0.8" filter="url(#shadow)" /><circle cx="9" cy="539" r="13" fill="#6b6ecf" stroke="none" fill-opacity="0.8" filter="url(#shadow)" /><circle cx="427" cy="175" r="16" fill="#6b6ecf" stroke="none" fill-opacity="0.8" filter="url(#shadow)" /><circle cx="311" cy="454" r="44" fill="#e7969c" stroke="none" fill-opacity="0.8" filter="url(#shadow)" /><circle cx="360" cy="311" r="37" fill="#e7ba52" stroke="none" fill-opacity="0.8" filter="url(#shadow)" /><circle cx="824" cy="276" r="12" fill="#b5cf6b" stroke="none" fill-opacity="0.8" filter="url(#shadow)" /><circle cx="535" cy="158" r="13" fill="#5254a3" stroke="none" fill-opacity="0.8" filter="url(#shadow)" /><circle cx="997" cy="608" r="39" fill="" stroke="none" fill-opacity="0.8" filter="url(#shadow)" /><circle cx="634" cy="239" r="32" fill="#ce6dbd" stroke="none" fill-opacity="0.8" filter="url(#shadow)" /><circle cx="250" cy="575" r="17" fill="#de9ed6" stroke="none" fill-opacity="0.8" filter="url(#shadow)" /><circle cx="895" cy="135" r="23" fill="#ce6dbd" stroke="none" fill-opacity="0.8" filter="url(#shadow)" /><circle cx="508" cy="976" r="55" fill="#de9ed6" stroke="none" fill-opacity="0.8" filter="url(#shadow)" /><circle cx="461" cy="435" r="40" fill="#ce6dbd" stroke="none" fill-opacity="0.8" filter="url(#shadow)" /><circle cx="199" cy="108" r="21" fill="" stroke="none" fill-opacity="0.8" filter="url(#shadow)" /><circle cx="158" cy="520" r="68" fill="#ce6dbd" stroke="none" fill-opacity="0.8" filter="url(#shadow)" /><circle cx="983" cy="5" r="13" fill="#b5cf6b" stroke="none" fill-opacity="0.8" filter="url(#shadow)" /><circle cx="698" cy="259" r="22" fill="" stroke="none" fill-opacity="0.8" filter="url(#shadow)" /><circle cx="768" cy="653" r="9" fill="#e7ba52" stroke="none" fill-opacity="0.8" filter="url(#shadow)" /><circle cx="682" cy="792" r="23" fill="" stroke="none" fill-opacity="0.8" filter="url(#shadow)" /><circle cx="689" cy="40" r="11" fill="#ce6dbd" stroke="none" fill-opacity="0.8" filter="url(#shadow)" /><circle cx="654" cy="657" r="9" fill="#5254a3" stroke="none" fill-opacity="0.8" filter="url(#shadow)" /><circle cx="897" cy="827" r="17" fill="#393b79" stroke="none" fill-opacity="0.8" filter="url(#shadow)" /><circle cx="916" cy="229" r="12" fill="#bd9e39" stroke="none" fill-opacity="0.8" filter="url(#shadow)" /><circle cx="390" cy="239" r="33" fill="#843c39" stroke="none" fill-opacity="0.8" filter="url(#shadow)" /><circle cx="787" cy="304" r="17" fill="#8ca252" stroke="none" fill-opacity="0.8" filter="url(#shadow)" /><circle cx="966" cy="274" r="21" fill="#cedb9c" stroke="none" fill-opacity="0.8" filter="url(#shadow)" /><circle cx="338" cy="656" r="32" fill="#b5cf6b" stroke="none" fill-opacity="0.8" filter="url(#shadow)" /><circle cx="840" cy="798" r="35" fill="#393b79" stroke="none" fill-opacity="0.8" filter="url(#shadow)" /><circle cx="590" cy="225" r="9" fill="#6b6ecf" stroke="none" fill-opacity="0.8" filter="url(#shadow)" /><circle cx="291" cy="963" r="32" fill="#8c6d31" stroke="none" fill-opacity="0.8" filter="url(#shadow)" /><circle cx="235" cy="216" r="18" fill="" stroke="none" fill-opacity="0.8" filter="url(#shadow)" /><circle cx="709" cy="758" r="17" fill="#393b79" stroke="none" fill-opacity="0.8" filter="url(#shadow)" /><circle cx="272" cy="523" r="35" fill="#637939" stroke="none" fill-opacity="0.8" filter="url(#shadow)" /><circle cx="941" cy="861" r="28" fill="#9c9ede" stroke="none" fill-opacity="0.8" filter="url(#shadow)" /><circle cx="229" cy="457" r="11" fill="" stroke="none" fill-opacity="0.8" filter="url(#shadow)" /><circle cx="851" cy="208" r="10" fill="#d6616b" stroke="none" fill-opacity="0.8" filter="url(#shadow)" /><circle cx="166" cy="96" r="14" fill="#7b4173" stroke="none" fill-opacity="0.8" filter="url(#shadow)" /><circle cx="344" cy="744" r="26" fill="#6b6ecf" stroke="none" fill-opacity="0.8" filter="url(#shadow)" /><circle cx="750" cy="66" r="38" fill="#7b4173" stroke="none" fill-opacity="0.8" filter="url(#shadow)" /><circle cx="684" cy="851" r="23" fill="#d6616b" stroke="none" fill-opacity="0.8" filter="url(#shadow)" /><circle cx="17" cy="248" r="9" fill="#ad494a" stroke="none" fill-opacity="0.8" filter="url(#shadow)" /><circle cx="361" cy="502" r="11" fill="#bd9e39" stroke="none" fill-opacity="0.8" filter="url(#shadow)" /><circle cx="1" cy="983" r="49" fill="#ce6dbd" stroke="none" fill-opacity="0.8" filter="url(#shadow)" /><circle cx="550" cy="54" r="29" fill="#8c6d31" stroke="none" fill-opacity="0.8" filter="url(#shadow)" /><circle cx="155" cy="392" r="9" fill="#9c9ede" stroke="none" fill-opacity="0.8" filter="url(#shadow)" /><circle cx="266" cy="884" r="12" fill="#5254a3" stroke="none" fill-opacity="0.8" filter="url(#shadow)" /><circle cx="486" cy="597" r="31" fill="#9c9ede" stroke="none" fill-opacity="0.8" filter="url(#shadow)" /><circle cx="362" cy="478" r="12" fill="#8ca252" stroke="none" fill-opacity="0.8" filter="url(#shadow)" /><circle cx="390" cy="431" r="29" fill="#5254a3" stroke="none" fill-opacity="0.8" filter="url(#shadow)" /><circle cx="292" cy="150" r="18" fill="#637939" stroke="none" fill-opacity="0.8" filter="url(#shadow)" /><circle cx="283" cy="755" r="13" fill="" stroke="none" fill-opacity="0.8" filter="url(#shadow)" /><circle cx="787" cy="11" r="21" fill="#9c9ede" stroke="none" fill-opacity="0.8" filter="url(#shadow)" /><circle cx="808" cy="360" r="17" fill="#393b79" stroke="none" fill-opacity="0.8" filter="url(#shadow)" /><circle cx="430" cy="309" r="13" fill="#393b79" stroke="none" fill-opacity="0.8" filter="url(#shadow)" /><circle cx="408" cy="579" r="26" fill="#5254a3" stroke="none" fill-opacity="0.8" filter="url(#shadow)" /><circle cx="5" cy="433" r="33" fill="#a55194" stroke="none" fill-opacity="0.8" filter="url(#shadow)" /><circle cx="314" cy="344" r="9" fill="#637939" stroke="none" fill-opacity="0.8" filter="url(#shadow)" /><circle cx="782" cy="960" r="12" fill="#8c6d31" stroke="none" fill-opacity="0.8" filter="url(#shadow)" /><circle cx="21" cy="291" r="26" fill="#6b6ecf" stroke="none" fill-opacity="0.8" filter="url(#shadow)" /><circle cx="86" cy="401" r="17" fill="#843c39" stroke="none" fill-opacity="0.8" filter="url(#shadow)" /><circle cx="102" cy="999" r="37" fill="#637939" stroke="none" fill-opacity="0.8" filter="url(#shadow)" /><circle cx="552" cy="663" r="17" fill="#ad494a" stroke="none" fill-opacity="0.8" filter="url(#shadow)" /><circle cx="650" cy="764" r="14" fill="#5254a3" stroke="none" fill-opacity="0.8" filter="url(#shadow)" /><circle cx="145" cy="431" r="16" fill="#d6616b" stroke="none" fill-opacity="0.8" filter="url(#shadow)" /><circle cx="166" cy="199" r="16" fill="#b5cf6b" stroke="none" fill-opacity="0.8" filter="url(#shadow)" /><circle cx="104" cy="671" r="18" fill="#6b6ecf" stroke="none" fill-opacity="0.8" filter="url(#shadow)" /><circle cx="341" cy="864" r="22" fill="#bd9e39" stroke="none" fill-opacity="0.8" filter="url(#shadow)" /><circle cx="245" cy="731" r="12" fill="#637939" stroke="none" fill-opacity="0.8" filter="url(#shadow)" /><circle cx="554" cy="1" r="13" fill="#b5cf6b" stroke="none" fill-opacity="0.8" filter="url(#shadow)" /><circle cx="69" cy="23" r="13" fill="#ad494a" stroke="none" fill-opacity="0.8" filter="url(#shadow)" /><circle cx="52" cy="672" r="12" fill="#a55194" stroke="none" fill-opacity="0.8" filter="url(#shadow)" /><circle cx="659" cy="339" r="10" fill="#8c6d31" stroke="none" fill-opacity="0.8" filter="url(#shadow)" /><circle cx="512" cy="887" r="23" fill="#de9ed6" stroke="none" fill-opacity="0.8" filter="url(#shadow)" /></g></svg>