
        <svg
        xmlns="http://www.w3.org/2000/svg"
        viewBox="0 0 1000 1000"
        width="800" stroke="black" stroke-width="4">
        <filter id='shadow' color-interpolation-filters="sRGB">
            <feDropShadow dx="2" dy="2" stdDeviation="2" flood-opacity="0.4"/>
        </filter>
        <filter id='shadow2' color-interpolation-filters="sRGB">
            <feDropShadow dx="0" dy="0" stdDeviation="5.5" flood-opacity=".8"/>
        </filter>
        <g >
        <rect x="0" y="0" width="100%" height="100%" fill="#ccc"
                stroke-width="8" stroke="none" />
    <circle cx="975" cy="797" r="21" fill="#843c39" stroke="none" fill-opacity="0.8" filter="url(#shadow)" /><circle cx="106" cy="675" r="73" fill="#8ca252" stroke="none" fill-opacity="0.8" filter="url(#shadow)" /><circle cx="599" cy="61" r="58" fill="#6b6ecf" stroke="none" fill-opacity="0.8" filter="url(#shadow)" /><circle cx="768" cy="21" r="37" fill="#e7ba52" stroke="none" fill-opacity="0.8" filter="url(#shadow)" /><circle cx="935" cy="579" r="70" fill="#9c9ede" stroke="none" fill-opacity="0.8" filter="url(#shadow)" /><circle cx="571" cy="946" r="51" fill="#843c39" stroke="none" fill-opacity="0.8" filter="url(#shadow)" /><circle cx="409" cy="61" r="90" fill="#843c39" stroke="none" fill-opacity="0.8" filter="url(#shadow)" /><circle cx="696" cy="319" r="11" fill="#5254a3" stroke="none" fill-opacity="0.8" filter="url(#shadow)" /><circle cx="181" cy="322" r="45" fill="#a55194" stroke="none" fill-opacity="0.8" filter="url(#shadow)" /><circle cx="615" cy="588" r="82" fill="#5254a3" stroke="none" fill-opacity="0.8" filter="url(#shadow)" /><circle cx="803" cy="708" r="23" fill="#8c6d31" stroke="none" fill-opacity="0.8" filter="url(#shadow)" /><circle cx="315" cy="937" r="91" fill="#de9ed6" stroke="none" fill-opacity="0.8" filter="url(#shadow)" /><circle cx="288" cy="352" r="45" fill="#e7cb94" stroke="none" fill-opacity="0.8" filter="url(#shadow)" /><circle cx="854" cy="317" r="92" fill="" stroke="none" fill-opacity="0.8" filter="url(#shadow)" /><circle cx="16" cy="886" r="76" fill="#cedb9c" stroke="none" fill-opacity="0.8" filter="url(#shadow)" /><circle cx="879" cy="146" r="41" fill="#e7969c" stroke="none" fill-opacity="0.8" filter="url(#shadow)" /><circle cx="419" cy="391" r="45" fill="#de9ed6" stroke="none" fill-opacity="0.8" filter="url(#shadow)" /><circle cx="6" cy="703" r="14" fill="" stroke="none" fill-opacity="0.8" filter="url(#shadow)" /><circle cx="312" cy="642" r="55" fill="" stroke="none" fill-opacity="0.8" filter="url(#shadow)" /><circle cx="159" cy="828" r="27" fill="#a55194" stroke="none" fill-opacity="0.8" filter="url(#shadow)" /><circle cx="148" cy="474" r="81" fill="#e7969c" stroke="none" fill-opacity="0.8" filter="url(#shadow)" /><circle cx="107" cy="99" r="27" fill="#637939" stroke="none" fill-opacity="0.8" filter="url(#shadow)" /><circle cx="265" cy="82" r="48" fill="#b5cf6b" stroke="none" fill-opacity="0.8" filter="url(#shadow)" /><circle cx="620" cy="749" r="66" fill="#8ca252" stroke="none" fill-opacity="0.8" filter="url(#shadow)" /><circle cx="903" cy="949" r="13" fill="#393b79" stroke="none" fill-opacity="0.8" filter="url(#shadow)" /><circle cx="99" cy="250" r="53" fill="#393b79" stroke="none" fill-opacity="0.8" filter="url(#shadow)" /><circle cx="305" cy="211" r="69" fill="" stroke="none" fill-opacity="0.8" filter="url(#shadow)" /><circle cx="988" cy="854" r="17" fill="#cedb9c" stroke="none" fill-opacity="0.8" filter="url(#shadow)" /><circle cx="170" cy="379" r="12" fill="#6b6ecf" stroke="none" fill-opacity="0.8" filter="url(#shadow)" /><circle cx="711" cy="652" r="32" fill="#bd9e39" stroke="none" fill-opacity="0.8" filter="url(#shadow)" /><circle cx="992" cy="352" r="47" fill="#7b4173" stroke="none" fill-opacity="0.8" filter="url(#shadow)" /><circle cx="603" cy="378" r="32" fill="#8c6d31" stroke="none" fill-opacity="0.8" filter="url(#shadow)" /><circle cx="946" cy="88" r="23" fill="#7b4173" stroke="none" fill-opacity="0.8" filter="url(#shadow)" /><circle cx="448" cy="601" r="52" fill="#843c39" stroke="none" fill-opacity="0.8" filter="url(#shadow)" /><circle cx="692" cy="883" r="55" fill="#cedb9c" stroke="none" fill-opacity="0.8" filter="url(#shadow)" /><circle cx="50" cy="154" r="10" fill="#e7cb94" stroke="none" fill-opacity="0.8" filter="url(#shadow)" /><circle cx="297" cy="719" r="23" fill="#e7ba52" stroke="none" fill-opacity="0.8" filter="url(#shadow)" /><circle cx="745" cy="439" r="70" fill="#ce6dbd" stroke="none" fill-opacity="0.8" filter="url(#shadow)" /><circle cx="807" cy="964" r="8" fill="#5254a3" stroke="none" fill-opacity="0.8" filter="url(#shadow)" /><circle cx="35" cy="546" r="9" fill="#ad494a" stroke="none" fill-opacity="0.8" filter="url(#shadow)" /><circle cx="204" cy="666" r="8" fill="#637939" stroke="none" fill-opacity="0.8" filter="url(#shadow)" /><circle cx="617" cy="237" r="48" fill="#ad494a" stroke="none" fill-opacity="0.8" filter="url(#shadow)" /><circle cx="749" cy="948" r="30" fill="#bd9e39" stroke="none" fill-opacity="0.8" filter="url(#shadow)" /><circle cx="536" cy="527" r="16" fill="#8c6d31" stroke="none" fill-opacity="0.8" filter="url(#shadow)" /><circle cx="151" cy="144" r="17" fill="" stroke="none" fill-opacity="0.8" filter="url(#shadow)" /><circle cx="425" cy="723" r="72" fill="#a55194" stroke="none" fill-opacity="0.8" filter="url(#shadow)" /><circle cx="927" cy="697" r="19" fill="#cedb9c" stroke="none" fill-opacity="0.8" filter="url(#shadow)" /><circle cx="200" cy="890" r="25" fill="#e7cb94" stroke="none" fill-opacity="0.8" filter="url(#shadow)" /><circle cx="13" cy="672" r="17" fill="" stroke="none" fill-opacity="0.8" filter="url(#shadow)" /><circle cx="574" cy="124" r="8" fill="#843c39" stroke="none" fill-opacity="0.8" filter="url(#shadow)" /><circle cx="828" cy="616" r="16" fill="#ad494a" stroke="none" fill-opacity="0.8" filter="url(#shadow)" /><circle cx="681" cy="517" r="13" fill="#e7969c" stroke="none" fill-opacity="0.8" filter="url(#shadow)" /><circle cx="375" cy="507" r="18" fill="#b5cf6b" stroke="none" fill-opacity="0.8" filter="url(#shadow)" /><circle cx="182" cy="753" r="16" fill="" stroke="none" fill-opacity="0.8" filter="url(#shadow)" /><circle cx="404" cy="277" r="39" fill="#e7cb94" stroke="none" fill-opacity="0.8" filter="url(#shadow)" /><circle cx="845" cy="43" r="28" fill="#de9ed6" stroke="none" fill-opacity="0.8" filter="url(#shadow)" /><circle cx="126" cy="21" r="37" fill="#637939" stroke="none" fill-opacity="0.8" filter="url(#shadow)" /><circle cx="139" cy="890" r="17" fill="#843c39" stroke="none" fill-opacity="0.8" filter="url(#shadow)" /><circle cx="545" cy="245" r="13" fill="#a55194" stroke="none" fill-opacity="0.8" filter="url(#shadow)" /><circle cx="251" cy="777" r="45" fill="#ce6dbd" stroke="none" fill-opacity="0.8" filter="url(#shadow)" /><circle cx="662" cy="970" r="16" fill="#393b79" stroke="none" fill-opacity="0.8" filter="url(#shadow)" /><circle cx="491" cy="858" r="29" fill="#7b4173" stroke="none" fill-opacity="0.8" filter="url(#shadow)" /><circle cx="903" cy="36" r="24" fill="" stroke="none" fill-opacity="0.8" filter="url(#shadow)" /><circle cx="871" cy="894" r="46" fill="#de9ed6" stroke="none" fill-opacity="0.8" filter="url(#shadow)" /><circle cx="744" cy="683" r="11" fill="#8c6d31" stroke="none" fill-opacity="0.8" filter="url(#shadow)" /><circle cx="475" cy="979" r="11" fill="#d6616b" stroke="none" fill-opacity="0.8" filter="url(#shadow)" /><circle cx="801" cy="784" r="8" fill="#843c39" stroke="none" fill-opacity="0.8" filter="url(#shadow)" /><circle cx="343" cy="786" r="13" fill="#8c6d31" stroke="none" fill-opacity="0.8" filter="url(#shadow)" /><circle cx="145" cy="791" r="11" fill="#de9ed6" stroke="none" fill-opacity="0.8" filter="url(#shadow)" /><circle cx="763" cy="577" r="19" fill="#393b79" stroke="none" fill-opacity="0.8" filter="url(#shadow)" /><circle cx="703" cy="288" r="19" fill="#b5cf6b" stroke="none" fill-opacity="0.8" filter="url(#shadow)" /><circle cx="739" cy="261" r="19" fill="#843c39" stroke="none" fill-opacity="0.8" filter="url(#shadow)" /><circle cx="75" cy="376" r="9" fill="#de9ed6" stroke="none" fill-opacity="0.8" filter="url(#shadow)" /><circle cx="520" cy="451" r="50" fill="#d6616b" stroke="none" fill-opacity="0.8" filter="url(#shadow)" /><circle cx="946" cy="418" r="15" fill="#cedb9c" stroke="none" fill-opacity="0.8" filter="url(#shadow)" /><circle cx="428" cy="488" r="36" fill="#a55194" stroke="none" fill-opacity="0.8" filter="url(#shadow)" /><circle cx="567" cy="689" r="13" fill="#e7cb94" stroke="none" fill-opacity="0.8" filter="url(#shadow)" /><circle cx="709" cy="530" r="10" fill="#843c39" stroke="none" fill-opacity="0.8" filter="url(#shadow)" /><circle cx="936" cy="886" r="13" fill="#637939" stroke="none" fill-opacity="0.8" filter="url(#shadow)" /><circle cx="480" cy="196" r="9" fill="#8c6d31" stroke="none" fill-opacity="0.8" filter="url(#shadow)" /><circle cx="720" cy="65" r="18" fill="#cedb9c" stroke="none" fill-opacity="0.8" filter="url(#shadow)" /><circle cx="456" cy="263" r="8" fill="#6b6ecf" stroke="none" fill-opacity="0.8" filter="url(#shadow)" /><circle cx="624" cy="139" r="14" fill="#8ca252" stroke="none" fill-opacity="0.8" filter="url(#shadow)" /><circle cx="867" cy="981" r="23" fill="#cedb9c" stroke="none" fill-opacity="0.8" filter="url(#shadow)" /><circle cx="651" cy="294" r="8" fill="" stroke="none" fill-opacity="0.8" filter="url(#shadow)" /><circle cx="25" cy="291" r="30" fill="#de9ed6" stroke="none" fill-opacity="0.8" filter="url(#shadow)" /><circle cx="514" cy="644" r="26" fill="#9c9ede" stroke="none" fill-opacity="0.8" filter="url(#shadow)" /><circle cx="731" cy="796" r="12" fill="" stroke="none" fill-opacity="0.8" filter="url(#shadow)" /><circle cx="798" cy="101" r="12" fill="#d6616b" stroke="none" fill-opacity="0.8" filter="url(#shadow)" /><circle cx="248" cy="526" r="30" fill="#b5cf6b" stroke="none" fill-opacity="0.8" filter="url(#shadow)" /><circle cx="859" cy="770" r="21" fill="" stroke="none" fill-opacity="0.8" filter="url(#shadow)" /><circle cx="786" cy="923" r="11" fill="#bd9e39" stroke="none" fill-opacity="0.8" filter="url(#shadow)" /><circle cx="756" cy="713" r="19" fill="#e7cb94" stroke="none" fill-opacity="0.8" filter="url(#shadow)" /><circle cx="409" cy="807" r="11" fill="#cedb9c" stroke="none" fill-opacity="0.8" filter="url(#shadow)" /><circle cx="872" cy="215" r="8" fill="#9c9ede" stroke="none" fill-opacity="0.8" filter="url(#shadow)" /><circle cx="617" cy="466" r="23" fill="" stroke="none" fill-opacity="0.8" filter="url(#shadow)" /><circle cx="118" cy="155" r="17" fill="#393b79" stroke="none" fill-opacity="0.8" filter="url(#shadow)" /><circle cx="20" cy="401" r="9" fill="#7b4173" stroke="none" fill-opacity="0.8" filter="url(#shadow)" /><circle cx="619" cy="854" r="8" fill="#e7ba52" stroke="none" fill-opacity="0.8" filter="url(#shadow)" /><circle cx="174" cy="126" r="11" fill="#393b79" stroke="none" fill-opacity="0.8" filter="url(#shadow)" /><circle cx="794" cy="178" r="24" fill="#393b79" stroke="none" fill-opacity="0.8" filter="url(#shadow)" /><circle cx="559" cy="860" r="12" fill="#9c9ede" stroke="none" fill-opacity="0.8" filter="url(#shadow)" /><circle cx="288" cy="411" r="12" fill="#8c6d31" stroke="none" fill-opacity="0.8" filter="url(#shadow)" /><circle cx="476" cy="294" r="12" fill="#de9ed6" stroke="none" fill-opacity="0.8" filter="url(#shadow)" /><circle cx="793" cy="543" r="11" fill="#6b6ecf" stroke="none" fill-opacity="0.8" filter="url(#shadow)" /><circle cx="740" cy="122" r="23" fill="#de9ed6" stroke="none" fill-opacity="0.8" filter="url(#shadow)" /><circle cx="2" cy="21" r="58" fill="" stroke="none" fill-opacity="0.8" filter="url(#shadow)" /><circle cx="503" cy="301" r="8" fill="#ce6dbd" stroke="none" fill-opacity="0.8" filter="url(#shadow)" /><circle cx="575" cy="326" r="12" fill="#6b6ecf" stroke="none" fill-opacity="0.8" filter="url(#shadow)" /><circle cx="336" cy="437" r="15" fill="#cedb9c" stroke="none" fill-opacity="0.8" filter="url(#shadow)" /><circle cx="970" cy="927" r="8" fill="#6b6ecf" stroke="none" fill-opacity="0.8" filter="url(#shadow)" /><circle cx="319" cy="760" r="10" fill="#ad494a" stroke="none" fill-opacity="0.8" filter="url(#shadow)" /><circle cx="773" cy="668" r="9" fill="#b5cf6b" stroke="none" fill-opacity="0.8" filter="url(#shadow)" /><circle cx="924" cy="980" r="22" fill="#bd9e39" stroke="none" fill-opacity="0.8" filter="url(#shadow)" /><circle cx="721" cy="345" r="16" fill="#637939" stroke="none" fill-opacity="0.8" filter="url(#shadow)" /><circle cx="203" cy="598" r="17" fill="#637939" stroke="none" fill-opacity="0.8" filter="url(#shadow)" /><circle cx="463" cy="817" r="12" fill="#637939" stroke="none" fill-opacity="0.8" filter="url(#shadow)" /><circle cx="648" cy="343" r="8" fill="#e7969c" stroke="none" fill-opacity="0.8" filter="url(#shadow)" /><circle cx="887" cy="465" r="28" fill="#6b6ecf" stroke="none" fill-opacity="0.8" filter="url(#shadow)" /><circle cx="958" cy="467" r="28" fill="#de9ed6" stroke="none" fill-opacity="0.8" filter="url(#shadow)" /><circle cx="126" cy="970" r="44" fill="#bd9e39" stroke="none" fill-opacity="0.8" filter="url(#shadow)" /></g></svg>