
        <svg
        xmlns="http://www.w3.org/2000/svg"
        viewBox="0 0 1000 1000"
        width="800" stroke="black" stroke-width="4">
        <filter id='shadow' color-interpolation-filters="sRGB">
            <feDropShadow dx="2" dy="2" stdDeviation="2" flood-opacity="0.4"/>
        </filter>
        <filter id='shadow2' color-interpolation-filters="sRGB">
            <feDropShadow dx="0" dy="0" stdDeviation="5.5" flood-opacity=".8"/>
        </filter>
        <g fill="none" stroke="black" stroke-width="4">
    <circle cx="22" cy="86" r="33" fill="#9c9ede" stroke="none" fill-opacity="0.8" filter="url(#shadow)" /><circle cx="706" cy="134" r="21" fill="#393b79" stroke="none" fill-opacity="0.8" filter="url(#shadow)" /><circle cx="367" cy="698" r="24" fill="" stroke="none" fill-opacity="0.8" filter="url(#shadow)" /><circle cx="825" cy="292" r="43" fill="#e7cb94" stroke="none" fill-opacity="0.8" filter="url(#shadow)" /><circle cx="943" cy="538" r="40" fill="" stroke="none" fill-opacity="0.8" filter="url(#shadow)" /><circle cx="869" cy="126" r="76" fill="#8ca252" stroke="none" fill-opacity="0.8" filter="url(#shadow)" /><circle cx="150" cy="503" r="75" fill="#a55194" stroke="none" fill-opacity="0.8" filter="url(#shadow)" /><circle cx="995" cy="542" r="10" fill="#843c39" stroke="none" fill-opacity="0.8" filter="url(#shadow)" /><circle cx="4" cy="992" r="26" fill="#7b4173" stroke="none" fill-opacity="0.8" filter="url(#shadow)" /><circle cx="721" cy="660" r="75" fill="#5254a3" stroke="none" fill-opacity="0.8" filter="url(#shadow)" /><circle cx="157" cy="298" r="17" fill="" stroke="none" fill-opacity="0.8" filter="url(#shadow)" /><circle cx="582" cy="858" r="43" fill="#9c9ede" stroke="none" fill-opacity="0.8" filter="url(#shadow)" /><circle cx="380" cy="923" r="76" fill="#bd9e39" stroke="none" fill-opacity="0.8" filter="url(#shadow)" /><circle cx="227" cy="11" r="19" fill="#e7cb94" stroke="none" fill-opacity="0.8" filter="url(#shadow)" /><circle cx="915" cy="751" r="24" fill="#8c6d31" stroke="none" fill-opacity="0.8" filter="url(#shadow)" /><circle cx="606" cy="737" r="27" fill="#b5cf6b" stroke="none" fill-opacity="0.8" filter="url(#shadow)" /><circle cx="401" cy="298" r="55" fill="#de9ed6" stroke="none" fill-opacity="0.8" filter="url(#shadow)" /><circle cx="284" cy="79" r="39" fill="#de9ed6" stroke="none" fill-opacity="0.8" filter="url(#shadow)" /><circle cx="51" cy="896" r="18" fill="#d6616b" stroke="none" fill-opacity="0.8" filter="url(#shadow)" /><circle cx="173" cy="630" r="27" fill="#a55194" stroke="none" fill-opacity="0.8" filter="url(#shadow)" /><circle cx="834" cy="227" r="8" fill="#637939" stroke="none" fill-opacity="0.8" filter="url(#shadow)" /><circle cx="272" cy="525" r="48" fill="" stroke="none" fill-opacity="0.8" filter="url(#shadow)" /><circle cx="84" cy="324" r="30" fill="#d6616b" stroke="none" fill-opacity="0.8" filter="url(#shadow)" /><circle cx="844" cy="934" r="25" fill="#ad494a" stroke="none" fill-opacity="0.8" filter="url(#shadow)" /><circle cx="503" cy="976" r="11" fill="#393b79" stroke="none" fill-opacity="0.8" filter="url(#shadow)" /><circle cx="176" cy="906" r="44" fill="#b5cf6b" stroke="none" fill-opacity="0.8" filter="url(#shadow)" /><circle cx="307" cy="326" r="35" fill="#393b79" stroke="none" fill-opacity="0.8" filter="url(#shadow)" /><circle cx="835" cy="819" r="31" fill="#8c6d31" stroke="none" fill-opacity="0.8" filter="url(#shadow)" /><circle cx="692" cy="559" r="30" fill="#393b79" stroke="none" fill-opacity="0.8" filter="url(#shadow)" /><circle cx="892" cy="672" r="48" fill="#ad494a" stroke="none" fill-opacity="0.8" filter="url(#shadow)" /><circle cx="487" cy="775" r="31" fill="#843c39" stroke="none" fill-opacity="0.8" filter="url(#shadow)" /><circle cx="727" cy="752" r="17" fill="#bd9e39" stroke="none" fill-opacity="0.8" filter="url(#shadow)" /><circle cx="803" cy="20" r="14" fill="#7b4173" stroke="none" fill-opacity="0.8" filter="url(#shadow)" /><circle cx="22" cy="461" r="52" fill="#b5cf6b" stroke="none" fill-opacity="0.8" filter="url(#shadow)" /><circle cx="551" cy="121" r="25" fill="" stroke="none" fill-opacity="0.8" filter="url(#shadow)" /><circle cx="233" cy="794" r="56" fill="#bd9e39" stroke="none" fill-opacity="0.8" filter="url(#shadow)" /><circle cx="917" cy="429" r="61" fill="#b5cf6b" stroke="none" fill-opacity="0.8" filter="url(#shadow)" /><circle cx="999" cy="274" r="45" fill="#637939" stroke="none" fill-opacity="0.8" filter="url(#shadow)" /><circle cx="770" cy="394" r="14" fill="#ce6dbd" stroke="none" fill-opacity="0.8" filter="url(#shadow)" /><circle cx="495" cy="502" r="29" fill="#9c9ede" stroke="none" fill-opacity="0.8" filter="url(#shadow)" /><circle cx="824" cy="417" r="20" fill="#b5cf6b" stroke="none" fill-opacity="0.8" filter="url(#shadow)" /><circle cx="400" cy="785" r="42" fill="#7b4173" stroke="none" fill-opacity="0.8" filter="url(#shadow)" /><circle cx="725" cy="444" r="34" fill="#e7cb94" stroke="none" fill-opacity="0.8" filter="url(#shadow)" /><circle cx="280" cy="974" r="30" fill="#7b4173" stroke="none" fill-opacity="0.8" filter="url(#shadow)" /><circle cx="64" cy="689" r="90" fill="#8c6d31" stroke="none" fill-opacity="0.8" filter="url(#shadow)" /><circle cx="729" cy="864" r="38" fill="#e7ba52" stroke="none" fill-opacity="0.8" filter="url(#shadow)" /><circle cx="977" cy="615" r="26" fill="#bd9e39" stroke="none" fill-opacity="0.8" filter="url(#shadow)" /><circle cx="915" cy="896" r="11" fill="" stroke="none" fill-opacity="0.8" filter="url(#shadow)" /><circle cx="993" cy="983" r="43" fill="#b5cf6b" stroke="none" fill-opacity="0.8" filter="url(#shadow)" /><circle cx="319" cy="161" r="31" fill="#843c39" stroke="none" fill-opacity="0.8" filter="url(#shadow)" /><circle cx="586" cy="614" r="35" fill="#e7969c" stroke="none" fill-opacity="0.8" filter="url(#shadow)" /><circle cx="139" cy="179" r="93" fill="#9c9ede" stroke="none" fill-opacity="0.8" filter="url(#shadow)" /><circle cx="866" cy="997" r="17" fill="" stroke="none" fill-opacity="0.8" filter="url(#shadow)" /><circle cx="582" cy="342" r="12" fill="#7b4173" stroke="none" fill-opacity="0.8" filter="url(#shadow)" /><circle cx="258" cy="387" r="20" fill="#d6616b" stroke="none" fill-opacity="0.8" filter="url(#shadow)" /><circle cx="105" cy="819" r="17" fill="#e7ba52" stroke="none" fill-opacity="0.8" filter="url(#shadow)" /><circle cx="859" cy="576" r="25" fill="#ce6dbd" stroke="none" fill-opacity="0.8" filter="url(#shadow)" /><circle cx="12" cy="902" r="17" fill="#393b79" stroke="none" fill-opacity="0.8" filter="url(#shadow)" /><circle cx="701" cy="974" r="12" fill="#e7ba52" stroke="none" fill-opacity="0.8" filter="url(#shadow)" /><circle cx="628" cy="225" r="61" fill="#ad494a" stroke="none" fill-opacity="0.8" filter="url(#shadow)" /><circle cx="865" cy="223" r="17" fill="#637939" stroke="none" fill-opacity="0.8" filter="url(#shadow)" /><circle cx="393" cy="25" r="39" fill="" stroke="none" fill-opacity="0.8" filter="url(#shadow)" /><circle cx="535" cy="406" r="33" fill="#9c9ede" stroke="none" fill-opacity="0.8" filter="url(#shadow)" /><circle cx="607" cy="53" r="34" fill="#7b4173" stroke="none" fill-opacity="0.8" filter="url(#shadow)" /><circle cx="682" cy="898" r="14" fill="#e7969c" stroke="none" fill-opacity="0.8" filter="url(#shadow)" /><circle cx="480" cy="310" r="8" fill="#7b4173" stroke="none" fill-opacity="0.8" filter="url(#shadow)" /><circle cx="476" cy="680" r="36" fill="#a55194" stroke="none" fill-opacity="0.8" filter="url(#shadow)" /><circle cx="406" cy="604" r="39" fill="#ad494a" stroke="none" fill-opacity="0.8" filter="url(#shadow)" /><circle cx="436" cy="423" r="57" fill="#7b4173" stroke="none" fill-opacity="0.8" filter="url(#shadow)" /><circle cx="990" cy="844" r="24" fill="" stroke="none" fill-opacity="0.8" filter="url(#shadow)" /><circle cx="913" cy="24" r="22" fill="#e7ba52" stroke="none" fill-opacity="0.8" filter="url(#shadow)" /><circle cx="502" cy="87" r="29" fill="#843c39" stroke="none" fill-opacity="0.8" filter="url(#shadow)" /><circle cx="850" cy="15" r="28" fill="#de9ed6" stroke="none" fill-opacity="0.8" filter="url(#shadow)" /><circle cx="2" cy="7" r="17" fill="#e7ba52" stroke="none" fill-opacity="0.8" filter="url(#shadow)" /><circle cx="431" cy="646" r="8" fill="#6b6ecf" stroke="none" fill-opacity="0.8" filter="url(#shadow)" /><circle cx="349" cy="535" r="22" fill="#cedb9c" stroke="none" fill-opacity="0.8" filter="url(#shadow)" /><circle cx="76" cy="967" r="31" fill="#843c39" stroke="none" fill-opacity="0.8" filter="url(#shadow)" /><circle cx="446" cy="742" r="12" fill="" stroke="none" fill-opacity="0.8" filter="url(#shadow)" /><circle cx="296" cy="430" r="23" fill="#9c9ede" stroke="none" fill-opacity="0.8" filter="url(#shadow)" /><circle cx="409" cy="220" r="16" fill="#a55194" stroke="none" fill-opacity="0.8" filter="url(#shadow)" /><circle cx="502" cy="293" r="12" fill="#843c39" stroke="none" fill-opacity="0.8" filter="url(#shadow)" /><circle cx="611" cy="479" r="55" fill="#393b79" stroke="none" fill-opacity="0.8" filter="url(#shadow)" /><circle cx="146" cy="839" r="12" fill="#9c9ede" stroke="none" fill-opacity="0.8" filter="url(#shadow)" /><circle cx="211" cy="665" r="16" fill="#6b6ecf" stroke="none" fill-opacity="0.8" filter="url(#shadow)" /><circle cx="699" cy="333" r="51" fill="#a55194" stroke="none" fill-opacity="0.8" filter="url(#shadow)" /><circle cx="783" cy="522" r="20" fill="#9c9ede" stroke="none" fill-opacity="0.8" filter="url(#shadow)" /><circle cx="740" cy="258" r="14" fill="#b5cf6b" stroke="none" fill-opacity="0.8" filter="url(#shadow)" /><circle cx="993" cy="12" r="16" fill="#7b4173" stroke="none" fill-opacity="0.8" filter="url(#shadow)" /><circle cx="310" cy="586" r="16" fill="#e7cb94" stroke="none" fill-opacity="0.8" filter="url(#shadow)" /><circle cx="838" cy="366" r="28" fill="#ce6dbd" stroke="none" fill-opacity="0.8" filter="url(#shadow)" /><circle cx="283" cy="701" r="8" fill="#bd9e39" stroke="none" fill-opacity="0.8" filter="url(#shadow)" /><circle cx="148" cy="25" r="35" fill="" stroke="none" fill-opacity="0.8" filter="url(#shadow)" /><circle cx="340" cy="820" r="8" fill="#e7cb94" stroke="none" fill-opacity="0.8" filter="url(#shadow)" /><circle cx="746" cy="185" r="11" fill="#e7ba52" stroke="none" fill-opacity="0.8" filter="url(#shadow)" /><circle cx="419" cy="704" r="23" fill="#ad494a" stroke="none" fill-opacity="0.8" filter="url(#shadow)" /><circle cx="718" cy="39" r="68" fill="#d6616b" stroke="none" fill-opacity="0.8" filter="url(#shadow)" /><circle cx="525" cy="206" r="43" fill="#ad494a" stroke="none" fill-opacity="0.8" filter="url(#shadow)" /><circle cx="150" cy="795" r="25" fill="#a55194" stroke="none" fill-opacity="0.8" filter="url(#shadow)" /><circle cx="706" cy="191" r="17" fill="#8c6d31" stroke="none" fill-opacity="0.8" filter="url(#shadow)" /><circle cx="629" cy="810" r="17" fill="#a55194" stroke="none" fill-opacity="0.8" filter="url(#shadow)" /><circle cx="754" cy="803" r="14" fill="#393b79" stroke="none" fill-opacity="0.8" filter="url(#shadow)" /><circle cx="898" cy="321" r="31" fill="" stroke="none" fill-opacity="0.8" filter="url(#shadow)" /><circle cx="848" cy="484" r="14" fill="#8c6d31" stroke="none" fill-opacity="0.8" filter="url(#shadow)" /><circle cx="826" cy="614" r="23" fill="#de9ed6" stroke="none" fill-opacity="0.8" filter="url(#shadow)" /><circle cx="265" cy="18" r="18" fill="#e7969c" stroke="none" fill-opacity="0.8" filter="url(#shadow)" /><circle cx="822" cy="977" r="10" fill="#843c39" stroke="none" fill-opacity="0.8" filter="url(#shadow)" /><circle cx="549" cy="766" r="20" fill="#393b79" stroke="none" fill-opacity="0.8" filter="url(#shadow)" /><circle cx="784" cy="924" r="28" fill="#bd9e39" stroke="none" fill-opacity="0.8" filter="url(#shadow)" /><circle cx="520" cy="712" r="13" fill="#ce6dbd" stroke="none" fill-opacity="0.8" filter="url(#shadow)" /><circle cx="861" cy="872" r="9" fill="#b5cf6b" stroke="none" fill-opacity="0.8" filter="url(#shadow)" /><circle cx="779" cy="256" r="11" fill="#cedb9c" stroke="none" fill-opacity="0.8" filter="url(#shadow)" /><circle cx="301" cy="258" r="28" fill="#e7ba52" stroke="none" fill-opacity="0.8" filter="url(#shadow)" /><circle cx="407" cy="143" r="41" fill="#cedb9c" stroke="none" fill-opacity="0.8" filter="url(#shadow)" /><circle cx="21" cy="232" r="35" fill="#ad494a" stroke="none" fill-opacity="0.8" filter="url(#shadow)" /><circle cx="919" cy="597" r="18" fill="#8c6d31" stroke="none" fill-opacity="0.8" filter="url(#shadow)" /><circle cx="895" cy="988" r="11" fill="#843c39" stroke="none" fill-opacity="0.8" filter="url(#shadow)" /><circle cx="945" cy="18" r="10" fill="#393b79" stroke="none" fill-opacity="0.8" filter="url(#shadow)" /><circle cx="910" cy="841" r="8" fill="#de9ed6" stroke="none" fill-opacity="0.8" filter="url(#shadow)" /><circle cx="220" cy="570" r="18" fill="#7b4173" stroke="none" fill-opacity="0.8" filter="url(#shadow)" /><circle cx="536" cy="25" r="14" fill="#b5cf6b" stroke="none" fill-opacity="0.8" filter="url(#shadow)" /><circle cx="637" cy="994" r="36" fill="#843c39" stroke="none" fill-opacity="0.8" filter="url(#shadow)" /><circle cx="547" cy="530" r="26" fill="#e7969c" stroke="none" fill-opacity="0.8" filter="url(#shadow)" /><circle cx="183" cy="969" r="9" fill="#8ca252" stroke="none" fill-opacity="0.8" filter="url(#shadow)" /><circle cx="754" cy="967" r="14" fill="" stroke="none" fill-opacity="0.8" filter="url(#shadow)" /><circle cx="82" cy="861" r="12" fill="#637939" stroke="none" fill-opacity="0.8" filter="url(#shadow)" /><circle cx="536" cy="644" r="11" fill="#e7969c" stroke="none" fill-opacity="0.8" filter="url(#shadow)" /><circle cx="132" cy="336" r="19" fill="#e7969c" stroke="none" fill-opacity="0.8" filter="url(#shadow)" /><circle cx="528" cy="587" r="8" fill="#637939" stroke="none" fill-opacity="0.8" filter="url(#shadow)" /><circle cx="328" cy="114" r="11" fill="#cedb9c" stroke="none" fill-opacity="0.8" filter="url(#shadow)" /><circle cx="836" cy="722" r="10" fill="#cedb9c" stroke="none" fill-opacity="0.8" filter="url(#shadow)" /><circle cx="799" cy="999" r="14" fill="#bd9e39" stroke="none" fill-opacity="0.8" filter="url(#shadow)" /><circle cx="749" cy="142" r="19" fill="#de9ed6" stroke="none" fill-opacity="0.8" filter="url(#shadow)" /><circle cx="47" cy="555" r="38" fill="#a55194" stroke="none" fill-opacity="0.8" filter="url(#shadow)" /></g></svg>