
        <svg
        xmlns="http://www.w3.org/2000/svg"
        viewBox="0 0 1000 1000"
        width="800" stroke="black" stroke-width="4">
        <filter id='shadow' color-interpolation-filters="sRGB">
            <feDropShadow dx="2" dy="2" stdDeviation="2" flood-opacity="0.4"/>
        </filter>
        <filter id='shadow2' color-interpolation-filters="sRGB">
            <feDropShadow dx="0" dy="0" stdDeviation="5.5" flood-opacity=".8"/>
        </filter>
        <g >
        <rect x="0" y="0" width="100%" height="100%" fill="#ccc"
                stroke-width="8" stroke="none" />
    <circle cx="92" cy="986" r="31" fill="#9c9ede" stroke="none" fill-opacity="0.8" filter="url(#shadow)" /><circle cx="804" cy="453" r="23" fill="#8ca252" stroke="none" fill-opacity="0.8" filter="url(#shadow)" /><circle cx="354" cy="915" r="52" fill="#e7cb94" stroke="none" fill-opacity="0.8" filter="url(#shadow)" /><circle cx="624" cy="42" r="76" fill="#ad494a" stroke="none" fill-opacity="0.8" filter="url(#shadow)" /><circle cx="20" cy="545" r="66" fill="#bd9e39" stroke="none" fill-opacity="0.8" filter="url(#shadow)" /><circle cx="746" cy="914" r="55" fill="" stroke="none" fill-opacity="0.8" filter="url(#shadow)" /><circle cx="943" cy="507" r="10" fill="#bd9e39" stroke="none" fill-opacity="0.8" filter="url(#shadow)" /><circle cx="49" cy="809" r="11" fill="#e7969c" stroke="none" fill-opacity="0.8" filter="url(#shadow)" /><circle cx="821" cy="678" r="40" fill="#7b4173" stroke="none" fill-opacity="0.8" filter="url(#shadow)" /><circle cx="113" cy="141" r="23" fill="#843c39" stroke="none" fill-opacity="0.8" filter="url(#shadow)" /><circle cx="478" cy="406" r="50" fill="#5254a3" stroke="none" fill-opacity="0.8" filter="url(#shadow)" /><circle cx="315" cy="159" r="64" fill="#d6616b" stroke="none" fill-opacity="0.8" filter="url(#shadow)" /><circle cx="889" cy="176" r="40" fill="#de9ed6" stroke="none" fill-opacity="0.8" filter="url(#shadow)" /><circle cx="253" cy="558" r="85" fill="#8ca252" stroke="none" fill-opacity="0.8" filter="url(#shadow)" /><circle cx="603" cy="299" r="65" fill="#6b6ecf" stroke="none" fill-opacity="0.8" filter="url(#shadow)" /><circle cx="509" cy="300" r="28" fill="#cedb9c" stroke="none" fill-opacity="0.8" filter="url(#shadow)" /><circle cx="964" cy="420" r="34" fill="#ce6dbd" stroke="none" fill-opacity="0.8" filter="url(#shadow)" /><circle cx="810" cy="588" r="12" fill="#5254a3" stroke="none" fill-opacity="0.8" filter="url(#shadow)" /><circle cx="300" cy="27" r="33" fill="#e7ba52" stroke="none" fill-opacity="0.8" filter="url(#shadow)" /><circle cx="693" cy="778" r="15" fill="#e7cb94" stroke="none" fill-opacity="0.8" filter="url(#shadow)" /><circle cx="935" cy="238" r="30" fill="#bd9e39" stroke="none" fill-opacity="0.8" filter="url(#shadow)" /><circle cx="908" cy="30" r="89" fill="#5254a3" stroke="none" fill-opacity="0.8" filter="url(#shadow)" /><circle cx="714" cy="490" r="71" fill="#9c9ede" stroke="none" fill-opacity="0.8" filter="url(#shadow)" /><circle cx="853" cy="764" r="45" fill="#bd9e39" stroke="none" fill-opacity="0.8" filter="url(#shadow)" /><circle cx="464" cy="105" r="91" fill="#de9ed6" stroke="none" fill-opacity="0.8" filter="url(#shadow)" /><circle cx="77" cy="249" r="81" fill="#843c39" stroke="none" fill-opacity="0.8" filter="url(#shadow)" /><circle cx="476" cy="588" r="95" fill="#8c6d31" stroke="none" fill-opacity="0.8" filter="url(#shadow)" /><circle cx="495" cy="865" r="76" fill="#e7969c" stroke="none" fill-opacity="0.8" filter="url(#shadow)" /><circle cx="21" cy="732" r="41" fill="" stroke="none" fill-opacity="0.8" filter="url(#shadow)" /><circle cx="459" cy="213" r="17" fill="#a55194" stroke="none" fill-opacity="0.8" filter="url(#shadow)" /><circle cx="336" cy="310" r="37" fill="#e7cb94" stroke="none" fill-opacity="0.8" filter="url(#shadow)" /><circle cx="585" cy="521" r="18" fill="#b5cf6b" stroke="none" fill-opacity="0.8" filter="url(#shadow)" /><circle cx="308" cy="709" r="49" fill="#e7969c" stroke="none" fill-opacity="0.8" filter="url(#shadow)" /><circle cx="942" cy="584" r="56" fill="#8ca252" stroke="none" fill-opacity="0.8" filter="url(#shadow)" /><circle cx="378" cy="369" r="26" fill="#ce6dbd" stroke="none" fill-opacity="0.8" filter="url(#shadow)" /><circle cx="203" cy="751" r="46" fill="#5254a3" stroke="none" fill-opacity="0.8" filter="url(#shadow)" /><circle cx="221" cy="4" r="34" fill="#e7ba52" stroke="none" fill-opacity="0.8" filter="url(#shadow)" /><circle cx="207" cy="425" r="8" fill="#b5cf6b" stroke="none" fill-opacity="0.8" filter="url(#shadow)" /><circle cx="301" cy="405" r="50" fill="#7b4173" stroke="none" fill-opacity="0.8" filter="url(#shadow)" /><circle cx="165" cy="939" r="27" fill="" stroke="none" fill-opacity="0.8" filter="url(#shadow)" /><circle cx="70" cy="767" r="15" fill="#d6616b" stroke="none" fill-opacity="0.8" filter="url(#shadow)" /><circle cx="227" cy="277" r="35" fill="#7b4173" stroke="none" fill-opacity="0.8" filter="url(#shadow)" /><circle cx="205" cy="53" r="11" fill="#ad494a" stroke="none" fill-opacity="0.8" filter="url(#shadow)" /><circle cx="802" cy="238" r="22" fill="#ad494a" stroke="none" fill-opacity="0.8" filter="url(#shadow)" /><circle cx="135" cy="417" r="59" fill="" stroke="none" fill-opacity="0.8" filter="url(#shadow)" /><circle cx="211" cy="909" r="15" fill="#843c39" stroke="none" fill-opacity="0.8" filter="url(#shadow)" /><circle cx="819" cy="161" r="18" fill="#6b6ecf" stroke="none" fill-opacity="0.8" filter="url(#shadow)" /><circle cx="958" cy="845" r="11" fill="#cedb9c" stroke="none" fill-opacity="0.8" filter="url(#shadow)" /><circle cx="946" cy="787" r="39" fill="#ad494a" stroke="none" fill-opacity="0.8" filter="url(#shadow)" /><circle cx="664" cy="674" r="45" fill="#393b79" stroke="none" fill-opacity="0.8" filter="url(#shadow)" /><circle cx="770" cy="737" r="26" fill="#ce6dbd" stroke="none" fill-opacity="0.8" filter="url(#shadow)" /><circle cx="407" cy="243" r="13" fill="#e7ba52" stroke="none" fill-opacity="0.8" filter="url(#shadow)" /><circle cx="316" cy="844" r="16" fill="#bd9e39" stroke="none" fill-opacity="0.8" filter="url(#shadow)" /><circle cx="994" cy="151" r="13" fill="#9c9ede" stroke="none" fill-opacity="0.8" filter="url(#shadow)" /><circle cx="152" cy="154" r="8" fill="#a55194" stroke="none" fill-opacity="0.8" filter="url(#shadow)" /><circle cx="882" cy="431" r="19" fill="#843c39" stroke="none" fill-opacity="0.8" filter="url(#shadow)" /><circle cx="716" cy="366" r="8" fill="" stroke="none" fill-opacity="0.8" filter="url(#shadow)" /><circle cx="729" cy="195" r="19" fill="#e7ba52" stroke="none" fill-opacity="0.8" filter="url(#shadow)" /><circle cx="770" cy="607" r="12" fill="#e7969c" stroke="none" fill-opacity="0.8" filter="url(#shadow)" /><circle cx="857" cy="496" r="25" fill="#8c6d31" stroke="none" fill-opacity="0.8" filter="url(#shadow)" /><circle cx="586" cy="125" r="12" fill="#7b4173" stroke="none" fill-opacity="0.8" filter="url(#shadow)" /><circle cx="765" cy="73" r="37" fill="" stroke="none" fill-opacity="0.8" filter="url(#shadow)" /><circle cx="924" cy="371" r="26" fill="#843c39" stroke="none" fill-opacity="0.8" filter="url(#shadow)" /><circle cx="112" cy="57" r="59" fill="#e7ba52" stroke="none" fill-opacity="0.8" filter="url(#shadow)" /><circle cx="917" cy="713" r="17" fill="#d6616b" stroke="none" fill-opacity="0.8" filter="url(#shadow)" /><circle cx="191" cy="114" r="18" fill="#e7ba52" stroke="none" fill-opacity="0.8" filter="url(#shadow)" /><circle cx="429" cy="343" r="19" fill="#7b4173" stroke="none" fill-opacity="0.8" filter="url(#shadow)" /><circle cx="14" cy="444" r="18" fill="#8ca252" stroke="none" fill-opacity="0.8" filter="url(#shadow)" /><circle cx="537" cy="740" r="23" fill="#e7ba52" stroke="none" fill-opacity="0.8" filter="url(#shadow)" /><circle cx="842" cy="215" r="21" fill="#e7ba52" stroke="none" fill-opacity="0.8" filter="url(#shadow)" /><circle cx="147" cy="819" r="9" fill="#e7cb94" stroke="none" fill-opacity="0.8" filter="url(#shadow)" /><circle cx="823" cy="348" r="57" fill="#6b6ecf" stroke="none" fill-opacity="0.8" filter="url(#shadow)" /><circle cx="666" cy="970" r="14" fill="#e7cb94" stroke="none" fill-opacity="0.8" filter="url(#shadow)" /><circle cx="904" cy="337" r="10" fill="#e7ba52" stroke="none" fill-opacity="0.8" filter="url(#shadow)" /><circle cx="976" cy="303" r="32" fill="" stroke="none" fill-opacity="0.8" filter="url(#shadow)" /><circle cx="984" cy="723" r="27" fill="#ad494a" stroke="none" fill-opacity="0.8" filter="url(#shadow)" /><circle cx="808" cy="986" r="21" fill="#7b4173" stroke="none" fill-opacity="0.8" filter="url(#shadow)" /><circle cx="394" cy="727" r="14" fill="" stroke="none" fill-opacity="0.8" filter="url(#shadow)" /><circle cx="985" cy="964" r="56" fill="#9c9ede" stroke="none" fill-opacity="0.8" filter="url(#shadow)" /><circle cx="63" cy="922" r="11" fill="" stroke="none" fill-opacity="0.8" filter="url(#shadow)" /><circle cx="237" cy="176" r="9" fill="#a55194" stroke="none" fill-opacity="0.8" filter="url(#shadow)" /><circle cx="856" cy="914" r="12" fill="#e7969c" stroke="none" fill-opacity="0.8" filter="url(#shadow)" /><circle cx="72" cy="734" r="9" fill="#a55194" stroke="none" fill-opacity="0.8" filter="url(#shadow)" /><circle cx="379" cy="991" r="22" fill="#637939" stroke="none" fill-opacity="0.8" filter="url(#shadow)" /><circle cx="633" cy="920" r="20" fill="#637939" stroke="none" fill-opacity="0.8" filter="url(#shadow)" /><circle cx="226" cy="342" r="17" fill="#ad494a" stroke="none" fill-opacity="0.8" filter="url(#shadow)" /><circle cx="190" cy="188" r="34" fill="#e7cb94" stroke="none" fill-opacity="0.8" filter="url(#shadow)" /><circle cx="595" cy="783" r="34" fill="#393b79" stroke="none" fill-opacity="0.8" filter="url(#shadow)" /><circle cx="770" cy="139" r="11" fill="#393b79" stroke="none" fill-opacity="0.8" filter="url(#shadow)" /><circle cx="181" cy="318" r="12" fill="#7b4173" stroke="none" fill-opacity="0.8" filter="url(#shadow)" /><circle cx="442" cy="743" r="8" fill="#393b79" stroke="none" fill-opacity="0.8" filter="url(#shadow)" /><circle cx="407" cy="284" r="26" fill="#cedb9c" stroke="none" fill-opacity="0.8" filter="url(#shadow)" /><circle cx="512" cy="474" r="17" fill="#8c6d31" stroke="none" fill-opacity="0.8" filter="url(#shadow)" /><circle cx="328" cy="811" r="14" fill="#cedb9c" stroke="none" fill-opacity="0.8" filter="url(#shadow)" /><circle cx="398" cy="466" r="18" fill="#9c9ede" stroke="none" fill-opacity="0.8" filter="url(#shadow)" /><circle cx="119" cy="657" r="69" fill="#e7cb94" stroke="none" fill-opacity="0.8" filter="url(#shadow)" /><circle cx="620" cy="853" r="23" fill="#7b4173" stroke="none" fill-opacity="0.8" filter="url(#shadow)" /><circle cx="857" cy="957" r="12" fill="#8c6d31" stroke="none" fill-opacity="0.8" filter="url(#shadow)" /><circle cx="647" cy="166" r="44" fill="#de9ed6" stroke="none" fill-opacity="0.8" filter="url(#shadow)" /><circle cx="650" cy="741" r="14" fill="#e7969c" stroke="none" fill-opacity="0.8" filter="url(#shadow)" /><circle cx="928" cy="998" r="8" fill="#5254a3" stroke="none" fill-opacity="0.8" filter="url(#shadow)" /><circle cx="460" cy="746" r="8" fill="#ce6dbd" stroke="none" fill-opacity="0.8" filter="url(#shadow)" /><circle cx="52" cy="381" r="29" fill="#e7cb94" stroke="none" fill-opacity="0.8" filter="url(#shadow)" /><circle cx="621" cy="384" r="9" fill="#d6616b" stroke="none" fill-opacity="0.8" filter="url(#shadow)" /><circle cx="221" cy="107" r="12" fill="#7b4173" stroke="none" fill-opacity="0.8" filter="url(#shadow)" /><circle cx="20" cy="987" r="37" fill="#e7ba52" stroke="none" fill-opacity="0.8" filter="url(#shadow)" /><circle cx="895" cy="900" r="26" fill="#cedb9c" stroke="none" fill-opacity="0.8" filter="url(#shadow)" /><circle cx="5" cy="894" r="14" fill="#843c39" stroke="none" fill-opacity="0.8" filter="url(#shadow)" /><circle cx="52" cy="874" r="37" fill="#e7ba52" stroke="none" fill-opacity="0.8" filter="url(#shadow)" /><circle cx="269" cy="946" r="11" fill="#d6616b" stroke="none" fill-opacity="0.8" filter="url(#shadow)" /><circle cx="230" cy="997" r="36" fill="#637939" stroke="none" fill-opacity="0.8" filter="url(#shadow)" /><circle cx="144" cy="877" r="11" fill="#5254a3" stroke="none" fill-opacity="0.8" filter="url(#shadow)" /><circle cx="90" cy="788" r="12" fill="#393b79" stroke="none" fill-opacity="0.8" filter="url(#shadow)" /><circle cx="707" cy="982" r="11" fill="#ad494a" stroke="none" fill-opacity="0.8" filter="url(#shadow)" /><circle cx="777" cy="282" r="21" fill="#b5cf6b" stroke="none" fill-opacity="0.8" filter="url(#shadow)" /><circle cx="959" cy="691" r="9" fill="#ad494a" stroke="none" fill-opacity="0.8" filter="url(#shadow)" /><circle cx="504" cy="758" r="11" fill="#bd9e39" stroke="none" fill-opacity="0.8" filter="url(#shadow)" /><circle cx="530" cy="979" r="32" fill="#e7cb94" stroke="none" fill-opacity="0.8" filter="url(#shadow)" /><circle cx="669" cy="392" r="22" fill="#393b79" stroke="none" fill-opacity="0.8" filter="url(#shadow)" /></g></svg>