<svg
xmlns="http://www.w3.org/2000/svg"
viewBox="0 0 1920 1080"
stroke="black" stroke-width="4">
<filter id='shadow' color-interpolation-filters="sRGB">
    <feDropShadow dx="2" dy="2" stdDeviation="2" flood-opacity="0.4"/>
</filter>
<filter id='shadow2' color-interpolation-filters="sRGB">
    <feDropShadow dx="0" dy="0" stdDeviation="5.5" flood-opacity=".8"/>
</filter>
<filter id='shadow3' color-interpolation-filters="sRGB">
<feDropShadow dx="10" dy="10" stdDeviation="0"
    flood-color="teal" flood-opacity="0.5"/>
</filter>
<g >
<rect x="0" y="0" width="100%" height="100%" fill="#ccc"
        stroke-width="8" stroke="none" />
</g>
    <line x1="-457" y1="826" x2="32" y2="195"  stroke="#ae2012" stroke-width="17" stroke-linecap="round" filter="url(#shadow2)" >
<animateTransform attributeName="transform"
attributeType="XML"
type="rotate"
from="0 60 70"
to="360 60 70"
dur="10s"
repeatCount="indefinite"/></line>
<g transform="translate(960.0, 0) scale(-1, 1) translate(-960.0, 0) rotate(180, 960.0, 540.0)" > <line x1="-457" y1="826" x2="32" y2="195"  stroke="#ae2012" stroke-width="17" stroke-linecap="round" filter="url(#shadow2)" >
<animateTransform attributeName="transform"
attributeType="XML"
type="rotate"
from="0 60 70"
to="360 60 70"
dur="10s"
repeatCount="indefinite"/></line>
 </g><g transform="translate(960.0, 0) scale(-1, 1) translate(-960.0, 0) " > <line x1="-457" y1="826" x2="32" y2="195"  stroke="#ae2012" stroke-width="17" stroke-linecap="round" filter="url(#shadow2)" >
<animateTransform attributeName="transform"
attributeType="XML"
type="rotate"
from="0 60 70"
to="360 60 70"
dur="10s"
repeatCount="indefinite"/></line>
<g transform="translate(960.0, 0) scale(-1, 1) translate(-960.0, 0) rotate(180, 960.0, 540.0)" > <line x1="-457" y1="826" x2="32" y2="195"  stroke="#ae2012" stroke-width="17" stroke-linecap="round" filter="url(#shadow2)" >
<animateTransform attributeName="transform"
attributeType="XML"
type="rotate"
from="0 60 70"
to="360 60 70"
dur="10s"
repeatCount="indefinite"/></line>
 </g> </g>
<line x1="-517" y1="311" x2="-1197" y2="-670"  stroke="#001219" stroke-width="62" stroke-linecap="round" filter="url(#shadow2)" >
<animateTransform attributeName="transform"
attributeType="XML"
type="rotate"
from="0 60 70"
to="360 60 70"
dur="10s"
repeatCount="indefinite"/></line>
<g transform="translate(960.0, 0) scale(-1, 1) translate(-960.0, 0) rotate(180, 960.0, 540.0)" > <line x1="-517" y1="311" x2="-1197" y2="-670"  stroke="#001219" stroke-width="62" stroke-linecap="round" filter="url(#shadow2)" >
<animateTransform attributeName="transform"
attributeType="XML"
type="rotate"
from="0 60 70"
to="360 60 70"
dur="10s"
repeatCount="indefinite"/></line>
 </g><g transform="translate(960.0, 0) scale(-1, 1) translate(-960.0, 0) " > <line x1="-517" y1="311" x2="-1197" y2="-670"  stroke="#001219" stroke-width="62" stroke-linecap="round" filter="url(#shadow2)" >
<animateTransform attributeName="transform"
attributeType="XML"
type="rotate"
from="0 60 70"
to="360 60 70"
dur="10s"
repeatCount="indefinite"/></line>
<g transform="translate(960.0, 0) scale(-1, 1) translate(-960.0, 0) rotate(180, 960.0, 540.0)" > <line x1="-517" y1="311" x2="-1197" y2="-670"  stroke="#001219" stroke-width="62" stroke-linecap="round" filter="url(#shadow2)" >
<animateTransform attributeName="transform"
attributeType="XML"
type="rotate"
from="0 60 70"
to="360 60 70"
dur="10s"
repeatCount="indefinite"/></line>
 </g> </g>
<line x1="-224" y1="-125" x2="770" y2="-615"  stroke="#ee9b00" stroke-width="39" stroke-linecap="round" filter="url(#shadow2)" >
<animateTransform attributeName="transform"
attributeType="XML"
type="rotate"
from="0 60 70"
to="360 60 70"
dur="10s"
repeatCount="indefinite"/></line>
<g transform="translate(960.0, 0) scale(-1, 1) translate(-960.0, 0) rotate(180, 960.0, 540.0)" > <line x1="-224" y1="-125" x2="770" y2="-615"  stroke="#ee9b00" stroke-width="39" stroke-linecap="round" filter="url(#shadow2)" >
<animateTransform attributeName="transform"
attributeType="XML"
type="rotate"
from="0 60 70"
to="360 60 70"
dur="10s"
repeatCount="indefinite"/></line>
 </g><g transform="translate(960.0, 0) scale(-1, 1) translate(-960.0, 0) " > <line x1="-224" y1="-125" x2="770" y2="-615"  stroke="#ee9b00" stroke-width="39" stroke-linecap="round" filter="url(#shadow2)" >
<animateTransform attributeName="transform"
attributeType="XML"
type="rotate"
from="0 60 70"
to="360 60 70"
dur="10s"
repeatCount="indefinite"/></line>
<g transform="translate(960.0, 0) scale(-1, 1) translate(-960.0, 0) rotate(180, 960.0, 540.0)" > <line x1="-224" y1="-125" x2="770" y2="-615"  stroke="#ee9b00" stroke-width="39" stroke-linecap="round" filter="url(#shadow2)" >
<animateTransform attributeName="transform"
attributeType="XML"
type="rotate"
from="0 60 70"
to="360 60 70"
dur="10s"
repeatCount="indefinite"/></line>
 </g> </g>
<line x1="-483" y1="745" x2="-737" y2="-694"  stroke="#bb3e03" stroke-width="38" stroke-linecap="round" filter="url(#shadow2)" >
<animateTransform attributeName="transform"
attributeType="XML"
type="rotate"
from="0 60 70"
to="360 60 70"
dur="10s"
repeatCount="indefinite"/></line>
<g transform="translate(960.0, 0) scale(-1, 1) translate(-960.0, 0) rotate(180, 960.0, 540.0)" > <line x1="-483" y1="745" x2="-737" y2="-694"  stroke="#bb3e03" stroke-width="38" stroke-linecap="round" filter="url(#shadow2)" >
<animateTransform attributeName="transform"
attributeType="XML"
type="rotate"
from="0 60 70"
to="360 60 70"
dur="10s"
repeatCount="indefinite"/></line>
 </g><g transform="translate(960.0, 0) scale(-1, 1) translate(-960.0, 0) " > <line x1="-483" y1="745" x2="-737" y2="-694"  stroke="#bb3e03" stroke-width="38" stroke-linecap="round" filter="url(#shadow2)" >
<animateTransform attributeName="transform"
attributeType="XML"
type="rotate"
from="0 60 70"
to="360 60 70"
dur="10s"
repeatCount="indefinite"/></line>
<g transform="translate(960.0, 0) scale(-1, 1) translate(-960.0, 0) rotate(180, 960.0, 540.0)" > <line x1="-483" y1="745" x2="-737" y2="-694"  stroke="#bb3e03" stroke-width="38" stroke-linecap="round" filter="url(#shadow2)" >
<animateTransform attributeName="transform"
attributeType="XML"
type="rotate"
from="0 60 70"
to="360 60 70"
dur="10s"
repeatCount="indefinite"/></line>
 </g> </g>
<line x1="1797" y1="-1046" x2="-1899" y2="-396"  stroke="#9b2226" stroke-width="47" stroke-linecap="round" filter="url(#shadow2)" >
<animateTransform attributeName="transform"
attributeType="XML"
type="rotate"
from="0 60 70"
to="360 60 70"
dur="10s"
repeatCount="indefinite"/></line>
<g transform="translate(960.0, 0) scale(-1, 1) translate(-960.0, 0) rotate(180, 960.0, 540.0)" > <line x1="1797" y1="-1046" x2="-1899" y2="-396"  stroke="#9b2226" stroke-width="47" stroke-linecap="round" filter="url(#shadow2)" >
<animateTransform attributeName="transform"
attributeType="XML"
type="rotate"
from="0 60 70"
to="360 60 70"
dur="10s"
repeatCount="indefinite"/></line>
 </g><g transform="translate(960.0, 0) scale(-1, 1) translate(-960.0, 0) " > <line x1="1797" y1="-1046" x2="-1899" y2="-396"  stroke="#9b2226" stroke-width="47" stroke-linecap="round" filter="url(#shadow2)" >
<animateTransform attributeName="transform"
attributeType="XML"
type="rotate"
from="0 60 70"
to="360 60 70"
dur="10s"
repeatCount="indefinite"/></line>
<g transform="translate(960.0, 0) scale(-1, 1) translate(-960.0, 0) rotate(180, 960.0, 540.0)" > <line x1="1797" y1="-1046" x2="-1899" y2="-396"  stroke="#9b2226" stroke-width="47" stroke-linecap="round" filter="url(#shadow2)" >
<animateTransform attributeName="transform"
attributeType="XML"
type="rotate"
from="0 60 70"
to="360 60 70"
dur="10s"
repeatCount="indefinite"/></line>
 </g> </g>
<line x1="-446" y1="154" x2="1367" y2="-427"  stroke="#ae2012" stroke-width="17" stroke-linecap="round" filter="url(#shadow2)" >
<animateTransform attributeName="transform"
attributeType="XML"
type="rotate"
from="0 60 70"
to="360 60 70"
dur="10s"
repeatCount="indefinite"/></line>
<g transform="translate(960.0, 0) scale(-1, 1) translate(-960.0, 0) rotate(180, 960.0, 540.0)" > <line x1="-446" y1="154" x2="1367" y2="-427"  stroke="#ae2012" stroke-width="17" stroke-linecap="round" filter="url(#shadow2)" >
<animateTransform attributeName="transform"
attributeType="XML"
type="rotate"
from="0 60 70"
to="360 60 70"
dur="10s"
repeatCount="indefinite"/></line>
 </g><g transform="translate(960.0, 0) scale(-1, 1) translate(-960.0, 0) " > <line x1="-446" y1="154" x2="1367" y2="-427"  stroke="#ae2012" stroke-width="17" stroke-linecap="round" filter="url(#shadow2)" >
<animateTransform attributeName="transform"
attributeType="XML"
type="rotate"
from="0 60 70"
to="360 60 70"
dur="10s"
repeatCount="indefinite"/></line>
<g transform="translate(960.0, 0) scale(-1, 1) translate(-960.0, 0) rotate(180, 960.0, 540.0)" > <line x1="-446" y1="154" x2="1367" y2="-427"  stroke="#ae2012" stroke-width="17" stroke-linecap="round" filter="url(#shadow2)" >
<animateTransform attributeName="transform"
attributeType="XML"
type="rotate"
from="0 60 70"
to="360 60 70"
dur="10s"
repeatCount="indefinite"/></line>
 </g> </g>
<line x1="319" y1="-29" x2="-239" y2="522"  stroke="#001219" stroke-width="64" stroke-linecap="round" filter="url(#shadow2)" >
<animateTransform attributeName="transform"
attributeType="XML"
type="rotate"
from="0 60 70"
to="360 60 70"
dur="10s"
repeatCount="indefinite"/></line>
<g transform="translate(960.0, 0) scale(-1, 1) translate(-960.0, 0) rotate(180, 960.0, 540.0)" > <line x1="319" y1="-29" x2="-239" y2="522"  stroke="#001219" stroke-width="64" stroke-linecap="round" filter="url(#shadow2)" >
<animateTransform attributeName="transform"
attributeType="XML"
type="rotate"
from="0 60 70"
to="360 60 70"
dur="10s"
repeatCount="indefinite"/></line>
 </g><g transform="translate(960.0, 0) scale(-1, 1) translate(-960.0, 0) " > <line x1="319" y1="-29" x2="-239" y2="522"  stroke="#001219" stroke-width="64" stroke-linecap="round" filter="url(#shadow2)" >
<animateTransform attributeName="transform"
attributeType="XML"
type="rotate"
from="0 60 70"
to="360 60 70"
dur="10s"
repeatCount="indefinite"/></line>
<g transform="translate(960.0, 0) scale(-1, 1) translate(-960.0, 0) rotate(180, 960.0, 540.0)" > <line x1="319" y1="-29" x2="-239" y2="522"  stroke="#001219" stroke-width="64" stroke-linecap="round" filter="url(#shadow2)" >
<animateTransform attributeName="transform"
attributeType="XML"
type="rotate"
from="0 60 70"
to="360 60 70"
dur="10s"
repeatCount="indefinite"/></line>
 </g> </g>
<line x1="781" y1="496" x2="-1554" y2="133"  stroke="#ae2012" stroke-width="27" stroke-linecap="round" filter="url(#shadow2)" >
<animateTransform attributeName="transform"
attributeType="XML"
type="rotate"
from="0 60 70"
to="360 60 70"
dur="10s"
repeatCount="indefinite"/></line>
<g transform="translate(960.0, 0) scale(-1, 1) translate(-960.0, 0) rotate(180, 960.0, 540.0)" > <line x1="781" y1="496" x2="-1554" y2="133"  stroke="#ae2012" stroke-width="27" stroke-linecap="round" filter="url(#shadow2)" >
<animateTransform attributeName="transform"
attributeType="XML"
type="rotate"
from="0 60 70"
to="360 60 70"
dur="10s"
repeatCount="indefinite"/></line>
 </g><g transform="translate(960.0, 0) scale(-1, 1) translate(-960.0, 0) " > <line x1="781" y1="496" x2="-1554" y2="133"  stroke="#ae2012" stroke-width="27" stroke-linecap="round" filter="url(#shadow2)" >
<animateTransform attributeName="transform"
attributeType="XML"
type="rotate"
from="0 60 70"
to="360 60 70"
dur="10s"
repeatCount="indefinite"/></line>
<g transform="translate(960.0, 0) scale(-1, 1) translate(-960.0, 0) rotate(180, 960.0, 540.0)" > <line x1="781" y1="496" x2="-1554" y2="133"  stroke="#ae2012" stroke-width="27" stroke-linecap="round" filter="url(#shadow2)" >
<animateTransform attributeName="transform"
attributeType="XML"
type="rotate"
from="0 60 70"
to="360 60 70"
dur="10s"
repeatCount="indefinite"/></line>
 </g> </g>
<line x1="-1580" y1="-116" x2="976" y2="314"  stroke="#bb3e03" stroke-width="50" stroke-linecap="round" filter="url(#shadow2)" >
<animateTransform attributeName="transform"
attributeType="XML"
type="rotate"
from="0 60 70"
to="360 60 70"
dur="10s"
repeatCount="indefinite"/></line>
<g transform="translate(960.0, 0) scale(-1, 1) translate(-960.0, 0) rotate(180, 960.0, 540.0)" > <line x1="-1580" y1="-116" x2="976" y2="314"  stroke="#bb3e03" stroke-width="50" stroke-linecap="round" filter="url(#shadow2)" >
<animateTransform attributeName="transform"
attributeType="XML"
type="rotate"
from="0 60 70"
to="360 60 70"
dur="10s"
repeatCount="indefinite"/></line>
 </g><g transform="translate(960.0, 0) scale(-1, 1) translate(-960.0, 0) " > <line x1="-1580" y1="-116" x2="976" y2="314"  stroke="#bb3e03" stroke-width="50" stroke-linecap="round" filter="url(#shadow2)" >
<animateTransform attributeName="transform"
attributeType="XML"
type="rotate"
from="0 60 70"
to="360 60 70"
dur="10s"
repeatCount="indefinite"/></line>
<g transform="translate(960.0, 0) scale(-1, 1) translate(-960.0, 0) rotate(180, 960.0, 540.0)" > <line x1="-1580" y1="-116" x2="976" y2="314"  stroke="#bb3e03" stroke-width="50" stroke-linecap="round" filter="url(#shadow2)" >
<animateTransform attributeName="transform"
attributeType="XML"
type="rotate"
from="0 60 70"
to="360 60 70"
dur="10s"
repeatCount="indefinite"/></line>
 </g> </g>
<line x1="849" y1="763" x2="1311" y2="-617"  stroke="#e9d8a6" stroke-width="59" stroke-linecap="round" filter="url(#shadow2)" >
<animateTransform attributeName="transform"
attributeType="XML"
type="rotate"
from="0 60 70"
to="360 60 70"
dur="10s"
repeatCount="indefinite"/></line>
<g transform="translate(960.0, 0) scale(-1, 1) translate(-960.0, 0) rotate(180, 960.0, 540.0)" > <line x1="849" y1="763" x2="1311" y2="-617"  stroke="#e9d8a6" stroke-width="59" stroke-linecap="round" filter="url(#shadow2)" >
<animateTransform attributeName="transform"
attributeType="XML"
type="rotate"
from="0 60 70"
to="360 60 70"
dur="10s"
repeatCount="indefinite"/></line>
 </g><g transform="translate(960.0, 0) scale(-1, 1) translate(-960.0, 0) " > <line x1="849" y1="763" x2="1311" y2="-617"  stroke="#e9d8a6" stroke-width="59" stroke-linecap="round" filter="url(#shadow2)" >
<animateTransform attributeName="transform"
attributeType="XML"
type="rotate"
from="0 60 70"
to="360 60 70"
dur="10s"
repeatCount="indefinite"/></line>
<g transform="translate(960.0, 0) scale(-1, 1) translate(-960.0, 0) rotate(180, 960.0, 540.0)" > <line x1="849" y1="763" x2="1311" y2="-617"  stroke="#e9d8a6" stroke-width="59" stroke-linecap="round" filter="url(#shadow2)" >
<animateTransform attributeName="transform"
attributeType="XML"
type="rotate"
from="0 60 70"
to="360 60 70"
dur="10s"
repeatCount="indefinite"/></line>
 </g> </g>
<line x1="-673" y1="65" x2="-1382" y2="380"  stroke="#e9d8a6" stroke-width="29" stroke-linecap="round" filter="url(#shadow2)" >
<animateTransform attributeName="transform"
attributeType="XML"
type="rotate"
from="0 60 70"
to="360 60 70"
dur="10s"
repeatCount="indefinite"/></line>
<g transform="translate(960.0, 0) scale(-1, 1) translate(-960.0, 0) rotate(180, 960.0, 540.0)" > <line x1="-673" y1="65" x2="-1382" y2="380"  stroke="#e9d8a6" stroke-width="29" stroke-linecap="round" filter="url(#shadow2)" >
<animateTransform attributeName="transform"
attributeType="XML"
type="rotate"
from="0 60 70"
to="360 60 70"
dur="10s"
repeatCount="indefinite"/></line>
 </g><g transform="translate(960.0, 0) scale(-1, 1) translate(-960.0, 0) " > <line x1="-673" y1="65" x2="-1382" y2="380"  stroke="#e9d8a6" stroke-width="29" stroke-linecap="round" filter="url(#shadow2)" >
<animateTransform attributeName="transform"
attributeType="XML"
type="rotate"
from="0 60 70"
to="360 60 70"
dur="10s"
repeatCount="indefinite"/></line>
<g transform="translate(960.0, 0) scale(-1, 1) translate(-960.0, 0) rotate(180, 960.0, 540.0)" > <line x1="-673" y1="65" x2="-1382" y2="380"  stroke="#e9d8a6" stroke-width="29" stroke-linecap="round" filter="url(#shadow2)" >
<animateTransform attributeName="transform"
attributeType="XML"
type="rotate"
from="0 60 70"
to="360 60 70"
dur="10s"
repeatCount="indefinite"/></line>
 </g> </g>
<line x1="-1486" y1="-321" x2="-1783" y2="666"  stroke="#0a9396" stroke-width="64" stroke-linecap="round" filter="url(#shadow2)" >
<animateTransform attributeName="transform"
attributeType="XML"
type="rotate"
from="0 60 70"
to="360 60 70"
dur="10s"
repeatCount="indefinite"/></line>
<g transform="translate(960.0, 0) scale(-1, 1) translate(-960.0, 0) rotate(180, 960.0, 540.0)" > <line x1="-1486" y1="-321" x2="-1783" y2="666"  stroke="#0a9396" stroke-width="64" stroke-linecap="round" filter="url(#shadow2)" >
<animateTransform attributeName="transform"
attributeType="XML"
type="rotate"
from="0 60 70"
to="360 60 70"
dur="10s"
repeatCount="indefinite"/></line>
 </g><g transform="translate(960.0, 0) scale(-1, 1) translate(-960.0, 0) " > <line x1="-1486" y1="-321" x2="-1783" y2="666"  stroke="#0a9396" stroke-width="64" stroke-linecap="round" filter="url(#shadow2)" >
<animateTransform attributeName="transform"
attributeType="XML"
type="rotate"
from="0 60 70"
to="360 60 70"
dur="10s"
repeatCount="indefinite"/></line>
<g transform="translate(960.0, 0) scale(-1, 1) translate(-960.0, 0) rotate(180, 960.0, 540.0)" > <line x1="-1486" y1="-321" x2="-1783" y2="666"  stroke="#0a9396" stroke-width="64" stroke-linecap="round" filter="url(#shadow2)" >
<animateTransform attributeName="transform"
attributeType="XML"
type="rotate"
from="0 60 70"
to="360 60 70"
dur="10s"
repeatCount="indefinite"/></line>
 </g> </g>
<line x1="1358" y1="-441" x2="-1611" y2="-657"  stroke="#001219" stroke-width="55" stroke-linecap="round" filter="url(#shadow2)" >
<animateTransform attributeName="transform"
attributeType="XML"
type="rotate"
from="0 60 70"
to="360 60 70"
dur="10s"
repeatCount="indefinite"/></line>
<g transform="translate(960.0, 0) scale(-1, 1) translate(-960.0, 0) rotate(180, 960.0, 540.0)" > <line x1="1358" y1="-441" x2="-1611" y2="-657"  stroke="#001219" stroke-width="55" stroke-linecap="round" filter="url(#shadow2)" >
<animateTransform attributeName="transform"
attributeType="XML"
type="rotate"
from="0 60 70"
to="360 60 70"
dur="10s"
repeatCount="indefinite"/></line>
 </g><g transform="translate(960.0, 0) scale(-1, 1) translate(-960.0, 0) " > <line x1="1358" y1="-441" x2="-1611" y2="-657"  stroke="#001219" stroke-width="55" stroke-linecap="round" filter="url(#shadow2)" >
<animateTransform attributeName="transform"
attributeType="XML"
type="rotate"
from="0 60 70"
to="360 60 70"
dur="10s"
repeatCount="indefinite"/></line>
<g transform="translate(960.0, 0) scale(-1, 1) translate(-960.0, 0) rotate(180, 960.0, 540.0)" > <line x1="1358" y1="-441" x2="-1611" y2="-657"  stroke="#001219" stroke-width="55" stroke-linecap="round" filter="url(#shadow2)" >
<animateTransform attributeName="transform"
attributeType="XML"
type="rotate"
from="0 60 70"
to="360 60 70"
dur="10s"
repeatCount="indefinite"/></line>
 </g> </g>
<line x1="911" y1="227" x2="-445" y2="3"  stroke="#bb3e03" stroke-width="36" stroke-linecap="round" filter="url(#shadow2)" >
<animateTransform attributeName="transform"
attributeType="XML"
type="rotate"
from="0 60 70"
to="360 60 70"
dur="10s"
repeatCount="indefinite"/></line>
<g transform="translate(960.0, 0) scale(-1, 1) translate(-960.0, 0) rotate(180, 960.0, 540.0)" > <line x1="911" y1="227" x2="-445" y2="3"  stroke="#bb3e03" stroke-width="36" stroke-linecap="round" filter="url(#shadow2)" >
<animateTransform attributeName="transform"
attributeType="XML"
type="rotate"
from="0 60 70"
to="360 60 70"
dur="10s"
repeatCount="indefinite"/></line>
 </g><g transform="translate(960.0, 0) scale(-1, 1) translate(-960.0, 0) " > <line x1="911" y1="227" x2="-445" y2="3"  stroke="#bb3e03" stroke-width="36" stroke-linecap="round" filter="url(#shadow2)" >
<animateTransform attributeName="transform"
attributeType="XML"
type="rotate"
from="0 60 70"
to="360 60 70"
dur="10s"
repeatCount="indefinite"/></line>
<g transform="translate(960.0, 0) scale(-1, 1) translate(-960.0, 0) rotate(180, 960.0, 540.0)" > <line x1="911" y1="227" x2="-445" y2="3"  stroke="#bb3e03" stroke-width="36" stroke-linecap="round" filter="url(#shadow2)" >
<animateTransform attributeName="transform"
attributeType="XML"
type="rotate"
from="0 60 70"
to="360 60 70"
dur="10s"
repeatCount="indefinite"/></line>
 </g> </g>
<line x1="-1721" y1="-990" x2="1288" y2="-439"  stroke="#001219" stroke-width="42" stroke-linecap="round" filter="url(#shadow2)" >
<animateTransform attributeName="transform"
attributeType="XML"
type="rotate"
from="0 60 70"
to="360 60 70"
dur="10s"
repeatCount="indefinite"/></line>
<g transform="translate(960.0, 0) scale(-1, 1) translate(-960.0, 0) rotate(180, 960.0, 540.0)" > <line x1="-1721" y1="-990" x2="1288" y2="-439"  stroke="#001219" stroke-width="42" stroke-linecap="round" filter="url(#shadow2)" >
<animateTransform attributeName="transform"
attributeType="XML"
type="rotate"
from="0 60 70"
to="360 60 70"
dur="10s"
repeatCount="indefinite"/></line>
 </g><g transform="translate(960.0, 0) scale(-1, 1) translate(-960.0, 0) " > <line x1="-1721" y1="-990" x2="1288" y2="-439"  stroke="#001219" stroke-width="42" stroke-linecap="round" filter="url(#shadow2)" >
<animateTransform attributeName="transform"
attributeType="XML"
type="rotate"
from="0 60 70"
to="360 60 70"
dur="10s"
repeatCount="indefinite"/></line>
<g transform="translate(960.0, 0) scale(-1, 1) translate(-960.0, 0) rotate(180, 960.0, 540.0)" > <line x1="-1721" y1="-990" x2="1288" y2="-439"  stroke="#001219" stroke-width="42" stroke-linecap="round" filter="url(#shadow2)" >
<animateTransform attributeName="transform"
attributeType="XML"
type="rotate"
from="0 60 70"
to="360 60 70"
dur="10s"
repeatCount="indefinite"/></line>
 </g> </g>
<line x1="-634" y1="-308" x2="216" y2="897"  stroke="#ca6702" stroke-width="54" stroke-linecap="round" filter="url(#shadow2)" >
<animateTransform attributeName="transform"
attributeType="XML"
type="rotate"
from="0 60 70"
to="360 60 70"
dur="10s"
repeatCount="indefinite"/></line>
<g transform="translate(960.0, 0) scale(-1, 1) translate(-960.0, 0) rotate(180, 960.0, 540.0)" > <line x1="-634" y1="-308" x2="216" y2="897"  stroke="#ca6702" stroke-width="54" stroke-linecap="round" filter="url(#shadow2)" >
<animateTransform attributeName="transform"
attributeType="XML"
type="rotate"
from="0 60 70"
to="360 60 70"
dur="10s"
repeatCount="indefinite"/></line>
 </g><g transform="translate(960.0, 0) scale(-1, 1) translate(-960.0, 0) " > <line x1="-634" y1="-308" x2="216" y2="897"  stroke="#ca6702" stroke-width="54" stroke-linecap="round" filter="url(#shadow2)" >
<animateTransform attributeName="transform"
attributeType="XML"
type="rotate"
from="0 60 70"
to="360 60 70"
dur="10s"
repeatCount="indefinite"/></line>
<g transform="translate(960.0, 0) scale(-1, 1) translate(-960.0, 0) rotate(180, 960.0, 540.0)" > <line x1="-634" y1="-308" x2="216" y2="897"  stroke="#ca6702" stroke-width="54" stroke-linecap="round" filter="url(#shadow2)" >
<animateTransform attributeName="transform"
attributeType="XML"
type="rotate"
from="0 60 70"
to="360 60 70"
dur="10s"
repeatCount="indefinite"/></line>
 </g> </g></svg>