<svg
xmlns="http://www.w3.org/2000/svg"
viewBox="0 0 1920 1080"
stroke="black" stroke-width="4">
<filter id='shadow' color-interpolation-filters="sRGB">
    <feDropShadow dx="2" dy="2" stdDeviation="2" flood-opacity="0.4"/>
</filter>
<filter id='shadow2' color-interpolation-filters="sRGB">
    <feDropShadow dx="0" dy="0" stdDeviation="5.5" flood-opacity=".8"/>
</filter>
<filter id='shadow3' color-interpolation-filters="sRGB">
<feDropShadow dx="10" dy="10" stdDeviation="0"
    flood-color="teal" flood-opacity="0.5"/>
</filter>
<g >
<rect x="0" y="0" width="100%" height="100%" fill="#ccc"
        stroke-width="8" stroke="none" />
</g>
    <line x1="1508" y1="-299" x2="168" y2="-470"  stroke="#005f73" stroke-width="36" stroke-linecap="round" filter="url(#shadow2)" >
<animateTransform attributeName="transform"
attributeType="XML"
type="rotate"
from="0 60 70"
to="360 60 70"
dur="10s"
repeatCount="indefinite"/></line>
<g transform="translate(960.0, 0) scale(-1, 1) translate(-960.0, 0) rotate(180, 960.0, 540.0)" > <line x1="1508" y1="-299" x2="168" y2="-470"  stroke="#005f73" stroke-width="36" stroke-linecap="round" filter="url(#shadow2)" >
<animateTransform attributeName="transform"
attributeType="XML"
type="rotate"
from="0 60 70"
to="360 60 70"
dur="10s"
repeatCount="indefinite"/></line>
 </g><g transform="translate(960.0, 0) scale(-1, 1) translate(-960.0, 0) " > <line x1="1508" y1="-299" x2="168" y2="-470"  stroke="#005f73" stroke-width="36" stroke-linecap="round" filter="url(#shadow2)" >
<animateTransform attributeName="transform"
attributeType="XML"
type="rotate"
from="0 60 70"
to="360 60 70"
dur="10s"
repeatCount="indefinite"/></line>
<g transform="translate(960.0, 0) scale(-1, 1) translate(-960.0, 0) rotate(180, 960.0, 540.0)" > <line x1="1508" y1="-299" x2="168" y2="-470"  stroke="#005f73" stroke-width="36" stroke-linecap="round" filter="url(#shadow2)" >
<animateTransform attributeName="transform"
attributeType="XML"
type="rotate"
from="0 60 70"
to="360 60 70"
dur="10s"
repeatCount="indefinite"/></line>
 </g> </g>
<line x1="307" y1="-143" x2="167" y2="237"  stroke="#9b2226" stroke-width="13" stroke-linecap="round" filter="url(#shadow2)" >
<animateTransform attributeName="transform"
attributeType="XML"
type="rotate"
from="0 60 70"
to="360 60 70"
dur="10s"
repeatCount="indefinite"/></line>
<g transform="translate(960.0, 0) scale(-1, 1) translate(-960.0, 0) rotate(180, 960.0, 540.0)" > <line x1="307" y1="-143" x2="167" y2="237"  stroke="#9b2226" stroke-width="13" stroke-linecap="round" filter="url(#shadow2)" >
<animateTransform attributeName="transform"
attributeType="XML"
type="rotate"
from="0 60 70"
to="360 60 70"
dur="10s"
repeatCount="indefinite"/></line>
 </g><g transform="translate(960.0, 0) scale(-1, 1) translate(-960.0, 0) " > <line x1="307" y1="-143" x2="167" y2="237"  stroke="#9b2226" stroke-width="13" stroke-linecap="round" filter="url(#shadow2)" >
<animateTransform attributeName="transform"
attributeType="XML"
type="rotate"
from="0 60 70"
to="360 60 70"
dur="10s"
repeatCount="indefinite"/></line>
<g transform="translate(960.0, 0) scale(-1, 1) translate(-960.0, 0) rotate(180, 960.0, 540.0)" > <line x1="307" y1="-143" x2="167" y2="237"  stroke="#9b2226" stroke-width="13" stroke-linecap="round" filter="url(#shadow2)" >
<animateTransform attributeName="transform"
attributeType="XML"
type="rotate"
from="0 60 70"
to="360 60 70"
dur="10s"
repeatCount="indefinite"/></line>
 </g> </g>
<line x1="-378" y1="749" x2="-699" y2="542"  stroke="#005f73" stroke-width="29" stroke-linecap="round" filter="url(#shadow2)" >
<animateTransform attributeName="transform"
attributeType="XML"
type="rotate"
from="0 60 70"
to="360 60 70"
dur="10s"
repeatCount="indefinite"/></line>
<g transform="translate(960.0, 0) scale(-1, 1) translate(-960.0, 0) rotate(180, 960.0, 540.0)" > <line x1="-378" y1="749" x2="-699" y2="542"  stroke="#005f73" stroke-width="29" stroke-linecap="round" filter="url(#shadow2)" >
<animateTransform attributeName="transform"
attributeType="XML"
type="rotate"
from="0 60 70"
to="360 60 70"
dur="10s"
repeatCount="indefinite"/></line>
 </g><g transform="translate(960.0, 0) scale(-1, 1) translate(-960.0, 0) " > <line x1="-378" y1="749" x2="-699" y2="542"  stroke="#005f73" stroke-width="29" stroke-linecap="round" filter="url(#shadow2)" >
<animateTransform attributeName="transform"
attributeType="XML"
type="rotate"
from="0 60 70"
to="360 60 70"
dur="10s"
repeatCount="indefinite"/></line>
<g transform="translate(960.0, 0) scale(-1, 1) translate(-960.0, 0) rotate(180, 960.0, 540.0)" > <line x1="-378" y1="749" x2="-699" y2="542"  stroke="#005f73" stroke-width="29" stroke-linecap="round" filter="url(#shadow2)" >
<animateTransform attributeName="transform"
attributeType="XML"
type="rotate"
from="0 60 70"
to="360 60 70"
dur="10s"
repeatCount="indefinite"/></line>
 </g> </g>
<line x1="-1243" y1="412" x2="-1614" y2="917"  stroke="#001219" stroke-width="42" stroke-linecap="round" filter="url(#shadow2)" >
<animateTransform attributeName="transform"
attributeType="XML"
type="rotate"
from="0 60 70"
to="360 60 70"
dur="10s"
repeatCount="indefinite"/></line>
<g transform="translate(960.0, 0) scale(-1, 1) translate(-960.0, 0) rotate(180, 960.0, 540.0)" > <line x1="-1243" y1="412" x2="-1614" y2="917"  stroke="#001219" stroke-width="42" stroke-linecap="round" filter="url(#shadow2)" >
<animateTransform attributeName="transform"
attributeType="XML"
type="rotate"
from="0 60 70"
to="360 60 70"
dur="10s"
repeatCount="indefinite"/></line>
 </g><g transform="translate(960.0, 0) scale(-1, 1) translate(-960.0, 0) " > <line x1="-1243" y1="412" x2="-1614" y2="917"  stroke="#001219" stroke-width="42" stroke-linecap="round" filter="url(#shadow2)" >
<animateTransform attributeName="transform"
attributeType="XML"
type="rotate"
from="0 60 70"
to="360 60 70"
dur="10s"
repeatCount="indefinite"/></line>
<g transform="translate(960.0, 0) scale(-1, 1) translate(-960.0, 0) rotate(180, 960.0, 540.0)" > <line x1="-1243" y1="412" x2="-1614" y2="917"  stroke="#001219" stroke-width="42" stroke-linecap="round" filter="url(#shadow2)" >
<animateTransform attributeName="transform"
attributeType="XML"
type="rotate"
from="0 60 70"
to="360 60 70"
dur="10s"
repeatCount="indefinite"/></line>
 </g> </g>
<line x1="-1462" y1="-997" x2="-985" y2="-632"  stroke="#0a9396" stroke-width="42" stroke-linecap="round" filter="url(#shadow2)" >
<animateTransform attributeName="transform"
attributeType="XML"
type="rotate"
from="0 60 70"
to="360 60 70"
dur="10s"
repeatCount="indefinite"/></line>
<g transform="translate(960.0, 0) scale(-1, 1) translate(-960.0, 0) rotate(180, 960.0, 540.0)" > <line x1="-1462" y1="-997" x2="-985" y2="-632"  stroke="#0a9396" stroke-width="42" stroke-linecap="round" filter="url(#shadow2)" >
<animateTransform attributeName="transform"
attributeType="XML"
type="rotate"
from="0 60 70"
to="360 60 70"
dur="10s"
repeatCount="indefinite"/></line>
 </g><g transform="translate(960.0, 0) scale(-1, 1) translate(-960.0, 0) " > <line x1="-1462" y1="-997" x2="-985" y2="-632"  stroke="#0a9396" stroke-width="42" stroke-linecap="round" filter="url(#shadow2)" >
<animateTransform attributeName="transform"
attributeType="XML"
type="rotate"
from="0 60 70"
to="360 60 70"
dur="10s"
repeatCount="indefinite"/></line>
<g transform="translate(960.0, 0) scale(-1, 1) translate(-960.0, 0) rotate(180, 960.0, 540.0)" > <line x1="-1462" y1="-997" x2="-985" y2="-632"  stroke="#0a9396" stroke-width="42" stroke-linecap="round" filter="url(#shadow2)" >
<animateTransform attributeName="transform"
attributeType="XML"
type="rotate"
from="0 60 70"
to="360 60 70"
dur="10s"
repeatCount="indefinite"/></line>
 </g> </g>
<line x1="1369" y1="657" x2="1359" y2="884"  stroke="#e9d8a6" stroke-width="51" stroke-linecap="round" filter="url(#shadow2)" >
<animateTransform attributeName="transform"
attributeType="XML"
type="rotate"
from="0 60 70"
to="360 60 70"
dur="10s"
repeatCount="indefinite"/></line>
<g transform="translate(960.0, 0) scale(-1, 1) translate(-960.0, 0) rotate(180, 960.0, 540.0)" > <line x1="1369" y1="657" x2="1359" y2="884"  stroke="#e9d8a6" stroke-width="51" stroke-linecap="round" filter="url(#shadow2)" >
<animateTransform attributeName="transform"
attributeType="XML"
type="rotate"
from="0 60 70"
to="360 60 70"
dur="10s"
repeatCount="indefinite"/></line>
 </g><g transform="translate(960.0, 0) scale(-1, 1) translate(-960.0, 0) " > <line x1="1369" y1="657" x2="1359" y2="884"  stroke="#e9d8a6" stroke-width="51" stroke-linecap="round" filter="url(#shadow2)" >
<animateTransform attributeName="transform"
attributeType="XML"
type="rotate"
from="0 60 70"
to="360 60 70"
dur="10s"
repeatCount="indefinite"/></line>
<g transform="translate(960.0, 0) scale(-1, 1) translate(-960.0, 0) rotate(180, 960.0, 540.0)" > <line x1="1369" y1="657" x2="1359" y2="884"  stroke="#e9d8a6" stroke-width="51" stroke-linecap="round" filter="url(#shadow2)" >
<animateTransform attributeName="transform"
attributeType="XML"
type="rotate"
from="0 60 70"
to="360 60 70"
dur="10s"
repeatCount="indefinite"/></line>
 </g> </g>
<line x1="-510" y1="-1027" x2="-521" y2="-54"  stroke="#ee9b00" stroke-width="13" stroke-linecap="round" filter="url(#shadow2)" >
<animateTransform attributeName="transform"
attributeType="XML"
type="rotate"
from="0 60 70"
to="360 60 70"
dur="10s"
repeatCount="indefinite"/></line>
<g transform="translate(960.0, 0) scale(-1, 1) translate(-960.0, 0) rotate(180, 960.0, 540.0)" > <line x1="-510" y1="-1027" x2="-521" y2="-54"  stroke="#ee9b00" stroke-width="13" stroke-linecap="round" filter="url(#shadow2)" >
<animateTransform attributeName="transform"
attributeType="XML"
type="rotate"
from="0 60 70"
to="360 60 70"
dur="10s"
repeatCount="indefinite"/></line>
 </g><g transform="translate(960.0, 0) scale(-1, 1) translate(-960.0, 0) " > <line x1="-510" y1="-1027" x2="-521" y2="-54"  stroke="#ee9b00" stroke-width="13" stroke-linecap="round" filter="url(#shadow2)" >
<animateTransform attributeName="transform"
attributeType="XML"
type="rotate"
from="0 60 70"
to="360 60 70"
dur="10s"
repeatCount="indefinite"/></line>
<g transform="translate(960.0, 0) scale(-1, 1) translate(-960.0, 0) rotate(180, 960.0, 540.0)" > <line x1="-510" y1="-1027" x2="-521" y2="-54"  stroke="#ee9b00" stroke-width="13" stroke-linecap="round" filter="url(#shadow2)" >
<animateTransform attributeName="transform"
attributeType="XML"
type="rotate"
from="0 60 70"
to="360 60 70"
dur="10s"
repeatCount="indefinite"/></line>
 </g> </g>
<line x1="-1379" y1="738" x2="1494" y2="-489"  stroke="#0a9396" stroke-width="60" stroke-linecap="round" filter="url(#shadow2)" >
<animateTransform attributeName="transform"
attributeType="XML"
type="rotate"
from="0 60 70"
to="360 60 70"
dur="10s"
repeatCount="indefinite"/></line>
<g transform="translate(960.0, 0) scale(-1, 1) translate(-960.0, 0) rotate(180, 960.0, 540.0)" > <line x1="-1379" y1="738" x2="1494" y2="-489"  stroke="#0a9396" stroke-width="60" stroke-linecap="round" filter="url(#shadow2)" >
<animateTransform attributeName="transform"
attributeType="XML"
type="rotate"
from="0 60 70"
to="360 60 70"
dur="10s"
repeatCount="indefinite"/></line>
 </g><g transform="translate(960.0, 0) scale(-1, 1) translate(-960.0, 0) " > <line x1="-1379" y1="738" x2="1494" y2="-489"  stroke="#0a9396" stroke-width="60" stroke-linecap="round" filter="url(#shadow2)" >
<animateTransform attributeName="transform"
attributeType="XML"
type="rotate"
from="0 60 70"
to="360 60 70"
dur="10s"
repeatCount="indefinite"/></line>
<g transform="translate(960.0, 0) scale(-1, 1) translate(-960.0, 0) rotate(180, 960.0, 540.0)" > <line x1="-1379" y1="738" x2="1494" y2="-489"  stroke="#0a9396" stroke-width="60" stroke-linecap="round" filter="url(#shadow2)" >
<animateTransform attributeName="transform"
attributeType="XML"
type="rotate"
from="0 60 70"
to="360 60 70"
dur="10s"
repeatCount="indefinite"/></line>
 </g> </g>
<line x1="-1862" y1="126" x2="-668" y2="421"  stroke="#ae2012" stroke-width="11" stroke-linecap="round" filter="url(#shadow2)" >
<animateTransform attributeName="transform"
attributeType="XML"
type="rotate"
from="0 60 70"
to="360 60 70"
dur="10s"
repeatCount="indefinite"/></line>
<g transform="translate(960.0, 0) scale(-1, 1) translate(-960.0, 0) rotate(180, 960.0, 540.0)" > <line x1="-1862" y1="126" x2="-668" y2="421"  stroke="#ae2012" stroke-width="11" stroke-linecap="round" filter="url(#shadow2)" >
<animateTransform attributeName="transform"
attributeType="XML"
type="rotate"
from="0 60 70"
to="360 60 70"
dur="10s"
repeatCount="indefinite"/></line>
 </g><g transform="translate(960.0, 0) scale(-1, 1) translate(-960.0, 0) " > <line x1="-1862" y1="126" x2="-668" y2="421"  stroke="#ae2012" stroke-width="11" stroke-linecap="round" filter="url(#shadow2)" >
<animateTransform attributeName="transform"
attributeType="XML"
type="rotate"
from="0 60 70"
to="360 60 70"
dur="10s"
repeatCount="indefinite"/></line>
<g transform="translate(960.0, 0) scale(-1, 1) translate(-960.0, 0) rotate(180, 960.0, 540.0)" > <line x1="-1862" y1="126" x2="-668" y2="421"  stroke="#ae2012" stroke-width="11" stroke-linecap="round" filter="url(#shadow2)" >
<animateTransform attributeName="transform"
attributeType="XML"
type="rotate"
from="0 60 70"
to="360 60 70"
dur="10s"
repeatCount="indefinite"/></line>
 </g> </g>
<line x1="1591" y1="-158" x2="-624" y2="486"  stroke="#0a9396" stroke-width="41" stroke-linecap="round" filter="url(#shadow2)" >
<animateTransform attributeName="transform"
attributeType="XML"
type="rotate"
from="0 60 70"
to="360 60 70"
dur="10s"
repeatCount="indefinite"/></line>
<g transform="translate(960.0, 0) scale(-1, 1) translate(-960.0, 0) rotate(180, 960.0, 540.0)" > <line x1="1591" y1="-158" x2="-624" y2="486"  stroke="#0a9396" stroke-width="41" stroke-linecap="round" filter="url(#shadow2)" >
<animateTransform attributeName="transform"
attributeType="XML"
type="rotate"
from="0 60 70"
to="360 60 70"
dur="10s"
repeatCount="indefinite"/></line>
 </g><g transform="translate(960.0, 0) scale(-1, 1) translate(-960.0, 0) " > <line x1="1591" y1="-158" x2="-624" y2="486"  stroke="#0a9396" stroke-width="41" stroke-linecap="round" filter="url(#shadow2)" >
<animateTransform attributeName="transform"
attributeType="XML"
type="rotate"
from="0 60 70"
to="360 60 70"
dur="10s"
repeatCount="indefinite"/></line>
<g transform="translate(960.0, 0) scale(-1, 1) translate(-960.0, 0) rotate(180, 960.0, 540.0)" > <line x1="1591" y1="-158" x2="-624" y2="486"  stroke="#0a9396" stroke-width="41" stroke-linecap="round" filter="url(#shadow2)" >
<animateTransform attributeName="transform"
attributeType="XML"
type="rotate"
from="0 60 70"
to="360 60 70"
dur="10s"
repeatCount="indefinite"/></line>
 </g> </g>
<line x1="-146" y1="459" x2="-117" y2="-411"  stroke="#bb3e03" stroke-width="51" stroke-linecap="round" filter="url(#shadow2)" >
<animateTransform attributeName="transform"
attributeType="XML"
type="rotate"
from="0 60 70"
to="360 60 70"
dur="10s"
repeatCount="indefinite"/></line>
<g transform="translate(960.0, 0) scale(-1, 1) translate(-960.0, 0) rotate(180, 960.0, 540.0)" > <line x1="-146" y1="459" x2="-117" y2="-411"  stroke="#bb3e03" stroke-width="51" stroke-linecap="round" filter="url(#shadow2)" >
<animateTransform attributeName="transform"
attributeType="XML"
type="rotate"
from="0 60 70"
to="360 60 70"
dur="10s"
repeatCount="indefinite"/></line>
 </g><g transform="translate(960.0, 0) scale(-1, 1) translate(-960.0, 0) " > <line x1="-146" y1="459" x2="-117" y2="-411"  stroke="#bb3e03" stroke-width="51" stroke-linecap="round" filter="url(#shadow2)" >
<animateTransform attributeName="transform"
attributeType="XML"
type="rotate"
from="0 60 70"
to="360 60 70"
dur="10s"
repeatCount="indefinite"/></line>
<g transform="translate(960.0, 0) scale(-1, 1) translate(-960.0, 0) rotate(180, 960.0, 540.0)" > <line x1="-146" y1="459" x2="-117" y2="-411"  stroke="#bb3e03" stroke-width="51" stroke-linecap="round" filter="url(#shadow2)" >
<animateTransform attributeName="transform"
attributeType="XML"
type="rotate"
from="0 60 70"
to="360 60 70"
dur="10s"
repeatCount="indefinite"/></line>
 </g> </g>
<line x1="1683" y1="722" x2="378" y2="-743"  stroke="#9b2226" stroke-width="61" stroke-linecap="round" filter="url(#shadow2)" >
<animateTransform attributeName="transform"
attributeType="XML"
type="rotate"
from="0 60 70"
to="360 60 70"
dur="10s"
repeatCount="indefinite"/></line>
<g transform="translate(960.0, 0) scale(-1, 1) translate(-960.0, 0) rotate(180, 960.0, 540.0)" > <line x1="1683" y1="722" x2="378" y2="-743"  stroke="#9b2226" stroke-width="61" stroke-linecap="round" filter="url(#shadow2)" >
<animateTransform attributeName="transform"
attributeType="XML"
type="rotate"
from="0 60 70"
to="360 60 70"
dur="10s"
repeatCount="indefinite"/></line>
 </g><g transform="translate(960.0, 0) scale(-1, 1) translate(-960.0, 0) " > <line x1="1683" y1="722" x2="378" y2="-743"  stroke="#9b2226" stroke-width="61" stroke-linecap="round" filter="url(#shadow2)" >
<animateTransform attributeName="transform"
attributeType="XML"
type="rotate"
from="0 60 70"
to="360 60 70"
dur="10s"
repeatCount="indefinite"/></line>
<g transform="translate(960.0, 0) scale(-1, 1) translate(-960.0, 0) rotate(180, 960.0, 540.0)" > <line x1="1683" y1="722" x2="378" y2="-743"  stroke="#9b2226" stroke-width="61" stroke-linecap="round" filter="url(#shadow2)" >
<animateTransform attributeName="transform"
attributeType="XML"
type="rotate"
from="0 60 70"
to="360 60 70"
dur="10s"
repeatCount="indefinite"/></line>
 </g> </g>
<line x1="713" y1="-470" x2="-761" y2="300"  stroke="#e9d8a6" stroke-width="28" stroke-linecap="round" filter="url(#shadow2)" >
<animateTransform attributeName="transform"
attributeType="XML"
type="rotate"
from="0 60 70"
to="360 60 70"
dur="10s"
repeatCount="indefinite"/></line>
<g transform="translate(960.0, 0) scale(-1, 1) translate(-960.0, 0) rotate(180, 960.0, 540.0)" > <line x1="713" y1="-470" x2="-761" y2="300"  stroke="#e9d8a6" stroke-width="28" stroke-linecap="round" filter="url(#shadow2)" >
<animateTransform attributeName="transform"
attributeType="XML"
type="rotate"
from="0 60 70"
to="360 60 70"
dur="10s"
repeatCount="indefinite"/></line>
 </g><g transform="translate(960.0, 0) scale(-1, 1) translate(-960.0, 0) " > <line x1="713" y1="-470" x2="-761" y2="300"  stroke="#e9d8a6" stroke-width="28" stroke-linecap="round" filter="url(#shadow2)" >
<animateTransform attributeName="transform"
attributeType="XML"
type="rotate"
from="0 60 70"
to="360 60 70"
dur="10s"
repeatCount="indefinite"/></line>
<g transform="translate(960.0, 0) scale(-1, 1) translate(-960.0, 0) rotate(180, 960.0, 540.0)" > <line x1="713" y1="-470" x2="-761" y2="300"  stroke="#e9d8a6" stroke-width="28" stroke-linecap="round" filter="url(#shadow2)" >
<animateTransform attributeName="transform"
attributeType="XML"
type="rotate"
from="0 60 70"
to="360 60 70"
dur="10s"
repeatCount="indefinite"/></line>
 </g> </g>
<line x1="-1282" y1="-328" x2="392" y2="1023"  stroke="#94d2bd" stroke-width="36" stroke-linecap="round" filter="url(#shadow2)" >
<animateTransform attributeName="transform"
attributeType="XML"
type="rotate"
from="0 60 70"
to="360 60 70"
dur="10s"
repeatCount="indefinite"/></line>
<g transform="translate(960.0, 0) scale(-1, 1) translate(-960.0, 0) rotate(180, 960.0, 540.0)" > <line x1="-1282" y1="-328" x2="392" y2="1023"  stroke="#94d2bd" stroke-width="36" stroke-linecap="round" filter="url(#shadow2)" >
<animateTransform attributeName="transform"
attributeType="XML"
type="rotate"
from="0 60 70"
to="360 60 70"
dur="10s"
repeatCount="indefinite"/></line>
 </g><g transform="translate(960.0, 0) scale(-1, 1) translate(-960.0, 0) " > <line x1="-1282" y1="-328" x2="392" y2="1023"  stroke="#94d2bd" stroke-width="36" stroke-linecap="round" filter="url(#shadow2)" >
<animateTransform attributeName="transform"
attributeType="XML"
type="rotate"
from="0 60 70"
to="360 60 70"
dur="10s"
repeatCount="indefinite"/></line>
<g transform="translate(960.0, 0) scale(-1, 1) translate(-960.0, 0) rotate(180, 960.0, 540.0)" > <line x1="-1282" y1="-328" x2="392" y2="1023"  stroke="#94d2bd" stroke-width="36" stroke-linecap="round" filter="url(#shadow2)" >
<animateTransform attributeName="transform"
attributeType="XML"
type="rotate"
from="0 60 70"
to="360 60 70"
dur="10s"
repeatCount="indefinite"/></line>
 </g> </g>
<line x1="992" y1="1018" x2="-21" y2="610"  stroke="#e9d8a6" stroke-width="33" stroke-linecap="round" filter="url(#shadow2)" >
<animateTransform attributeName="transform"
attributeType="XML"
type="rotate"
from="0 60 70"
to="360 60 70"
dur="10s"
repeatCount="indefinite"/></line>
<g transform="translate(960.0, 0) scale(-1, 1) translate(-960.0, 0) rotate(180, 960.0, 540.0)" > <line x1="992" y1="1018" x2="-21" y2="610"  stroke="#e9d8a6" stroke-width="33" stroke-linecap="round" filter="url(#shadow2)" >
<animateTransform attributeName="transform"
attributeType="XML"
type="rotate"
from="0 60 70"
to="360 60 70"
dur="10s"
repeatCount="indefinite"/></line>
 </g><g transform="translate(960.0, 0) scale(-1, 1) translate(-960.0, 0) " > <line x1="992" y1="1018" x2="-21" y2="610"  stroke="#e9d8a6" stroke-width="33" stroke-linecap="round" filter="url(#shadow2)" >
<animateTransform attributeName="transform"
attributeType="XML"
type="rotate"
from="0 60 70"
to="360 60 70"
dur="10s"
repeatCount="indefinite"/></line>
<g transform="translate(960.0, 0) scale(-1, 1) translate(-960.0, 0) rotate(180, 960.0, 540.0)" > <line x1="992" y1="1018" x2="-21" y2="610"  stroke="#e9d8a6" stroke-width="33" stroke-linecap="round" filter="url(#shadow2)" >
<animateTransform attributeName="transform"
attributeType="XML"
type="rotate"
from="0 60 70"
to="360 60 70"
dur="10s"
repeatCount="indefinite"/></line>
 </g> </g>
<line x1="-1892" y1="879" x2="-822" y2="-901"  stroke="#001219" stroke-width="26" stroke-linecap="round" filter="url(#shadow2)" >
<animateTransform attributeName="transform"
attributeType="XML"
type="rotate"
from="0 60 70"
to="360 60 70"
dur="10s"
repeatCount="indefinite"/></line>
<g transform="translate(960.0, 0) scale(-1, 1) translate(-960.0, 0) rotate(180, 960.0, 540.0)" > <line x1="-1892" y1="879" x2="-822" y2="-901"  stroke="#001219" stroke-width="26" stroke-linecap="round" filter="url(#shadow2)" >
<animateTransform attributeName="transform"
attributeType="XML"
type="rotate"
from="0 60 70"
to="360 60 70"
dur="10s"
repeatCount="indefinite"/></line>
 </g><g transform="translate(960.0, 0) scale(-1, 1) translate(-960.0, 0) " > <line x1="-1892" y1="879" x2="-822" y2="-901"  stroke="#001219" stroke-width="26" stroke-linecap="round" filter="url(#shadow2)" >
<animateTransform attributeName="transform"
attributeType="XML"
type="rotate"
from="0 60 70"
to="360 60 70"
dur="10s"
repeatCount="indefinite"/></line>
<g transform="translate(960.0, 0) scale(-1, 1) translate(-960.0, 0) rotate(180, 960.0, 540.0)" > <line x1="-1892" y1="879" x2="-822" y2="-901"  stroke="#001219" stroke-width="26" stroke-linecap="round" filter="url(#shadow2)" >
<animateTransform attributeName="transform"
attributeType="XML"
type="rotate"
from="0 60 70"
to="360 60 70"
dur="10s"
repeatCount="indefinite"/></line>
 </g> </g></svg>