<svg
xmlns="http://www.w3.org/2000/svg"
viewBox="0 0 1920 1080"
stroke="black" stroke-width="4">
<filter id='shadow' color-interpolation-filters="sRGB">
    <feDropShadow dx="2" dy="2" stdDeviation="2" flood-opacity="0.4"/>
</filter>
<filter id='shadow2' color-interpolation-filters="sRGB">
    <feDropShadow dx="0" dy="0" stdDeviation="5.5" flood-opacity=".8"/>
</filter>
<filter id='shadow3' color-interpolation-filters="sRGB">
<feDropShadow dx="10" dy="10" stdDeviation="0"
    flood-color="teal" flood-opacity="0.5"/>
</filter>
<g >
<rect x="0" y="0" width="100%" height="100%" fill="#ccc"
        stroke-width="8" stroke="none" />
</g>
    <line x1="-291" y1="-1072" x2="-447" y2="60"  stroke="#e9d8a6" stroke-width="42" stroke-linecap="round" filter="url(#shadow2)" >
<animateTransform attributeName="transform"
attributeType="XML"
type="rotate"
from="0 60 70"
to="360 60 70"
dur="10s"
repeatCount="indefinite"/></line>
<g transform="translate(960.0, 0) scale(-1, 1) translate(-960.0, 0) rotate(180, 960.0, 540.0)" > <line x1="-291" y1="-1072" x2="-447" y2="60"  stroke="#e9d8a6" stroke-width="42" stroke-linecap="round" filter="url(#shadow2)" >
<animateTransform attributeName="transform"
attributeType="XML"
type="rotate"
from="0 60 70"
to="360 60 70"
dur="10s"
repeatCount="indefinite"/></line>
 </g><g transform="translate(960.0, 0) scale(-1, 1) translate(-960.0, 0) " > <line x1="-291" y1="-1072" x2="-447" y2="60"  stroke="#e9d8a6" stroke-width="42" stroke-linecap="round" filter="url(#shadow2)" >
<animateTransform attributeName="transform"
attributeType="XML"
type="rotate"
from="0 60 70"
to="360 60 70"
dur="10s"
repeatCount="indefinite"/></line>
<g transform="translate(960.0, 0) scale(-1, 1) translate(-960.0, 0) rotate(180, 960.0, 540.0)" > <line x1="-291" y1="-1072" x2="-447" y2="60"  stroke="#e9d8a6" stroke-width="42" stroke-linecap="round" filter="url(#shadow2)" >
<animateTransform attributeName="transform"
attributeType="XML"
type="rotate"
from="0 60 70"
to="360 60 70"
dur="10s"
repeatCount="indefinite"/></line>
 </g> </g>
<line x1="-1572" y1="-465" x2="-187" y2="206"  stroke="#005f73" stroke-width="64" stroke-linecap="round" filter="url(#shadow2)" >
<animateTransform attributeName="transform"
attributeType="XML"
type="rotate"
from="0 60 70"
to="360 60 70"
dur="10s"
repeatCount="indefinite"/></line>
<g transform="translate(960.0, 0) scale(-1, 1) translate(-960.0, 0) rotate(180, 960.0, 540.0)" > <line x1="-1572" y1="-465" x2="-187" y2="206"  stroke="#005f73" stroke-width="64" stroke-linecap="round" filter="url(#shadow2)" >
<animateTransform attributeName="transform"
attributeType="XML"
type="rotate"
from="0 60 70"
to="360 60 70"
dur="10s"
repeatCount="indefinite"/></line>
 </g><g transform="translate(960.0, 0) scale(-1, 1) translate(-960.0, 0) " > <line x1="-1572" y1="-465" x2="-187" y2="206"  stroke="#005f73" stroke-width="64" stroke-linecap="round" filter="url(#shadow2)" >
<animateTransform attributeName="transform"
attributeType="XML"
type="rotate"
from="0 60 70"
to="360 60 70"
dur="10s"
repeatCount="indefinite"/></line>
<g transform="translate(960.0, 0) scale(-1, 1) translate(-960.0, 0) rotate(180, 960.0, 540.0)" > <line x1="-1572" y1="-465" x2="-187" y2="206"  stroke="#005f73" stroke-width="64" stroke-linecap="round" filter="url(#shadow2)" >
<animateTransform attributeName="transform"
attributeType="XML"
type="rotate"
from="0 60 70"
to="360 60 70"
dur="10s"
repeatCount="indefinite"/></line>
 </g> </g>
<line x1="-959" y1="474" x2="465" y2="571"  stroke="#bb3e03" stroke-width="33" stroke-linecap="round" filter="url(#shadow2)" >
<animateTransform attributeName="transform"
attributeType="XML"
type="rotate"
from="0 60 70"
to="360 60 70"
dur="10s"
repeatCount="indefinite"/></line>
<g transform="translate(960.0, 0) scale(-1, 1) translate(-960.0, 0) rotate(180, 960.0, 540.0)" > <line x1="-959" y1="474" x2="465" y2="571"  stroke="#bb3e03" stroke-width="33" stroke-linecap="round" filter="url(#shadow2)" >
<animateTransform attributeName="transform"
attributeType="XML"
type="rotate"
from="0 60 70"
to="360 60 70"
dur="10s"
repeatCount="indefinite"/></line>
 </g><g transform="translate(960.0, 0) scale(-1, 1) translate(-960.0, 0) " > <line x1="-959" y1="474" x2="465" y2="571"  stroke="#bb3e03" stroke-width="33" stroke-linecap="round" filter="url(#shadow2)" >
<animateTransform attributeName="transform"
attributeType="XML"
type="rotate"
from="0 60 70"
to="360 60 70"
dur="10s"
repeatCount="indefinite"/></line>
<g transform="translate(960.0, 0) scale(-1, 1) translate(-960.0, 0) rotate(180, 960.0, 540.0)" > <line x1="-959" y1="474" x2="465" y2="571"  stroke="#bb3e03" stroke-width="33" stroke-linecap="round" filter="url(#shadow2)" >
<animateTransform attributeName="transform"
attributeType="XML"
type="rotate"
from="0 60 70"
to="360 60 70"
dur="10s"
repeatCount="indefinite"/></line>
 </g> </g>
<line x1="784" y1="758" x2="-461" y2="395"  stroke="#001219" stroke-width="58" stroke-linecap="round" filter="url(#shadow2)" >
<animateTransform attributeName="transform"
attributeType="XML"
type="rotate"
from="0 60 70"
to="360 60 70"
dur="10s"
repeatCount="indefinite"/></line>
<g transform="translate(960.0, 0) scale(-1, 1) translate(-960.0, 0) rotate(180, 960.0, 540.0)" > <line x1="784" y1="758" x2="-461" y2="395"  stroke="#001219" stroke-width="58" stroke-linecap="round" filter="url(#shadow2)" >
<animateTransform attributeName="transform"
attributeType="XML"
type="rotate"
from="0 60 70"
to="360 60 70"
dur="10s"
repeatCount="indefinite"/></line>
 </g><g transform="translate(960.0, 0) scale(-1, 1) translate(-960.0, 0) " > <line x1="784" y1="758" x2="-461" y2="395"  stroke="#001219" stroke-width="58" stroke-linecap="round" filter="url(#shadow2)" >
<animateTransform attributeName="transform"
attributeType="XML"
type="rotate"
from="0 60 70"
to="360 60 70"
dur="10s"
repeatCount="indefinite"/></line>
<g transform="translate(960.0, 0) scale(-1, 1) translate(-960.0, 0) rotate(180, 960.0, 540.0)" > <line x1="784" y1="758" x2="-461" y2="395"  stroke="#001219" stroke-width="58" stroke-linecap="round" filter="url(#shadow2)" >
<animateTransform attributeName="transform"
attributeType="XML"
type="rotate"
from="0 60 70"
to="360 60 70"
dur="10s"
repeatCount="indefinite"/></line>
 </g> </g>
<line x1="165" y1="978" x2="-895" y2="476"  stroke="#ee9b00" stroke-width="37" stroke-linecap="round" filter="url(#shadow2)" >
<animateTransform attributeName="transform"
attributeType="XML"
type="rotate"
from="0 60 70"
to="360 60 70"
dur="10s"
repeatCount="indefinite"/></line>
<g transform="translate(960.0, 0) scale(-1, 1) translate(-960.0, 0) rotate(180, 960.0, 540.0)" > <line x1="165" y1="978" x2="-895" y2="476"  stroke="#ee9b00" stroke-width="37" stroke-linecap="round" filter="url(#shadow2)" >
<animateTransform attributeName="transform"
attributeType="XML"
type="rotate"
from="0 60 70"
to="360 60 70"
dur="10s"
repeatCount="indefinite"/></line>
 </g><g transform="translate(960.0, 0) scale(-1, 1) translate(-960.0, 0) " > <line x1="165" y1="978" x2="-895" y2="476"  stroke="#ee9b00" stroke-width="37" stroke-linecap="round" filter="url(#shadow2)" >
<animateTransform attributeName="transform"
attributeType="XML"
type="rotate"
from="0 60 70"
to="360 60 70"
dur="10s"
repeatCount="indefinite"/></line>
<g transform="translate(960.0, 0) scale(-1, 1) translate(-960.0, 0) rotate(180, 960.0, 540.0)" > <line x1="165" y1="978" x2="-895" y2="476"  stroke="#ee9b00" stroke-width="37" stroke-linecap="round" filter="url(#shadow2)" >
<animateTransform attributeName="transform"
attributeType="XML"
type="rotate"
from="0 60 70"
to="360 60 70"
dur="10s"
repeatCount="indefinite"/></line>
 </g> </g>
<line x1="-1225" y1="-634" x2="177" y2="-664"  stroke="#e9d8a6" stroke-width="11" stroke-linecap="round" filter="url(#shadow2)" >
<animateTransform attributeName="transform"
attributeType="XML"
type="rotate"
from="0 60 70"
to="360 60 70"
dur="10s"
repeatCount="indefinite"/></line>
<g transform="translate(960.0, 0) scale(-1, 1) translate(-960.0, 0) rotate(180, 960.0, 540.0)" > <line x1="-1225" y1="-634" x2="177" y2="-664"  stroke="#e9d8a6" stroke-width="11" stroke-linecap="round" filter="url(#shadow2)" >
<animateTransform attributeName="transform"
attributeType="XML"
type="rotate"
from="0 60 70"
to="360 60 70"
dur="10s"
repeatCount="indefinite"/></line>
 </g><g transform="translate(960.0, 0) scale(-1, 1) translate(-960.0, 0) " > <line x1="-1225" y1="-634" x2="177" y2="-664"  stroke="#e9d8a6" stroke-width="11" stroke-linecap="round" filter="url(#shadow2)" >
<animateTransform attributeName="transform"
attributeType="XML"
type="rotate"
from="0 60 70"
to="360 60 70"
dur="10s"
repeatCount="indefinite"/></line>
<g transform="translate(960.0, 0) scale(-1, 1) translate(-960.0, 0) rotate(180, 960.0, 540.0)" > <line x1="-1225" y1="-634" x2="177" y2="-664"  stroke="#e9d8a6" stroke-width="11" stroke-linecap="round" filter="url(#shadow2)" >
<animateTransform attributeName="transform"
attributeType="XML"
type="rotate"
from="0 60 70"
to="360 60 70"
dur="10s"
repeatCount="indefinite"/></line>
 </g> </g>
<line x1="1307" y1="-59" x2="604" y2="-972"  stroke="#e9d8a6" stroke-width="41" stroke-linecap="round" filter="url(#shadow2)" >
<animateTransform attributeName="transform"
attributeType="XML"
type="rotate"
from="0 60 70"
to="360 60 70"
dur="10s"
repeatCount="indefinite"/></line>
<g transform="translate(960.0, 0) scale(-1, 1) translate(-960.0, 0) rotate(180, 960.0, 540.0)" > <line x1="1307" y1="-59" x2="604" y2="-972"  stroke="#e9d8a6" stroke-width="41" stroke-linecap="round" filter="url(#shadow2)" >
<animateTransform attributeName="transform"
attributeType="XML"
type="rotate"
from="0 60 70"
to="360 60 70"
dur="10s"
repeatCount="indefinite"/></line>
 </g><g transform="translate(960.0, 0) scale(-1, 1) translate(-960.0, 0) " > <line x1="1307" y1="-59" x2="604" y2="-972"  stroke="#e9d8a6" stroke-width="41" stroke-linecap="round" filter="url(#shadow2)" >
<animateTransform attributeName="transform"
attributeType="XML"
type="rotate"
from="0 60 70"
to="360 60 70"
dur="10s"
repeatCount="indefinite"/></line>
<g transform="translate(960.0, 0) scale(-1, 1) translate(-960.0, 0) rotate(180, 960.0, 540.0)" > <line x1="1307" y1="-59" x2="604" y2="-972"  stroke="#e9d8a6" stroke-width="41" stroke-linecap="round" filter="url(#shadow2)" >
<animateTransform attributeName="transform"
attributeType="XML"
type="rotate"
from="0 60 70"
to="360 60 70"
dur="10s"
repeatCount="indefinite"/></line>
 </g> </g>
<line x1="847" y1="-530" x2="762" y2="436"  stroke="#94d2bd" stroke-width="23" stroke-linecap="round" filter="url(#shadow2)" >
<animateTransform attributeName="transform"
attributeType="XML"
type="rotate"
from="0 60 70"
to="360 60 70"
dur="10s"
repeatCount="indefinite"/></line>
<g transform="translate(960.0, 0) scale(-1, 1) translate(-960.0, 0) rotate(180, 960.0, 540.0)" > <line x1="847" y1="-530" x2="762" y2="436"  stroke="#94d2bd" stroke-width="23" stroke-linecap="round" filter="url(#shadow2)" >
<animateTransform attributeName="transform"
attributeType="XML"
type="rotate"
from="0 60 70"
to="360 60 70"
dur="10s"
repeatCount="indefinite"/></line>
 </g><g transform="translate(960.0, 0) scale(-1, 1) translate(-960.0, 0) " > <line x1="847" y1="-530" x2="762" y2="436"  stroke="#94d2bd" stroke-width="23" stroke-linecap="round" filter="url(#shadow2)" >
<animateTransform attributeName="transform"
attributeType="XML"
type="rotate"
from="0 60 70"
to="360 60 70"
dur="10s"
repeatCount="indefinite"/></line>
<g transform="translate(960.0, 0) scale(-1, 1) translate(-960.0, 0) rotate(180, 960.0, 540.0)" > <line x1="847" y1="-530" x2="762" y2="436"  stroke="#94d2bd" stroke-width="23" stroke-linecap="round" filter="url(#shadow2)" >
<animateTransform attributeName="transform"
attributeType="XML"
type="rotate"
from="0 60 70"
to="360 60 70"
dur="10s"
repeatCount="indefinite"/></line>
 </g> </g>
<line x1="189" y1="-1062" x2="270" y2="-436"  stroke="#9b2226" stroke-width="53" stroke-linecap="round" filter="url(#shadow2)" >
<animateTransform attributeName="transform"
attributeType="XML"
type="rotate"
from="0 60 70"
to="360 60 70"
dur="10s"
repeatCount="indefinite"/></line>
<g transform="translate(960.0, 0) scale(-1, 1) translate(-960.0, 0) rotate(180, 960.0, 540.0)" > <line x1="189" y1="-1062" x2="270" y2="-436"  stroke="#9b2226" stroke-width="53" stroke-linecap="round" filter="url(#shadow2)" >
<animateTransform attributeName="transform"
attributeType="XML"
type="rotate"
from="0 60 70"
to="360 60 70"
dur="10s"
repeatCount="indefinite"/></line>
 </g><g transform="translate(960.0, 0) scale(-1, 1) translate(-960.0, 0) " > <line x1="189" y1="-1062" x2="270" y2="-436"  stroke="#9b2226" stroke-width="53" stroke-linecap="round" filter="url(#shadow2)" >
<animateTransform attributeName="transform"
attributeType="XML"
type="rotate"
from="0 60 70"
to="360 60 70"
dur="10s"
repeatCount="indefinite"/></line>
<g transform="translate(960.0, 0) scale(-1, 1) translate(-960.0, 0) rotate(180, 960.0, 540.0)" > <line x1="189" y1="-1062" x2="270" y2="-436"  stroke="#9b2226" stroke-width="53" stroke-linecap="round" filter="url(#shadow2)" >
<animateTransform attributeName="transform"
attributeType="XML"
type="rotate"
from="0 60 70"
to="360 60 70"
dur="10s"
repeatCount="indefinite"/></line>
 </g> </g>
<line x1="-1804" y1="-525" x2="1858" y2="-1056"  stroke="#bb3e03" stroke-width="37" stroke-linecap="round" filter="url(#shadow2)" >
<animateTransform attributeName="transform"
attributeType="XML"
type="rotate"
from="0 60 70"
to="360 60 70"
dur="10s"
repeatCount="indefinite"/></line>
<g transform="translate(960.0, 0) scale(-1, 1) translate(-960.0, 0) rotate(180, 960.0, 540.0)" > <line x1="-1804" y1="-525" x2="1858" y2="-1056"  stroke="#bb3e03" stroke-width="37" stroke-linecap="round" filter="url(#shadow2)" >
<animateTransform attributeName="transform"
attributeType="XML"
type="rotate"
from="0 60 70"
to="360 60 70"
dur="10s"
repeatCount="indefinite"/></line>
 </g><g transform="translate(960.0, 0) scale(-1, 1) translate(-960.0, 0) " > <line x1="-1804" y1="-525" x2="1858" y2="-1056"  stroke="#bb3e03" stroke-width="37" stroke-linecap="round" filter="url(#shadow2)" >
<animateTransform attributeName="transform"
attributeType="XML"
type="rotate"
from="0 60 70"
to="360 60 70"
dur="10s"
repeatCount="indefinite"/></line>
<g transform="translate(960.0, 0) scale(-1, 1) translate(-960.0, 0) rotate(180, 960.0, 540.0)" > <line x1="-1804" y1="-525" x2="1858" y2="-1056"  stroke="#bb3e03" stroke-width="37" stroke-linecap="round" filter="url(#shadow2)" >
<animateTransform attributeName="transform"
attributeType="XML"
type="rotate"
from="0 60 70"
to="360 60 70"
dur="10s"
repeatCount="indefinite"/></line>
 </g> </g>
<line x1="-964" y1="206" x2="-1420" y2="-272"  stroke="#94d2bd" stroke-width="31" stroke-linecap="round" filter="url(#shadow2)" >
<animateTransform attributeName="transform"
attributeType="XML"
type="rotate"
from="0 60 70"
to="360 60 70"
dur="10s"
repeatCount="indefinite"/></line>
<g transform="translate(960.0, 0) scale(-1, 1) translate(-960.0, 0) rotate(180, 960.0, 540.0)" > <line x1="-964" y1="206" x2="-1420" y2="-272"  stroke="#94d2bd" stroke-width="31" stroke-linecap="round" filter="url(#shadow2)" >
<animateTransform attributeName="transform"
attributeType="XML"
type="rotate"
from="0 60 70"
to="360 60 70"
dur="10s"
repeatCount="indefinite"/></line>
 </g><g transform="translate(960.0, 0) scale(-1, 1) translate(-960.0, 0) " > <line x1="-964" y1="206" x2="-1420" y2="-272"  stroke="#94d2bd" stroke-width="31" stroke-linecap="round" filter="url(#shadow2)" >
<animateTransform attributeName="transform"
attributeType="XML"
type="rotate"
from="0 60 70"
to="360 60 70"
dur="10s"
repeatCount="indefinite"/></line>
<g transform="translate(960.0, 0) scale(-1, 1) translate(-960.0, 0) rotate(180, 960.0, 540.0)" > <line x1="-964" y1="206" x2="-1420" y2="-272"  stroke="#94d2bd" stroke-width="31" stroke-linecap="round" filter="url(#shadow2)" >
<animateTransform attributeName="transform"
attributeType="XML"
type="rotate"
from="0 60 70"
to="360 60 70"
dur="10s"
repeatCount="indefinite"/></line>
 </g> </g>
<line x1="1766" y1="449" x2="379" y2="-948"  stroke="#e9d8a6" stroke-width="54" stroke-linecap="round" filter="url(#shadow2)" >
<animateTransform attributeName="transform"
attributeType="XML"
type="rotate"
from="0 60 70"
to="360 60 70"
dur="10s"
repeatCount="indefinite"/></line>
<g transform="translate(960.0, 0) scale(-1, 1) translate(-960.0, 0) rotate(180, 960.0, 540.0)" > <line x1="1766" y1="449" x2="379" y2="-948"  stroke="#e9d8a6" stroke-width="54" stroke-linecap="round" filter="url(#shadow2)" >
<animateTransform attributeName="transform"
attributeType="XML"
type="rotate"
from="0 60 70"
to="360 60 70"
dur="10s"
repeatCount="indefinite"/></line>
 </g><g transform="translate(960.0, 0) scale(-1, 1) translate(-960.0, 0) " > <line x1="1766" y1="449" x2="379" y2="-948"  stroke="#e9d8a6" stroke-width="54" stroke-linecap="round" filter="url(#shadow2)" >
<animateTransform attributeName="transform"
attributeType="XML"
type="rotate"
from="0 60 70"
to="360 60 70"
dur="10s"
repeatCount="indefinite"/></line>
<g transform="translate(960.0, 0) scale(-1, 1) translate(-960.0, 0) rotate(180, 960.0, 540.0)" > <line x1="1766" y1="449" x2="379" y2="-948"  stroke="#e9d8a6" stroke-width="54" stroke-linecap="round" filter="url(#shadow2)" >
<animateTransform attributeName="transform"
attributeType="XML"
type="rotate"
from="0 60 70"
to="360 60 70"
dur="10s"
repeatCount="indefinite"/></line>
 </g> </g>
<line x1="-1479" y1="189" x2="-538" y2="-97"  stroke="#9b2226" stroke-width="37" stroke-linecap="round" filter="url(#shadow2)" >
<animateTransform attributeName="transform"
attributeType="XML"
type="rotate"
from="0 60 70"
to="360 60 70"
dur="10s"
repeatCount="indefinite"/></line>
<g transform="translate(960.0, 0) scale(-1, 1) translate(-960.0, 0) rotate(180, 960.0, 540.0)" > <line x1="-1479" y1="189" x2="-538" y2="-97"  stroke="#9b2226" stroke-width="37" stroke-linecap="round" filter="url(#shadow2)" >
<animateTransform attributeName="transform"
attributeType="XML"
type="rotate"
from="0 60 70"
to="360 60 70"
dur="10s"
repeatCount="indefinite"/></line>
 </g><g transform="translate(960.0, 0) scale(-1, 1) translate(-960.0, 0) " > <line x1="-1479" y1="189" x2="-538" y2="-97"  stroke="#9b2226" stroke-width="37" stroke-linecap="round" filter="url(#shadow2)" >
<animateTransform attributeName="transform"
attributeType="XML"
type="rotate"
from="0 60 70"
to="360 60 70"
dur="10s"
repeatCount="indefinite"/></line>
<g transform="translate(960.0, 0) scale(-1, 1) translate(-960.0, 0) rotate(180, 960.0, 540.0)" > <line x1="-1479" y1="189" x2="-538" y2="-97"  stroke="#9b2226" stroke-width="37" stroke-linecap="round" filter="url(#shadow2)" >
<animateTransform attributeName="transform"
attributeType="XML"
type="rotate"
from="0 60 70"
to="360 60 70"
dur="10s"
repeatCount="indefinite"/></line>
 </g> </g>
<line x1="-852" y1="738" x2="703" y2="-421"  stroke="#94d2bd" stroke-width="49" stroke-linecap="round" filter="url(#shadow2)" >
<animateTransform attributeName="transform"
attributeType="XML"
type="rotate"
from="0 60 70"
to="360 60 70"
dur="10s"
repeatCount="indefinite"/></line>
<g transform="translate(960.0, 0) scale(-1, 1) translate(-960.0, 0) rotate(180, 960.0, 540.0)" > <line x1="-852" y1="738" x2="703" y2="-421"  stroke="#94d2bd" stroke-width="49" stroke-linecap="round" filter="url(#shadow2)" >
<animateTransform attributeName="transform"
attributeType="XML"
type="rotate"
from="0 60 70"
to="360 60 70"
dur="10s"
repeatCount="indefinite"/></line>
 </g><g transform="translate(960.0, 0) scale(-1, 1) translate(-960.0, 0) " > <line x1="-852" y1="738" x2="703" y2="-421"  stroke="#94d2bd" stroke-width="49" stroke-linecap="round" filter="url(#shadow2)" >
<animateTransform attributeName="transform"
attributeType="XML"
type="rotate"
from="0 60 70"
to="360 60 70"
dur="10s"
repeatCount="indefinite"/></line>
<g transform="translate(960.0, 0) scale(-1, 1) translate(-960.0, 0) rotate(180, 960.0, 540.0)" > <line x1="-852" y1="738" x2="703" y2="-421"  stroke="#94d2bd" stroke-width="49" stroke-linecap="round" filter="url(#shadow2)" >
<animateTransform attributeName="transform"
attributeType="XML"
type="rotate"
from="0 60 70"
to="360 60 70"
dur="10s"
repeatCount="indefinite"/></line>
 </g> </g>
<line x1="-1210" y1="-440" x2="1678" y2="-811"  stroke="#bb3e03" stroke-width="33" stroke-linecap="round" filter="url(#shadow2)" >
<animateTransform attributeName="transform"
attributeType="XML"
type="rotate"
from="0 60 70"
to="360 60 70"
dur="10s"
repeatCount="indefinite"/></line>
<g transform="translate(960.0, 0) scale(-1, 1) translate(-960.0, 0) rotate(180, 960.0, 540.0)" > <line x1="-1210" y1="-440" x2="1678" y2="-811"  stroke="#bb3e03" stroke-width="33" stroke-linecap="round" filter="url(#shadow2)" >
<animateTransform attributeName="transform"
attributeType="XML"
type="rotate"
from="0 60 70"
to="360 60 70"
dur="10s"
repeatCount="indefinite"/></line>
 </g><g transform="translate(960.0, 0) scale(-1, 1) translate(-960.0, 0) " > <line x1="-1210" y1="-440" x2="1678" y2="-811"  stroke="#bb3e03" stroke-width="33" stroke-linecap="round" filter="url(#shadow2)" >
<animateTransform attributeName="transform"
attributeType="XML"
type="rotate"
from="0 60 70"
to="360 60 70"
dur="10s"
repeatCount="indefinite"/></line>
<g transform="translate(960.0, 0) scale(-1, 1) translate(-960.0, 0) rotate(180, 960.0, 540.0)" > <line x1="-1210" y1="-440" x2="1678" y2="-811"  stroke="#bb3e03" stroke-width="33" stroke-linecap="round" filter="url(#shadow2)" >
<animateTransform attributeName="transform"
attributeType="XML"
type="rotate"
from="0 60 70"
to="360 60 70"
dur="10s"
repeatCount="indefinite"/></line>
 </g> </g>
<line x1="62" y1="-328" x2="-1096" y2="-799"  stroke="#ee9b00" stroke-width="49" stroke-linecap="round" filter="url(#shadow2)" >
<animateTransform attributeName="transform"
attributeType="XML"
type="rotate"
from="0 60 70"
to="360 60 70"
dur="10s"
repeatCount="indefinite"/></line>
<g transform="translate(960.0, 0) scale(-1, 1) translate(-960.0, 0) rotate(180, 960.0, 540.0)" > <line x1="62" y1="-328" x2="-1096" y2="-799"  stroke="#ee9b00" stroke-width="49" stroke-linecap="round" filter="url(#shadow2)" >
<animateTransform attributeName="transform"
attributeType="XML"
type="rotate"
from="0 60 70"
to="360 60 70"
dur="10s"
repeatCount="indefinite"/></line>
 </g><g transform="translate(960.0, 0) scale(-1, 1) translate(-960.0, 0) " > <line x1="62" y1="-328" x2="-1096" y2="-799"  stroke="#ee9b00" stroke-width="49" stroke-linecap="round" filter="url(#shadow2)" >
<animateTransform attributeName="transform"
attributeType="XML"
type="rotate"
from="0 60 70"
to="360 60 70"
dur="10s"
repeatCount="indefinite"/></line>
<g transform="translate(960.0, 0) scale(-1, 1) translate(-960.0, 0) rotate(180, 960.0, 540.0)" > <line x1="62" y1="-328" x2="-1096" y2="-799"  stroke="#ee9b00" stroke-width="49" stroke-linecap="round" filter="url(#shadow2)" >
<animateTransform attributeName="transform"
attributeType="XML"
type="rotate"
from="0 60 70"
to="360 60 70"
dur="10s"
repeatCount="indefinite"/></line>
 </g> </g></svg>