
        <svg
        xmlns="http://www.w3.org/2000/svg" 
        viewBox="0 0 1000 1000"
        width="800" stroke="black" stroke-width="4">
        <filter id='shadow' color-interpolation-filters="sRGB">
            <feDropShadow dx="2" dy="2" stdDeviation="2" flood-opacity="0.4"/>
        </filter>
        <filter id='shadow2' color-interpolation-filters="sRGB">
            <feDropShadow dx="0" dy="0" stdDeviation="5.5" flood-opacity="0.8"/>
        </filter>
        <g fill="none" stroke="black" stroke-width="4">
    <circle cx="480" cy="11" r="35" fill="#9c9ede" stroke="none" fill-opacity="0.8" filter="url(#shadow)" /><circle cx="987" cy="184" r="82" fill="#843c39" stroke="none" fill-opacity="0.8" filter="url(#shadow)" /><circle cx="710" cy="404" r="10" fill="#e7969c" stroke="none" fill-opacity="0.8" filter="url(#shadow)" /><circle cx="802" cy="387" r="61" fill="#ad494a" stroke="none" fill-opacity="0.8" filter="url(#shadow)" /><circle cx="782" cy="22" r="37" fill="#393b79" stroke="none" fill-opacity="0.8" filter="url(#shadow)" /><circle cx="936" cy="5" r="43" fill="#6b6ecf" stroke="none" fill-opacity="0.8" filter="url(#shadow)" /><circle cx="413" cy="8" r="17" fill="#8ca252" stroke="none" fill-opacity="0.8" filter="url(#shadow)" /><circle cx="846" cy="131" r="39" fill="#9c9ede" stroke="none" fill-opacity="0.8" filter="url(#shadow)" /><circle cx="588" cy="321" r="79" fill="#de9ed6" stroke="none" fill-opacity="0.8" filter="url(#shadow)" /><circle cx="326" cy="328" r="59" fill="#e7969c" stroke="none" fill-opacity="0.8" filter="url(#shadow)" /><circle cx="59" cy="583" r="60" fill="#de9ed6" stroke="none" fill-opacity="0.8" filter="url(#shadow)" /><circle cx="154" cy="212" r="42" fill="#d6616b" stroke="none" fill-opacity="0.8" filter="url(#shadow)" /><circle cx="534" cy="778" r="52" fill="#d6616b" stroke="none" fill-opacity="0.8" filter="url(#shadow)" /><circle cx="630" cy="846" r="51" fill="#b5cf6b" stroke="none" fill-opacity="0.8" filter="url(#shadow)" /><circle cx="996" cy="542" r="35" fill="" stroke="none" fill-opacity="0.8" filter="url(#shadow)" /><circle cx="797" cy="536" r="53" fill="#ce6dbd" stroke="none" fill-opacity="0.8" filter="url(#shadow)" /><circle cx="429" cy="826" r="17" fill="#b5cf6b" stroke="none" fill-opacity="0.8" filter="url(#shadow)" /><circle cx="513" cy="410" r="28" fill="#8ca252" stroke="none" fill-opacity="0.8" filter="url(#shadow)" /><circle cx="351" cy="495" r="83" fill="#9c9ede" stroke="none" fill-opacity="0.8" filter="url(#shadow)" /><circle cx="803" cy="860" r="42" fill="#843c39" stroke="none" fill-opacity="0.8" filter="url(#shadow)" /><circle cx="376" cy="642" r="42" fill="#ad494a" stroke="none" fill-opacity="0.8" filter="url(#shadow)" /><circle cx="56" cy="890" r="80" fill="#8ca252" stroke="none" fill-opacity="0.8" filter="url(#shadow)" /><circle cx="952" cy="675" r="90" fill="#d6616b" stroke="none" fill-opacity="0.8" filter="url(#shadow)" /><circle cx="263" cy="258" r="22" fill="#8c6d31" stroke="none" fill-opacity="0.8" filter="url(#shadow)" /><circle cx="493" cy="362" r="24" fill="#9c9ede" stroke="none" fill-opacity="0.8" filter="url(#shadow)" /><circle cx="991" cy="993" r="77" fill="#843c39" stroke="none" fill-opacity="0.8" filter="url(#shadow)" /><circle cx="815" cy="667" r="36" fill="#5254a3" stroke="none" fill-opacity="0.8" filter="url(#shadow)" /><circle cx="640" cy="666" r="40" fill="#8c6d31" stroke="none" fill-opacity="0.8" filter="url(#shadow)" /><circle cx="306" cy="757" r="90" fill="" stroke="none" fill-opacity="0.8" filter="url(#shadow)" /><circle cx="512" cy="480" r="12" fill="#9c9ede" stroke="none" fill-opacity="0.8" filter="url(#shadow)" /><circle cx="587" cy="18" r="20" fill="#393b79" stroke="none" fill-opacity="0.8" filter="url(#shadow)" /><circle cx="875" cy="812" r="42" fill="" stroke="none" fill-opacity="0.8" filter="url(#shadow)" /><circle cx="187" cy="402" r="11" fill="#ce6dbd" stroke="none" fill-opacity="0.8" filter="url(#shadow)" /><circle cx="339" cy="193" r="54" fill="#a55194" stroke="none" fill-opacity="0.8" filter="url(#shadow)" /><circle cx="71" cy="80" r="13" fill="#e7ba52" stroke="none" fill-opacity="0.8" filter="url(#shadow)" /><circle cx="707" cy="273" r="26" fill="#8c6d31" stroke="none" fill-opacity="0.8" filter="url(#shadow)" /><circle cx="82" cy="444" r="11" fill="#7b4173" stroke="none" fill-opacity="0.8" filter="url(#shadow)" /><circle cx="934" cy="100" r="9" fill="#8c6d31" stroke="none" fill-opacity="0.8" filter="url(#shadow)" /><circle cx="737" cy="941" r="45" fill="#8c6d31" stroke="none" fill-opacity="0.8" filter="url(#shadow)" /><circle cx="557" cy="643" r="46" fill="#637939" stroke="none" fill-opacity="0.8" filter="url(#shadow)" /><circle cx="4" cy="308" r="91" fill="#e7969c" stroke="none" fill-opacity="0.8" filter="url(#shadow)" /><circle cx="616" cy="986" r="52" fill="#e7969c" stroke="none" fill-opacity="0.8" filter="url(#shadow)" /><circle cx="251" cy="179" r="13" fill="#9c9ede" stroke="none" fill-opacity="0.8" filter="url(#shadow)" /><circle cx="881" cy="216" r="16" fill="#d6616b" stroke="none" fill-opacity="0.8" filter="url(#shadow)" /><circle cx="444" cy="281" r="42" fill="" stroke="none" fill-opacity="0.8" filter="url(#shadow)" /><circle cx="501" cy="555" r="38" fill="" stroke="none" fill-opacity="0.8" filter="url(#shadow)" /><circle cx="902" cy="521" r="44" fill="#e7cb94" stroke="none" fill-opacity="0.8" filter="url(#shadow)" /><circle cx="407" cy="861" r="13" fill="#e7ba52" stroke="none" fill-opacity="0.8" filter="url(#shadow)" /><circle cx="168" cy="496" r="70" fill="#8c6d31" stroke="none" fill-opacity="0.8" filter="url(#shadow)" /><circle cx="453" cy="429" r="19" fill="#a55194" stroke="none" fill-opacity="0.8" filter="url(#shadow)" /><circle cx="739" cy="696" r="23" fill="#bd9e39" stroke="none" fill-opacity="0.8" filter="url(#shadow)" /><circle cx="734" cy="802" r="17" fill="#d6616b" stroke="none" fill-opacity="0.8" filter="url(#shadow)" /><circle cx="69" cy="11" r="20" fill="#cedb9c" stroke="none" fill-opacity="0.8" filter="url(#shadow)" /><circle cx="460" cy="101" r="20" fill="#5254a3" stroke="none" fill-opacity="0.8" filter="url(#shadow)" /><circle cx="181" cy="34" r="54" fill="#9c9ede" stroke="none" fill-opacity="0.8" filter="url(#shadow)" /><circle cx="315" cy="36" r="36" fill="#de9ed6" stroke="none" fill-opacity="0.8" filter="url(#shadow)" /><circle cx="127" cy="975" r="21" fill="#843c39" stroke="none" fill-opacity="0.8" filter="url(#shadow)" /><circle cx="390" cy="249" r="20" fill="#8ca252" stroke="none" fill-opacity="0.8" filter="url(#shadow)" /><circle cx="373" cy="87" r="18" fill="" stroke="none" fill-opacity="0.8" filter="url(#shadow)" /><circle cx="421" cy="137" r="18" fill="#5254a3" stroke="none" fill-opacity="0.8" filter="url(#shadow)" /><circle cx="924" cy="338" r="45" fill="#e7969c" stroke="none" fill-opacity="0.8" filter="url(#shadow)" /><circle cx="345" cy="993" r="30" fill="#8ca252" stroke="none" fill-opacity="0.8" filter="url(#shadow)" /><circle cx="119" cy="128" r="17" fill="#7b4173" stroke="none" fill-opacity="0.8" filter="url(#shadow)" /><circle cx="525" cy="948" r="34" fill="#8ca252" stroke="none" fill-opacity="0.8" filter="url(#shadow)" /><circle cx="631" cy="536" r="77" fill="#b5cf6b" stroke="none" fill-opacity="0.8" filter="url(#shadow)" /><circle cx="671" cy="736" r="9" fill="#5254a3" stroke="none" fill-opacity="0.8" filter="url(#shadow)" /><circle cx="84" cy="216" r="10" fill="#9c9ede" stroke="none" fill-opacity="0.8" filter="url(#shadow)" /><circle cx="422" cy="945" r="33" fill="#8ca252" stroke="none" fill-opacity="0.8" filter="url(#shadow)" /><circle cx="210" cy="929" r="24" fill="#bd9e39" stroke="none" fill-opacity="0.8" filter="url(#shadow)" /><circle cx="240" cy="225" r="17" fill="#5254a3" stroke="none" fill-opacity="0.8" filter="url(#shadow)" /><circle cx="234" cy="112" r="23" fill="#e7cb94" stroke="none" fill-opacity="0.8" filter="url(#shadow)" /><circle cx="26" cy="745" r="60" fill="#e7ba52" stroke="none" fill-opacity="0.8" filter="url(#shadow)" /><circle cx="986" cy="452" r="46" fill="#b5cf6b" stroke="none" fill-opacity="0.8" filter="url(#shadow)" /><circle cx="657" cy="41" r="27" fill="#e7969c" stroke="none" fill-opacity="0.8" filter="url(#shadow)" /><circle cx="627" cy="117" r="32" fill="#ce6dbd" stroke="none" fill-opacity="0.8" filter="url(#shadow)" /><circle cx="904" cy="249" r="20" fill="#a55194" stroke="none" fill-opacity="0.8" filter="url(#shadow)" /><circle cx="714" cy="172" r="48" fill="" stroke="none" fill-opacity="0.8" filter="url(#shadow)" /><circle cx="187" cy="289" r="41" fill="#bd9e39" stroke="none" fill-opacity="0.8" filter="url(#shadow)" /><circle cx="185" cy="139" r="29" fill="#637939" stroke="none" fill-opacity="0.8" filter="url(#shadow)" /><circle cx="273" cy="417" r="19" fill="#a55194" stroke="none" fill-opacity="0.8" filter="url(#shadow)" /><circle cx="175" cy="692" r="44" fill="#8c6d31" stroke="none" fill-opacity="0.8" filter="url(#shadow)" /><circle cx="226" cy="359" r="28" fill="#393b79" stroke="none" fill-opacity="0.8" filter="url(#shadow)" /><circle cx="511" cy="174" r="31" fill="#393b79" stroke="none" fill-opacity="0.8" filter="url(#shadow)" /><circle cx="618" cy="426" r="29" fill="#ce6dbd" stroke="none" fill-opacity="0.8" filter="url(#shadow)" /><circle cx="829" cy="750" r="32" fill="#ad494a" stroke="none" fill-opacity="0.8" filter="url(#shadow)" /><circle cx="724" cy="444" r="19" fill="#a55194" stroke="none" fill-opacity="0.8" filter="url(#shadow)" /><circle cx="642" cy="189" r="22" fill="#a55194" stroke="none" fill-opacity="0.8" filter="url(#shadow)" /><circle cx="118" cy="269" r="24" fill="" stroke="none" fill-opacity="0.8" filter="url(#shadow)" /><circle cx="983" cy="64" r="17" fill="#6b6ecf" stroke="none" fill-opacity="0.8" filter="url(#shadow)" /><circle cx="685" cy="400" r="11" fill="#5254a3" stroke="none" fill-opacity="0.8" filter="url(#shadow)" /><circle cx="297" cy="871" r="17" fill="#ce6dbd" stroke="none" fill-opacity="0.8" filter="url(#shadow)" /><circle cx="876" cy="609" r="9" fill="#6b6ecf" stroke="none" fill-opacity="0.8" filter="url(#shadow)" /><circle cx="466" cy="492" r="17" fill="#d6616b" stroke="none" fill-opacity="0.8" filter="url(#shadow)" /><circle cx="113" cy="167" r="16" fill="#e7969c" stroke="none" fill-opacity="0.8" filter="url(#shadow)" /><circle cx="780" cy="255" r="31" fill="#393b79" stroke="none" fill-opacity="0.8" filter="url(#shadow)" /><circle cx="276" cy="380" r="8" fill="#ce6dbd" stroke="none" fill-opacity="0.8" filter="url(#shadow)" /><circle cx="478" cy="329" r="8" fill="#5254a3" stroke="none" fill-opacity="0.8" filter="url(#shadow)" /><circle cx="204" cy="616" r="15" fill="#393b79" stroke="none" fill-opacity="0.8" filter="url(#shadow)" /><circle cx="414" cy="367" r="32" fill="#393b79" stroke="none" fill-opacity="0.8" filter="url(#shadow)" /><circle cx="312" cy="905" r="13" fill="" stroke="none" fill-opacity="0.8" filter="url(#shadow)" /><circle cx="752" cy="107" r="15" fill="#8c6d31" stroke="none" fill-opacity="0.8" filter="url(#shadow)" /><circle cx="166" cy="915" r="13" fill="#8c6d31" stroke="none" fill-opacity="0.8" filter="url(#shadow)" /><circle cx="701" cy="644" r="13" fill="" stroke="none" fill-opacity="0.8" filter="url(#shadow)" /><circle cx="211" cy="857" r="44" fill="#ad494a" stroke="none" fill-opacity="0.8" filter="url(#shadow)" /><circle cx="553" cy="74" r="44" fill="#bd9e39" stroke="none" fill-opacity="0.8" filter="url(#shadow)" /><circle cx="997" cy="826" r="11" fill="#cedb9c" stroke="none" fill-opacity="0.8" filter="url(#shadow)" /><circle cx="896" cy="927" r="8" fill="#bd9e39" stroke="none" fill-opacity="0.8" filter="url(#shadow)" /><circle cx="531" cy="889" r="20" fill="#843c39" stroke="none" fill-opacity="0.8" filter="url(#shadow)" /><circle cx="733" cy="326" r="12" fill="#9c9ede" stroke="none" fill-opacity="0.8" filter="url(#shadow)" /><circle cx="825" cy="937" r="29" fill="#e7969c" stroke="none" fill-opacity="0.8" filter="url(#shadow)" /><circle cx="961" cy="804" r="13" fill="#de9ed6" stroke="none" fill-opacity="0.8" filter="url(#shadow)" /><circle cx="204" cy="983" r="23" fill="#6b6ecf" stroke="none" fill-opacity="0.8" filter="url(#shadow)" /><circle cx="11" cy="69" r="9" fill="#e7cb94" stroke="none" fill-opacity="0.8" filter="url(#shadow)" /><circle cx="467" cy="861" r="21" fill="#cedb9c" stroke="none" fill-opacity="0.8" filter="url(#shadow)" /><circle cx="480" cy="721" r="10" fill="#5254a3" stroke="none" fill-opacity="0.8" filter="url(#shadow)" /><circle cx="23" cy="431" r="32" fill="#5254a3" stroke="none" fill-opacity="0.8" filter="url(#shadow)" /><circle cx="282" cy="587" r="32" fill="#ad494a" stroke="none" fill-opacity="0.8" filter="url(#shadow)" /><circle cx="12" cy="189" r="21" fill="#ad494a" stroke="none" fill-opacity="0.8" filter="url(#shadow)" /><circle cx="231" cy="413" r="21" fill="#6b6ecf" stroke="none" fill-opacity="0.8" filter="url(#shadow)" /><circle cx="941" cy="563" r="10" fill="#637939" stroke="none" fill-opacity="0.8" filter="url(#shadow)" /><circle cx="512" cy="990" r="8" fill="#e7ba52" stroke="none" fill-opacity="0.8" filter="url(#shadow)" /><circle cx="954" cy="871" r="42" fill="#d6616b" stroke="none" fill-opacity="0.8" filter="url(#shadow)" /><circle cx="872" cy="373" r="9" fill="" stroke="none" fill-opacity="0.8" filter="url(#shadow)" /></g></svg>