
        <svg
        xmlns="http://www.w3.org/2000/svg"
        viewBox="0 0 1000 1000"
        width="800" stroke="black" stroke-width="4">
        <filter id='shadow' color-interpolation-filters="sRGB">
            <feDropShadow dx="2" dy="2" stdDeviation="2" flood-opacity="0.4"/>
        </filter>
        <filter id='shadow2' color-interpolation-filters="sRGB">
            <feDropShadow dx="0" dy="0" stdDeviation="5.5" flood-opacity=".8"/>
        </filter>
        <g >
        <rect x="0" y="0" width="100%" height="100%" fill="#ccc"
                stroke-width="8" stroke="none" />
    <circle cx="279" cy="467" r="78" fill="#843c39" stroke="none" fill-opacity="0.8" filter="url(#shadow)" /><circle cx="773" cy="153" r="65" fill="#de9ed6" stroke="none" fill-opacity="0.8" filter="url(#shadow)" /><circle cx="562" cy="84" r="48" fill="#8c6d31" stroke="none" fill-opacity="0.8" filter="url(#shadow)" /><circle cx="577" cy="225" r="87" fill="#b5cf6b" stroke="none" fill-opacity="0.8" filter="url(#shadow)" /><circle cx="562" cy="757" r="87" fill="#393b79" stroke="none" fill-opacity="0.8" filter="url(#shadow)" /><circle cx="64" cy="202" r="37" fill="#b5cf6b" stroke="none" fill-opacity="0.8" filter="url(#shadow)" /><circle cx="546" cy="982" r="91" fill="#a55194" stroke="none" fill-opacity="0.8" filter="url(#shadow)" /><circle cx="601" cy="531" r="88" fill="#8ca252" stroke="none" fill-opacity="0.8" filter="url(#shadow)" /><circle cx="979" cy="542" r="94" fill="#e7969c" stroke="none" fill-opacity="0.8" filter="url(#shadow)" /><circle cx="296" cy="890" r="35" fill="#637939" stroke="none" fill-opacity="0.8" filter="url(#shadow)" /><circle cx="375" cy="715" r="49" fill="#e7cb94" stroke="none" fill-opacity="0.8" filter="url(#shadow)" /><circle cx="222" cy="7" r="25" fill="#393b79" stroke="none" fill-opacity="0.8" filter="url(#shadow)" /><circle cx="342" cy="9" r="28" fill="#393b79" stroke="none" fill-opacity="0.8" filter="url(#shadow)" /><circle cx="795" cy="993" r="36" fill="#bd9e39" stroke="none" fill-opacity="0.8" filter="url(#shadow)" /><circle cx="385" cy="139" r="49" fill="#ad494a" stroke="none" fill-opacity="0.8" filter="url(#shadow)" /><circle cx="152" cy="984" r="54" fill="" stroke="none" fill-opacity="0.8" filter="url(#shadow)" /><circle cx="198" cy="847" r="14" fill="" stroke="none" fill-opacity="0.8" filter="url(#shadow)" /><circle cx="988" cy="4" r="61" fill="#e7cb94" stroke="none" fill-opacity="0.8" filter="url(#shadow)" /><circle cx="712" cy="15" r="16" fill="#8ca252" stroke="none" fill-opacity="0.8" filter="url(#shadow)" /><circle cx="116" cy="431" r="23" fill="#b5cf6b" stroke="none" fill-opacity="0.8" filter="url(#shadow)" /><circle cx="734" cy="558" r="41" fill="#d6616b" stroke="none" fill-opacity="0.8" filter="url(#shadow)" /><circle cx="976" cy="366" r="23" fill="#e7cb94" stroke="none" fill-opacity="0.8" filter="url(#shadow)" /><circle cx="371" cy="279" r="35" fill="#6b6ecf" stroke="none" fill-opacity="0.8" filter="url(#shadow)" /><circle cx="111" cy="500" r="23" fill="#e7cb94" stroke="none" fill-opacity="0.8" filter="url(#shadow)" /><circle cx="50" cy="58" r="31" fill="#e7cb94" stroke="none" fill-opacity="0.8" filter="url(#shadow)" /><circle cx="249" cy="724" r="45" fill="#ce6dbd" stroke="none" fill-opacity="0.8" filter="url(#shadow)" /><circle cx="196" cy="655" r="22" fill="#637939" stroke="none" fill-opacity="0.8" filter="url(#shadow)" /><circle cx="287" cy="213" r="71" fill="#9c9ede" stroke="none" fill-opacity="0.8" filter="url(#shadow)" /><circle cx="895" cy="362" r="45" fill="#637939" stroke="none" fill-opacity="0.8" filter="url(#shadow)" /><circle cx="738" cy="814" r="77" fill="#5254a3" stroke="none" fill-opacity="0.8" filter="url(#shadow)" /><circle cx="718" cy="312" r="49" fill="#cedb9c" stroke="none" fill-opacity="0.8" filter="url(#shadow)" /><circle cx="473" cy="474" r="52" fill="#ad494a" stroke="none" fill-opacity="0.8" filter="url(#shadow)" /><circle cx="938" cy="728" r="32" fill="#393b79" stroke="none" fill-opacity="0.8" filter="url(#shadow)" /><circle cx="878" cy="86" r="27" fill="#d6616b" stroke="none" fill-opacity="0.8" filter="url(#shadow)" /><circle cx="415" cy="810" r="22" fill="#ad494a" stroke="none" fill-opacity="0.8" filter="url(#shadow)" /><circle cx="178" cy="247" r="21" fill="#8c6d31" stroke="none" fill-opacity="0.8" filter="url(#shadow)" /><circle cx="31" cy="720" r="93" fill="#843c39" stroke="none" fill-opacity="0.8" filter="url(#shadow)" /><circle cx="389" cy="541" r="13" fill="#637939" stroke="none" fill-opacity="0.8" filter="url(#shadow)" /><circle cx="887" cy="284" r="23" fill="" stroke="none" fill-opacity="0.8" filter="url(#shadow)" /><circle cx="794" cy="379" r="39" fill="#8c6d31" stroke="none" fill-opacity="0.8" filter="url(#shadow)" /><circle cx="711" cy="700" r="23" fill="#ce6dbd" stroke="none" fill-opacity="0.8" filter="url(#shadow)" /><circle cx="38" cy="573" r="12" fill="#cedb9c" stroke="none" fill-opacity="0.8" filter="url(#shadow)" /><circle cx="37" cy="344" r="73" fill="#a55194" stroke="none" fill-opacity="0.8" filter="url(#shadow)" /><circle cx="307" cy="562" r="16" fill="#ad494a" stroke="none" fill-opacity="0.8" filter="url(#shadow)" /><circle cx="906" cy="637" r="18" fill="#ad494a" stroke="none" fill-opacity="0.8" filter="url(#shadow)" /><circle cx="805" cy="277" r="8" fill="#de9ed6" stroke="none" fill-opacity="0.8" filter="url(#shadow)" /><circle cx="86" cy="555" r="35" fill="#e7cb94" stroke="none" fill-opacity="0.8" filter="url(#shadow)" /><circle cx="448" cy="73" r="22" fill="#8c6d31" stroke="none" fill-opacity="0.8" filter="url(#shadow)" /><circle cx="444" cy="592" r="14" fill="#6b6ecf" stroke="none" fill-opacity="0.8" filter="url(#shadow)" /><circle cx="176" cy="156" r="34" fill="#7b4173" stroke="none" fill-opacity="0.8" filter="url(#shadow)" /><circle cx="882" cy="741" r="17" fill="#843c39" stroke="none" fill-opacity="0.8" filter="url(#shadow)" /><circle cx="103" cy="629" r="16" fill="#8ca252" stroke="none" fill-opacity="0.8" filter="url(#shadow)" /><circle cx="145" cy="626" r="26" fill="#8ca252" stroke="none" fill-opacity="0.8" filter="url(#shadow)" /><circle cx="165" cy="330" r="41" fill="#8ca252" stroke="none" fill-opacity="0.8" filter="url(#shadow)" /><circle cx="993" cy="930" r="70" fill="#6b6ecf" stroke="none" fill-opacity="0.8" filter="url(#shadow)" /><circle cx="715" cy="79" r="18" fill="" stroke="none" fill-opacity="0.8" filter="url(#shadow)" /><circle cx="890" cy="157" r="41" fill="#7b4173" stroke="none" fill-opacity="0.8" filter="url(#shadow)" /><circle cx="169" cy="799" r="9" fill="#ce6dbd" stroke="none" fill-opacity="0.8" filter="url(#shadow)" /><circle cx="693" cy="55" r="12" fill="#637939" stroke="none" fill-opacity="0.8" filter="url(#shadow)" /><circle cx="384" cy="399" r="14" fill="#7b4173" stroke="none" fill-opacity="0.8" filter="url(#shadow)" /><circle cx="656" cy="94" r="12" fill="#5254a3" stroke="none" fill-opacity="0.8" filter="url(#shadow)" /><circle cx="370" cy="369" r="17" fill="#d6616b" stroke="none" fill-opacity="0.8" filter="url(#shadow)" /><circle cx="805" cy="513" r="35" fill="" stroke="none" fill-opacity="0.8" filter="url(#shadow)" /><circle cx="362" cy="943" r="42" fill="#b5cf6b" stroke="none" fill-opacity="0.8" filter="url(#shadow)" /><circle cx="169" cy="471" r="27" fill="#e7cb94" stroke="none" fill-opacity="0.8" filter="url(#shadow)" /><circle cx="933" cy="646" r="9" fill="#6b6ecf" stroke="none" fill-opacity="0.8" filter="url(#shadow)" /><circle cx="642" cy="331" r="9" fill="#9c9ede" stroke="none" fill-opacity="0.8" filter="url(#shadow)" /><circle cx="876" cy="894" r="12" fill="#ce6dbd" stroke="none" fill-opacity="0.8" filter="url(#shadow)" /><circle cx="84" cy="914" r="9" fill="#ce6dbd" stroke="none" fill-opacity="0.8" filter="url(#shadow)" /><circle cx="669" cy="981" r="29" fill="#e7cb94" stroke="none" fill-opacity="0.8" filter="url(#shadow)" /><circle cx="210" cy="919" r="19" fill="#637939" stroke="none" fill-opacity="0.8" filter="url(#shadow)" /><circle cx="218" cy="562" r="17" fill="#a55194" stroke="none" fill-opacity="0.8" filter="url(#shadow)" /><circle cx="240" cy="634" r="14" fill="#de9ed6" stroke="none" fill-opacity="0.8" filter="url(#shadow)" /><circle cx="114" cy="236" r="19" fill="#9c9ede" stroke="none" fill-opacity="0.8" filter="url(#shadow)" /><circle cx="426" cy="339" r="45" fill="" stroke="none" fill-opacity="0.8" filter="url(#shadow)" /><circle cx="107" cy="826" r="25" fill="" stroke="none" fill-opacity="0.8" filter="url(#shadow)" /><circle cx="527" cy="854" r="14" fill="#9c9ede" stroke="none" fill-opacity="0.8" filter="url(#shadow)" /><circle cx="733" cy="435" r="21" fill="#b5cf6b" stroke="none" fill-opacity="0.8" filter="url(#shadow)" /><circle cx="148" cy="102" r="23" fill="#b5cf6b" stroke="none" fill-opacity="0.8" filter="url(#shadow)" /><circle cx="89" cy="111" r="15" fill="#6b6ecf" stroke="none" fill-opacity="0.8" filter="url(#shadow)" /><circle cx="482" cy="665" r="34" fill="#a55194" stroke="none" fill-opacity="0.8" filter="url(#shadow)" /><circle cx="697" cy="643" r="16" fill="#6b6ecf" stroke="none" fill-opacity="0.8" filter="url(#shadow)" /><circle cx="867" cy="434" r="28" fill="#8ca252" stroke="none" fill-opacity="0.8" filter="url(#shadow)" /><circle cx="260" cy="925" r="10" fill="#d6616b" stroke="none" fill-opacity="0.8" filter="url(#shadow)" /><circle cx="883" cy="980" r="10" fill="#de9ed6" stroke="none" fill-opacity="0.8" filter="url(#shadow)" /><circle cx="368" cy="600" r="40" fill="#5254a3" stroke="none" fill-opacity="0.8" filter="url(#shadow)" /><circle cx="639" cy="828" r="10" fill="#843c39" stroke="none" fill-opacity="0.8" filter="url(#shadow)" /><circle cx="228" cy="121" r="27" fill="#e7cb94" stroke="none" fill-opacity="0.8" filter="url(#shadow)" /><circle cx="828" cy="780" r="11" fill="#393b79" stroke="none" fill-opacity="0.8" filter="url(#shadow)" /><circle cx="760" cy="52" r="23" fill="#e7cb94" stroke="none" fill-opacity="0.8" filter="url(#shadow)" /><circle cx="16" cy="945" r="32" fill="#b5cf6b" stroke="none" fill-opacity="0.8" filter="url(#shadow)" /><circle cx="943" cy="999" r="9" fill="#5254a3" stroke="none" fill-opacity="0.8" filter="url(#shadow)" /><circle cx="666" cy="899" r="20" fill="#d6616b" stroke="none" fill-opacity="0.8" filter="url(#shadow)" /><circle cx="255" cy="988" r="45" fill="#ad494a" stroke="none" fill-opacity="0.8" filter="url(#shadow)" /><circle cx="490" cy="342" r="15" fill="#e7cb94" stroke="none" fill-opacity="0.8" filter="url(#shadow)" /><circle cx="843" cy="641" r="10" fill="#ad494a" stroke="none" fill-opacity="0.8" filter="url(#shadow)" /><circle cx="90" cy="605" r="10" fill="#a55194" stroke="none" fill-opacity="0.8" filter="url(#shadow)" /><circle cx="836" cy="14" r="45" fill="" stroke="none" fill-opacity="0.8" filter="url(#shadow)" /><circle cx="153" cy="760" r="11" fill="#de9ed6" stroke="none" fill-opacity="0.8" filter="url(#shadow)" /><circle cx="415" cy="905" r="22" fill="#a55194" stroke="none" fill-opacity="0.8" filter="url(#shadow)" /><circle cx="104" cy="940" r="10" fill="#5254a3" stroke="none" fill-opacity="0.8" filter="url(#shadow)" /><circle cx="309" cy="705" r="15" fill="#5254a3" stroke="none" fill-opacity="0.8" filter="url(#shadow)" /><circle cx="102" cy="8" r="13" fill="#8c6d31" stroke="none" fill-opacity="0.8" filter="url(#shadow)" /><circle cx="990" cy="407" r="8" fill="#ad494a" stroke="none" fill-opacity="0.8" filter="url(#shadow)" /><circle cx="865" cy="830" r="16" fill="#e7ba52" stroke="none" fill-opacity="0.8" filter="url(#shadow)" /><circle cx="956" cy="222" r="15" fill="#bd9e39" stroke="none" fill-opacity="0.8" filter="url(#shadow)" /><circle cx="41" cy="105" r="15" fill="#b5cf6b" stroke="none" fill-opacity="0.8" filter="url(#shadow)" /><circle cx="8" cy="478" r="26" fill="#9c9ede" stroke="none" fill-opacity="0.8" filter="url(#shadow)" /><circle cx="597" cy="348" r="23" fill="#e7cb94" stroke="none" fill-opacity="0.8" filter="url(#shadow)" /><circle cx="996" cy="664" r="17" fill="#ad494a" stroke="none" fill-opacity="0.8" filter="url(#shadow)" /><circle cx="613" cy="131" r="12" fill="#cedb9c" stroke="none" fill-opacity="0.8" filter="url(#shadow)" /><circle cx="924" cy="787" r="14" fill="#ce6dbd" stroke="none" fill-opacity="0.8" filter="url(#shadow)" /><circle cx="463" cy="187" r="23" fill="" stroke="none" fill-opacity="0.8" filter="url(#shadow)" /><circle cx="155" cy="784" r="8" fill="#ad494a" stroke="none" fill-opacity="0.8" filter="url(#shadow)" /><circle cx="794" cy="729" r="10" fill="#e7ba52" stroke="none" fill-opacity="0.8" filter="url(#shadow)" /><circle cx="667" cy="72" r="12" fill="#ce6dbd" stroke="none" fill-opacity="0.8" filter="url(#shadow)" /><circle cx="855" cy="695" r="36" fill="#b5cf6b" stroke="none" fill-opacity="0.8" filter="url(#shadow)" /><circle cx="153" cy="45" r="26" fill="#6b6ecf" stroke="none" fill-opacity="0.8" filter="url(#shadow)" /><circle cx="989" cy="200" r="16" fill="#e7cb94" stroke="none" fill-opacity="0.8" filter="url(#shadow)" /><circle cx="288" cy="823" r="31" fill="#ce6dbd" stroke="none" fill-opacity="0.8" filter="url(#shadow)" /><circle cx="427" cy="192" r="10" fill="#393b79" stroke="none" fill-opacity="0.8" filter="url(#shadow)" /></g></svg>