
        <svg
        xmlns="http://www.w3.org/2000/svg" 
        viewBox="0 0 1000 1000"
        width="800">
        <filter id='shadow' color-interpolation-filters="sRGB">
            <feDropShadow dx="2" dy="2" stdDeviation="2" flood-opacity="0.4"/>
        </filter>
    <circle cx="287" cy="339" r="79"fill="#637939" stroke="none"fill-opacity="0.8"filter="url(#shadow)"/><circle cx="105" cy="964" r="27"fill="" stroke="none"fill-opacity="0.8"filter="url(#shadow)"/><circle cx="512" cy="206" r="42"fill="#5254a3" stroke="none"fill-opacity="0.8"filter="url(#shadow)"/><circle cx="265" cy="988" r="28"fill="#cedb9c" stroke="none"fill-opacity="0.8"filter="url(#shadow)"/><circle cx="878" cy="490" r="34"fill="#8c6d31" stroke="none"fill-opacity="0.8"filter="url(#shadow)"/><circle cx="460" cy="939" r="44"fill="#9c9ede" stroke="none"fill-opacity="0.8"filter="url(#shadow)"/><circle cx="347" cy="727" r="70"fill="#e7969c" stroke="none"fill-opacity="0.8"filter="url(#shadow)"/><circle cx="602" cy="629" r="59"fill="" stroke="none"fill-opacity="0.8"filter="url(#shadow)"/><circle cx="75" cy="53" r="54"fill="#b5cf6b" stroke="none"fill-opacity="0.8"filter="url(#shadow)"/><circle cx="231" cy="934" r="17"fill="#8ca252" stroke="none"fill-opacity="0.8"filter="url(#shadow)"/><circle cx="781" cy="168" r="92"fill="#6b6ecf" stroke="none"fill-opacity="0.8"filter="url(#shadow)"/><circle cx="657" cy="25" r="39"fill="#e7969c" stroke="none"fill-opacity="0.8"filter="url(#shadow)"/><circle cx="459" cy="64" r="85"fill="#e7ba52" stroke="none"fill-opacity="0.8"filter="url(#shadow)"/><circle cx="79" cy="820" r="44"fill="#637939" stroke="none"fill-opacity="0.8"filter="url(#shadow)"/><circle cx="209" cy="66" r="67"fill="#637939" stroke="none"fill-opacity="0.8"filter="url(#shadow)"/><circle cx="180" cy="572" r="59"fill="#e7969c" stroke="none"fill-opacity="0.8"filter="url(#shadow)"/><circle cx="601" cy="802" r="84"fill="#e7cb94" stroke="none"fill-opacity="0.8"filter="url(#shadow)"/><circle cx="156" cy="177" r="14"fill="#de9ed6" stroke="none"fill-opacity="0.8"filter="url(#shadow)"/><circle cx="960" cy="531" r="27"fill="#d6616b" stroke="none"fill-opacity="0.8"filter="url(#shadow)"/><circle cx="202" cy="482" r="17"fill="#e7ba52" stroke="none"fill-opacity="0.8"filter="url(#shadow)"/><circle cx="735" cy="774" r="46"fill="#637939" stroke="none"fill-opacity="0.8"filter="url(#shadow)"/><circle cx="102" cy="652" r="8"fill="#393b79" stroke="none"fill-opacity="0.8"filter="url(#shadow)"/><circle cx="61" cy="720" r="49"fill="#8c6d31" stroke="none"fill-opacity="0.8"filter="url(#shadow)"/><circle cx="651" cy="153" r="12"fill="#8ca252" stroke="none"fill-opacity="0.8"filter="url(#shadow)"/><circle cx="907" cy="342" r="91"fill="#637939" stroke="none"fill-opacity="0.8"filter="url(#shadow)"/><circle cx="456" cy="556" r="13"fill="#843c39" stroke="none"fill-opacity="0.8"filter="url(#shadow)"/><circle cx="999" cy="973" r="33"fill="" stroke="none"fill-opacity="0.8"filter="url(#shadow)"/><circle cx="825" cy="852" r="12"fill="#393b79" stroke="none"fill-opacity="0.8"filter="url(#shadow)"/><circle cx="757" cy="622" r="80"fill="#5254a3" stroke="none"fill-opacity="0.8"filter="url(#shadow)"/><circle cx="271" cy="574" r="31"fill="#b5cf6b" stroke="none"fill-opacity="0.8"filter="url(#shadow)"/><circle cx="628" cy="194" r="25"fill="#a55194" stroke="none"fill-opacity="0.8"filter="url(#shadow)"/><circle cx="763" cy="902" r="41"fill="#ad494a" stroke="none"fill-opacity="0.8"filter="url(#shadow)"/><circle cx="975" cy="883" r="19"fill="#6b6ecf" stroke="none"fill-opacity="0.8"filter="url(#shadow)"/><circle cx="100" cy="220" r="40"fill="#637939" stroke="none"fill-opacity="0.8"filter="url(#shadow)"/><circle cx="321" cy="431" r="19"fill="#637939" stroke="none"fill-opacity="0.8"filter="url(#shadow)"/><circle cx="730" cy="360" r="53"fill="" stroke="none"fill-opacity="0.8"filter="url(#shadow)"/><circle cx="512" cy="359" r="94"fill="#9c9ede" stroke="none"fill-opacity="0.8"filter="url(#shadow)"/><circle cx="528" cy="569" r="14"fill="#9c9ede" stroke="none"fill-opacity="0.8"filter="url(#shadow)"/><circle cx="208" cy="695" r="54"fill="#8ca252" stroke="none"fill-opacity="0.8"filter="url(#shadow)"/><circle cx="264" cy="443" r="13"fill="#ce6dbd" stroke="none"fill-opacity="0.8"filter="url(#shadow)"/><circle cx="571" cy="992" r="18"fill="" stroke="none"fill-opacity="0.8"filter="url(#shadow)"/><circle cx="610" cy="154" r="8"fill="#843c39" stroke="none"fill-opacity="0.8"filter="url(#shadow)"/><circle cx="956" cy="749" r="23"fill="#e7ba52" stroke="none"fill-opacity="0.8"filter="url(#shadow)"/><circle cx="834" cy="7" r="17"fill="#de9ed6" stroke="none"fill-opacity="0.8"filter="url(#shadow)"/><circle cx="885" cy="211" r="12"fill="#de9ed6" stroke="none"fill-opacity="0.8"filter="url(#shadow)"/><circle cx="949" cy="681" r="17"fill="#5254a3" stroke="none"fill-opacity="0.8"filter="url(#shadow)"/><circle cx="133" cy="271" r="13"fill="#ce6dbd" stroke="none"fill-opacity="0.8"filter="url(#shadow)"/><circle cx="955" cy="27" r="70"fill="#e7cb94" stroke="none"fill-opacity="0.8"filter="url(#shadow)"/><circle cx="826" cy="753" r="8"fill="#ad494a" stroke="none"fill-opacity="0.8"filter="url(#shadow)"/><circle cx="676" cy="282" r="23"fill="#843c39" stroke="none"fill-opacity="0.8"filter="url(#shadow)"/><circle cx="25" cy="215" r="29"fill="#8c6d31" stroke="none"fill-opacity="0.8"filter="url(#shadow)"/><circle cx="24" cy="421" r="61"fill="#8c6d31" stroke="none"fill-opacity="0.8"filter="url(#shadow)"/><circle cx="442" cy="226" r="30"fill="#393b79" stroke="none"fill-opacity="0.8"filter="url(#shadow)"/><circle cx="367" cy="410" r="14"fill="#7b4173" stroke="none"fill-opacity="0.8"filter="url(#shadow)"/><circle cx="428" cy="577" r="8"fill="#b5cf6b" stroke="none"fill-opacity="0.8"filter="url(#shadow)"/><circle cx="352" cy="141" r="23"fill="#ad494a" stroke="none"fill-opacity="0.8"filter="url(#shadow)"/><circle cx="422" cy="486" r="45"fill="#8ca252" stroke="none"fill-opacity="0.8"filter="url(#shadow)"/><circle cx="940" cy="620" r="27"fill="#5254a3" stroke="none"fill-opacity="0.8"filter="url(#shadow)"/><circle cx="7" cy="974" r="22"fill="#637939" stroke="none"fill-opacity="0.8"filter="url(#shadow)"/><circle cx="483" cy="765" r="31"fill="#9c9ede" stroke="none"fill-opacity="0.8"filter="url(#shadow)"/><circle cx="982" cy="142" r="11"fill="#d6616b" stroke="none"fill-opacity="0.8"filter="url(#shadow)"/><circle cx="841" cy="952" r="20"fill="#6b6ecf" stroke="none"fill-opacity="0.8"filter="url(#shadow)"/><circle cx="689" cy="987" r="35"fill="#8c6d31" stroke="none"fill-opacity="0.8"filter="url(#shadow)"/><circle cx="778" cy="423" r="9"fill="#d6616b" stroke="none"fill-opacity="0.8"filter="url(#shadow)"/><circle cx="67" cy="582" r="30"fill="#6b6ecf" stroke="none"fill-opacity="0.8"filter="url(#shadow)"/><circle cx="30" cy="503" r="21"fill="#de9ed6" stroke="none"fill-opacity="0.8"filter="url(#shadow)"/><circle cx="341" cy="50" r="9"fill="#ce6dbd" stroke="none"fill-opacity="0.8"filter="url(#shadow)"/><circle cx="946" cy="223" r="22"fill="#5254a3" stroke="none"fill-opacity="0.8"filter="url(#shadow)"/><circle cx="511" cy="509" r="39"fill="#ce6dbd" stroke="none"fill-opacity="0.8"filter="url(#shadow)"/><circle cx="305" cy="873" r="25"fill="#5254a3" stroke="none"fill-opacity="0.8"filter="url(#shadow)"/><circle cx="852" cy="656" r="14"fill="#9c9ede" stroke="none"fill-opacity="0.8"filter="url(#shadow)"/><circle cx="833" cy="891" r="10"fill="#e7cb94" stroke="none"fill-opacity="0.8"filter="url(#shadow)"/><circle cx="621" cy="946" r="13"fill="#5254a3" stroke="none"fill-opacity="0.8"filter="url(#shadow)"/><circle cx="933" cy="771" r="8"fill="#cedb9c" stroke="none"fill-opacity="0.8"filter="url(#shadow)"/><circle cx="26" cy="781" r="15"fill="#5254a3" stroke="none"fill-opacity="0.8"filter="url(#shadow)"/><circle cx="907" cy="962" r="46"fill="#9c9ede" stroke="none"fill-opacity="0.8"filter="url(#shadow)"/><circle cx="313" cy="171" r="14"fill="#de9ed6" stroke="none"fill-opacity="0.8"filter="url(#shadow)"/><circle cx="909" cy="688" r="15"fill="#ad494a" stroke="none"fill-opacity="0.8"filter="url(#shadow)"/><circle cx="224" cy="872" r="21"fill="#b5cf6b" stroke="none"fill-opacity="0.8"filter="url(#shadow)"/><circle cx="296" cy="483" r="9"fill="#ad494a" stroke="none"fill-opacity="0.8"filter="url(#shadow)"/><circle cx="49" cy="320" r="39"fill="#de9ed6" stroke="none"fill-opacity="0.8"filter="url(#shadow)"/><circle cx="880" cy="796" r="27"fill="#393b79" stroke="none"fill-opacity="0.8"filter="url(#shadow)"/><circle cx="43" cy="257" r="16"fill="#cedb9c" stroke="none"fill-opacity="0.8"filter="url(#shadow)"/><circle cx="977" cy="810" r="18"fill="#a55194" stroke="none"fill-opacity="0.8"filter="url(#shadow)"/><circle cx="245" cy="145" r="8"fill="#e7969c" stroke="none"fill-opacity="0.8"filter="url(#shadow)"/><circle cx="478" cy="683" r="25"fill="#de9ed6" stroke="none"fill-opacity="0.8"filter="url(#shadow)"/><circle cx="143" cy="355" r="42"fill="#9c9ede" stroke="none"fill-opacity="0.8"filter="url(#shadow)"/><circle cx="153" cy="778" r="40"fill="#b5cf6b" stroke="none"fill-opacity="0.8"filter="url(#shadow)"/><circle cx="691" cy="698" r="17"fill="#843c39" stroke="none"fill-opacity="0.8"filter="url(#shadow)"/><circle cx="655" cy="453" r="40"fill="#843c39" stroke="none"fill-opacity="0.8"filter="url(#shadow)"/><circle cx="30" cy="913" r="30"fill="#ce6dbd" stroke="none"fill-opacity="0.8"filter="url(#shadow)"/><circle cx="489" cy="619" r="10"fill="#ce6dbd" stroke="none"fill-opacity="0.8"filter="url(#shadow)"/><circle cx="329" cy="84" r="19"fill="#e7ba52" stroke="none"fill-opacity="0.8"filter="url(#shadow)"/><circle cx="395" cy="300" r="19"fill="#de9ed6" stroke="none"fill-opacity="0.8"filter="url(#shadow)"/><circle cx="83" cy="280" r="11"fill="#8ca252" stroke="none"fill-opacity="0.8"filter="url(#shadow)"/><circle cx="416" cy="615" r="20"fill="#e7ba52" stroke="none"fill-opacity="0.8"filter="url(#shadow)"/><circle cx="392" cy="850" r="30"fill="" stroke="none"fill-opacity="0.8"filter="url(#shadow)"/><circle cx="191" cy="282" r="12"fill="#cedb9c" stroke="none"fill-opacity="0.8"filter="url(#shadow)"/><circle cx="777" cy="995" r="11"fill="#e7ba52" stroke="none"fill-opacity="0.8"filter="url(#shadow)"/><circle cx="311" cy="551" r="14"fill="#ad494a" stroke="none"fill-opacity="0.8"filter="url(#shadow)"/><circle cx="595" cy="484" r="23"fill="#7b4173" stroke="none"fill-opacity="0.8"filter="url(#shadow)"/><circle cx="659" cy="505" r="8"fill="#a55194" stroke="none"fill-opacity="0.8"filter="url(#shadow)"/><circle cx="792" cy="961" r="13"fill="#cedb9c" stroke="none"fill-opacity="0.8"filter="url(#shadow)"/><circle cx="368" cy="232" r="35"fill="#cedb9c" stroke="none"fill-opacity="0.8"filter="url(#shadow)"/><circle cx="584" cy="151" r="16"fill="#ce6dbd" stroke="none"fill-opacity="0.8"filter="url(#shadow)"/><circle cx="628" cy="266" r="16"fill="#8c6d31" stroke="none"fill-opacity="0.8"filter="url(#shadow)"/><circle cx="597" cy="64" r="32"fill="#de9ed6" stroke="none"fill-opacity="0.8"filter="url(#shadow)"/><circle cx="805" cy="408" r="11"fill="#bd9e39" stroke="none"fill-opacity="0.8"filter="url(#shadow)"/><circle cx="971" cy="452" r="25"fill="#9c9ede" stroke="none"fill-opacity="0.8"filter="url(#shadow)"/><circle cx="152" cy="438" r="33"fill="#e7969c" stroke="none"fill-opacity="0.8"filter="url(#shadow)"/><circle cx="979" cy="931" r="9"fill="#5254a3" stroke="none"fill-opacity="0.8"filter="url(#shadow)"/><circle cx="719" cy="42" r="16"fill="#9c9ede" stroke="none"fill-opacity="0.8"filter="url(#shadow)"/><circle cx="887" cy="129" r="9"fill="#e7ba52" stroke="none"fill-opacity="0.8"filter="url(#shadow)"/><circle cx="913" cy="587" r="10"fill="#6b6ecf" stroke="none"fill-opacity="0.8"filter="url(#shadow)"/><circle cx="183" cy="974" r="38"fill="#e7ba52" stroke="none"fill-opacity="0.8"filter="url(#shadow)"/><circle cx="17" cy="571" r="14"fill="#ad494a" stroke="none"fill-opacity="0.8"filter="url(#shadow)"/><circle cx="627" cy="534" r="33"fill="#8ca252" stroke="none"fill-opacity="0.8"filter="url(#shadow)"/><circle cx="376" cy="999" r="31"fill="#ad494a" stroke="none"fill-opacity="0.8"filter="url(#shadow)"/><circle cx="448" cy="792" r="8"fill="#7b4173" stroke="none"fill-opacity="0.8"filter="url(#shadow)"/><circle cx="844" cy="561" r="9"fill="#d6616b" stroke="none"fill-opacity="0.8"filter="url(#shadow)"/><circle cx="1" cy="136" r="10"fill="#ad494a" stroke="none"fill-opacity="0.8"filter="url(#shadow)"/><circle cx="818" cy="43" r="13"fill="#8ca252" stroke="none"fill-opacity="0.8"filter="url(#shadow)"/><circle cx="718" cy="499" r="13"fill="#e7cb94" stroke="none"fill-opacity="0.8"filter="url(#shadow)"/><circle cx="875" cy="857" r="27"fill="#bd9e39" stroke="none"fill-opacity="0.8"filter="url(#shadow)"/><circle cx="523" cy="925" r="15"fill="#393b79" stroke="none"fill-opacity="0.8"filter="url(#shadow)"/><circle cx="548" cy="905" r="13"fill="" stroke="none"fill-opacity="0.8"filter="url(#shadow)"/><circle cx="915" cy="892" r="21"fill="" stroke="none"fill-opacity="0.8"filter="url(#shadow)"/><circle cx="447" cy="826" r="8"fill="#393b79" stroke="none"fill-opacity="0.8"filter="url(#shadow)"/><circle cx="121" cy="880" r="10"fill="#cedb9c" stroke="none"fill-opacity="0.8"filter="url(#shadow)"/><circle cx="107" cy="136" r="9"fill="#7b4173" stroke="none"fill-opacity="0.8"filter="url(#shadow)"/><circle cx="797" cy="840" r="17"fill="#ce6dbd" stroke="none"fill-opacity="0.8"filter="url(#shadow)"/><circle cx="824" cy="483" r="17"fill="" stroke="none"fill-opacity="0.8"filter="url(#shadow)"/><circle cx="130" cy="504" r="23"fill="" stroke="none"fill-opacity="0.8"filter="url(#shadow)"/><circle cx="166" cy="235" r="16"fill="#7b4173" stroke="none"fill-opacity="0.8"filter="url(#shadow)"/><circle cx="218" cy="206" r="19"fill="" stroke="none"fill-opacity="0.8"filter="url(#shadow)"/><circle cx="863" cy="694" r="9"fill="#ad494a" stroke="none"fill-opacity="0.8"filter="url(#shadow)"/><circle cx="712" cy="837" r="8"fill="#cedb9c" stroke="none"fill-opacity="0.8"filter="url(#shadow)"/><circle cx="308" cy="197" r="11"fill="#ad494a" stroke="none"fill-opacity="0.8"filter="url(#shadow)"/><circle cx="927" cy="801" r="9"fill="#8c6d31" stroke="none"fill-opacity="0.8"filter="url(#shadow)"/><circle cx="212" cy="815" r="9"fill="#b5cf6b" stroke="none"fill-opacity="0.8"filter="url(#shadow)"/><circle cx="378" cy="584" r="18"fill="#5254a3" stroke="none"fill-opacity="0.8"filter="url(#shadow)"/><circle cx="948" cy="566" r="10"fill="#6b6ecf" stroke="none"fill-opacity="0.8"filter="url(#shadow)"/><circle cx="469" cy="841" r="12"fill="#7b4173" stroke="none"fill-opacity="0.8"filter="url(#shadow)"/><circle cx="610" cy="406" r="8"fill="#637939" stroke="none"fill-opacity="0.8"filter="url(#shadow)"/><circle cx="845" cy="35" r="13"fill="#e7ba52" stroke="none"fill-opacity="0.8"filter="url(#shadow)"/><circle cx="399" cy="901" r="20"fill="#7b4173" stroke="none"fill-opacity="0.8"filter="url(#shadow)"/><circle cx="808" cy="875" r="8"fill="#5254a3" stroke="none"fill-opacity="0.8"filter="url(#shadow)"/><circle cx="267" cy="849" r="11"fill="#e7969c" stroke="none"fill-opacity="0.8"filter="url(#shadow)"/><circle cx="263" cy="894" r="11"fill="#a55194" stroke="none"fill-opacity="0.8"filter="url(#shadow)"/><circle cx="560" cy="4" r="28"fill="" stroke="none"fill-opacity="0.8"filter="url(#shadow)"/><circle cx="1" cy="836" r="17"fill="#8c6d31" stroke="none"fill-opacity="0.8"filter="url(#shadow)"/><circle cx="308" cy="10" r="27"fill="#7b4173" stroke="none"fill-opacity="0.8"filter="url(#shadow)"/><circle cx="776" cy="38" r="16"fill="#e7969c" stroke="none"fill-opacity="0.8"filter="url(#shadow)"/><circle cx="441" cy="713" r="15"fill="#a55194" stroke="none"fill-opacity="0.8"filter="url(#shadow)"/><circle cx="44" cy="147" r="9"fill="#b5cf6b" stroke="none"fill-opacity="0.8"filter="url(#shadow)"/><circle cx="828" cy="717" r="16"fill="#ce6dbd" stroke="none"fill-opacity="0.8"filter="url(#shadow)"/><circle cx="686" cy="543" r="12"fill="#637939" stroke="none"fill-opacity="0.8"filter="url(#shadow)"/><circle cx="17" cy="101" r="21"fill="#393b79" stroke="none"fill-opacity="0.8"filter="url(#shadow)"/><circle cx="251" cy="827" r="14"fill="#d6616b" stroke="none"fill-opacity="0.8"filter="url(#shadow)"/><circle cx="133" cy="5" r="12"fill="#a55194" stroke="none"fill-opacity="0.8"filter="url(#shadow)"/><circle cx="368" cy="447" r="19"fill="#ad494a" stroke="none"fill-opacity="0.8"filter="url(#shadow)"/><circle cx="27" cy="663" r="9"fill="#6b6ecf" stroke="none"fill-opacity="0.8"filter="url(#shadow)"/><circle cx="369" cy="940" r="10"fill="#e7969c" stroke="none"fill-opacity="0.8"filter="url(#shadow)"/><circle cx="874" cy="60" r="10"fill="#e7969c" stroke="none"fill-opacity="0.8"filter="url(#shadow)"/><circle cx="750" cy="458" r="8"fill="#8ca252" stroke="none"fill-opacity="0.8"filter="url(#shadow)"/><circle cx="46" cy="628" r="19"fill="#ce6dbd" stroke="none"fill-opacity="0.8"filter="url(#shadow)"/><circle cx="298" cy="62" r="11"fill="#9c9ede" stroke="none"fill-opacity="0.8"filter="url(#shadow)"/><circle cx="47" cy="998" r="14"fill="" stroke="none"fill-opacity="0.8"filter="url(#shadow)"/><circle cx="573" cy="182" r="14"fill="#9c9ede" stroke="none"fill-opacity="0.8"filter="url(#shadow)"/><circle cx="265" cy="217" r="15"fill="#b5cf6b" stroke="none"fill-opacity="0.8"filter="url(#shadow)"/><circle cx="24" cy="162" r="15"fill="#de9ed6" stroke="none"fill-opacity="0.8"filter="url(#shadow)"/><circle cx="982" cy="593" r="15"fill="#e7cb94" stroke="none"fill-opacity="0.8"filter="url(#shadow)"/><circle cx="529" cy="610" r="10"fill="" stroke="none"fill-opacity="0.8"filter="url(#shadow)"/><circle cx="495" cy="807" r="10"fill="#8ca252" stroke="none"fill-opacity="0.8"filter="url(#shadow)"/><circle cx="297" cy="635" r="18"fill="#cedb9c" stroke="none"fill-opacity="0.8"filter="url(#shadow)"/><circle cx="552" cy="104" r="10"fill="#5254a3" stroke="none"fill-opacity="0.8"filter="url(#shadow)"/><circle cx="529" cy="727" r="15"fill="#e7ba52" stroke="none"fill-opacity="0.8"filter="url(#shadow)"/><circle cx="516" cy="858" r="12"fill="#e7cb94" stroke="none"fill-opacity="0.8"filter="url(#shadow)"/><circle cx="785" cy="533" r="9"fill="#ad494a" stroke="none"fill-opacity="0.8"filter="url(#shadow)"/><circle cx="801" cy="771" r="15"fill="#cedb9c" stroke="none"fill-opacity="0.8"filter="url(#shadow)"/><circle cx="690" cy="877" r="19"fill="#7b4173" stroke="none"fill-opacity="0.8"filter="url(#shadow)"/><circle cx="418" cy="805" r="12"fill="#8ca252" stroke="none"fill-opacity="0.8"filter="url(#shadow)"/><circle cx="329" cy="478" r="20"fill="#a55194" stroke="none"fill-opacity="0.8"filter="url(#shadow)"/><circle cx="925" cy="481" r="10"fill="#7b4173" stroke="none"fill-opacity="0.8"filter="url(#shadow)"/><circle cx="334" cy="634" r="8"fill="#b5cf6b" stroke="none"fill-opacity="0.8"filter="url(#shadow)"/><circle cx="553" cy="958" r="19"fill="#bd9e39" stroke="none"fill-opacity="0.8"filter="url(#shadow)"/><circle cx="374" cy="9" r="10"fill="#9c9ede" stroke="none"fill-opacity="0.8"filter="url(#shadow)"/><circle cx="357" cy="106" r="9"fill="#bd9e39" stroke="none"fill-opacity="0.8"filter="url(#shadow)"/><circle cx="352" cy="906" r="19"fill="#a55194" stroke="none"fill-opacity="0.8"filter="url(#shadow)"/><circle cx="290" cy="99" r="11"fill="#e7cb94" stroke="none"fill-opacity="0.8"filter="url(#shadow)"/><circle cx="104" cy="318" r="9"fill="" stroke="none"fill-opacity="0.8"filter="url(#shadow)"/><circle cx="964" cy="707" r="8"fill="#9c9ede" stroke="none"fill-opacity="0.8"filter="url(#shadow)"/><circle cx="103" cy="622" r="13"fill="#cedb9c" stroke="none"fill-opacity="0.8"filter="url(#shadow)"/><circle cx="180" cy="265" r="8"fill="#e7cb94" stroke="none"fill-opacity="0.8"filter="url(#shadow)"/><circle cx="156" cy="909" r="12"fill="#843c39" stroke="none"fill-opacity="0.8"filter="url(#shadow)"/><circle cx="656" cy="926" r="19"fill="#e7ba52" stroke="none"fill-opacity="0.8"filter="url(#shadow)"/><circle cx="989" cy="116" r="10"fill="#bd9e39" stroke="none"fill-opacity="0.8"filter="url(#shadow)"/><circle cx="327" cy="939" r="15"fill="#e7cb94" stroke="none"fill-opacity="0.8"filter="url(#shadow)"/><circle cx="823" cy="517" r="17"fill="#a55194" stroke="none"fill-opacity="0.8"filter="url(#shadow)"/><circle cx="418" cy="660" r="16"fill="#e7cb94" stroke="none"fill-opacity="0.8"filter="url(#shadow)"/><circle cx="422" cy="287" r="9"fill="#b5cf6b" stroke="none"fill-opacity="0.8"filter="url(#shadow)"/><circle cx="756" cy="281" r="19"fill="#ce6dbd" stroke="none"fill-opacity="0.8"filter="url(#shadow)"/><circle cx="313" cy="813" r="12"fill="#a55194" stroke="none"fill-opacity="0.8"filter="url(#shadow)"/><circle cx="774" cy="65" r="9"fill="#393b79" stroke="none"fill-opacity="0.8"filter="url(#shadow)"/><circle cx="886" cy="599" r="14"fill="#5254a3" stroke="none"fill-opacity="0.8"filter="url(#shadow)"/><circle cx="572" cy="528" r="16"fill="#e7ba52" stroke="none"fill-opacity="0.8"filter="url(#shadow)"/><circle cx="493" cy="578" r="18"fill="#7b4173" stroke="none"fill-opacity="0.8"filter="url(#shadow)"/><circle cx="968" cy="783" r="10"fill="#e7cb94" stroke="none"fill-opacity="0.8"filter="url(#shadow)"/><circle cx="663" cy="721" r="12"fill="#ad494a" stroke="none"fill-opacity="0.8"filter="url(#shadow)"/><circle cx="992" cy="253" r="30"fill="#d6616b" stroke="none"fill-opacity="0.8"filter="url(#shadow)"/><circle cx="794" cy="301" r="12"fill="#a55194" stroke="none"fill-opacity="0.8"filter="url(#shadow)"/><circle cx="450" cy="164" r="10"fill="#393b79" stroke="none"fill-opacity="0.8"filter="url(#shadow)"/><circle cx="833" cy="998" r="24"fill="#843c39" stroke="none"fill-opacity="0.8"filter="url(#shadow)"/><circle cx="979" cy="202" r="15"fill="#7b4173" stroke="none"fill-opacity="0.8"filter="url(#shadow)"/><circle cx="887" cy="658" r="20"fill="#6b6ecf" stroke="none"fill-opacity="0.8"filter="url(#shadow)"/><circle cx="742" cy="491" r="9"fill="#637939" stroke="none"fill-opacity="0.8"filter="url(#shadow)"/><circle cx="646" cy="699" r="9"fill="#393b79" stroke="none"fill-opacity="0.8"filter="url(#shadow)"/><circle cx="219" cy="166" r="13"fill="#e7969c" stroke="none"fill-opacity="0.8"filter="url(#shadow)"/><circle cx="272" cy="933" r="23"fill="#a55194" stroke="none"fill-opacity="0.8"filter="url(#shadow)"/><circle cx="247" cy="471" r="18"fill="#393b79" stroke="none"fill-opacity="0.8"filter="url(#shadow)"/><circle cx="301" cy="133" r="23"fill="#d6616b" stroke="none"fill-opacity="0.8"filter="url(#shadow)"/><circle cx="728" cy="442" r="19"fill="#5254a3" stroke="none"fill-opacity="0.8"filter="url(#shadow)"/><circle cx="821" cy="270" r="16"fill="#6b6ecf" stroke="none"fill-opacity="0.8"filter="url(#shadow)"/><circle cx="446" cy="640" r="9"fill="#e7cb94" stroke="none"fill-opacity="0.8"filter="url(#shadow)"/><circle cx="639" cy="398" r="14"fill="#8ca252" stroke="none"fill-opacity="0.8"filter="url(#shadow)"/><circle cx="5" cy="757" r="14"fill="#7b4173" stroke="none"fill-opacity="0.8"filter="url(#shadow)"/><circle cx="262" cy="768" r="9"fill="" stroke="none"fill-opacity="0.8"filter="url(#shadow)"/><circle cx="18" cy="5" r="13"fill="#bd9e39" stroke="none"fill-opacity="0.8"filter="url(#shadow)"/><circle cx="941" cy="161" r="29"fill="#b5cf6b" stroke="none"fill-opacity="0.8"filter="url(#shadow)"/><circle cx="82" cy="881" r="10"fill="#e7969c" stroke="none"fill-opacity="0.8"filter="url(#shadow)"/><circle cx="642" cy="294" r="11"fill="#843c39" stroke="none"fill-opacity="0.8"filter="url(#shadow)"/><circle cx="161" cy="855" r="27"fill="#8c6d31" stroke="none"fill-opacity="0.8"filter="url(#shadow)"/><circle cx="338" cy="540" r="12"fill="#bd9e39" stroke="none"fill-opacity="0.8"filter="url(#shadow)"/><circle cx="538" cy="991" r="13"fill="#bd9e39" stroke="none"fill-opacity="0.8"filter="url(#shadow)"/><circle cx="107" cy="575" r="8"fill="#843c39" stroke="none"fill-opacity="0.8"filter="url(#shadow)"/><circle cx="524" cy="645" r="11"fill="#d6616b" stroke="none"fill-opacity="0.8"filter="url(#shadow)"/><circle cx="421" cy="780" r="8"fill="#b5cf6b" stroke="none"fill-opacity="0.8"filter="url(#shadow)"/><circle cx="531" cy="676" r="19"fill="#b5cf6b" stroke="none"fill-opacity="0.8"filter="url(#shadow)"/><circle cx="9" cy="273" r="10"fill="#cedb9c" stroke="none"fill-opacity="0.8"filter="url(#shadow)"/><circle cx="4" cy="613" r="9"fill="#b5cf6b" stroke="none"fill-opacity="0.8"filter="url(#shadow)"/><circle cx="394" cy="354" r="10"fill="#bd9e39" stroke="none"fill-opacity="0.8"filter="url(#shadow)"/><circle cx="132" cy="910" r="11"fill="#637939" stroke="none"fill-opacity="0.8"filter="url(#shadow)"/><circle cx="319" cy="588" r="18"fill="#5254a3" stroke="none"fill-opacity="0.8"filter="url(#shadow)"/><circle cx="848" cy="431" r="11"fill="#bd9e39" stroke="none"fill-opacity="0.8"filter="url(#shadow)"/><circle cx="658" cy="118" r="11"fill="#cedb9c" stroke="none"fill-opacity="0.8"filter="url(#shadow)"/><circle cx="771" cy="470" r="13"fill="#bd9e39" stroke="none"fill-opacity="0.8"filter="url(#shadow)"/><circle cx="464" cy="617" r="11"fill="#9c9ede" stroke="none"fill-opacity="0.8"filter="url(#shadow)"/><circle cx="195" cy="344" r="9"fill="#393b79" stroke="none"fill-opacity="0.8"filter="url(#shadow)"/><circle cx="283" cy="664" r="10"fill="" stroke="none"fill-opacity="0.8"filter="url(#shadow)"/><circle cx="541" cy="138" r="20"fill="#de9ed6" stroke="none"fill-opacity="0.8"filter="url(#shadow)"/><circle cx="743" cy="843" r="9"fill="#e7969c" stroke="none"fill-opacity="0.8"filter="url(#shadow)"/><circle cx="986" cy="698" r="8"fill="#de9ed6" stroke="none"fill-opacity="0.8"filter="url(#shadow)"/><circle cx="505" cy="632" r="10"fill="#d6616b" stroke="none"fill-opacity="0.8"filter="url(#shadow)"/><circle cx="166" cy="199" r="8"fill="#8c6d31" stroke="none"fill-opacity="0.8"filter="url(#shadow)"/><circle cx="266" cy="171" r="9"fill="#843c39" stroke="none"fill-opacity="0.8"filter="url(#shadow)"/><circle cx="802" cy="729" r="9"fill="#843c39" stroke="none"fill-opacity="0.8"filter="url(#shadow)"/><circle cx="639" cy="228" r="9"fill="#ce6dbd" stroke="none"fill-opacity="0.8"filter="url(#shadow)"/><circle cx="672" cy="176" r="11"fill="#a55194" stroke="none"fill-opacity="0.8"filter="url(#shadow)"/><circle cx="501" cy="720" r="9"fill="#cedb9c" stroke="none"fill-opacity="0.8"filter="url(#shadow)"/><circle cx="997" cy="745" r="10"fill="#e7ba52" stroke="none"fill-opacity="0.8"filter="url(#shadow)"/><circle cx="205" cy="439" r="13"fill="#d6616b" stroke="none"fill-opacity="0.8"filter="url(#shadow)"/><circle cx="806" cy="428" r="8"fill="#637939" stroke="none"fill-opacity="0.8"filter="url(#shadow)"/><circle cx="891" cy="727" r="10"fill="#8ca252" stroke="none"fill-opacity="0.8"filter="url(#shadow)"/><circle cx="616" cy="123" r="21"fill="#e7ba52" stroke="none"fill-opacity="0.8"filter="url(#shadow)"/><circle cx="760" cy="833" r="10"fill="#e7ba52" stroke="none"fill-opacity="0.8"filter="url(#shadow)"/><circle cx="697" cy="228" r="11"fill="#8c6d31" stroke="none"fill-opacity="0.8"filter="url(#shadow)"/><circle cx="331" cy="977" r="16"fill="#e7ba52" stroke="none"fill-opacity="0.8"filter="url(#shadow)"/><circle cx="244" cy="534" r="8"fill="#e7ba52" stroke="none"fill-opacity="0.8"filter="url(#shadow)"/><circle cx="319" cy="241" r="10"fill="#ad494a" stroke="none"fill-opacity="0.8"filter="url(#shadow)"/><circle cx="55" cy="173" r="9"fill="#843c39" stroke="none"fill-opacity="0.8"filter="url(#shadow)"/><circle cx="871" cy="19" r="12"fill="#e7ba52" stroke="none"fill-opacity="0.8"filter="url(#shadow)"/><circle cx="89" cy="914" r="20"fill="" stroke="none"fill-opacity="0.8"filter="url(#shadow)"/><circle cx="49" cy="963" r="21"fill="#d6616b" stroke="none"fill-opacity="0.8"filter="url(#shadow)"/><circle cx="997" cy="562" r="12"fill="" stroke="none"fill-opacity="0.8"filter="url(#shadow)"/><circle cx="809" cy="818" r="8"fill="#843c39" stroke="none"fill-opacity="0.8"filter="url(#shadow)"/><circle cx="286" cy="798" r="9"fill="#cedb9c" stroke="none"fill-opacity="0.8"filter="url(#shadow)"/><circle cx="678" cy="503" r="10"fill="#e7cb94" stroke="none"fill-opacity="0.8"filter="url(#shadow)"/><circle cx="486" cy="885" r="10"fill="#a55194" stroke="none"fill-opacity="0.8"filter="url(#shadow)"/><circle cx="160" cy="126" r="8"fill="#e7969c" stroke="none"fill-opacity="0.8"filter="url(#shadow)"/><circle cx="584" cy="968" r="8"fill="#393b79" stroke="none"fill-opacity="0.8"filter="url(#shadow)"/><circle cx="225" cy="763" r="12"fill="" stroke="none"fill-opacity="0.8"filter="url(#shadow)"/><circle cx="726" cy="939" r="8"fill="#393b79" stroke="none"fill-opacity="0.8"filter="url(#shadow)"/><circle cx="652" cy="329" r="19"fill="#6b6ecf" stroke="none"fill-opacity="0.8"filter="url(#shadow)"/><circle cx="586" cy="264" r="12"fill="#d6616b" stroke="none"fill-opacity="0.8"filter="url(#shadow)"/><circle cx="907" cy="195" r="8"fill="#8c6d31" stroke="none"fill-opacity="0.8"filter="url(#shadow)"/><circle cx="795" cy="329" r="9"fill="#d6616b" stroke="none"fill-opacity="0.8"filter="url(#shadow)"/><circle cx="198" cy="388" r="12"fill="#bd9e39" stroke="none"fill-opacity="0.8"filter="url(#shadow)"/><circle cx="82" cy="997" r="8"fill="#5254a3" stroke="none"fill-opacity="0.8"filter="url(#shadow)"/><circle cx="188" cy="910" r="14"fill="#637939" stroke="none"fill-opacity="0.8"filter="url(#shadow)"/><circle cx="907" cy="457" r="9"fill="#e7cb94" stroke="none"fill-opacity="0.8"filter="url(#shadow)"/><circle cx="998" cy="666" r="10"fill="#b5cf6b" stroke="none"fill-opacity="0.8"filter="url(#shadow)"/><circle cx="748" cy="980" r="15"fill="#6b6ecf" stroke="none"fill-opacity="0.8"filter="url(#shadow)"/><circle cx="126" cy="998" r="8"fill="" stroke="none"fill-opacity="0.8"filter="url(#shadow)"/><circle cx="611" cy="997" r="11"fill="" stroke="none"fill-opacity="0.8"filter="url(#shadow)"/><circle cx="265" cy="792" r="9"fill="#ce6dbd" stroke="none"fill-opacity="0.8"filter="url(#shadow)"/><circle cx="187" cy="208" r="11"fill="#bd9e39" stroke="none"fill-opacity="0.8"filter="url(#shadow)"/><circle cx="897" cy="567" r="11"fill="#de9ed6" stroke="none"fill-opacity="0.8"filter="url(#shadow)"/><circle cx="264" cy="514" r="16"fill="#843c39" stroke="none"fill-opacity="0.8"filter="url(#shadow)"/><circle cx="479" cy="723" r="11"fill="" stroke="none"fill-opacity="0.8"filter="url(#shadow)"/><circle cx="308" cy="223" r="11"fill="" stroke="none"fill-opacity="0.8"filter="url(#shadow)"/><circle cx="863" cy="233" r="12"fill="#7b4173" stroke="none"fill-opacity="0.8"filter="url(#shadow)"/><circle cx="421" cy="174" r="16"fill="#a55194" stroke="none"fill-opacity="0.8"filter="url(#shadow)"/><circle cx="760" cy="435" r="8"fill="#9c9ede" stroke="none"fill-opacity="0.8"filter="url(#shadow)"/><circle cx="554" cy="476" r="15"fill="#393b79" stroke="none"fill-opacity="0.8"filter="url(#shadow)"/><circle cx="693" cy="930" r="13"fill="#bd9e39" stroke="none"fill-opacity="0.8"filter="url(#shadow)"/><circle cx="103" cy="542" r="22"fill="#de9ed6" stroke="none"fill-opacity="0.8"filter="url(#shadow)"/><circle cx="696" cy="74" r="11"fill="#6b6ecf" stroke="none"fill-opacity="0.8"filter="url(#shadow)"/><circle cx="805" cy="65" r="9"fill="#de9ed6" stroke="none"fill-opacity="0.8"filter="url(#shadow)"/><circle cx="944" cy="840" r="14"fill="#637939" stroke="none"fill-opacity="0.8"filter="url(#shadow)"/><circle cx="80" cy="642" r="13"fill="#e7cb94" stroke="none"fill-opacity="0.8"filter="url(#shadow)"/><circle cx="225" cy="993" r="8"fill="#5254a3" stroke="none"fill-opacity="0.8"filter="url(#shadow)"/><circle cx="879" cy="911" r="11"fill="#8c6d31" stroke="none"fill-opacity="0.8"filter="url(#shadow)"/></svg>