<svg
xmlns="http://www.w3.org/2000/svg"
viewBox="0 0 1920 1080"
stroke="black" stroke-width="4">
<filter id='shadow' color-interpolation-filters="sRGB">
    <feDropShadow dx="2" dy="2" stdDeviation="2" flood-opacity="0.4"/>
</filter>
<filter id='shadow2' color-interpolation-filters="sRGB">
    <feDropShadow dx="0" dy="0" stdDeviation="5.5" flood-opacity=".8"/>
</filter>
<filter id='shadow3' color-interpolation-filters="sRGB">
<feDropShadow dx="10" dy="10" stdDeviation="0"
    flood-color="teal" flood-opacity="0.5"/>
</filter>
<g >
<rect x="0" y="0" width="100%" height="100%" fill="#ccc"
        stroke-width="8" stroke="none" />
</g>
    <line x1="-1791" y1="845" x2="1782" y2="-388"  stroke="#005f73" stroke-width="24" stroke-linecap="round" filter="url(#shadow2)" >
<animateTransform attributeName="transform"
attributeType="XML"
type="rotate"
from="0 60 70"
to="360 60 70"
dur="10s"
repeatCount="indefinite"/></line>
<g transform="translate(960.0, 0) scale(-1, 1) translate(-960.0, 0) rotate(180, 960.0, 540.0)" > <line x1="-1791" y1="845" x2="1782" y2="-388"  stroke="#005f73" stroke-width="24" stroke-linecap="round" filter="url(#shadow2)" >
<animateTransform attributeName="transform"
attributeType="XML"
type="rotate"
from="0 60 70"
to="360 60 70"
dur="10s"
repeatCount="indefinite"/></line>
 </g><g transform="translate(960.0, 0) scale(-1, 1) translate(-960.0, 0) " > <line x1="-1791" y1="845" x2="1782" y2="-388"  stroke="#005f73" stroke-width="24" stroke-linecap="round" filter="url(#shadow2)" >
<animateTransform attributeName="transform"
attributeType="XML"
type="rotate"
from="0 60 70"
to="360 60 70"
dur="10s"
repeatCount="indefinite"/></line>
<g transform="translate(960.0, 0) scale(-1, 1) translate(-960.0, 0) rotate(180, 960.0, 540.0)" > <line x1="-1791" y1="845" x2="1782" y2="-388"  stroke="#005f73" stroke-width="24" stroke-linecap="round" filter="url(#shadow2)" >
<animateTransform attributeName="transform"
attributeType="XML"
type="rotate"
from="0 60 70"
to="360 60 70"
dur="10s"
repeatCount="indefinite"/></line>
 </g> </g>
<line x1="-45" y1="-417" x2="-687" y2="490"  stroke="#9b2226" stroke-width="43" stroke-linecap="round" filter="url(#shadow2)" >
<animateTransform attributeName="transform"
attributeType="XML"
type="rotate"
from="0 60 70"
to="360 60 70"
dur="10s"
repeatCount="indefinite"/></line>
<g transform="translate(960.0, 0) scale(-1, 1) translate(-960.0, 0) rotate(180, 960.0, 540.0)" > <line x1="-45" y1="-417" x2="-687" y2="490"  stroke="#9b2226" stroke-width="43" stroke-linecap="round" filter="url(#shadow2)" >
<animateTransform attributeName="transform"
attributeType="XML"
type="rotate"
from="0 60 70"
to="360 60 70"
dur="10s"
repeatCount="indefinite"/></line>
 </g><g transform="translate(960.0, 0) scale(-1, 1) translate(-960.0, 0) " > <line x1="-45" y1="-417" x2="-687" y2="490"  stroke="#9b2226" stroke-width="43" stroke-linecap="round" filter="url(#shadow2)" >
<animateTransform attributeName="transform"
attributeType="XML"
type="rotate"
from="0 60 70"
to="360 60 70"
dur="10s"
repeatCount="indefinite"/></line>
<g transform="translate(960.0, 0) scale(-1, 1) translate(-960.0, 0) rotate(180, 960.0, 540.0)" > <line x1="-45" y1="-417" x2="-687" y2="490"  stroke="#9b2226" stroke-width="43" stroke-linecap="round" filter="url(#shadow2)" >
<animateTransform attributeName="transform"
attributeType="XML"
type="rotate"
from="0 60 70"
to="360 60 70"
dur="10s"
repeatCount="indefinite"/></line>
 </g> </g>
<line x1="328" y1="-551" x2="-1911" y2="1004"  stroke="#94d2bd" stroke-width="34" stroke-linecap="round" filter="url(#shadow2)" >
<animateTransform attributeName="transform"
attributeType="XML"
type="rotate"
from="0 60 70"
to="360 60 70"
dur="10s"
repeatCount="indefinite"/></line>
<g transform="translate(960.0, 0) scale(-1, 1) translate(-960.0, 0) rotate(180, 960.0, 540.0)" > <line x1="328" y1="-551" x2="-1911" y2="1004"  stroke="#94d2bd" stroke-width="34" stroke-linecap="round" filter="url(#shadow2)" >
<animateTransform attributeName="transform"
attributeType="XML"
type="rotate"
from="0 60 70"
to="360 60 70"
dur="10s"
repeatCount="indefinite"/></line>
 </g><g transform="translate(960.0, 0) scale(-1, 1) translate(-960.0, 0) " > <line x1="328" y1="-551" x2="-1911" y2="1004"  stroke="#94d2bd" stroke-width="34" stroke-linecap="round" filter="url(#shadow2)" >
<animateTransform attributeName="transform"
attributeType="XML"
type="rotate"
from="0 60 70"
to="360 60 70"
dur="10s"
repeatCount="indefinite"/></line>
<g transform="translate(960.0, 0) scale(-1, 1) translate(-960.0, 0) rotate(180, 960.0, 540.0)" > <line x1="328" y1="-551" x2="-1911" y2="1004"  stroke="#94d2bd" stroke-width="34" stroke-linecap="round" filter="url(#shadow2)" >
<animateTransform attributeName="transform"
attributeType="XML"
type="rotate"
from="0 60 70"
to="360 60 70"
dur="10s"
repeatCount="indefinite"/></line>
 </g> </g>
<line x1="967" y1="121" x2="1590" y2="-586"  stroke="#0a9396" stroke-width="14" stroke-linecap="round" filter="url(#shadow2)" >
<animateTransform attributeName="transform"
attributeType="XML"
type="rotate"
from="0 60 70"
to="360 60 70"
dur="10s"
repeatCount="indefinite"/></line>
<g transform="translate(960.0, 0) scale(-1, 1) translate(-960.0, 0) rotate(180, 960.0, 540.0)" > <line x1="967" y1="121" x2="1590" y2="-586"  stroke="#0a9396" stroke-width="14" stroke-linecap="round" filter="url(#shadow2)" >
<animateTransform attributeName="transform"
attributeType="XML"
type="rotate"
from="0 60 70"
to="360 60 70"
dur="10s"
repeatCount="indefinite"/></line>
 </g><g transform="translate(960.0, 0) scale(-1, 1) translate(-960.0, 0) " > <line x1="967" y1="121" x2="1590" y2="-586"  stroke="#0a9396" stroke-width="14" stroke-linecap="round" filter="url(#shadow2)" >
<animateTransform attributeName="transform"
attributeType="XML"
type="rotate"
from="0 60 70"
to="360 60 70"
dur="10s"
repeatCount="indefinite"/></line>
<g transform="translate(960.0, 0) scale(-1, 1) translate(-960.0, 0) rotate(180, 960.0, 540.0)" > <line x1="967" y1="121" x2="1590" y2="-586"  stroke="#0a9396" stroke-width="14" stroke-linecap="round" filter="url(#shadow2)" >
<animateTransform attributeName="transform"
attributeType="XML"
type="rotate"
from="0 60 70"
to="360 60 70"
dur="10s"
repeatCount="indefinite"/></line>
 </g> </g>
<line x1="946" y1="-656" x2="1143" y2="757"  stroke="#0a9396" stroke-width="48" stroke-linecap="round" filter="url(#shadow2)" >
<animateTransform attributeName="transform"
attributeType="XML"
type="rotate"
from="0 60 70"
to="360 60 70"
dur="10s"
repeatCount="indefinite"/></line>
<g transform="translate(960.0, 0) scale(-1, 1) translate(-960.0, 0) rotate(180, 960.0, 540.0)" > <line x1="946" y1="-656" x2="1143" y2="757"  stroke="#0a9396" stroke-width="48" stroke-linecap="round" filter="url(#shadow2)" >
<animateTransform attributeName="transform"
attributeType="XML"
type="rotate"
from="0 60 70"
to="360 60 70"
dur="10s"
repeatCount="indefinite"/></line>
 </g><g transform="translate(960.0, 0) scale(-1, 1) translate(-960.0, 0) " > <line x1="946" y1="-656" x2="1143" y2="757"  stroke="#0a9396" stroke-width="48" stroke-linecap="round" filter="url(#shadow2)" >
<animateTransform attributeName="transform"
attributeType="XML"
type="rotate"
from="0 60 70"
to="360 60 70"
dur="10s"
repeatCount="indefinite"/></line>
<g transform="translate(960.0, 0) scale(-1, 1) translate(-960.0, 0) rotate(180, 960.0, 540.0)" > <line x1="946" y1="-656" x2="1143" y2="757"  stroke="#0a9396" stroke-width="48" stroke-linecap="round" filter="url(#shadow2)" >
<animateTransform attributeName="transform"
attributeType="XML"
type="rotate"
from="0 60 70"
to="360 60 70"
dur="10s"
repeatCount="indefinite"/></line>
 </g> </g>
<line x1="-324" y1="1079" x2="-336" y2="668"  stroke="#0a9396" stroke-width="15" stroke-linecap="round" filter="url(#shadow2)" >
<animateTransform attributeName="transform"
attributeType="XML"
type="rotate"
from="0 60 70"
to="360 60 70"
dur="10s"
repeatCount="indefinite"/></line>
<g transform="translate(960.0, 0) scale(-1, 1) translate(-960.0, 0) rotate(180, 960.0, 540.0)" > <line x1="-324" y1="1079" x2="-336" y2="668"  stroke="#0a9396" stroke-width="15" stroke-linecap="round" filter="url(#shadow2)" >
<animateTransform attributeName="transform"
attributeType="XML"
type="rotate"
from="0 60 70"
to="360 60 70"
dur="10s"
repeatCount="indefinite"/></line>
 </g><g transform="translate(960.0, 0) scale(-1, 1) translate(-960.0, 0) " > <line x1="-324" y1="1079" x2="-336" y2="668"  stroke="#0a9396" stroke-width="15" stroke-linecap="round" filter="url(#shadow2)" >
<animateTransform attributeName="transform"
attributeType="XML"
type="rotate"
from="0 60 70"
to="360 60 70"
dur="10s"
repeatCount="indefinite"/></line>
<g transform="translate(960.0, 0) scale(-1, 1) translate(-960.0, 0) rotate(180, 960.0, 540.0)" > <line x1="-324" y1="1079" x2="-336" y2="668"  stroke="#0a9396" stroke-width="15" stroke-linecap="round" filter="url(#shadow2)" >
<animateTransform attributeName="transform"
attributeType="XML"
type="rotate"
from="0 60 70"
to="360 60 70"
dur="10s"
repeatCount="indefinite"/></line>
 </g> </g>
<line x1="-336" y1="110" x2="-153" y2="-774"  stroke="#94d2bd" stroke-width="54" stroke-linecap="round" filter="url(#shadow2)" >
<animateTransform attributeName="transform"
attributeType="XML"
type="rotate"
from="0 60 70"
to="360 60 70"
dur="10s"
repeatCount="indefinite"/></line>
<g transform="translate(960.0, 0) scale(-1, 1) translate(-960.0, 0) rotate(180, 960.0, 540.0)" > <line x1="-336" y1="110" x2="-153" y2="-774"  stroke="#94d2bd" stroke-width="54" stroke-linecap="round" filter="url(#shadow2)" >
<animateTransform attributeName="transform"
attributeType="XML"
type="rotate"
from="0 60 70"
to="360 60 70"
dur="10s"
repeatCount="indefinite"/></line>
 </g><g transform="translate(960.0, 0) scale(-1, 1) translate(-960.0, 0) " > <line x1="-336" y1="110" x2="-153" y2="-774"  stroke="#94d2bd" stroke-width="54" stroke-linecap="round" filter="url(#shadow2)" >
<animateTransform attributeName="transform"
attributeType="XML"
type="rotate"
from="0 60 70"
to="360 60 70"
dur="10s"
repeatCount="indefinite"/></line>
<g transform="translate(960.0, 0) scale(-1, 1) translate(-960.0, 0) rotate(180, 960.0, 540.0)" > <line x1="-336" y1="110" x2="-153" y2="-774"  stroke="#94d2bd" stroke-width="54" stroke-linecap="round" filter="url(#shadow2)" >
<animateTransform attributeName="transform"
attributeType="XML"
type="rotate"
from="0 60 70"
to="360 60 70"
dur="10s"
repeatCount="indefinite"/></line>
 </g> </g>
<line x1="950" y1="-462" x2="-1122" y2="-773"  stroke="#001219" stroke-width="35" stroke-linecap="round" filter="url(#shadow2)" >
<animateTransform attributeName="transform"
attributeType="XML"
type="rotate"
from="0 60 70"
to="360 60 70"
dur="10s"
repeatCount="indefinite"/></line>
<g transform="translate(960.0, 0) scale(-1, 1) translate(-960.0, 0) rotate(180, 960.0, 540.0)" > <line x1="950" y1="-462" x2="-1122" y2="-773"  stroke="#001219" stroke-width="35" stroke-linecap="round" filter="url(#shadow2)" >
<animateTransform attributeName="transform"
attributeType="XML"
type="rotate"
from="0 60 70"
to="360 60 70"
dur="10s"
repeatCount="indefinite"/></line>
 </g><g transform="translate(960.0, 0) scale(-1, 1) translate(-960.0, 0) " > <line x1="950" y1="-462" x2="-1122" y2="-773"  stroke="#001219" stroke-width="35" stroke-linecap="round" filter="url(#shadow2)" >
<animateTransform attributeName="transform"
attributeType="XML"
type="rotate"
from="0 60 70"
to="360 60 70"
dur="10s"
repeatCount="indefinite"/></line>
<g transform="translate(960.0, 0) scale(-1, 1) translate(-960.0, 0) rotate(180, 960.0, 540.0)" > <line x1="950" y1="-462" x2="-1122" y2="-773"  stroke="#001219" stroke-width="35" stroke-linecap="round" filter="url(#shadow2)" >
<animateTransform attributeName="transform"
attributeType="XML"
type="rotate"
from="0 60 70"
to="360 60 70"
dur="10s"
repeatCount="indefinite"/></line>
 </g> </g>
<line x1="253" y1="-162" x2="-44" y2="1013"  stroke="#ae2012" stroke-width="40" stroke-linecap="round" filter="url(#shadow2)" >
<animateTransform attributeName="transform"
attributeType="XML"
type="rotate"
from="0 60 70"
to="360 60 70"
dur="10s"
repeatCount="indefinite"/></line>
<g transform="translate(960.0, 0) scale(-1, 1) translate(-960.0, 0) rotate(180, 960.0, 540.0)" > <line x1="253" y1="-162" x2="-44" y2="1013"  stroke="#ae2012" stroke-width="40" stroke-linecap="round" filter="url(#shadow2)" >
<animateTransform attributeName="transform"
attributeType="XML"
type="rotate"
from="0 60 70"
to="360 60 70"
dur="10s"
repeatCount="indefinite"/></line>
 </g><g transform="translate(960.0, 0) scale(-1, 1) translate(-960.0, 0) " > <line x1="253" y1="-162" x2="-44" y2="1013"  stroke="#ae2012" stroke-width="40" stroke-linecap="round" filter="url(#shadow2)" >
<animateTransform attributeName="transform"
attributeType="XML"
type="rotate"
from="0 60 70"
to="360 60 70"
dur="10s"
repeatCount="indefinite"/></line>
<g transform="translate(960.0, 0) scale(-1, 1) translate(-960.0, 0) rotate(180, 960.0, 540.0)" > <line x1="253" y1="-162" x2="-44" y2="1013"  stroke="#ae2012" stroke-width="40" stroke-linecap="round" filter="url(#shadow2)" >
<animateTransform attributeName="transform"
attributeType="XML"
type="rotate"
from="0 60 70"
to="360 60 70"
dur="10s"
repeatCount="indefinite"/></line>
 </g> </g>
<line x1="1025" y1="825" x2="1810" y2="709"  stroke="#e9d8a6" stroke-width="40" stroke-linecap="round" filter="url(#shadow2)" >
<animateTransform attributeName="transform"
attributeType="XML"
type="rotate"
from="0 60 70"
to="360 60 70"
dur="10s"
repeatCount="indefinite"/></line>
<g transform="translate(960.0, 0) scale(-1, 1) translate(-960.0, 0) rotate(180, 960.0, 540.0)" > <line x1="1025" y1="825" x2="1810" y2="709"  stroke="#e9d8a6" stroke-width="40" stroke-linecap="round" filter="url(#shadow2)" >
<animateTransform attributeName="transform"
attributeType="XML"
type="rotate"
from="0 60 70"
to="360 60 70"
dur="10s"
repeatCount="indefinite"/></line>
 </g><g transform="translate(960.0, 0) scale(-1, 1) translate(-960.0, 0) " > <line x1="1025" y1="825" x2="1810" y2="709"  stroke="#e9d8a6" stroke-width="40" stroke-linecap="round" filter="url(#shadow2)" >
<animateTransform attributeName="transform"
attributeType="XML"
type="rotate"
from="0 60 70"
to="360 60 70"
dur="10s"
repeatCount="indefinite"/></line>
<g transform="translate(960.0, 0) scale(-1, 1) translate(-960.0, 0) rotate(180, 960.0, 540.0)" > <line x1="1025" y1="825" x2="1810" y2="709"  stroke="#e9d8a6" stroke-width="40" stroke-linecap="round" filter="url(#shadow2)" >
<animateTransform attributeName="transform"
attributeType="XML"
type="rotate"
from="0 60 70"
to="360 60 70"
dur="10s"
repeatCount="indefinite"/></line>
 </g> </g>
<line x1="-604" y1="-415" x2="-891" y2="-456"  stroke="#e9d8a6" stroke-width="59" stroke-linecap="round" filter="url(#shadow2)" >
<animateTransform attributeName="transform"
attributeType="XML"
type="rotate"
from="0 60 70"
to="360 60 70"
dur="10s"
repeatCount="indefinite"/></line>
<g transform="translate(960.0, 0) scale(-1, 1) translate(-960.0, 0) rotate(180, 960.0, 540.0)" > <line x1="-604" y1="-415" x2="-891" y2="-456"  stroke="#e9d8a6" stroke-width="59" stroke-linecap="round" filter="url(#shadow2)" >
<animateTransform attributeName="transform"
attributeType="XML"
type="rotate"
from="0 60 70"
to="360 60 70"
dur="10s"
repeatCount="indefinite"/></line>
 </g><g transform="translate(960.0, 0) scale(-1, 1) translate(-960.0, 0) " > <line x1="-604" y1="-415" x2="-891" y2="-456"  stroke="#e9d8a6" stroke-width="59" stroke-linecap="round" filter="url(#shadow2)" >
<animateTransform attributeName="transform"
attributeType="XML"
type="rotate"
from="0 60 70"
to="360 60 70"
dur="10s"
repeatCount="indefinite"/></line>
<g transform="translate(960.0, 0) scale(-1, 1) translate(-960.0, 0) rotate(180, 960.0, 540.0)" > <line x1="-604" y1="-415" x2="-891" y2="-456"  stroke="#e9d8a6" stroke-width="59" stroke-linecap="round" filter="url(#shadow2)" >
<animateTransform attributeName="transform"
attributeType="XML"
type="rotate"
from="0 60 70"
to="360 60 70"
dur="10s"
repeatCount="indefinite"/></line>
 </g> </g>
<line x1="-424" y1="207" x2="-1272" y2="151"  stroke="#ee9b00" stroke-width="34" stroke-linecap="round" filter="url(#shadow2)" >
<animateTransform attributeName="transform"
attributeType="XML"
type="rotate"
from="0 60 70"
to="360 60 70"
dur="10s"
repeatCount="indefinite"/></line>
<g transform="translate(960.0, 0) scale(-1, 1) translate(-960.0, 0) rotate(180, 960.0, 540.0)" > <line x1="-424" y1="207" x2="-1272" y2="151"  stroke="#ee9b00" stroke-width="34" stroke-linecap="round" filter="url(#shadow2)" >
<animateTransform attributeName="transform"
attributeType="XML"
type="rotate"
from="0 60 70"
to="360 60 70"
dur="10s"
repeatCount="indefinite"/></line>
 </g><g transform="translate(960.0, 0) scale(-1, 1) translate(-960.0, 0) " > <line x1="-424" y1="207" x2="-1272" y2="151"  stroke="#ee9b00" stroke-width="34" stroke-linecap="round" filter="url(#shadow2)" >
<animateTransform attributeName="transform"
attributeType="XML"
type="rotate"
from="0 60 70"
to="360 60 70"
dur="10s"
repeatCount="indefinite"/></line>
<g transform="translate(960.0, 0) scale(-1, 1) translate(-960.0, 0) rotate(180, 960.0, 540.0)" > <line x1="-424" y1="207" x2="-1272" y2="151"  stroke="#ee9b00" stroke-width="34" stroke-linecap="round" filter="url(#shadow2)" >
<animateTransform attributeName="transform"
attributeType="XML"
type="rotate"
from="0 60 70"
to="360 60 70"
dur="10s"
repeatCount="indefinite"/></line>
 </g> </g>
<line x1="-146" y1="108" x2="1794" y2="-219"  stroke="#bb3e03" stroke-width="38" stroke-linecap="round" filter="url(#shadow2)" >
<animateTransform attributeName="transform"
attributeType="XML"
type="rotate"
from="0 60 70"
to="360 60 70"
dur="10s"
repeatCount="indefinite"/></line>
<g transform="translate(960.0, 0) scale(-1, 1) translate(-960.0, 0) rotate(180, 960.0, 540.0)" > <line x1="-146" y1="108" x2="1794" y2="-219"  stroke="#bb3e03" stroke-width="38" stroke-linecap="round" filter="url(#shadow2)" >
<animateTransform attributeName="transform"
attributeType="XML"
type="rotate"
from="0 60 70"
to="360 60 70"
dur="10s"
repeatCount="indefinite"/></line>
 </g><g transform="translate(960.0, 0) scale(-1, 1) translate(-960.0, 0) " > <line x1="-146" y1="108" x2="1794" y2="-219"  stroke="#bb3e03" stroke-width="38" stroke-linecap="round" filter="url(#shadow2)" >
<animateTransform attributeName="transform"
attributeType="XML"
type="rotate"
from="0 60 70"
to="360 60 70"
dur="10s"
repeatCount="indefinite"/></line>
<g transform="translate(960.0, 0) scale(-1, 1) translate(-960.0, 0) rotate(180, 960.0, 540.0)" > <line x1="-146" y1="108" x2="1794" y2="-219"  stroke="#bb3e03" stroke-width="38" stroke-linecap="round" filter="url(#shadow2)" >
<animateTransform attributeName="transform"
attributeType="XML"
type="rotate"
from="0 60 70"
to="360 60 70"
dur="10s"
repeatCount="indefinite"/></line>
 </g> </g>
<line x1="-1383" y1="734" x2="507" y2="647"  stroke="#9b2226" stroke-width="14" stroke-linecap="round" filter="url(#shadow2)" >
<animateTransform attributeName="transform"
attributeType="XML"
type="rotate"
from="0 60 70"
to="360 60 70"
dur="10s"
repeatCount="indefinite"/></line>
<g transform="translate(960.0, 0) scale(-1, 1) translate(-960.0, 0) rotate(180, 960.0, 540.0)" > <line x1="-1383" y1="734" x2="507" y2="647"  stroke="#9b2226" stroke-width="14" stroke-linecap="round" filter="url(#shadow2)" >
<animateTransform attributeName="transform"
attributeType="XML"
type="rotate"
from="0 60 70"
to="360 60 70"
dur="10s"
repeatCount="indefinite"/></line>
 </g><g transform="translate(960.0, 0) scale(-1, 1) translate(-960.0, 0) " > <line x1="-1383" y1="734" x2="507" y2="647"  stroke="#9b2226" stroke-width="14" stroke-linecap="round" filter="url(#shadow2)" >
<animateTransform attributeName="transform"
attributeType="XML"
type="rotate"
from="0 60 70"
to="360 60 70"
dur="10s"
repeatCount="indefinite"/></line>
<g transform="translate(960.0, 0) scale(-1, 1) translate(-960.0, 0) rotate(180, 960.0, 540.0)" > <line x1="-1383" y1="734" x2="507" y2="647"  stroke="#9b2226" stroke-width="14" stroke-linecap="round" filter="url(#shadow2)" >
<animateTransform attributeName="transform"
attributeType="XML"
type="rotate"
from="0 60 70"
to="360 60 70"
dur="10s"
repeatCount="indefinite"/></line>
 </g> </g>
<line x1="734" y1="1039" x2="-1168" y2="361"  stroke="#0a9396" stroke-width="24" stroke-linecap="round" filter="url(#shadow2)" >
<animateTransform attributeName="transform"
attributeType="XML"
type="rotate"
from="0 60 70"
to="360 60 70"
dur="10s"
repeatCount="indefinite"/></line>
<g transform="translate(960.0, 0) scale(-1, 1) translate(-960.0, 0) rotate(180, 960.0, 540.0)" > <line x1="734" y1="1039" x2="-1168" y2="361"  stroke="#0a9396" stroke-width="24" stroke-linecap="round" filter="url(#shadow2)" >
<animateTransform attributeName="transform"
attributeType="XML"
type="rotate"
from="0 60 70"
to="360 60 70"
dur="10s"
repeatCount="indefinite"/></line>
 </g><g transform="translate(960.0, 0) scale(-1, 1) translate(-960.0, 0) " > <line x1="734" y1="1039" x2="-1168" y2="361"  stroke="#0a9396" stroke-width="24" stroke-linecap="round" filter="url(#shadow2)" >
<animateTransform attributeName="transform"
attributeType="XML"
type="rotate"
from="0 60 70"
to="360 60 70"
dur="10s"
repeatCount="indefinite"/></line>
<g transform="translate(960.0, 0) scale(-1, 1) translate(-960.0, 0) rotate(180, 960.0, 540.0)" > <line x1="734" y1="1039" x2="-1168" y2="361"  stroke="#0a9396" stroke-width="24" stroke-linecap="round" filter="url(#shadow2)" >
<animateTransform attributeName="transform"
attributeType="XML"
type="rotate"
from="0 60 70"
to="360 60 70"
dur="10s"
repeatCount="indefinite"/></line>
 </g> </g>
<line x1="1744" y1="-32" x2="430" y2="182"  stroke="#005f73" stroke-width="32" stroke-linecap="round" filter="url(#shadow2)" >
<animateTransform attributeName="transform"
attributeType="XML"
type="rotate"
from="0 60 70"
to="360 60 70"
dur="10s"
repeatCount="indefinite"/></line>
<g transform="translate(960.0, 0) scale(-1, 1) translate(-960.0, 0) rotate(180, 960.0, 540.0)" > <line x1="1744" y1="-32" x2="430" y2="182"  stroke="#005f73" stroke-width="32" stroke-linecap="round" filter="url(#shadow2)" >
<animateTransform attributeName="transform"
attributeType="XML"
type="rotate"
from="0 60 70"
to="360 60 70"
dur="10s"
repeatCount="indefinite"/></line>
 </g><g transform="translate(960.0, 0) scale(-1, 1) translate(-960.0, 0) " > <line x1="1744" y1="-32" x2="430" y2="182"  stroke="#005f73" stroke-width="32" stroke-linecap="round" filter="url(#shadow2)" >
<animateTransform attributeName="transform"
attributeType="XML"
type="rotate"
from="0 60 70"
to="360 60 70"
dur="10s"
repeatCount="indefinite"/></line>
<g transform="translate(960.0, 0) scale(-1, 1) translate(-960.0, 0) rotate(180, 960.0, 540.0)" > <line x1="1744" y1="-32" x2="430" y2="182"  stroke="#005f73" stroke-width="32" stroke-linecap="round" filter="url(#shadow2)" >
<animateTransform attributeName="transform"
attributeType="XML"
type="rotate"
from="0 60 70"
to="360 60 70"
dur="10s"
repeatCount="indefinite"/></line>
 </g> </g></svg>