<svg
xmlns="http://www.w3.org/2000/svg"
viewBox="0 0 1920 1080"
stroke="black" stroke-width="4">
<filter id='shadow' color-interpolation-filters="sRGB">
    <feDropShadow dx="2" dy="2" stdDeviation="2" flood-opacity="0.4"/>
</filter>
<filter id='shadow2' color-interpolation-filters="sRGB">
    <feDropShadow dx="0" dy="0" stdDeviation="5.5" flood-opacity=".8"/>
</filter>
<filter id='shadow3' color-interpolation-filters="sRGB">
<feDropShadow dx="10" dy="10" stdDeviation="0"
    flood-color="teal" flood-opacity="0.5"/>
</filter>
<g >
<rect x="0" y="0" width="100%" height="100%" fill="#ccc"
        stroke-width="8" stroke="none" />
</g>
    <line x1="-1057" y1="310" x2="451" y2="-510"  stroke="#ae2012" stroke-width="35" stroke-linecap="round" filter="url(#shadow2)" >
<animateTransform attributeName="transform"
attributeType="XML"
type="rotate"
from="0 60 70"
to="360 60 70"
dur="10s"
repeatCount="indefinite"/></line>
<g transform="translate(960.0, 0) scale(-1, 1) translate(-960.0, 0) rotate(180, 960.0, 540.0)" > <line x1="-1057" y1="310" x2="451" y2="-510"  stroke="#ae2012" stroke-width="35" stroke-linecap="round" filter="url(#shadow2)" >
<animateTransform attributeName="transform"
attributeType="XML"
type="rotate"
from="0 60 70"
to="360 60 70"
dur="10s"
repeatCount="indefinite"/></line>
 </g><g transform="translate(960.0, 0) scale(-1, 1) translate(-960.0, 0) " > <line x1="-1057" y1="310" x2="451" y2="-510"  stroke="#ae2012" stroke-width="35" stroke-linecap="round" filter="url(#shadow2)" >
<animateTransform attributeName="transform"
attributeType="XML"
type="rotate"
from="0 60 70"
to="360 60 70"
dur="10s"
repeatCount="indefinite"/></line>
<g transform="translate(960.0, 0) scale(-1, 1) translate(-960.0, 0) rotate(180, 960.0, 540.0)" > <line x1="-1057" y1="310" x2="451" y2="-510"  stroke="#ae2012" stroke-width="35" stroke-linecap="round" filter="url(#shadow2)" >
<animateTransform attributeName="transform"
attributeType="XML"
type="rotate"
from="0 60 70"
to="360 60 70"
dur="10s"
repeatCount="indefinite"/></line>
 </g> </g>
<line x1="-718" y1="201" x2="-474" y2="828"  stroke="#ca6702" stroke-width="41" stroke-linecap="round" filter="url(#shadow2)" >
<animateTransform attributeName="transform"
attributeType="XML"
type="rotate"
from="0 60 70"
to="360 60 70"
dur="10s"
repeatCount="indefinite"/></line>
<g transform="translate(960.0, 0) scale(-1, 1) translate(-960.0, 0) rotate(180, 960.0, 540.0)" > <line x1="-718" y1="201" x2="-474" y2="828"  stroke="#ca6702" stroke-width="41" stroke-linecap="round" filter="url(#shadow2)" >
<animateTransform attributeName="transform"
attributeType="XML"
type="rotate"
from="0 60 70"
to="360 60 70"
dur="10s"
repeatCount="indefinite"/></line>
 </g><g transform="translate(960.0, 0) scale(-1, 1) translate(-960.0, 0) " > <line x1="-718" y1="201" x2="-474" y2="828"  stroke="#ca6702" stroke-width="41" stroke-linecap="round" filter="url(#shadow2)" >
<animateTransform attributeName="transform"
attributeType="XML"
type="rotate"
from="0 60 70"
to="360 60 70"
dur="10s"
repeatCount="indefinite"/></line>
<g transform="translate(960.0, 0) scale(-1, 1) translate(-960.0, 0) rotate(180, 960.0, 540.0)" > <line x1="-718" y1="201" x2="-474" y2="828"  stroke="#ca6702" stroke-width="41" stroke-linecap="round" filter="url(#shadow2)" >
<animateTransform attributeName="transform"
attributeType="XML"
type="rotate"
from="0 60 70"
to="360 60 70"
dur="10s"
repeatCount="indefinite"/></line>
 </g> </g>
<line x1="-959" y1="-1034" x2="1075" y2="920"  stroke="#bb3e03" stroke-width="62" stroke-linecap="round" filter="url(#shadow2)" >
<animateTransform attributeName="transform"
attributeType="XML"
type="rotate"
from="0 60 70"
to="360 60 70"
dur="10s"
repeatCount="indefinite"/></line>
<g transform="translate(960.0, 0) scale(-1, 1) translate(-960.0, 0) rotate(180, 960.0, 540.0)" > <line x1="-959" y1="-1034" x2="1075" y2="920"  stroke="#bb3e03" stroke-width="62" stroke-linecap="round" filter="url(#shadow2)" >
<animateTransform attributeName="transform"
attributeType="XML"
type="rotate"
from="0 60 70"
to="360 60 70"
dur="10s"
repeatCount="indefinite"/></line>
 </g><g transform="translate(960.0, 0) scale(-1, 1) translate(-960.0, 0) " > <line x1="-959" y1="-1034" x2="1075" y2="920"  stroke="#bb3e03" stroke-width="62" stroke-linecap="round" filter="url(#shadow2)" >
<animateTransform attributeName="transform"
attributeType="XML"
type="rotate"
from="0 60 70"
to="360 60 70"
dur="10s"
repeatCount="indefinite"/></line>
<g transform="translate(960.0, 0) scale(-1, 1) translate(-960.0, 0) rotate(180, 960.0, 540.0)" > <line x1="-959" y1="-1034" x2="1075" y2="920"  stroke="#bb3e03" stroke-width="62" stroke-linecap="round" filter="url(#shadow2)" >
<animateTransform attributeName="transform"
attributeType="XML"
type="rotate"
from="0 60 70"
to="360 60 70"
dur="10s"
repeatCount="indefinite"/></line>
 </g> </g>
<line x1="1542" y1="236" x2="-322" y2="-908"  stroke="#94d2bd" stroke-width="12" stroke-linecap="round" filter="url(#shadow2)" >
<animateTransform attributeName="transform"
attributeType="XML"
type="rotate"
from="0 60 70"
to="360 60 70"
dur="10s"
repeatCount="indefinite"/></line>
<g transform="translate(960.0, 0) scale(-1, 1) translate(-960.0, 0) rotate(180, 960.0, 540.0)" > <line x1="1542" y1="236" x2="-322" y2="-908"  stroke="#94d2bd" stroke-width="12" stroke-linecap="round" filter="url(#shadow2)" >
<animateTransform attributeName="transform"
attributeType="XML"
type="rotate"
from="0 60 70"
to="360 60 70"
dur="10s"
repeatCount="indefinite"/></line>
 </g><g transform="translate(960.0, 0) scale(-1, 1) translate(-960.0, 0) " > <line x1="1542" y1="236" x2="-322" y2="-908"  stroke="#94d2bd" stroke-width="12" stroke-linecap="round" filter="url(#shadow2)" >
<animateTransform attributeName="transform"
attributeType="XML"
type="rotate"
from="0 60 70"
to="360 60 70"
dur="10s"
repeatCount="indefinite"/></line>
<g transform="translate(960.0, 0) scale(-1, 1) translate(-960.0, 0) rotate(180, 960.0, 540.0)" > <line x1="1542" y1="236" x2="-322" y2="-908"  stroke="#94d2bd" stroke-width="12" stroke-linecap="round" filter="url(#shadow2)" >
<animateTransform attributeName="transform"
attributeType="XML"
type="rotate"
from="0 60 70"
to="360 60 70"
dur="10s"
repeatCount="indefinite"/></line>
 </g> </g>
<line x1="872" y1="610" x2="-626" y2="324"  stroke="#9b2226" stroke-width="35" stroke-linecap="round" filter="url(#shadow2)" >
<animateTransform attributeName="transform"
attributeType="XML"
type="rotate"
from="0 60 70"
to="360 60 70"
dur="10s"
repeatCount="indefinite"/></line>
<g transform="translate(960.0, 0) scale(-1, 1) translate(-960.0, 0) rotate(180, 960.0, 540.0)" > <line x1="872" y1="610" x2="-626" y2="324"  stroke="#9b2226" stroke-width="35" stroke-linecap="round" filter="url(#shadow2)" >
<animateTransform attributeName="transform"
attributeType="XML"
type="rotate"
from="0 60 70"
to="360 60 70"
dur="10s"
repeatCount="indefinite"/></line>
 </g><g transform="translate(960.0, 0) scale(-1, 1) translate(-960.0, 0) " > <line x1="872" y1="610" x2="-626" y2="324"  stroke="#9b2226" stroke-width="35" stroke-linecap="round" filter="url(#shadow2)" >
<animateTransform attributeName="transform"
attributeType="XML"
type="rotate"
from="0 60 70"
to="360 60 70"
dur="10s"
repeatCount="indefinite"/></line>
<g transform="translate(960.0, 0) scale(-1, 1) translate(-960.0, 0) rotate(180, 960.0, 540.0)" > <line x1="872" y1="610" x2="-626" y2="324"  stroke="#9b2226" stroke-width="35" stroke-linecap="round" filter="url(#shadow2)" >
<animateTransform attributeName="transform"
attributeType="XML"
type="rotate"
from="0 60 70"
to="360 60 70"
dur="10s"
repeatCount="indefinite"/></line>
 </g> </g>
<line x1="-1489" y1="-229" x2="-402" y2="354"  stroke="#94d2bd" stroke-width="28" stroke-linecap="round" filter="url(#shadow2)" >
<animateTransform attributeName="transform"
attributeType="XML"
type="rotate"
from="0 60 70"
to="360 60 70"
dur="10s"
repeatCount="indefinite"/></line>
<g transform="translate(960.0, 0) scale(-1, 1) translate(-960.0, 0) rotate(180, 960.0, 540.0)" > <line x1="-1489" y1="-229" x2="-402" y2="354"  stroke="#94d2bd" stroke-width="28" stroke-linecap="round" filter="url(#shadow2)" >
<animateTransform attributeName="transform"
attributeType="XML"
type="rotate"
from="0 60 70"
to="360 60 70"
dur="10s"
repeatCount="indefinite"/></line>
 </g><g transform="translate(960.0, 0) scale(-1, 1) translate(-960.0, 0) " > <line x1="-1489" y1="-229" x2="-402" y2="354"  stroke="#94d2bd" stroke-width="28" stroke-linecap="round" filter="url(#shadow2)" >
<animateTransform attributeName="transform"
attributeType="XML"
type="rotate"
from="0 60 70"
to="360 60 70"
dur="10s"
repeatCount="indefinite"/></line>
<g transform="translate(960.0, 0) scale(-1, 1) translate(-960.0, 0) rotate(180, 960.0, 540.0)" > <line x1="-1489" y1="-229" x2="-402" y2="354"  stroke="#94d2bd" stroke-width="28" stroke-linecap="round" filter="url(#shadow2)" >
<animateTransform attributeName="transform"
attributeType="XML"
type="rotate"
from="0 60 70"
to="360 60 70"
dur="10s"
repeatCount="indefinite"/></line>
 </g> </g>
<line x1="-1631" y1="258" x2="607" y2="-857"  stroke="#ae2012" stroke-width="48" stroke-linecap="round" filter="url(#shadow2)" >
<animateTransform attributeName="transform"
attributeType="XML"
type="rotate"
from="0 60 70"
to="360 60 70"
dur="10s"
repeatCount="indefinite"/></line>
<g transform="translate(960.0, 0) scale(-1, 1) translate(-960.0, 0) rotate(180, 960.0, 540.0)" > <line x1="-1631" y1="258" x2="607" y2="-857"  stroke="#ae2012" stroke-width="48" stroke-linecap="round" filter="url(#shadow2)" >
<animateTransform attributeName="transform"
attributeType="XML"
type="rotate"
from="0 60 70"
to="360 60 70"
dur="10s"
repeatCount="indefinite"/></line>
 </g><g transform="translate(960.0, 0) scale(-1, 1) translate(-960.0, 0) " > <line x1="-1631" y1="258" x2="607" y2="-857"  stroke="#ae2012" stroke-width="48" stroke-linecap="round" filter="url(#shadow2)" >
<animateTransform attributeName="transform"
attributeType="XML"
type="rotate"
from="0 60 70"
to="360 60 70"
dur="10s"
repeatCount="indefinite"/></line>
<g transform="translate(960.0, 0) scale(-1, 1) translate(-960.0, 0) rotate(180, 960.0, 540.0)" > <line x1="-1631" y1="258" x2="607" y2="-857"  stroke="#ae2012" stroke-width="48" stroke-linecap="round" filter="url(#shadow2)" >
<animateTransform attributeName="transform"
attributeType="XML"
type="rotate"
from="0 60 70"
to="360 60 70"
dur="10s"
repeatCount="indefinite"/></line>
 </g> </g>
<line x1="-375" y1="968" x2="-1874" y2="656"  stroke="#ee9b00" stroke-width="11" stroke-linecap="round" filter="url(#shadow2)" >
<animateTransform attributeName="transform"
attributeType="XML"
type="rotate"
from="0 60 70"
to="360 60 70"
dur="10s"
repeatCount="indefinite"/></line>
<g transform="translate(960.0, 0) scale(-1, 1) translate(-960.0, 0) rotate(180, 960.0, 540.0)" > <line x1="-375" y1="968" x2="-1874" y2="656"  stroke="#ee9b00" stroke-width="11" stroke-linecap="round" filter="url(#shadow2)" >
<animateTransform attributeName="transform"
attributeType="XML"
type="rotate"
from="0 60 70"
to="360 60 70"
dur="10s"
repeatCount="indefinite"/></line>
 </g><g transform="translate(960.0, 0) scale(-1, 1) translate(-960.0, 0) " > <line x1="-375" y1="968" x2="-1874" y2="656"  stroke="#ee9b00" stroke-width="11" stroke-linecap="round" filter="url(#shadow2)" >
<animateTransform attributeName="transform"
attributeType="XML"
type="rotate"
from="0 60 70"
to="360 60 70"
dur="10s"
repeatCount="indefinite"/></line>
<g transform="translate(960.0, 0) scale(-1, 1) translate(-960.0, 0) rotate(180, 960.0, 540.0)" > <line x1="-375" y1="968" x2="-1874" y2="656"  stroke="#ee9b00" stroke-width="11" stroke-linecap="round" filter="url(#shadow2)" >
<animateTransform attributeName="transform"
attributeType="XML"
type="rotate"
from="0 60 70"
to="360 60 70"
dur="10s"
repeatCount="indefinite"/></line>
 </g> </g>
<line x1="977" y1="1017" x2="430" y2="-958"  stroke="#94d2bd" stroke-width="27" stroke-linecap="round" filter="url(#shadow2)" >
<animateTransform attributeName="transform"
attributeType="XML"
type="rotate"
from="0 60 70"
to="360 60 70"
dur="10s"
repeatCount="indefinite"/></line>
<g transform="translate(960.0, 0) scale(-1, 1) translate(-960.0, 0) rotate(180, 960.0, 540.0)" > <line x1="977" y1="1017" x2="430" y2="-958"  stroke="#94d2bd" stroke-width="27" stroke-linecap="round" filter="url(#shadow2)" >
<animateTransform attributeName="transform"
attributeType="XML"
type="rotate"
from="0 60 70"
to="360 60 70"
dur="10s"
repeatCount="indefinite"/></line>
 </g><g transform="translate(960.0, 0) scale(-1, 1) translate(-960.0, 0) " > <line x1="977" y1="1017" x2="430" y2="-958"  stroke="#94d2bd" stroke-width="27" stroke-linecap="round" filter="url(#shadow2)" >
<animateTransform attributeName="transform"
attributeType="XML"
type="rotate"
from="0 60 70"
to="360 60 70"
dur="10s"
repeatCount="indefinite"/></line>
<g transform="translate(960.0, 0) scale(-1, 1) translate(-960.0, 0) rotate(180, 960.0, 540.0)" > <line x1="977" y1="1017" x2="430" y2="-958"  stroke="#94d2bd" stroke-width="27" stroke-linecap="round" filter="url(#shadow2)" >
<animateTransform attributeName="transform"
attributeType="XML"
type="rotate"
from="0 60 70"
to="360 60 70"
dur="10s"
repeatCount="indefinite"/></line>
 </g> </g>
<line x1="-647" y1="482" x2="588" y2="1036"  stroke="#bb3e03" stroke-width="47" stroke-linecap="round" filter="url(#shadow2)" >
<animateTransform attributeName="transform"
attributeType="XML"
type="rotate"
from="0 60 70"
to="360 60 70"
dur="10s"
repeatCount="indefinite"/></line>
<g transform="translate(960.0, 0) scale(-1, 1) translate(-960.0, 0) rotate(180, 960.0, 540.0)" > <line x1="-647" y1="482" x2="588" y2="1036"  stroke="#bb3e03" stroke-width="47" stroke-linecap="round" filter="url(#shadow2)" >
<animateTransform attributeName="transform"
attributeType="XML"
type="rotate"
from="0 60 70"
to="360 60 70"
dur="10s"
repeatCount="indefinite"/></line>
 </g><g transform="translate(960.0, 0) scale(-1, 1) translate(-960.0, 0) " > <line x1="-647" y1="482" x2="588" y2="1036"  stroke="#bb3e03" stroke-width="47" stroke-linecap="round" filter="url(#shadow2)" >
<animateTransform attributeName="transform"
attributeType="XML"
type="rotate"
from="0 60 70"
to="360 60 70"
dur="10s"
repeatCount="indefinite"/></line>
<g transform="translate(960.0, 0) scale(-1, 1) translate(-960.0, 0) rotate(180, 960.0, 540.0)" > <line x1="-647" y1="482" x2="588" y2="1036"  stroke="#bb3e03" stroke-width="47" stroke-linecap="round" filter="url(#shadow2)" >
<animateTransform attributeName="transform"
attributeType="XML"
type="rotate"
from="0 60 70"
to="360 60 70"
dur="10s"
repeatCount="indefinite"/></line>
 </g> </g>
<line x1="598" y1="254" x2="1208" y2="144"  stroke="#e9d8a6" stroke-width="53" stroke-linecap="round" filter="url(#shadow2)" >
<animateTransform attributeName="transform"
attributeType="XML"
type="rotate"
from="0 60 70"
to="360 60 70"
dur="10s"
repeatCount="indefinite"/></line>
<g transform="translate(960.0, 0) scale(-1, 1) translate(-960.0, 0) rotate(180, 960.0, 540.0)" > <line x1="598" y1="254" x2="1208" y2="144"  stroke="#e9d8a6" stroke-width="53" stroke-linecap="round" filter="url(#shadow2)" >
<animateTransform attributeName="transform"
attributeType="XML"
type="rotate"
from="0 60 70"
to="360 60 70"
dur="10s"
repeatCount="indefinite"/></line>
 </g><g transform="translate(960.0, 0) scale(-1, 1) translate(-960.0, 0) " > <line x1="598" y1="254" x2="1208" y2="144"  stroke="#e9d8a6" stroke-width="53" stroke-linecap="round" filter="url(#shadow2)" >
<animateTransform attributeName="transform"
attributeType="XML"
type="rotate"
from="0 60 70"
to="360 60 70"
dur="10s"
repeatCount="indefinite"/></line>
<g transform="translate(960.0, 0) scale(-1, 1) translate(-960.0, 0) rotate(180, 960.0, 540.0)" > <line x1="598" y1="254" x2="1208" y2="144"  stroke="#e9d8a6" stroke-width="53" stroke-linecap="round" filter="url(#shadow2)" >
<animateTransform attributeName="transform"
attributeType="XML"
type="rotate"
from="0 60 70"
to="360 60 70"
dur="10s"
repeatCount="indefinite"/></line>
 </g> </g>
<line x1="-1275" y1="-974" x2="-679" y2="488"  stroke="#ca6702" stroke-width="29" stroke-linecap="round" filter="url(#shadow2)" >
<animateTransform attributeName="transform"
attributeType="XML"
type="rotate"
from="0 60 70"
to="360 60 70"
dur="10s"
repeatCount="indefinite"/></line>
<g transform="translate(960.0, 0) scale(-1, 1) translate(-960.0, 0) rotate(180, 960.0, 540.0)" > <line x1="-1275" y1="-974" x2="-679" y2="488"  stroke="#ca6702" stroke-width="29" stroke-linecap="round" filter="url(#shadow2)" >
<animateTransform attributeName="transform"
attributeType="XML"
type="rotate"
from="0 60 70"
to="360 60 70"
dur="10s"
repeatCount="indefinite"/></line>
 </g><g transform="translate(960.0, 0) scale(-1, 1) translate(-960.0, 0) " > <line x1="-1275" y1="-974" x2="-679" y2="488"  stroke="#ca6702" stroke-width="29" stroke-linecap="round" filter="url(#shadow2)" >
<animateTransform attributeName="transform"
attributeType="XML"
type="rotate"
from="0 60 70"
to="360 60 70"
dur="10s"
repeatCount="indefinite"/></line>
<g transform="translate(960.0, 0) scale(-1, 1) translate(-960.0, 0) rotate(180, 960.0, 540.0)" > <line x1="-1275" y1="-974" x2="-679" y2="488"  stroke="#ca6702" stroke-width="29" stroke-linecap="round" filter="url(#shadow2)" >
<animateTransform attributeName="transform"
attributeType="XML"
type="rotate"
from="0 60 70"
to="360 60 70"
dur="10s"
repeatCount="indefinite"/></line>
 </g> </g>
<line x1="-1452" y1="-264" x2="-1437" y2="714"  stroke="#e9d8a6" stroke-width="40" stroke-linecap="round" filter="url(#shadow2)" >
<animateTransform attributeName="transform"
attributeType="XML"
type="rotate"
from="0 60 70"
to="360 60 70"
dur="10s"
repeatCount="indefinite"/></line>
<g transform="translate(960.0, 0) scale(-1, 1) translate(-960.0, 0) rotate(180, 960.0, 540.0)" > <line x1="-1452" y1="-264" x2="-1437" y2="714"  stroke="#e9d8a6" stroke-width="40" stroke-linecap="round" filter="url(#shadow2)" >
<animateTransform attributeName="transform"
attributeType="XML"
type="rotate"
from="0 60 70"
to="360 60 70"
dur="10s"
repeatCount="indefinite"/></line>
 </g><g transform="translate(960.0, 0) scale(-1, 1) translate(-960.0, 0) " > <line x1="-1452" y1="-264" x2="-1437" y2="714"  stroke="#e9d8a6" stroke-width="40" stroke-linecap="round" filter="url(#shadow2)" >
<animateTransform attributeName="transform"
attributeType="XML"
type="rotate"
from="0 60 70"
to="360 60 70"
dur="10s"
repeatCount="indefinite"/></line>
<g transform="translate(960.0, 0) scale(-1, 1) translate(-960.0, 0) rotate(180, 960.0, 540.0)" > <line x1="-1452" y1="-264" x2="-1437" y2="714"  stroke="#e9d8a6" stroke-width="40" stroke-linecap="round" filter="url(#shadow2)" >
<animateTransform attributeName="transform"
attributeType="XML"
type="rotate"
from="0 60 70"
to="360 60 70"
dur="10s"
repeatCount="indefinite"/></line>
 </g> </g>
<line x1="-1904" y1="-126" x2="-1436" y2="-816"  stroke="#bb3e03" stroke-width="12" stroke-linecap="round" filter="url(#shadow2)" >
<animateTransform attributeName="transform"
attributeType="XML"
type="rotate"
from="0 60 70"
to="360 60 70"
dur="10s"
repeatCount="indefinite"/></line>
<g transform="translate(960.0, 0) scale(-1, 1) translate(-960.0, 0) rotate(180, 960.0, 540.0)" > <line x1="-1904" y1="-126" x2="-1436" y2="-816"  stroke="#bb3e03" stroke-width="12" stroke-linecap="round" filter="url(#shadow2)" >
<animateTransform attributeName="transform"
attributeType="XML"
type="rotate"
from="0 60 70"
to="360 60 70"
dur="10s"
repeatCount="indefinite"/></line>
 </g><g transform="translate(960.0, 0) scale(-1, 1) translate(-960.0, 0) " > <line x1="-1904" y1="-126" x2="-1436" y2="-816"  stroke="#bb3e03" stroke-width="12" stroke-linecap="round" filter="url(#shadow2)" >
<animateTransform attributeName="transform"
attributeType="XML"
type="rotate"
from="0 60 70"
to="360 60 70"
dur="10s"
repeatCount="indefinite"/></line>
<g transform="translate(960.0, 0) scale(-1, 1) translate(-960.0, 0) rotate(180, 960.0, 540.0)" > <line x1="-1904" y1="-126" x2="-1436" y2="-816"  stroke="#bb3e03" stroke-width="12" stroke-linecap="round" filter="url(#shadow2)" >
<animateTransform attributeName="transform"
attributeType="XML"
type="rotate"
from="0 60 70"
to="360 60 70"
dur="10s"
repeatCount="indefinite"/></line>
 </g> </g>
<line x1="346" y1="603" x2="-1859" y2="-5"  stroke="#0a9396" stroke-width="53" stroke-linecap="round" filter="url(#shadow2)" >
<animateTransform attributeName="transform"
attributeType="XML"
type="rotate"
from="0 60 70"
to="360 60 70"
dur="10s"
repeatCount="indefinite"/></line>
<g transform="translate(960.0, 0) scale(-1, 1) translate(-960.0, 0) rotate(180, 960.0, 540.0)" > <line x1="346" y1="603" x2="-1859" y2="-5"  stroke="#0a9396" stroke-width="53" stroke-linecap="round" filter="url(#shadow2)" >
<animateTransform attributeName="transform"
attributeType="XML"
type="rotate"
from="0 60 70"
to="360 60 70"
dur="10s"
repeatCount="indefinite"/></line>
 </g><g transform="translate(960.0, 0) scale(-1, 1) translate(-960.0, 0) " > <line x1="346" y1="603" x2="-1859" y2="-5"  stroke="#0a9396" stroke-width="53" stroke-linecap="round" filter="url(#shadow2)" >
<animateTransform attributeName="transform"
attributeType="XML"
type="rotate"
from="0 60 70"
to="360 60 70"
dur="10s"
repeatCount="indefinite"/></line>
<g transform="translate(960.0, 0) scale(-1, 1) translate(-960.0, 0) rotate(180, 960.0, 540.0)" > <line x1="346" y1="603" x2="-1859" y2="-5"  stroke="#0a9396" stroke-width="53" stroke-linecap="round" filter="url(#shadow2)" >
<animateTransform attributeName="transform"
attributeType="XML"
type="rotate"
from="0 60 70"
to="360 60 70"
dur="10s"
repeatCount="indefinite"/></line>
 </g> </g>
<line x1="386" y1="-193" x2="-608" y2="259"  stroke="#ee9b00" stroke-width="14" stroke-linecap="round" filter="url(#shadow2)" >
<animateTransform attributeName="transform"
attributeType="XML"
type="rotate"
from="0 60 70"
to="360 60 70"
dur="10s"
repeatCount="indefinite"/></line>
<g transform="translate(960.0, 0) scale(-1, 1) translate(-960.0, 0) rotate(180, 960.0, 540.0)" > <line x1="386" y1="-193" x2="-608" y2="259"  stroke="#ee9b00" stroke-width="14" stroke-linecap="round" filter="url(#shadow2)" >
<animateTransform attributeName="transform"
attributeType="XML"
type="rotate"
from="0 60 70"
to="360 60 70"
dur="10s"
repeatCount="indefinite"/></line>
 </g><g transform="translate(960.0, 0) scale(-1, 1) translate(-960.0, 0) " > <line x1="386" y1="-193" x2="-608" y2="259"  stroke="#ee9b00" stroke-width="14" stroke-linecap="round" filter="url(#shadow2)" >
<animateTransform attributeName="transform"
attributeType="XML"
type="rotate"
from="0 60 70"
to="360 60 70"
dur="10s"
repeatCount="indefinite"/></line>
<g transform="translate(960.0, 0) scale(-1, 1) translate(-960.0, 0) rotate(180, 960.0, 540.0)" > <line x1="386" y1="-193" x2="-608" y2="259"  stroke="#ee9b00" stroke-width="14" stroke-linecap="round" filter="url(#shadow2)" >
<animateTransform attributeName="transform"
attributeType="XML"
type="rotate"
from="0 60 70"
to="360 60 70"
dur="10s"
repeatCount="indefinite"/></line>
 </g> </g></svg>