
        <svg
        xmlns="http://www.w3.org/2000/svg" 
        viewBox="0 0 1000 1000"
        width="800">
        <filter id='shadow' color-interpolation-filters="sRGB">
            <feDropShadow dx="2" dy="2" stdDeviation="2" flood-opacity="0.4"/>
        </filter>
    <circle cx="67" cy="180" r="57"fill="#de9ed6" stroke="none"fill-opacity="0.8"filter="url(#shadow)"/><circle cx="266" cy="88" r="34"fill="#393b79" stroke="none"fill-opacity="0.8"filter="url(#shadow)"/><circle cx="973" cy="459" r="81"fill="#ce6dbd" stroke="none"fill-opacity="0.8"filter="url(#shadow)"/><circle cx="86" cy="611" r="82"fill="#e7969c" stroke="none"fill-opacity="0.8"filter="url(#shadow)"/><circle cx="515" cy="218" r="87"fill="#8ca252" stroke="none"fill-opacity="0.8"filter="url(#shadow)"/><circle cx="646" cy="948" r="32"fill="#b5cf6b" stroke="none"fill-opacity="0.8"filter="url(#shadow)"/><circle cx="590" cy="774" r="95"fill="#637939" stroke="none"fill-opacity="0.8"filter="url(#shadow)"/><circle cx="662" cy="432" r="88"fill="#e7969c" stroke="none"fill-opacity="0.8"filter="url(#shadow)"/><circle cx="310" cy="528" r="11"fill="#637939" stroke="none"fill-opacity="0.8"filter="url(#shadow)"/><circle cx="677" cy="177" r="56"fill="#843c39" stroke="none"fill-opacity="0.8"filter="url(#shadow)"/><circle cx="150" cy="57" r="75"fill="#e7ba52" stroke="none"fill-opacity="0.8"filter="url(#shadow)"/><circle cx="298" cy="451" r="33"fill="#e7969c" stroke="none"fill-opacity="0.8"filter="url(#shadow)"/><circle cx="410" cy="772" r="64"fill="" stroke="none"fill-opacity="0.8"filter="url(#shadow)"/><circle cx="304" cy="595" r="38"fill="#e7969c" stroke="none"fill-opacity="0.8"filter="url(#shadow)"/><circle cx="767" cy="909" r="50"fill="" stroke="none"fill-opacity="0.8"filter="url(#shadow)"/><circle cx="504" cy="474" r="63"fill="#7b4173" stroke="none"fill-opacity="0.8"filter="url(#shadow)"/><circle cx="529" cy="639" r="18"fill="#e7ba52" stroke="none"fill-opacity="0.8"filter="url(#shadow)"/><circle cx="61" cy="890" r="48"fill="#393b79" stroke="none"fill-opacity="0.8"filter="url(#shadow)"/><circle cx="803" cy="155" r="71"fill="#a55194" stroke="none"fill-opacity="0.8"filter="url(#shadow)"/><circle cx="98" cy="306" r="59"fill="#637939" stroke="none"fill-opacity="0.8"filter="url(#shadow)"/><circle cx="977" cy="256" r="75"fill="#8c6d31" stroke="none"fill-opacity="0.8"filter="url(#shadow)"/><circle cx="345" cy="354" r="36"fill="#9c9ede" stroke="none"fill-opacity="0.8"filter="url(#shadow)"/><circle cx="882" cy="12" r="88"fill="#ce6dbd" stroke="none"fill-opacity="0.8"filter="url(#shadow)"/><circle cx="774" cy="993" r="22"fill="#b5cf6b" stroke="none"fill-opacity="0.8"filter="url(#shadow)"/><circle cx="750" cy="14" r="17"fill="#bd9e39" stroke="none"fill-opacity="0.8"filter="url(#shadow)"/><circle cx="785" cy="737" r="32"fill="#6b6ecf" stroke="none"fill-opacity="0.8"filter="url(#shadow)"/><circle cx="398" cy="399" r="33"fill="#637939" stroke="none"fill-opacity="0.8"filter="url(#shadow)"/><circle cx="183" cy="730" r="43"fill="#de9ed6" stroke="none"fill-opacity="0.8"filter="url(#shadow)"/><circle cx="443" cy="922" r="12"fill="#a55194" stroke="none"fill-opacity="0.8"filter="url(#shadow)"/><circle cx="952" cy="922" r="30"fill="" stroke="none"fill-opacity="0.8"filter="url(#shadow)"/><circle cx="34" cy="449" r="33"fill="#ce6dbd" stroke="none"fill-opacity="0.8"filter="url(#shadow)"/><circle cx="803" cy="331" r="64"fill="#de9ed6" stroke="none"fill-opacity="0.8"filter="url(#shadow)"/><circle cx="477" cy="924" r="22"fill="" stroke="none"fill-opacity="0.8"filter="url(#shadow)"/><circle cx="187" cy="835" r="42"fill="#e7cb94" stroke="none"fill-opacity="0.8"filter="url(#shadow)"/><circle cx="704" cy="639" r="32"fill="#bd9e39" stroke="none"fill-opacity="0.8"filter="url(#shadow)"/><circle cx="109" cy="788" r="36"fill="" stroke="none"fill-opacity="0.8"filter="url(#shadow)"/><circle cx="23" cy="280" r="19"fill="#5254a3" stroke="none"fill-opacity="0.8"filter="url(#shadow)"/><circle cx="459" cy="587" r="45"fill="#ce6dbd" stroke="none"fill-opacity="0.8"filter="url(#shadow)"/><circle cx="280" cy="929" r="68"fill="#5254a3" stroke="none"fill-opacity="0.8"filter="url(#shadow)"/><circle cx="928" cy="725" r="61"fill="#8ca252" stroke="none"fill-opacity="0.8"filter="url(#shadow)"/><circle cx="483" cy="724" r="10"fill="#e7969c" stroke="none"fill-opacity="0.8"filter="url(#shadow)"/><circle cx="285" cy="183" r="53"fill="#393b79" stroke="none"fill-opacity="0.8"filter="url(#shadow)"/><circle cx="615" cy="66" r="10"fill="#637939" stroke="none"fill-opacity="0.8"filter="url(#shadow)"/><circle cx="901" cy="989" r="46"fill="#ce6dbd" stroke="none"fill-opacity="0.8"filter="url(#shadow)"/><circle cx="392" cy="227" r="30"fill="#e7ba52" stroke="none"fill-opacity="0.8"filter="url(#shadow)"/><circle cx="854" cy="806" r="44"fill="#de9ed6" stroke="none"fill-opacity="0.8"filter="url(#shadow)"/><circle cx="830" cy="658" r="11"fill="#e7ba52" stroke="none"fill-opacity="0.8"filter="url(#shadow)"/><circle cx="521" cy="96" r="14"fill="#8c6d31" stroke="none"fill-opacity="0.8"filter="url(#shadow)"/><circle cx="3" cy="357" r="28"fill="#ad494a" stroke="none"fill-opacity="0.8"filter="url(#shadow)"/><circle cx="113" cy="488" r="9"fill="#bd9e39" stroke="none"fill-opacity="0.8"filter="url(#shadow)"/><circle cx="865" cy="525" r="25"fill="#d6616b" stroke="none"fill-opacity="0.8"filter="url(#shadow)"/><circle cx="447" cy="873" r="28"fill="#843c39" stroke="none"fill-opacity="0.8"filter="url(#shadow)"/><circle cx="134" cy="433" r="26"fill="#5254a3" stroke="none"fill-opacity="0.8"filter="url(#shadow)"/><circle cx="726" cy="110" r="8"fill="#d6616b" stroke="none"fill-opacity="0.8"filter="url(#shadow)"/><circle cx="398" cy="495" r="13"fill="#e7cb94" stroke="none"fill-opacity="0.8"filter="url(#shadow)"/><circle cx="590" cy="564" r="18"fill="#bd9e39" stroke="none"fill-opacity="0.8"filter="url(#shadow)"/><circle cx="434" cy="131" r="17"fill="" stroke="none"fill-opacity="0.8"filter="url(#shadow)"/><circle cx="553" cy="902" r="22"fill="#e7ba52" stroke="none"fill-opacity="0.8"filter="url(#shadow)"/><circle cx="365" cy="590" r="18"fill="#e7ba52" stroke="none"fill-opacity="0.8"filter="url(#shadow)"/><circle cx="423" cy="39" r="47"fill="#bd9e39" stroke="none"fill-opacity="0.8"filter="url(#shadow)"/><circle cx="424" cy="315" r="42"fill="#7b4173" stroke="none"fill-opacity="0.8"filter="url(#shadow)"/><circle cx="847" cy="464" r="9"fill="#ad494a" stroke="none"fill-opacity="0.8"filter="url(#shadow)"/><circle cx="729" cy="803" r="22"fill="#5254a3" stroke="none"fill-opacity="0.8"filter="url(#shadow)"/><circle cx="191" cy="511" r="59"fill="#bd9e39" stroke="none"fill-opacity="0.8"filter="url(#shadow)"/><circle cx="379" cy="919" r="26"fill="" stroke="none"fill-opacity="0.8"filter="url(#shadow)"/><circle cx="953" cy="598" r="31"fill="" stroke="none"fill-opacity="0.8"filter="url(#shadow)"/><circle cx="383" cy="133" r="17"fill="#ce6dbd" stroke="none"fill-opacity="0.8"filter="url(#shadow)"/><circle cx="348" cy="12" r="25"fill="#ce6dbd" stroke="none"fill-opacity="0.8"filter="url(#shadow)"/><circle cx="783" cy="786" r="9"fill="#e7969c" stroke="none"fill-opacity="0.8"filter="url(#shadow)"/><circle cx="451" cy="984" r="12"fill="#e7ba52" stroke="none"fill-opacity="0.8"filter="url(#shadow)"/><circle cx="373" cy="989" r="25"fill="#b5cf6b" stroke="none"fill-opacity="0.8"filter="url(#shadow)"/><circle cx="44" cy="978" r="16"fill="#a55194" stroke="none"fill-opacity="0.8"filter="url(#shadow)"/><circle cx="322" cy="804" r="9"fill="" stroke="none"fill-opacity="0.8"filter="url(#shadow)"/><circle cx="493" cy="369" r="12"fill="#ad494a" stroke="none"fill-opacity="0.8"filter="url(#shadow)"/><circle cx="170" cy="347" r="9"fill="#8ca252" stroke="none"fill-opacity="0.8"filter="url(#shadow)"/><circle cx="714" cy="574" r="16"fill="#cedb9c" stroke="none"fill-opacity="0.8"filter="url(#shadow)"/><circle cx="679" cy="889" r="22"fill="#8c6d31" stroke="none"fill-opacity="0.8"filter="url(#shadow)"/><circle cx="850" cy="434" r="9"fill="#5254a3" stroke="none"fill-opacity="0.8"filter="url(#shadow)"/><circle cx="36" cy="19" r="19"fill="#de9ed6" stroke="none"fill-opacity="0.8"filter="url(#shadow)"/><circle cx="268" cy="772" r="38"fill="#ad494a" stroke="none"fill-opacity="0.8"filter="url(#shadow)"/><circle cx="621" cy="626" r="24"fill="#6b6ecf" stroke="none"fill-opacity="0.8"filter="url(#shadow)"/><circle cx="35" cy="118" r="11"fill="#8ca252" stroke="none"fill-opacity="0.8"filter="url(#shadow)"/><circle cx="970" cy="643" r="10"fill="#8c6d31" stroke="none"fill-opacity="0.8"filter="url(#shadow)"/><circle cx="281" cy="269" r="22"fill="#637939" stroke="none"fill-opacity="0.8"filter="url(#shadow)"/><circle cx="867" cy="259" r="29"fill="#843c39" stroke="none"fill-opacity="0.8"filter="url(#shadow)"/><circle cx="522" cy="12" r="40"fill="#637939" stroke="none"fill-opacity="0.8"filter="url(#shadow)"/><circle cx="518" cy="911" r="13"fill="#cedb9c" stroke="none"fill-opacity="0.8"filter="url(#shadow)"/><circle cx="955" cy="812" r="26"fill="#ad494a" stroke="none"fill-opacity="0.8"filter="url(#shadow)"/><circle cx="111" cy="382" r="16"fill="" stroke="none"fill-opacity="0.8"filter="url(#shadow)"/><circle cx="855" cy="387" r="10"fill="#8ca252" stroke="none"fill-opacity="0.8"filter="url(#shadow)"/><circle cx="352" cy="286" r="19"fill="#843c39" stroke="none"fill-opacity="0.8"filter="url(#shadow)"/><circle cx="3" cy="79" r="33"fill="#d6616b" stroke="none"fill-opacity="0.8"filter="url(#shadow)"/><circle cx="959" cy="126" r="37"fill="#e7ba52" stroke="none"fill-opacity="0.8"filter="url(#shadow)"/><circle cx="166" cy="918" r="28"fill="#8c6d31" stroke="none"fill-opacity="0.8"filter="url(#shadow)"/><circle cx="875" cy="651" r="11"fill="#ce6dbd" stroke="none"fill-opacity="0.8"filter="url(#shadow)"/><circle cx="736" cy="755" r="20"fill="#de9ed6" stroke="none"fill-opacity="0.8"filter="url(#shadow)"/><circle cx="536" cy="680" r="12"fill="#e7cb94" stroke="none"fill-opacity="0.8"filter="url(#shadow)"/><circle cx="275" cy="337" r="33"fill="#e7ba52" stroke="none"fill-opacity="0.8"filter="url(#shadow)"/><circle cx="402" cy="662" r="27"fill="#de9ed6" stroke="none"fill-opacity="0.8"filter="url(#shadow)"/><circle cx="483" cy="845" r="16"fill="#cedb9c" stroke="none"fill-opacity="0.8"filter="url(#shadow)"/><circle cx="772" cy="545" r="28"fill="#8ca252" stroke="none"fill-opacity="0.8"filter="url(#shadow)"/><circle cx="644" cy="874" r="11"fill="#393b79" stroke="none"fill-opacity="0.8"filter="url(#shadow)"/><circle cx="791" cy="71" r="12"fill="#5254a3" stroke="none"fill-opacity="0.8"filter="url(#shadow)"/><circle cx="537" cy="349" r="18"fill="#d6616b" stroke="none"fill-opacity="0.8"filter="url(#shadow)"/><circle cx="840" cy="573" r="20"fill="#637939" stroke="none"fill-opacity="0.8"filter="url(#shadow)"/><circle cx="867" cy="614" r="20"fill="#393b79" stroke="none"fill-opacity="0.8"filter="url(#shadow)"/><circle cx="649" cy="106" r="16"fill="#ad494a" stroke="none"fill-opacity="0.8"filter="url(#shadow)"/><circle cx="818" cy="609" r="11"fill="#ce6dbd" stroke="none"fill-opacity="0.8"filter="url(#shadow)"/><circle cx="131" cy="998" r="10"fill="#637939" stroke="none"fill-opacity="0.8"filter="url(#shadow)"/><circle cx="340" cy="678" r="15"fill="#8ca252" stroke="none"fill-opacity="0.8"filter="url(#shadow)"/><circle cx="617" cy="297" r="11"fill="#8c6d31" stroke="none"fill-opacity="0.8"filter="url(#shadow)"/><circle cx="898" cy="298" r="11"fill="" stroke="none"fill-opacity="0.8"filter="url(#shadow)"/><circle cx="267" cy="702" r="25"fill="#ad494a" stroke="none"fill-opacity="0.8"filter="url(#shadow)"/><circle cx="54" cy="779" r="12"fill="#bd9e39" stroke="none"fill-opacity="0.8"filter="url(#shadow)"/><circle cx="50" cy="721" r="17"fill="" stroke="none"fill-opacity="0.8"filter="url(#shadow)"/><circle cx="392" cy="871" r="23"fill="#9c9ede" stroke="none"fill-opacity="0.8"filter="url(#shadow)"/><circle cx="595" cy="118" r="9"fill="#b5cf6b" stroke="none"fill-opacity="0.8"filter="url(#shadow)"/><circle cx="207" cy="370" r="34"fill="" stroke="none"fill-opacity="0.8"filter="url(#shadow)"/><circle cx="680" cy="44" r="28"fill="#ce6dbd" stroke="none"fill-opacity="0.8"filter="url(#shadow)"/><circle cx="767" cy="631" r="15"fill="#637939" stroke="none"fill-opacity="0.8"filter="url(#shadow)"/><circle cx="441" cy="678" r="12"fill="#393b79" stroke="none"fill-opacity="0.8"filter="url(#shadow)"/><circle cx="657" cy="630" r="11"fill="#ad494a" stroke="none"fill-opacity="0.8"filter="url(#shadow)"/><circle cx="981" cy="965" r="8"fill="#ce6dbd" stroke="none"fill-opacity="0.8"filter="url(#shadow)"/><circle cx="322" cy="109" r="14"fill="" stroke="none"fill-opacity="0.8"filter="url(#shadow)"/><circle cx="266" cy="12" r="42"fill="#637939" stroke="none"fill-opacity="0.8"filter="url(#shadow)"/><circle cx="659" cy="539" r="18"fill="#ce6dbd" stroke="none"fill-opacity="0.8"filter="url(#shadow)"/><circle cx="347" cy="437" r="9"fill="#e7ba52" stroke="none"fill-opacity="0.8"filter="url(#shadow)"/><circle cx="341" cy="833" r="20"fill="#e7ba52" stroke="none"fill-opacity="0.8"filter="url(#shadow)"/><circle cx="582" cy="507" r="16"fill="#ad494a" stroke="none"fill-opacity="0.8"filter="url(#shadow)"/><circle cx="207" cy="246" r="19"fill="#637939" stroke="none"fill-opacity="0.8"filter="url(#shadow)"/><circle cx="895" cy="390" r="14"fill="" stroke="none"fill-opacity="0.8"filter="url(#shadow)"/><circle cx="195" cy="631" r="28"fill="#8c6d31" stroke="none"fill-opacity="0.8"filter="url(#shadow)"/><circle cx="98" cy="986" r="15"fill="#bd9e39" stroke="none"fill-opacity="0.8"filter="url(#shadow)"/><circle cx="798" cy="670" r="21"fill="" stroke="none"fill-opacity="0.8"filter="url(#shadow)"/><circle cx="253" cy="577" r="14"fill="#9c9ede" stroke="none"fill-opacity="0.8"filter="url(#shadow)"/><circle cx="184" cy="290" r="28"fill="#637939" stroke="none"fill-opacity="0.8"filter="url(#shadow)"/><circle cx="690" cy="267" r="27"fill="#9c9ede" stroke="none"fill-opacity="0.8"filter="url(#shadow)"/><circle cx="840" cy="884" r="23"fill="#b5cf6b" stroke="none"fill-opacity="0.8"filter="url(#shadow)"/><circle cx="814" cy="418" r="23"fill="#e7969c" stroke="none"fill-opacity="0.8"filter="url(#shadow)"/><circle cx="719" cy="89" r="8"fill="" stroke="none"fill-opacity="0.8"filter="url(#shadow)"/><circle cx="199" cy="679" r="9"fill="#7b4173" stroke="none"fill-opacity="0.8"filter="url(#shadow)"/><circle cx="69" cy="375" r="10"fill="#e7cb94" stroke="none"fill-opacity="0.8"filter="url(#shadow)"/><circle cx="689" cy="997" r="9"fill="#bd9e39" stroke="none"fill-opacity="0.8"filter="url(#shadow)"/><circle cx="771" cy="474" r="10"fill="#7b4173" stroke="none"fill-opacity="0.8"filter="url(#shadow)"/><circle cx="632" cy="88" r="8"fill="#8ca252" stroke="none"fill-opacity="0.8"filter="url(#shadow)"/><circle cx="179" cy="212" r="18"fill="#de9ed6" stroke="none"fill-opacity="0.8"filter="url(#shadow)"/><circle cx="896" cy="899" r="30"fill="#cedb9c" stroke="none"fill-opacity="0.8"filter="url(#shadow)"/><circle cx="497" cy="888" r="17"fill="#ad494a" stroke="none"fill-opacity="0.8"filter="url(#shadow)"/><circle cx="501" cy="978" r="36"fill="#cedb9c" stroke="none"fill-opacity="0.8"filter="url(#shadow)"/><circle cx="359" cy="517" r="12"fill="#ce6dbd" stroke="none"fill-opacity="0.8"filter="url(#shadow)"/><circle cx="901" cy="328" r="13"fill="#e7ba52" stroke="none"fill-opacity="0.8"filter="url(#shadow)"/><circle cx="780" cy="28" r="10"fill="#bd9e39" stroke="none"fill-opacity="0.8"filter="url(#shadow)"/><circle cx="716" cy="966" r="17"fill="#843c39" stroke="none"fill-opacity="0.8"filter="url(#shadow)"/><circle cx="543" cy="600" r="11"fill="#bd9e39" stroke="none"fill-opacity="0.8"filter="url(#shadow)"/><circle cx="78" cy="6" r="9"fill="#a55194" stroke="none"fill-opacity="0.8"filter="url(#shadow)"/><circle cx="643" cy="271" r="20"fill="#393b79" stroke="none"fill-opacity="0.8"filter="url(#shadow)"/><circle cx="638" cy="680" r="9"fill="#e7ba52" stroke="none"fill-opacity="0.8"filter="url(#shadow)"/><circle cx="721" cy="517" r="11"fill="#9c9ede" stroke="none"fill-opacity="0.8"filter="url(#shadow)"/><circle cx="538" cy="935" r="14"fill="#ce6dbd" stroke="none"fill-opacity="0.8"filter="url(#shadow)"/><circle cx="156" cy="183" r="16"fill="#393b79" stroke="none"fill-opacity="0.8"filter="url(#shadow)"/><circle cx="733" cy="226" r="18"fill="#cedb9c" stroke="none"fill-opacity="0.8"filter="url(#shadow)"/><circle cx="496" cy="641" r="8"fill="#e7cb94" stroke="none"fill-opacity="0.8"filter="url(#shadow)"/><circle cx="590" cy="660" r="13"fill="#b5cf6b" stroke="none"fill-opacity="0.8"filter="url(#shadow)"/><circle cx="643" cy="593" r="12"fill="#8c6d31" stroke="none"fill-opacity="0.8"filter="url(#shadow)"/><circle cx="127" cy="235" r="8"fill="#9c9ede" stroke="none"fill-opacity="0.8"filter="url(#shadow)"/><circle cx="697" cy="851" r="10"fill="#ad494a" stroke="none"fill-opacity="0.8"filter="url(#shadow)"/><circle cx="130" cy="725" r="9"fill="#e7969c" stroke="none"fill-opacity="0.8"filter="url(#shadow)"/><circle cx="351" cy="72" r="26"fill="#843c39" stroke="none"fill-opacity="0.8"filter="url(#shadow)"/><circle cx="17" cy="828" r="13"fill="#7b4173" stroke="none"fill-opacity="0.8"filter="url(#shadow)"/><circle cx="575" cy="110" r="9"fill="#de9ed6" stroke="none"fill-opacity="0.8"filter="url(#shadow)"/><circle cx="321" cy="647" r="16"fill="#ad494a" stroke="none"fill-opacity="0.8"filter="url(#shadow)"/><circle cx="265" cy="540" r="14"fill="#d6616b" stroke="none"fill-opacity="0.8"filter="url(#shadow)"/><circle cx="549" cy="66" r="11"fill="#5254a3" stroke="none"fill-opacity="0.8"filter="url(#shadow)"/><circle cx="318" cy="45" r="9"fill="#ce6dbd" stroke="none"fill-opacity="0.8"filter="url(#shadow)"/><circle cx="131" cy="141" r="10"fill="#843c39" stroke="none"fill-opacity="0.8"filter="url(#shadow)"/><circle cx="581" cy="948" r="13"fill="#a55194" stroke="none"fill-opacity="0.8"filter="url(#shadow)"/><circle cx="693" cy="715" r="22"fill="#ce6dbd" stroke="none"fill-opacity="0.8"filter="url(#shadow)"/><circle cx="261" cy="661" r="11"fill="#5254a3" stroke="none"fill-opacity="0.8"filter="url(#shadow)"/><circle cx="38" cy="514" r="23"fill="#cedb9c" stroke="none"fill-opacity="0.8"filter="url(#shadow)"/><circle cx="560" cy="968" r="15"fill="#e7cb94" stroke="none"fill-opacity="0.8"filter="url(#shadow)"/><circle cx="198" cy="993" r="21"fill="#393b79" stroke="none"fill-opacity="0.8"filter="url(#shadow)"/><circle cx="366" cy="181" r="14"fill="#ad494a" stroke="none"fill-opacity="0.8"filter="url(#shadow)"/><circle cx="328" cy="758" r="13"fill="#de9ed6" stroke="none"fill-opacity="0.8"filter="url(#shadow)"/><circle cx="965" cy="873" r="10"fill="#bd9e39" stroke="none"fill-opacity="0.8"filter="url(#shadow)"/><circle cx="345" cy="484" r="14"fill="#843c39" stroke="none"fill-opacity="0.8"filter="url(#shadow)"/><circle cx="187" cy="430" r="10"fill="#e7ba52" stroke="none"fill-opacity="0.8"filter="url(#shadow)"/><circle cx="342" cy="531" r="9"fill="#843c39" stroke="none"fill-opacity="0.8"filter="url(#shadow)"/><circle cx="985" cy="64" r="16"fill="#ce6dbd" stroke="none"fill-opacity="0.8"filter="url(#shadow)"/><circle cx="621" cy="4" r="38"fill="#e7969c" stroke="none"fill-opacity="0.8"filter="url(#shadow)"/><circle cx="11" cy="673" r="12"fill="#de9ed6" stroke="none"fill-opacity="0.8"filter="url(#shadow)"/><circle cx="970" cy="996" r="17"fill="" stroke="none"fill-opacity="0.8"filter="url(#shadow)"/><circle cx="907" cy="614" r="15"fill="#e7cb94" stroke="none"fill-opacity="0.8"filter="url(#shadow)"/><circle cx="885" cy="125" r="12"fill="" stroke="none"fill-opacity="0.8"filter="url(#shadow)"/><circle cx="401" cy="540" r="16"fill="#e7969c" stroke="none"fill-opacity="0.8"filter="url(#shadow)"/><circle cx="212" cy="210" r="15"fill="#6b6ecf" stroke="none"fill-opacity="0.8"filter="url(#shadow)"/><circle cx="459" cy="952" r="9"fill="#6b6ecf" stroke="none"fill-opacity="0.8"filter="url(#shadow)"/><circle cx="412" cy="183" r="13"fill="#d6616b" stroke="none"fill-opacity="0.8"filter="url(#shadow)"/><circle cx="2" cy="995" r="10"fill="#e7ba52" stroke="none"fill-opacity="0.8"filter="url(#shadow)"/><circle cx="257" cy="841" r="18"fill="#6b6ecf" stroke="none"fill-opacity="0.8"filter="url(#shadow)"/><circle cx="777" cy="604" r="13"fill="#e7ba52" stroke="none"fill-opacity="0.8"filter="url(#shadow)"/><circle cx="17" cy="783" r="16"fill="#9c9ede" stroke="none"fill-opacity="0.8"filter="url(#shadow)"/><circle cx="281" cy="405" r="13"fill="#bd9e39" stroke="none"fill-opacity="0.8"filter="url(#shadow)"/><circle cx="537" cy="565" r="12"fill="" stroke="none"fill-opacity="0.8"filter="url(#shadow)"/><circle cx="584" cy="295" r="16"fill="#de9ed6" stroke="none"fill-opacity="0.8"filter="url(#shadow)"/><circle cx="445" cy="373" r="14"fill="#7b4173" stroke="none"fill-opacity="0.8"filter="url(#shadow)"/><circle cx="3" cy="235" r="15"fill="#8c6d31" stroke="none"fill-opacity="0.8"filter="url(#shadow)"/><circle cx="434" cy="535" r="9"fill="" stroke="none"fill-opacity="0.8"filter="url(#shadow)"/><circle cx="438" cy="949" r="10"fill="#9c9ede" stroke="none"fill-opacity="0.8"filter="url(#shadow)"/><circle cx="558" cy="89" r="13"fill="#393b79" stroke="none"fill-opacity="0.8"filter="url(#shadow)"/><circle cx="932" cy="845" r="13"fill="#9c9ede" stroke="none"fill-opacity="0.8"filter="url(#shadow)"/><circle cx="131" cy="869" r="13"fill="#5254a3" stroke="none"fill-opacity="0.8"filter="url(#shadow)"/><circle cx="230" cy="996" r="8"fill="#843c39" stroke="none"fill-opacity="0.8"filter="url(#shadow)"/><circle cx="378" cy="623" r="11"fill="#e7ba52" stroke="none"fill-opacity="0.8"filter="url(#shadow)"/><circle cx="901" cy="852" r="10"fill="#8c6d31" stroke="none"fill-opacity="0.8"filter="url(#shadow)"/><circle cx="346" cy="132" r="13"fill="#ce6dbd" stroke="none"fill-opacity="0.8"filter="url(#shadow)"/><circle cx="243" cy="645" r="9"fill="#e7ba52" stroke="none"fill-opacity="0.8"filter="url(#shadow)"/><circle cx="812" cy="472" r="10"fill="" stroke="none"fill-opacity="0.8"filter="url(#shadow)"/><circle cx="623" cy="125" r="12"fill="" stroke="none"fill-opacity="0.8"filter="url(#shadow)"/><circle cx="235" cy="279" r="13"fill="#b5cf6b" stroke="none"fill-opacity="0.8"filter="url(#shadow)"/><circle cx="698" cy="780" r="10"fill="#a55194" stroke="none"fill-opacity="0.8"filter="url(#shadow)"/><circle cx="760" cy="656" r="10"fill="#ad494a" stroke="none"fill-opacity="0.8"filter="url(#shadow)"/><circle cx="365" cy="709" r="12"fill="#8c6d31" stroke="none"fill-opacity="0.8"filter="url(#shadow)"/><circle cx="748" cy="586" r="19"fill="#bd9e39" stroke="none"fill-opacity="0.8"filter="url(#shadow)"/><circle cx="9" cy="976" r="10"fill="#5254a3" stroke="none"fill-opacity="0.8"filter="url(#shadow)"/><circle cx="512" cy="693" r="13"fill="#637939" stroke="none"fill-opacity="0.8"filter="url(#shadow)"/><circle cx="830" cy="978" r="14"fill="#de9ed6" stroke="none"fill-opacity="0.8"filter="url(#shadow)"/><circle cx="172" cy="676" r="9"fill="#5254a3" stroke="none"fill-opacity="0.8"filter="url(#shadow)"/><circle cx="601" cy="887" r="16"fill="#e7ba52" stroke="none"fill-opacity="0.8"filter="url(#shadow)"/><circle cx="88" cy="417" r="10"fill="#5254a3" stroke="none"fill-opacity="0.8"filter="url(#shadow)"/><circle cx="325" cy="708" r="11"fill="#393b79" stroke="none"fill-opacity="0.8"filter="url(#shadow)"/><circle cx="547" cy="395" r="18"fill="#8ca252" stroke="none"fill-opacity="0.8"filter="url(#shadow)"/><circle cx="487" cy="87" r="20"fill="#e7cb94" stroke="none"fill-opacity="0.8"filter="url(#shadow)"/><circle cx="12" cy="754" r="10"fill="#6b6ecf" stroke="none"fill-opacity="0.8"filter="url(#shadow)"/><circle cx="138" cy="964" r="10"fill="#393b79" stroke="none"fill-opacity="0.8"filter="url(#shadow)"/><circle cx="752" cy="841" r="13"fill="#e7969c" stroke="none"fill-opacity="0.8"filter="url(#shadow)"/><circle cx="595" cy="990" r="8"fill="#e7969c" stroke="none"fill-opacity="0.8"filter="url(#shadow)"/><circle cx="18" cy="947" r="18"fill="#bd9e39" stroke="none"fill-opacity="0.8"filter="url(#shadow)"/><circle cx="627" cy="326" r="16"fill="#843c39" stroke="none"fill-opacity="0.8"filter="url(#shadow)"/><circle cx="5" cy="404" r="17"fill="#393b79" stroke="none"fill-opacity="0.8"filter="url(#shadow)"/><circle cx="537" cy="116" r="9"fill="#a55194" stroke="none"fill-opacity="0.8"filter="url(#shadow)"/><circle cx="305" cy="389" r="11"fill="#7b4173" stroke="none"fill-opacity="0.8"filter="url(#shadow)"/><circle cx="214" cy="435" r="8"fill="#bd9e39" stroke="none"fill-opacity="0.8"filter="url(#shadow)"/><circle cx="63" cy="28" r="8"fill="#ad494a" stroke="none"fill-opacity="0.8"filter="url(#shadow)"/><circle cx="756" cy="255" r="14"fill="#637939" stroke="none"fill-opacity="0.8"filter="url(#shadow)"/><circle cx="675" cy="579" r="13"fill="#e7cb94" stroke="none"fill-opacity="0.8"filter="url(#shadow)"/><circle cx="238" cy="615" r="8"fill="#e7969c" stroke="none"fill-opacity="0.8"filter="url(#shadow)"/><circle cx="304" cy="293" r="8"fill="#9c9ede" stroke="none"fill-opacity="0.8"filter="url(#shadow)"/><circle cx="378" cy="101" r="10"fill="#843c39" stroke="none"fill-opacity="0.8"filter="url(#shadow)"/><circle cx="166" cy="416" r="8"fill="#e7cb94" stroke="none"fill-opacity="0.8"filter="url(#shadow)"/><circle cx="345" cy="249" r="13"fill="#d6616b" stroke="none"fill-opacity="0.8"filter="url(#shadow)"/><circle cx="423" cy="101" r="10"fill="#e7ba52" stroke="none"fill-opacity="0.8"filter="url(#shadow)"/><circle cx="877" cy="429" r="16"fill="" stroke="none"fill-opacity="0.8"filter="url(#shadow)"/><circle cx="747" cy="690" r="18"fill="#8ca252" stroke="none"fill-opacity="0.8"filter="url(#shadow)"/><circle cx="61" cy="755" r="13"fill="#6b6ecf" stroke="none"fill-opacity="0.8"filter="url(#shadow)"/><circle cx="931" cy="546" r="11"fill="#e7ba52" stroke="none"fill-opacity="0.8"filter="url(#shadow)"/><circle cx="908" cy="182" r="26"fill="#d6616b" stroke="none"fill-opacity="0.8"filter="url(#shadow)"/><circle cx="35" cy="809" r="13"fill="" stroke="none"fill-opacity="0.8"filter="url(#shadow)"/><circle cx="613" cy="659" r="9"fill="#a55194" stroke="none"fill-opacity="0.8"filter="url(#shadow)"/><circle cx="228" cy="303" r="10"fill="#5254a3" stroke="none"fill-opacity="0.8"filter="url(#shadow)"/><circle cx="856" cy="692" r="18"fill="#e7cb94" stroke="none"fill-opacity="0.8"filter="url(#shadow)"/><circle cx="250" cy="459" r="12"fill="" stroke="none"fill-opacity="0.8"filter="url(#shadow)"/><circle cx="636" cy="54" r="10"fill="#de9ed6" stroke="none"fill-opacity="0.8"filter="url(#shadow)"/><circle cx="631" cy="233" r="15"fill="#6b6ecf" stroke="none"fill-opacity="0.8"filter="url(#shadow)"/><circle cx="514" cy="397" r="9"fill="#e7969c" stroke="none"fill-opacity="0.8"filter="url(#shadow)"/><circle cx="561" cy="652" r="13"fill="#ce6dbd" stroke="none"fill-opacity="0.8"filter="url(#shadow)"/><circle cx="695" cy="929" r="12"fill="#bd9e39" stroke="none"fill-opacity="0.8"filter="url(#shadow)"/><circle cx="697" cy="317" r="9"fill="#a55194" stroke="none"fill-opacity="0.8"filter="url(#shadow)"/><circle cx="582" cy="55" r="15"fill="#8c6d31" stroke="none"fill-opacity="0.8"filter="url(#shadow)"/><circle cx="285" cy="506" r="9"fill="#a55194" stroke="none"fill-opacity="0.8"filter="url(#shadow)"/><circle cx="201" cy="951" r="13"fill="#a55194" stroke="none"fill-opacity="0.8"filter="url(#shadow)"/><circle cx="390" cy="464" r="19"fill="#8c6d31" stroke="none"fill-opacity="0.8"filter="url(#shadow)"/><circle cx="493" cy="669" r="12"fill="#d6616b" stroke="none"fill-opacity="0.8"filter="url(#shadow)"/><circle cx="749" cy="57" r="21"fill="#393b79" stroke="none"fill-opacity="0.8"filter="url(#shadow)"/><circle cx="88" cy="451" r="10"fill="#cedb9c" stroke="none"fill-opacity="0.8"filter="url(#shadow)"/><circle cx="299" cy="822" r="8"fill="#843c39" stroke="none"fill-opacity="0.8"filter="url(#shadow)"/><circle cx="634" cy="903" r="9"fill="#e7969c" stroke="none"fill-opacity="0.8"filter="url(#shadow)"/><circle cx="398" cy="161" r="11"fill="#ce6dbd" stroke="none"fill-opacity="0.8"filter="url(#shadow)"/><circle cx="235" cy="661" r="8"fill="#6b6ecf" stroke="none"fill-opacity="0.8"filter="url(#shadow)"/><circle cx="335" cy="226" r="10"fill="#9c9ede" stroke="none"fill-opacity="0.8"filter="url(#shadow)"/><circle cx="363" cy="158" r="9"fill="#637939" stroke="none"fill-opacity="0.8"filter="url(#shadow)"/><circle cx="339" cy="415" r="10"fill="#9c9ede" stroke="none"fill-opacity="0.8"filter="url(#shadow)"/></svg>